<svg xmlns="http://www.w3.org/2000/svg" version="1.1" width="600px" height="600px" viewBox="0 0 200 200" style="overflow:hidden!important;"><g id="svga-group-wrapper"><g id="svga-group-backs-single"><path id="SvgjsPath19763" d="M0 0h200v200H0V0z" fill="#00a8c6" stroke-width="none" opacity="1"></path><path id="SvgjsPath19764" d="M100 124.2c-13.3 0-24.2-10.8-24.2-24.2S86.7 75.8 100 75.8s24.2 10.8 24.2 24.2-10.9 24.2-24.2 24.2zm0-42.4c-10 0-18.2 8.2-18.2 18.2s8.2 18.2 18.2 18.2 18.2-8.2 18.2-18.2S110 81.8 100 81.8zm0 57.4c-21.6 0-39.2-17.6-39.2-39.2S78.4 60.8 100 60.8s39.2 17.6 39.2 39.2-17.6 39.2-39.2 39.2zm0-72.4c-18.3 0-33.2 14.9-33.2 33.2s14.9 33.2 33.2 33.2 33.2-14.9 33.2-33.2-14.9-33.2-33.2-33.2zm0 87.5c-29.9 0-54.3-24.4-54.3-54.3S70.1 45.7 100 45.7 154.3 70 154.3 100s-24.4 54.3-54.3 54.3zm0-102.6c-26.6 0-48.3 21.7-48.3 48.3 0 26.6 21.7 48.3 48.3 48.3 26.6 0 48.3-21.7 48.3-48.3 0-26.6-21.7-48.3-48.3-48.3zm0 116.4c-37.6 0-68.1-30.6-68.1-68.1S62.4 31.9 100 31.9s68.1 30.6 68.1 68.1-30.5 68.1-68.1 68.1zm0-130.2c-34.2 0-62.1 27.9-62.1 62.1s27.9 62.1 62.1 62.1 62.1-27.9 62.1-62.1-27.9-62.1-62.1-62.1zm0 146.2c-46.4 0-84.1-37.7-84.1-84.1S53.6 15.9 100 15.9s84.1 37.7 84.1 84.1-37.7 84.1-84.1 84.1zm0-162.2c-43.1 0-78.1 35-78.1 78.1s35 78.1 78.1 78.1 78.1-35.1 78.1-78.1-35-78.1-78.1-78.1zm0 90c-6.6 0-11.9-5.4-11.9-11.9 0-6.6 5.4-11.9 11.9-11.9 6.6 0 11.9 5.4 11.9 11.9 0 6.6-5.3 11.9-11.9 11.9zm0-17.8c-3.3 0-5.9 2.7-5.9 5.9 0 3.3 2.7 5.9 5.9 5.9 3.3 0 5.9-2.7 5.9-5.9 0-3.3-2.6-5.9-5.9-5.9zM0 146.7v12.8c9.9 16.6 23.9 30.6 40.5 40.5h12.8C29.9 189 11 170.1 0 146.7zm200 0c-11 23.4-29.9 42.3-53.3 53.3h12.8c16.6-9.9 30.6-23.9 40.5-40.5v-12.8zm0-93.4V40.5C190.1 23.9 176.1 9.9 159.5 0h-12.8C170.1 11 189 29.9 200 53.3zm-200 0C11 29.9 29.9 11 53.3 0H40.5C23.9 9.9 9.9 23.9 0 40.5v12.8zm200 36.3C195.1 42.5 157.6 4.9 110.4 0H89.6C42.5 4.9 4.9 42.5 0 89.6v20.8c4.9 47.1 42.5 84.7 89.6 89.6h20.8c47.1-4.9 84.7-42.4 89.6-89.6V89.6zM100 194.5c-52.1 0-94.5-42.4-94.5-94.5S47.9 5.5 100 5.5s94.5 42.4 94.5 94.5-42.4 94.5-94.5 94.5zM0 176.2v9.5c4.4 5.1 9.1 9.9 14.3 14.3h9.5c-9-6.8-17-14.8-23.8-23.8zm200 0c-6.8 8.9-14.8 16.9-23.8 23.8h9.5c5.1-4.4 9.9-9.1 14.3-14.3v-9.5zM0 23.8c6.8-9 14.8-17 23.8-23.8h-9.5C9.1 4.4 4.4 9.1 0 14.3v9.5zm200 0v-9.5c-4.4-5.1-9.1-9.9-14.3-14.3h-9.5c9 6.8 17 14.8 23.8 23.8z" fill="#009bb7" stroke-width="none" opacity="1"></path></g><g id="svga-group-humanwrap-move" transform="matrix(1,0,0,1,0,0)"><g id="svga-group-humanwrap"><g id="svga-group-hair-back-move" transform="matrix(1,0,0,1,0,0)"><g id="svga-group-hair-back"><path id="SvgjsPath19719" d="M139.1 146.3c-1.2-4.6-2.1-9.2-2.7-13.9-.6-4.4-1-8.8-1-13.2-.1-3.7.5-7.6-.3-11.2.9-2.2.6-5.1-1.8-6.3-9.1-4.6-18.9-4.9-28.8-3.8-10.8 1.2-21.8 3.9-32.3.3-.3-.1-.7-.2-1.1-.2-.1-.4-.2-.9-.3-1.3-.6-2.2-4-2.3-4.5 0-.5 2.4-.7 4.9-.7 7.3-.4 2.4-.3 5.1-.1 7.8-.2 5.4-.6 10.9-1.2 16.3-.6 5.6-1.4 11.3-2.5 16.9-.9 4.9-2.8 10.2-2.4 15.2.1 1.3 1.7 1.7 2.5.7 2-2.8 3-6.3 3.8-9.8-.2 2.4-.5 4.8-.8 7.2-.7 5.7-3.9 13.6-1.9 19.2.5 1.2 2 1.8 3 .8 1.4-1.4 2.3-3.2 3-5.2.2 1.8.7 3.4 1.7 4.7.6.8 2 1.3 2.8.4 2-2.4 2.3-5.7 2.2-8.9.6 2.5 1.4 4.8 2.7 6.8 1.2 1.9 3.7 1.4 4.5-.6 1.1-2.9 1.2-5.9 1.1-8.9.3.4.5.8.9 1.2.5.6 1.6.4 1.9-.2.8-1.6 1.1-3.3 1.2-5.1.8.4 1.7.7 2.6.7.6-.3 1.4-.4 2.2-.4 4.2.1 8.3 1.2 12.4 2.3 3 .8 5.9 1.7 8.3 3.7.4.4.8.7 1 1.1v.1c.5.8.7 1.6.6 2.4.7.7 2.1.4 2.3-.6.3-1 .5-2 .7-3.1.2 2.2.4 4.4 1 6.5.7 2.6 4.2 2.3 5 0 2.8-8 1.6-18.1 1.3-26.5-.1-1.7-.1-3.4-.2-5.1.2 1.8.4 3.6.6 5.3.4 4.9.9 9.9 1.2 14.9.2 3.9-.8 9.4 2.5 12.1.5.4 1.5.8 2.1.3 3.4-2.6 2.7-6.6 2.4-10.6-.3-5.6-.9-11.1-1.5-16.7-.1-.6-.1-1.2-.2-1.8.9 3.7 1.7 7.7 4.7 10.2 1.1.9 3.1.7 3.4-.9.8-3.5-.4-6.6-1.3-10.1z" fill="#000000" stroke-width="none" opacity="1"></path><path id="SvgjsPath19720" d="M68 121.5c-1-2.3-1.4-4.6-1-7.1 0-.3.5-.2.5.1-.3 2.3 0 4.6 1 6.7.1.4-.3.6-.5.3zm-1.4 4c1.2-.6 2.2-1.6 2.8-2.8.1-.3-.3-.5-.4-.2-.5 1.2-1.4 2.1-2.6 2.6-.3.1-.1.5.2.4zm.4 5.9c-.5-.7-.7-1.6-.6-2.5.1-.3-.4-.4-.5-.1-.2 1 0 2 .6 2.9.3.2.7 0 .5-.3zm-1.3 4.4c1.3-1.2 2-2.8 2.2-4.6 0-.3-.5-.3-.5 0-.1 1.6-.8 3.1-2 4.2-.3.3.1.6.3.4zm-.1 3.6c-.5-1.2-.7-2.4-.6-3.7 0-.3-.5-.3-.5 0-.1 1.4.1 2.7.7 3.9.1.4.5.1.4-.2zm-1.1 5.6c1.2-1.3 1.8-2.9 1.9-4.6 0-.3-.5-.3-.5 0-.1 1.6-.7 3.1-1.8 4.3-.2.1.2.5.4.3zm-.8.7c0-.3-.5-.3-.5 0-.1 1.2.2 2.3.8 3.3.2.3.6 0 .4-.2-.5-1-.8-2-.7-3.1zm0 5.3c-.3 1.3-1.1 2.4-2.2 3-.3.2 0 .6.2.4 1.3-.7 2.1-1.9 2.5-3.3.1-.3-.4-.4-.5-.1zm1.8 17.8c0-.3-.5-.3-.5 0-.1 1.6.5 3.2 1.5 4.5.2.2.5-.1.3-.4-.9-1.2-1.4-2.7-1.3-4.1zm.8-5.4c0-.3-.5-.3-.5 0-.1 1.9.6 3.6 1.9 5 .2.2.6-.1.3-.4-1.2-1.2-1.8-2.9-1.7-4.6zm1.8-4.1c.3 1.4.1 2.8-.5 4.1-.1.3.3.5.4.2.7-1.4.9-2.9.6-4.5-.1-.2-.6-.1-.5.2zm-1.5-5.9c-.5 1.2 0 2.6 1 3.3.3.2.5-.2.2-.4-.9-.6-1.2-1.7-.8-2.7.2-.4-.3-.5-.4-.2zm3.7-4.4c0 1.4-.3 2.7-.9 4-.1.3.3.5.4.3.7-1.3 1-2.7 1-4.2 0-.4-.5-.4-.5-.1zm-1.5-2.6c.1-.3-.4-.4-.5-.1-.5 1.4-.3 2.8.3 4.2.2.3.6 0 .4-.3-.6-1.2-.6-2.5-.2-3.8zm1.7-1.1c1.2-1.2 1.6-3.1 1-4.7-.1-.3-.6-.2-.5.1.6 1.5.3 3.1-.8 4.2-.3.3.1.6.3.4zm-.2-3.8c-1-1.3-.9-3.1.3-4.3.2-.2-.1-.6-.3-.3-1.4 1.3-1.5 3.5-.3 5 .2.2.5-.1.3-.4zm1.9-6.7c-.1-.3-.6-.2-.5.1.3 1 .2 2.1-.4 3-.2.3.2.5.4.3.7-1.1.9-2.3.5-3.4zm-1-5.3c-1.2 1.3-1.6 3.1-1.1 4.8.1.3.6.2.5-.1-.5-1.5-.1-3.1 1-4.3.2-.3-.2-.7-.4-.4zm1.2 1c.3-1.4.2-2.7-.1-4.1-.1-.3-.6-.2-.5.1.4 1.3.4 2.5.1 3.8-.1.4.4.5.5.2zm0-6.9c-.9.6-1.4 1.6-1.4 2.7 0 .3.5.3.5 0 0-.9.4-1.8 1.2-2.3.2-.2-.1-.6-.3-.4zm1.3 50.1c-.7.3-1.5-.2-1.4-1 0-.3-.5-.3-.5 0 0 1.1 1.2 1.9 2.2 1.4.2-.1 0-.6-.3-.4zm-.2-4.7c.2.8.2 1.6 0 2.4-.1.3.4.5.5.1.2-.9.2-1.8 0-2.7-.1-.3-.6-.1-.5.2zm-1-.5c-.6-1.2-.4-2.7.7-3.6.2-.2-.1-.6-.3-.3-1.2 1.1-1.5 2.8-.7 4.2 0 .2.4 0 .3-.3zm1.2-6.6c.7 1.2.8 2.6.1 3.9-.1.3.3.5.4.2.7-1.4.7-3-.1-4.4-.1-.2-.6 0-.4.3zm-.7-4.2c-.9 1.1-1.2 2.5-.9 3.9.1.3.6.2.5-.1-.3-1.2 0-2.4.8-3.4.1-.3-.2-.7-.4-.4zm1.5-1.6c.6 1.1.5 2.4-.2 3.4-.2.3.2.5.4.3.8-1.2.9-2.7.2-3.9-.1-.4-.6-.1-.4.2zm-1.2-4.5c-.8 1.2-1.1 2.7-.6 4.1.1.3.6.2.5-.1-.4-1.3-.2-2.6.6-3.8.2-.2-.3-.5-.5-.2zm2.1-2.1c.1 1.2 0 2.4-.6 3.5-.1.3.3.5.4.3.6-1.2.8-2.5.7-3.8-.1-.3-.6-.3-.5 0zm-1.4-4.8c-.7 1.2-.8 2.5-.5 3.8.1.3.6.2.5-.1-.3-1.2-.1-2.4.4-3.4.2-.4-.2-.6-.4-.3zm1.1-3.1c.5.9.7 2 .6 3 0 .3.5.3.5 0 .1-1.1-.1-2.3-.7-3.3-.1-.3-.5 0-.4.3zm-1.1-3.1c-.6 1-.8 2.1-.6 3.2.1.3.5.2.5-.1-.2-1 0-1.9.5-2.8.2-.3-.2-.6-.4-.3zm2.2-1.1c0 .9-.1 1.8-.2 2.7 0 .3.5.3.5 0 .1-.9.1-1.8.2-2.7 0-.4-.5-.4-.5 0zm-1.1-4.6c-.8.9-1.2 2.1-1 3.3 0 .3.5.3.5 0-.1-1.1.2-2.1.9-3 .2-.2-.2-.6-.4-.3zm1.8-2c.5.9.6 2 .3 3-.1.3.4.4.5.1.4-1.1.2-2.3-.3-3.4-.3-.2-.7.1-.5.3zm-1.1-1.8c0 .5-.1 1-.2 1.6 0 .3.5.3.5 0 .1-.5.1-1.1.2-1.6 0-.3-.5-.3-.5 0zm4 40c0-.3-.5-.3-.5 0-.2 1.8.4 3.5 1.8 4.8.2.2.6-.1.4-.4-1.3-1.1-1.9-2.7-1.7-4.4zm-.1-4.5c1.5 1.3 2 3.3 1.3 5.1-.1.3.4.4.5.1.7-2 .2-4.2-1.4-5.6-.3-.1-.7.2-.4.4zm.2 2.4c-1.3-2-1.5-4.3-.6-6.5.1-.3-.4-.4-.5-.1-1 2.3-.7 4.8.7 6.9.1.3.5 0 .4-.3zm1.2-4.1c.6-2.3.1-4.6-1.4-6.4-.2-.2-.6.1-.3.4 1.4 1.7 1.9 3.8 1.3 5.9-.1.3.4.4.4.1zm-1.4-10.4c-1.4 1.9-1.7 4.3-1 6.5.1.3.6.2.5-.1-.7-2.1-.4-4.3.9-6.1.2-.3-.2-.6-.4-.3zm1.5-1.9c-.1-.3-.6 0-.4.2.7 1.6.6 3.3-.2 4.8-.2.3.3.5.4.2.9-1.6 1-3.5.2-5.2zm-.9-5.8c-1 1.7-1.2 3.5-.7 5.4.1.3.6.2.5-.1-.5-1.7-.3-3.5.6-5 .2-.4-.2-.6-.4-.3zm.7-1c.9 1.2 1.1 2.7.5 4-.1.3.4.4.5.1.6-1.5.4-3.1-.6-4.4-.1-.2-.5 0-.4.3zm-.7-1.3c.2.3.6 0 .4-.2-.7-1-.6-2.3.3-3.2.2-.2-.1-.6-.3-.4-1.1 1-1.2 2.6-.4 3.8zm2.9-5.1c-.1-.3-.6-.2-.5.1.3 1.4.2 2.7-.3 4.1-.1.3.4.4.5.1.5-1.3.6-2.8.3-4.3zm-1.3 0c-.6-1.6-.5-3.2.2-4.8.1-.3-.3-.5-.4-.2-.8 1.6-.9 3.5-.2 5.2.1.3.5.2.4-.2zm1.9 24.6c-.8 1.4-.9 3.1 0 4.5.2.3.6 0 .4-.3-.7-1.2-.7-2.7 0-4 .2-.2-.2-.5-.4-.2zm.8-7.1c-.7 1.4-1 2.8-1 4.3 0 .3.5.3.5 0 0-1.4.3-2.8.9-4.1.2-.2-.3-.5-.4-.2zm-.1-2.4c.2-1.7.9-3.3 2-4.7.2-.2-.1-.6-.3-.4-1.2 1.4-1.9 3.1-2.2 4.9-.1.3.4.5.5.2zm1.7-11.1c-.9 1.3-1.3 2.7-1.5 4.3 0 .3.5.3.5 0 .1-1.5.6-2.8 1.4-4 .2-.3-.3-.5-.4-.3zm0-1.5c.1-.4.2-.8.4-1.1.1-.3-.4-.4-.5-.1-.1.4-.2.8-.4 1.1-.1.2.4.4.5.1zm29.6 23.6c.1 1.7 0 3.3-.4 4.9-.1.3.4.5.5.1.4-1.7.5-3.3.4-5 0-.4-.5-.4-.5 0zm-.4-1c-1.1-1.8-1.2-3.9-.2-5.8.1-.3-.3-.5-.4-.2-1 2.1-.9 4.4.2 6.3.1.3.5 0 .4-.3zm-.9-8.2c1-1.5 1-3.4 0-4.9-.2-.3-.6 0-.4.2.9 1.4.8 3 0 4.4-.2.3.2.6.4.3zm-1.6-9.1c.1-.3-.4-.4-.5-.1-.5 1.5-.3 3 .4 4.4.1.3.6 0 .4-.2-.6-1.4-.7-2.7-.3-4.1zm1.5-.1c-.1-1.2-.3-2.4-.4-3.6 0-.3-.5-.3-.5 0 .1 1.2.3 2.4.4 3.6.1.3.6.4.5 0zm-1.7-4.2c.4-.7.8-1.4 1.1-2.1.2-.3-.3-.5-.4-.2-.4.7-.8 1.4-1.1 2.1-.2.2.2.5.4.2zm9.2 27.2c.4 1.9.2 3.8-.4 5.6-.1.3.4.4.5.1.6-1.9.8-3.9.4-5.9 0-.3-.5-.1-.5.2zm-2.7-1.6c0-.3-.5-.3-.5 0 .1 1.3.6 2.5 1.4 3.6.2.3.6 0 .4-.2-.7-1.1-1.2-2.2-1.3-3.4zm3-.5c.5-1.7.5-3.4 0-5.1-.1-.3-.6-.2-.5.1.5 1.6.5 3.2 0 4.8 0 .4.4.5.5.2zm-2.1-3.2c-1.2-1.9-1.4-4.2-.5-6.3.1-.3-.4-.4-.5-.1-.9 2.2-.7 4.7.6 6.7.1.2.6 0 .4-.3zm1.7-10.1c-.1-.3-.6 0-.4.2.8 1.8.6 3.7-.5 5.3-.2.3.3.5.4.3 1.2-1.8 1.3-3.9.5-5.8zm-2.5-4.4c-.6 1.8-.6 3.5 0 5.3.1.3.6.2.5-.1-.5-1.7-.5-3.4 0-5 0-.4-.4-.5-.5-.2zm1.7-3.4c.8 1.8.9 3.7.3 5.5-.1.3.4.4.5.1.7-2 .6-4-.3-5.9-.2-.3-.6 0-.5.3zm-1.6 1.5c.3.1.5-.3.2-.4-1.4-.7-1.9-2.6-1-3.9.2-.3-.3-.5-.4-.2-1 1.4-.5 3.6 1.2 4.5zm1-3.3c.8-2.3.8-4.7 0-7-.1-.3-.6-.2-.5.1.8 2.2.8 4.5 0 6.7-.1.3.4.5.5.2zm-2.4-3.4c-.5-1.9-.2-3.8.7-5.5.2-.3-.3-.5-.4-.2-1 1.8-1.3 3.9-.7 5.9.1.3.5.1.4-.2zm2.2-8.4c.6.8.6 1.8 0 2.6-.2.3.2.5.4.2.7-1 .6-2.2-.1-3.2-.2-.2-.5.2-.3.4zm-3.6 3.8c-.3 1.1-.6 2.3-1 3.4-.1.3.4.4.5.1.3-1.1.6-2.3 1-3.4.1-.2-.4-.4-.5-.1zm14.7 32.6c.5 1.7.4 3.4-.4 5-.1.3.3.5.4.3.9-1.7 1-3.6.4-5.4 0-.3-.5-.2-.4.1zm-3-1.8c-.1-.3-.5-.2-.5.1.2 1.6.9 3.1 1.8 4.4.2.3.6 0 .4-.2-.9-1.3-1.4-2.8-1.7-4.3zm2.9-.5c.6-1.9.5-3.8-.2-5.7-.1-.3-.6-.2-.5.1.7 1.8.8 3.6.2 5.4-.1.4.4.5.5.2zm-3-8.5c-.3 2.2-.2 4.3.4 6.4.1.3.6.2.5-.1-.6-2-.7-4.1-.4-6.2.1-.3-.4-.4-.5-.1zm2-5.6c-.1-.3-.6 0-.4.2.8 1.9.9 3.9.2 5.9-.1.3.4.4.5.1.7-2 .6-4.1-.3-6.2zm-1.7 2.7c-.7-2.1-.8-4.2-.5-6.3 0-.3-.4-.5-.5-.1-.4 2.2-.2 4.4.5 6.6.2.2.6.1.5-.2zm1.2-6.1c.8-1.7.8-3.6.2-5.3-.1-.3-.6-.2-.5.1.6 1.6.6 3.3-.1 5-.2.3.2.5.4.2zm-1.9-4c-.9-2.3-1-4.8-.2-7.1.1-.3-.4-.4-.5-.1-.8 2.5-.7 5 .2 7.4.1.3.6.1.5-.2zm1.6-8.4c.4 1.2.3 2.4-.1 3.5-.1.3.4.4.5.1.5-1.2.5-2.5.1-3.8-.1-.3-.6-.1-.5.2zm-4.9-4.6c.1-.3-.4-.4-.5-.1-.9 2.5-.5 5.2 1.2 7.3.2.3.6-.1.3-.4-1.5-1.9-1.9-4.5-1-6.8zm2.9-3.2c-.1-.3-.6-.2-.5.1.7 2.1.4 4.3-.9 6.1-.2.3.2.5.4.2 1.4-1.8 1.7-4.2 1-6.4zm-.3-2.2c1.1.5 1.9 1.6 1.9 2.8 0 .3.5.3.5 0 0-1.5-.9-2.7-2.3-3.3-.3-.1-.4.4-.1.5zm-1.1-2.2c-1.1 1.5-1.4 3.3-1 5.2.1.3.5.2.5-.1-.4-1.7-.1-3.3.9-4.8.2-.3-.2-.6-.4-.3zm11.7 27.3c-.1-.3-.6 0-.4.2.7 1.4.9 2.9.6 4.4-.1.3.4.5.5.1.2-1.6 0-3.2-.7-4.7zm-3.6-3.9c0-.3-.5-.3-.5 0-.3 2 .7 4 2.5 5 .3.1.5-.3.2-.4-1.6-1-2.4-2.7-2.2-4.6zm1.4-5.6c1 1.9 1.1 3.9.4 5.9-.1.3.4.4.5.1.8-2.1.6-4.3-.4-6.3-.2-.3-.6 0-.5.3zm-1.6 1.4c-1.2-.9-1.8-2.3-1.5-3.8.1-.3-.4-.5-.5-.1-.3 1.7.4 3.3 1.8 4.3.2.2.5-.2.2-.4zm.3-9.5c.8 1.4.9 3 .5 4.6-.1.3.4.4.5.1.4-1.7.2-3.4-.6-5-.1-.2-.6.1-.4.3zm-1 2.7c-1.5-3-1.8-6.3-.8-9.5.1-.3-.4-.4-.5-.1-1 3.3-.7 6.8.8 9.9.3.2.7 0 .5-.3zm.2-5.9c-.1.3.4.4.5.1.5-2.1.5-4.2 0-6.2-.1-.3-.6-.2-.5.1.5 2 .6 4 0 6zm-2.7-9.8c-.7 1.5-.8 3-.3 4.6.1.3.6.2.5-.1-.4-1.4-.4-2.9.3-4.2 0-.4-.4-.6-.5-.3zm2.1 1.2c.5-1.8.4-3.6-.3-5.3-.1-.3-.6-.2-.5.1.6 1.6.7 3.3.3 5-.1.4.4.5.5.2zm-63.2-4.5c1.4-1.5 2.6-3.1 3.5-4.9.2-.3-.3-.5-.4-.2-.9 1.7-2.1 3.3-3.5 4.7-.2.3.1.6.4.4zm-.4-5.6c.2.2.6-.2.4-.3-1.1-.9-1.7-2.2-1.5-3.6 0-.3-.5-.3-.5 0-.2 1.5.4 2.9 1.6 3.9zm.6-4.1c.6-1 1.1-2.1 1.3-3.2.1-.3-.4-.4-.5-.1-.3 1.1-.7 2.1-1.3 3.1-.1.2.3.5.5.2zm3.9 18.3c.7-1.1.9-2.3.5-3.6-.1-.3-.6-.2-.5.1.3 1.1.1 2.2-.5 3.2-.1.3.3.6.5.3zm-.7-3.6c.2-.9.5-1.7 1.1-2.5.2-.2-.2-.6-.4-.3-.6.8-1 1.7-1.2 2.7-.1.2.4.4.5.1zm3-5.6c0-.3-.5-.3-.5 0 .1 1.1-.1 2.1-.7 3-.2.3.3.5.4.2.7-1 .9-2.1.8-3.2zm-1.6.4c-.1-1.1.1-2.2.7-3.1.2-.3-.3-.5-.4-.2-.6 1-.8 2.2-.7 3.4-.1.2.4.3.4-.1zm1.8-3.1c-.3.2 0 .6.2.4 1.1-.6 1.7-2 1.3-3.2-.1-.3-.6-.2-.5.1.4 1.1 0 2.2-1 2.7zm-.4-2.4c-.2-1.1.2-2.3 1-3.1.2-.2-.1-.6-.3-.3-.9 1-1.3 2.3-1.1 3.6 0 .3.5.1.4-.2zm1.8 14.5c-.2-.2-.6.1-.3.3.6.6.8 1.6.4 2.4-.1.3.3.5.4.2.5-.9.3-2.1-.5-2.9zm-1.5-2c-.5 1.1-.5 2.3.1 3.3.2.3.6 0 .4-.2-.5-.9-.6-1.9-.1-2.8.2-.4-.3-.6-.4-.3zm2 .6c.6-1.1.7-2.4.2-3.6-.1-.3-.6-.2-.5.1.4 1 .4 2.2-.1 3.2-.1.3.3.6.4.3zm-1-2.7c-.2-1.1-.1-2.2.3-3.3.1-.3-.4-.4-.5-.1-.5 1.1-.6 2.4-.3 3.6.1.3.6.2.5-.2zm1.5-5.6c.4.8.4 1.8-.2 2.6-.2.2.1.6.3.3.7-.9.8-2.1.3-3.2-.1-.2-.6 0-.4.3zm-.5.9c0-.9.2-1.8.5-2.7.1-.3-.4-.4-.5-.1-.3.9-.5 1.9-.5 2.8 0 .3.5.3.5 0zm1.6-2.5c.4-.7.6-1.4.5-2.2 0-.3-.5-.3-.5 0 .1.7-.1 1.4-.4 2-.2.2.2.4.4.2zm3.8 19.5c.5-1.3.4-2.7-.1-4-.1-.3-.6 0-.4.2.5 1.2.5 2.4.1 3.6-.2.4.3.5.4.2zm-1.5-4.1c-.5-1.1-.4-2.4.1-3.5.1-.3-.3-.5-.4-.2-.6 1.3-.7 2.7-.1 4 .2.3.6 0 .4-.3zm1.8-6.5c-.2-.3-.6 0-.4.2.7 1.1.5 2.4-.4 3.3-.2.2.1.6.4.4 1-1.1 1.1-2.7.4-3.9zm-1 .7c-.5-1.2-.3-2.5.5-3.5.2-.2-.2-.6-.4-.3-1 1.2-1.1 2.7-.5 4.1.1.2.5 0 .4-.3zm1.2-2.1c1-1.1 1.1-2.8.2-4-.2-.3-.6 0-.4.2.8 1 .8 2.4-.1 3.4-.3.3.1.7.3.4zm-1.3-6.9c-.4 1.4-.4 2.7 0 4.1.1.3.6.2.5-.1-.4-1.3-.4-2.5 0-3.8.1-.4-.4-.5-.5-.2zm1.5 1.1c.9-1.2 1-2.9.1-4.2-.2-.3-.6 0-.4.2.8 1.1.8 2.6-.1 3.7-.2.3.2.6.4.3zm-.9-3.3c-.6-1.3-.4-2.8.4-4 .2-.3-.2-.5-.4-.2-1 1.3-1.1 3-.4 4.5.1.3.5 0 .4-.3zm.5-3c-.2.3.1.6.3.4 1-1.4 2.3-3.7.4-4.9-.3-.2-.5.3-.2.4 1.7 1 .4 3-.5 4.1zm-.7-3.5c0-1.1.3-2.1.9-3 .2-.3-.3-.5-.4-.2-.6 1-1 2.1-1 3.3 0 .2.5.2.5-.1zm-4.8 2.2c.7-.9.8-2 .4-3.1-.1-.3-.6 0-.4.2.4.8.2 1.8-.3 2.5-.3.3.1.6.3.4zm-8.8-5.7c-.3-.9-.4-1.8-.1-2.7.1-.3-.4-.4-.5-.1-.3 1-.3 2 .1 2.9.2.3.6.2.5-.1zm19.1 44.1c-.3 1.4-1 2.6-2.1 3.5-.2.2.1.6.3.4 1.1-1 1.9-2.3 2.2-3.7.2-.4-.3-.5-.4-.2zm-2 7.7c.2 1-.4 2-1.4 2.4-.3.1 0 .6.2.4 1.2-.5 1.8-1.7 1.6-3 0-.3-.4-.1-.4.2zm-.1 6.5c-.2.9-.6 1.8-1.3 2.5-.2.2.1.6.3.3.7-.8 1.2-1.7 1.4-2.7.1-.3-.4-.4-.4-.1zm.6-17.7c1.2-1.4 1.7-3.2 1.2-5.1-.1-.3-.6-.2-.5.1.4 1.6 0 3.3-1.1 4.6-.1.3.2.7.4.4zm-.4-6.4c-.7-1.2-.6-2.6 0-3.9.2-.3-.3-.5-.4-.2-.8 1.4-.8 3 0 4.4.2.2.6 0 .4-.3zm1.5-7.3c-.2-.3-.6 0-.4.2.8 1.3.6 3-.4 4.1-.2.2.1.6.3.3 1.2-1.2 1.4-3.1.5-4.6zm-1.7.7c-.6-1.3-.4-2.8.5-4 .2-.2-.2-.6-.4-.3-1 1.3-1.3 2.9-.6 4.5.2.2.7.1.5-.2zm1.7-3.3c.7-1.6 1-3.3.8-5 0-.3-.5-.3-.5 0 .2 1.7-.1 3.2-.7 4.8-.1.2.3.5.4.2zm-.4-4.6c-1.3-1.4-1.1-3.4.3-4.6.2-.2-.1-.6-.4-.4-1.7 1.4-1.8 3.7-.3 5.3.3.3.6 0 .4-.3zm1-7.4c.7 1.3.5 2.8-.4 3.9-.2.3.2.6.4.4 1-1.3 1.2-3.1.4-4.6-.1-.2-.6 0-.4.3zm-.8.2c-.4-1.3-.1-2.6.7-3.7.2-.3-.2-.5-.4-.2-.9 1.2-1.1 2.7-.7 4.1 0 .3.5.2.4-.2zm1.3-6.7c.8 1.1.7 2.6-.2 3.7-.2.2.1.6.4.4 1-1.2 1.2-2.9.3-4.3-.2-.3-.6 0-.5.2zm-1 0c-.3-1.1-.3-2.2.1-3.3.1-.3-.4-.4-.5-.1-.4 1.2-.4 2.4-.1 3.6.1.3.6.1.5-.2zm1.3-2.7c.5-.9.7-1.8.6-2.8 0-.3-.5-.3-.5 0 .1.9-.1 1.8-.5 2.6-.2.3.3.5.4.2zm23.1 26.5c-.2 1.3-.2 2.5.1 3.8.1.3.6.2.5-.1-.3-1.2-.3-2.3-.1-3.5.1-.3-.4-.5-.5-.2zm.6-3.5c1.2 1.2 1.5 3 .5 4.4-.2.3.2.5.4.2 1.1-1.6.8-3.7-.6-5-.2-.2-.5.2-.3.4zm-.6 1c-.5-1.6-.6-3.2-.1-4.8.1-.3-.4-.4-.5-.1-.5 1.7-.4 3.4.1 5.1.1.3.6.2.5-.2zm1-8.3c.9 1.2.9 2.9-.1 4-.2.2.1.6.3.3 1.2-1.4 1.2-3.3.1-4.7-.1-.2-.5.2-.3.4zm-.9 1.2c-.7-1.5-.7-3.1-.3-4.7.1-.3-.4-.4-.5-.1-.5 1.7-.4 3.4.3 5 .2.3.6.1.5-.2zm-.2-7c1 .8 1.1 2.3.4 3.3-.2.3.2.5.4.3.9-1.2.7-2.9-.4-3.9-.3-.3-.7 0-.4.3zm-.6.8c-.6-1-.6-2.2.1-3.1.2-.3-.2-.5-.4-.2-.8 1.1-.8 2.5-.1 3.6.1.2.6-.1.4-.3zm1.3-3c.5-1.2.4-2.5-.4-3.6-.2-.3-.6 0-.4.2.7 1 .8 2.1.3 3.2-.1.4.4.5.5.2zm-1.3-6.6c-.8 1.1-.9 2.4-.5 3.6.1.3.6.2.5-.1-.4-1.1-.2-2.3.4-3.2.2-.3-.2-.5-.4-.3zm-.1-2.4c.8 1.1 1.1 2.4.8 3.8-.1.3.4.4.5.1.4-1.5.1-3-.8-4.2-.3-.2-.7.1-.5.3zm-.6 1.6c-.2-1.2.1-2.3.9-3.3.2-.2-.1-.6-.4-.3-.9 1.1-1.2 2.4-1 3.8.1.3.5.2.5-.2zm1.9-2.4c-.1.3.4.4.5.1.4-1 .3-2.1-.2-3-.2-.3-.6 0-.4.2.4.9.4 1.9.1 2.7zm5.3 23c-.6 1.7-.5 3.5.4 5 .1.3.6 0 .4-.3-.8-1.5-.9-3.1-.3-4.6.1-.3-.4-.4-.5-.1zm-.1-4.1c1.4 1.4 1.8 3.5 1 5.4-.1.3.3.6.4.3.9-2 .5-4.4-1.1-6-.2-.3-.5.1-.3.3zm-.1 1.5c-1.2-1.8-.9-3.9.8-5.2.2-.2-.1-.5-.4-.3-1.8 1.4-2.2 3.9-.8 5.8.2.2.6 0 .4-.3zm0-9.1c1.5 1.4 1.8 3.6.8 5.4-.2.3.3.5.4.3 1.1-2 .7-4.4-.9-6-.2-.3-.5 0-.3.3zm-.2-4c-1.4 1.7-1.6 4.1-.4 6 .2.3.6 0 .4-.2-1.1-1.7-1-3.8.3-5.4.3-.3-.1-.7-.3-.4zm1 1.2c.4-1.7 0-3.3-1.1-4.6-.2-.2-.6.1-.4.4 1 1.2 1.3 2.7 1 4.2 0 .2.5.3.5 0zm-2.5-2.4c-.3-1.6.5-3.2 1.9-3.9.3-.2 0-.6-.2-.4-1.6.9-2.4 2.7-2.1 4.5 0 .2.5.1.4-.2zm1.5-7.1c.4 1.1.8 2.2 1.2 3.2.1.3.6.2.5-.1-.4-1.1-.8-2.2-1.2-3.2-.2-.4-.7-.2-.5.1zm-1.1 1.1c0-1.1.6-2 1.6-2.5.3-.1 0-.6-.2-.4-1.1.5-1.8 1.7-1.8 2.9-.1.3.4.3.4 0zm8.8 14.8c-.2-.2-.6.1-.3.3 1.3 1.1 1.9 2.6 1.9 4.3 0 .3.5.3.5 0 0-1.8-.7-3.4-2.1-4.6zm-.1-3.2c-1.4 1.5-1.9 3.5-1.2 5.4.1.3.6.2.5-.1-.6-1.8-.2-3.6 1.1-4.9.2-.3-.2-.7-.4-.4zm-.5-3c-.3-.2-.5.3-.2.4 1.4.8 2.1 2.5 1.5 4.1-.1.3.4.5.5.1.5-1.8-.2-3.7-1.8-4.6zm-1 2.2c-.9-1.8-.6-3.9.8-5.4.2-.2-.1-.6-.3-.3-1.6 1.6-1.9 4-.9 6 .1.2.5 0 .4-.3zm-.5-8.9c1.3 1.5 1.9 3.3 1.7 5.3 0 .3.5.3.5 0 .2-2.1-.5-4.1-1.8-5.7-.3-.1-.6.2-.4.4zm1-2.5c.3-.2 0-.6-.2-.4-1.7 1-2.5 3.1-1.7 5 .1.3.6.2.5-.1-.8-1.7-.1-3.6 1.4-4.5zm.3 1.4c-.1.3.4.4.5.1.5-1.5 0-3.2-1.2-4.2-.2-.2-.6.1-.4.3 1.2 1 1.6 2.4 1.1 3.8zm6.9 7.4c-1.5 1.5-1.9 3.7-1.2 5.7.1.3.6.2.5-.1-.7-1.8-.3-3.8 1.1-5.2.2-.3-.2-.7-.4-.4zm-.6-3.9c-.3-.2-.5.2-.2.4 1.4 1.1 2.1 2.8 1.8 4.6-.1.3.4.5.5.1.3-2-.5-3.9-2.1-5.1zm-.5 2.5c-.9-1.8-.5-3.8.9-5.1.2-.2-.1-.6-.3-.3-1.6 1.5-2 3.8-1 5.7.1.2.5 0 .4-.3zm1.7-4.2c0 .3.5.3.5 0 0-1.4-.4-2.8-1.1-4-.2-.3-.6 0-.4.2.7 1.3 1 2.5 1 3.8zm-22.4 54.1c.2-.3-.3-.5-.4-.2-1 1.6-.8 3.5.4 4.9.2.2.5-.1.3-.3-1.1-1.4-1.2-3.1-.3-4.4zm-.4-4.1c1.3 1.6 1.7 3.7 1.1 5.7-.1.3.4.4.5.1.6-2.2.2-4.4-1.3-6.2-.2-.2-.5.1-.3.4zm.1-3.6c.2-.2-.1-.5-.3-.3-1.8 1.4-2.6 3.6-2.2 5.9 0 .3.5.2.5-.1-.4-2.2.4-4.2 2-5.5zm.9 1.2c.5-2.3-.2-4.7-2.1-6.2-.2-.2-.6.1-.4.4 1.7 1.4 2.4 3.6 1.9 5.7.1.3.6.4.6.1zm-2.4-10.6c.1-.3-.3-.5-.4-.2-1 2.1-1.4 4.3-1.2 6.7 0 .3.5.3.5 0-.3-2.4.1-4.5 1.1-6.5zm-.7-4.1c-.3-.2-.5.2-.2.4 1.9 1.3 2.5 3.6 1.7 5.7-.1.3.4.4.5.1.9-2.3.1-4.8-2-6.2zm-.6 2.2c-1.1-1.9-.9-4.1.4-5.8.2-.3-.2-.5-.4-.2-1.4 1.9-1.6 4.3-.4 6.3.1.2.5 0 .4-.3zm1.3-3.7c1-1.6 1-3.6 0-5.2-.2-.3-.6 0-.4.2 1 1.5.9 3.2 0 4.7-.2.3.2.6.4.3zm-.5-9.2c-1.1 1.7-1.7 3.6-1.9 5.6 0 .3.5.3.5 0 .2-1.9.9-3.7 1.9-5.3.1-.3-.3-.6-.5-.3zm-.2-2.8c-.3-.2-.5.3-.2.4 1.5.9 2.1 2.8 1.3 4.3-.1.3.3.5.4.2.9-1.7.3-3.9-1.5-4.9zm-1.2 1.8c-.6-1.9-.1-3.9 1.5-5.2.2-.2-.1-.6-.3-.3-1.6 1.4-2.2 3.6-1.6 5.7 0 .3.5.1.4-.2zm1.4-8.1c1 1.2 1.2 2.8.5 4.1-.1.3.3.5.4.3.8-1.6.5-3.4-.6-4.8-.2-.2-.6.1-.3.4zm-.7-4.1c-1.3 1.5-1.5 3.6-.5 5.3.1.3.6 0 .4-.3-.9-1.5-.7-3.3.4-4.7.2-.2-.1-.5-.3-.3zm.8-2.9c.8 1.4.8 3.1 0 4.5-.2.3.3.5.4.2.9-1.5 1-3.4 0-5-.2-.3-.6 0-.4.3zm-1.1-4.3c-.9 1.8-1 3.8-.1 5.6.1.3.6 0 .4-.2-.8-1.6-.8-3.5.1-5.1.2-.4-.2-.6-.4-.3zm.2-2.5c1 .9 1.2 2.2.8 3.5-.1.3.4.4.5.1.5-1.4.2-2.9-.9-4-.2-.1-.6.2-.4.4zm-.7.4c.2-1 .5-2 .8-3 .1-.3-.4-.5-.5-.1-.2 1-.5 2-.8 3 0 .3.4.4.5.1zm1.6-2.7c0 .3.5.3.5 0 0-1-.4-2-1.1-2.7-.2-.2-.6.1-.3.3.6.7.9 1.5.9 2.4z" fill="#ffffff" stroke-width="none" opacity="1"></path></g></g><g id="svga-group-humanbody-back"><path id="SvgjsPath19559" d="M86.5 107c0 18.8 2.7 50.3-8.1 58s-31.8 13.9-36.7 24.4-3.6 29.4-3.6 29.4h124.1s.6-23.1-4.2-30.4c-6.6-10.1-28.5-17.7-36.5-22.9-8.1-5.2-10.9-32.2-10.9-58.8l-24.1.3z" fill="#ffffff" stroke-width="none" opacity="1"></path></g><g id="svga-group-chinshadow-single"></g><g id="svga-group-humanbody-front"><path id="SvgjsPath19560" d="M163.4 220.1H37.2l-.3-.9c-.1-.5-1.3-19.7 3.6-30.3 3.4-7.3 13.6-12.4 23.5-17.4 5.1-2.5 9.9-5 13.6-7.5 8.6-6 8.1-29.8 7.7-47.1-.1-3.5-.1-6.8-.1-9.8v-1.3l26.7-.4v1.3c0 32 3.8 53.5 10.3 57.7 2.4 1.6 6 3.3 10.2 5.4 9.7 4.7 21.9 10.6 26.7 18 5 7.6 4.4 30.9 4.4 31.2l-.1 1.1zm-124.1-2.6h121.6c-.1-2.4-.6-23.2-4-28.4-4.4-6.7-16.2-12.5-25.6-17-4.3-2.1-8-3.9-10.5-5.5-9.8-6.3-11.4-38.8-11.5-58.6l-21.5.4c0 2.6.1 5.5.1 8.5.4 18.9.9 42.4-8.8 49.3-3.8 2.7-8.7 5.1-13.9 7.7-9.5 4.8-19.4 9.7-22.3 16.1-3.3 6.9-3.7 25.9-3.6 27.5z" fill="#000000" stroke-width="none" opacity="1"></path><path id="SvgjsPath19561" d="M76.8 173.7c4.8 2.3 10.4 3.9 15.7 2.9.4-.1.4-.7 0-.8-5.1-.9-10.2-1.4-15.2-3.2-.6-.2-1.1.8-.5 1.1zm31.5 2.4c2.4.3 4.9-.4 7.1-1.2 2.1-.8 4.3-1.7 5.8-3.4.5-.5-.1-1.2-.7-.9-2.1.9-3.9 2.3-6.1 3-2 .7-4.1 1-6.2 1.5-.6.1-.4.9.1 1z" fill="#000000" stroke-width="none" opacity="1"></path></g><g id="svga-group-clothes-single"><path id="SvgjsPath19696" d="M85.2 148.9s-6.4 0-8.1 1.6-6.3 1.9-8.1 7.7c0 0-4.8 5.8-4.5 9l-4.7 5.1s-8.5 3.1-11 4.5c-2.4 1.4-5.6 5.1-5.6 5.1s-4.3 2.7-5.3 5.3c-.9 2.3-2.9 8.9-2 15.4.1.7.2 16.4.4 17.1H164c0-.7.5-.7-.1-16.7-.1-3.3-.5-10.5-1.1-12.6-.8-2.7-5.8-9.3-8.1-9.8 0 0-7.1-6.3-9-7.1s-6.9-2.4-6.9-2.4-5-3.4-6.8-6.9c-.3-.6-4.8-7.9-6.1-8.7 0 0-.5-2.1-3.7-4.5s-8.4-2.9-8.4-2.9.6 2.4 1.3 6.4c.6 4 1 6.6-.2 9.3-1.1 2.7-4.8 5.5-7.6 8.5s-4.5 4.5-6 8.1c0 0-6.3-6.1-10.9-8.4s-6.4-4.2-7.2-7.2c-.6-2.9 2-15.9 2-15.9z" fill="#ffffff" stroke-width="none" opacity="1"></path><path id="SvgjsPath19697" d="M165 203.1c-.1-3.4-.5-10.6-1.1-12.8-.8-2.7-5.6-9.4-8.5-10.4-1.3-1.1-7.2-6.3-9.1-7.1-1.8-.7-6-2.1-6.9-2.4-.7-.5-4.9-3.5-6.3-6.5-.1-.3-4.3-7.2-6.2-8.8-.3-.8-1.2-2.7-4-4.7-3.4-2.6-8.7-3.1-8.9-3.1-.3 0-.6.1-.9.4-.2.2-.3.6-.2.9 0 0 .6 2.4 1.3 6.3.6 3.8.9 6.3-.1 8.8-.7 1.6-2.5 3.4-4.4 5.2-1 1-2.1 2-3 3-.5.6-1 1.1-1.4 1.6-1.7 1.8-3 3.2-4.1 5.5-2-1.9-6.5-5.8-10.2-7.6-4.8-2.3-6.1-4.1-6.7-6.6-.5-1.8.5-8.6 1.4-13.7.4-.2.6-.7.4-1.2 0-.1-.1-.2-.1-.2 0-.2.1-.4.1-.5.1-.3 0-.6-.2-.8s-.5-.4-.8-.4c-1.1 0-6.9.1-8.7 1.9-.3.4-1 .7-1.8 1.1-2 1-5.1 2.5-6.5 6.9-.9 1.1-4.6 5.8-4.6 9.1l-4.2 4.7c-1.4.5-8.6 3.1-10.9 4.5-2.3 1.4-5.2 4.6-5.8 5.2-.8.5-4.6 3.1-5.6 5.7-.8 2.1-3 8.9-2.1 15.9.1.7.2 16.5.4 17.2.1.4.5.8 1 .8h127.6c.3 0 .5-.1.7-.3s.3-.5.3-.7c.2-.3.1-15.9.1-16.9zm-2 14c-3.6-2.6-7.8-4.2-11.5-6.8v-4.4c3.2 2.9 6.8 6.3 10.9 7.4.1 0 .2-.2.1-.2-4-2.2-7.4-4.9-11-7.7v-3.1c.4.4 5.7 5 11.4 7.1.1 2.8.1 5.8.1 7.7zm0-8.2c-6.1-2.6-9.4-5.8-9.6-5.9-.7-.5-1.3-1.1-1.8-1.7 0-1.2.1-2.3.1-3.3 1.7 2.2 8.6 7.4 11.3 8.9v2zm-4.8-19.1c-1.4-1.5-3-2.9-4.4-4.4.6-1.7 1.1-2.8 1.4-3.4 2 1.3 6 6.4 6.7 8.8.5 1.8.9 8.3 1 12.2v3.5c-3.1-1.9-9.2-6.7-11.3-9.1.1-1.6.2-3.1.4-4.4 2.8 3.8 6.4 7.2 10.5 9.4.2.1.4-.2.2-.3-4-2.8-7.5-5.8-10.6-9.5h-.1c.2-1.4.4-2.6.7-3.7 2.2 3.2 5.1 6.4 8.6 8.2.2.1.4-.2.2-.3-3.3-2.5-6.2-4.9-8.5-8.4 0-.1-.1-.1-.1-.1.2-.9.4-1.7.7-2.4 1.3 1.5 2.7 3.1 4.4 4.2.2.1.4-.1.2-.3zm-27.1-25.5c.1.2.2.3.2.4.2.4.4.8.7 1.1-.2.2-.6.7-1.2 1.3.1-.9.2-1.9.3-2.8zm-3.3-4.9c1.1 1.5 2.2 3.3 2.9 4.4-.2 1.3-.5 2.7-.6 4-.2.2-.5.5-.8.7.3-1.7.6-3.5.9-5.2 0-.2-.3-.3-.3-.1-.4 1.9-.9 3.9-1.2 5.9-.3.2-.5.5-.8.7.3-1.5.4-3.1.6-4.5 0-.2-.3-.3-.3-.1-.3 1.7-.8 3.4-.9 5.1-.4.3-.8.6-1.1.9.2-1.3.5-2.5.9-3.8.1-.2-.2-.3-.3-.1-.6 1.3-1.1 2.9-1.2 4.4l-.9.6c0-.2.1-.4.1-.6l.3-2.1c0-.2-.3-.3-.3-.1-.2.7-.3 1.5-.4 2.2-.1.3-.1.6-.2 1-.2.1-.4.3-.7.4.2-.8.2-1.6.3-2.4 0-.2-.2-.2-.3-.1-.2.9-.5 1.8-.7 2.8-.2.1-.4.2-.5.3 0-.2 0-.3.1-.5.1-.6.2-1.1.2-1.7 0-.2-.2-.2-.3 0l-.3 1.8c-.1.2-.1.5-.2.8-.2.1-.5.3-.8.4.1-.5.2-1 .4-1.5.1-.2-.2-.3-.3-.1-.2.6-.4 1.2-.6 1.9-.3.1-.6.3-.9.4-.2.1-.3.2-.4.3.1-.3.2-.7.3-1 .1-.2-.2-.3-.3-.1-.2.6-.4 1.1-.5 1.7 0 .1.2.2.3.1 0 0 0-.1.1-.1 0 .1 0 .3.1.4.2.4.5.6.9.6.1 0 .2 0 .4-.1 6.4-2.6 11.5-7.9 13.1-9.6.7.8 1.5 1.6 2.2 2.2.3 1.3.2 2.6.4 3.9 0 .1.2.2.3 0 .3-1.1.1-2.4-.2-3.6.4.3.8.6 1.1.9.1.6.2 1.2.2 1.9-.8 1.1-2.2 2.1-3.9 3l.1-.1c.4-1.3.4-2.7.3-4 0-.2-.3-.2-.3 0 .1 1.4-.1 2.6-.4 4 0 .1.1.2.2.2-.7.4-1.4.7-2.2 1.1.2-1.1.4-2.2.6-3.2.1-.3-.4-.4-.4-.1-.3 1.1-.7 2.4-.9 3.6-.3.1-.6.2-.8.4l.6-2.1c.1-.2-.3-.4-.4-.1-.2.9-.6 1.7-.9 2.5-.4.2-.8.3-1.2.5.3-.8.5-1.7.6-2.4 0-.2-.3-.2-.3 0-.1.9-.4 1.6-.8 2.4-.1.1-.1.2-.2.3l-1.5.6-.3.1 1.2-3c.1-.2-.3-.3-.4-.1-.5 1.1-1 2.2-1.4 3.4-.4.2-.9.3-1.3.5.6-1 1-2.2 1.2-3.3 0-.2-.3-.3-.3-.1-.3 1.4-1 2.5-1.7 3.7l-.9.3c.5-.9.8-2 .9-2.8 0-.2-.2-.3-.3-.1-.1.8-.4 1.5-.8 2.1-.2.3-.4.6-.7 1l-.9.3c.5-.8.8-1.7 1.1-2.5.1-.2-.2-.3-.3-.1-.2.7-.5 1.3-.9 1.9-.2.3-.4.6-.7.9-.3.1-.6.2-1 .3.3-.5.5-1.1.8-1.6.1-.2-.2-.3-.2-.1-.4.6-.9 1.3-1.3 2-.2.1-.5.2-.8.3.1-.3.3-.6.4-.9.1-.2-.2-.3-.3-.1-.2.4-.5.8-.7 1.3l-.9.3c.1-.2.2-.4.4-.6.1-.2-.2-.4-.3-.2-.2.3-.5.6-.8 1-2.1.7-4.1 1.4-5.8 1.9-1.3-1-2.5-1.7-3.4-2.2 2.1-2.9 4.9-6.2 7.3-7.8.9-.6 1.9-1.3 3-1.9 4-2.6 8.6-5.4 10.8-9.8.8-1.4 1.2-2.8 1.3-4zm-16.9 30.4c2.8 2.9 3 5.5 2.5 6.3-.1.1-.2.4-.9.1-1.7-.6-3-3.8-4-6.1-.4-.9-.7-1.7-1.1-2.3.3-.1.6-.2 1-.3.8.7 1.6 1.4 2.5 2.3zm6.4-30.4c.8-.6 1.3-1.5 1.9-2.2.2-.2.3-.4.5-.6.1.4.1.9-.1 1.3l-1.5 1.5c-.5.5-1 1.1-1.4 1.6.1-1 0-2.1-.1-3.2.5-.6.8-1.3 1.2-1.9.3-.5.8-1 1.2-1.4l.6 1.5c-.3.4-.6.7-.9 1-.6.7-1.3 1.4-1.8 2.2 0 .2.3.3.4.2zm2.1-.6c-.7 1.6-1.8 2.9-2.8 3.9.1-.2.1-.5.2-.7.8-.7 1.3-1.6 2-2.4.1-.3.4-.5.6-.8zm-1.9-3.3c-.3.4-.7.9-.9 1.4-.1-.4-.1-.9-.2-1.4.5-.5.9-1.1 1.3-1.6.2-.2.4-.5.6-.8l.6.9c-.5.4-1 .9-1.4 1.5zm.5-2.8c-.3.3-.6.7-.8 1-.3.3-.6.7-.8 1v-.3c0-.3-.1-.5-.1-.8.2-.2.3-.5.4-.7.2-.4.5-.8.8-1.1.1.4.3.6.5.9zm-1.7-1.9.8.8c-.3.4-.5.8-.8 1.1-.1.1-.1.2-.2.3-.1-.5-.2-1-.3-1.4.1-.3.3-.5.5-.8zm-26.1 22.3c4.5 2.2 10.6 8.1 10.7 8.2.2.2.6.3.9.3.3-.1.6-.3.7-.6 1.1-2.7 2.4-4.1 4.3-6.2.5-.5.9-1 1.5-1.6.9-1 1.9-2 2.9-2.9 1.2-1.1 2.3-2.2 3.2-3.3.3 0 .6-.2.7-.4.1-.1.4-.3.6-.5 1.5-1.2 4.6-3.6 5.8-7.2 1.1-3.2-1.1-6.5-3-8.5 1.1.4 2.3.9 3.2 1.6 2.8 2.1 3.3 3.9 3.3 3.9v.1s0 .1.1.1c0 .1.1.1.1.2v.1c.1.1 1.7 2-.6 6.4-2 3.8-6.3 6.6-10.1 9-1.1.7-2.1 1.3-3.1 2-2.7 1.8-5.8 5.4-8.1 8.7-.2 0-.5.1-.7.3-.2-.1-.4-.1-.6-.1-.3.1-.6.1-.8.6-2.5-1.5-7.1-4-11.9-5.6-.6-.2-1.1-.4-1.7-.7h.1l1.8-2.4c.1-.1-.1-.3-.2-.2-.7.7-1.3 1.5-1.9 2.3-.1.1-.1.1 0 .2-1.2-.6-2.3-1.3-3.5-2.1.3-.8.7-1.6 1.3-2.3.4-.5.9-.9 1.4-1.2 1.1.5 2.2 1.1 3.6 1.8zm1.1 12.7.6.6c-.6 0-1.3-.1-1.9-.1-.2-.2-.3-.5-.4-.8-.1-.3-.5-.2-.4.1.1.2.1.4.3.6-.7-.1-1.5-.1-2.2-.2-.2-.2-.3-.5-.4-.7-.1-.2-.4-.1-.3.1l.3.6-2.7-.3c-.3-.4-.6-.9-.9-1.3-.1-.2-.4 0-.3.2.2.4.4.7.6 1.1-.8-.1-1.6-.2-2.3-.3-.2-.2-.4-.5-.5-.8-.3-.5-.4-1-.6-1.6-.1-.3-.6-.2-.5.1.1.7.4 1.4.8 2.1-.8-.1-1.5-.2-2.2-.4-.9-1.1-1.5-2.2-1.7-3.8 0-.3-.5-.3-.4 0 .1 1.2.5 2.5 1.2 3.6-.7-.1-1.3-.3-1.8-.5-.9-1.1-1.5-2.3-1.9-3.6.2-.1.4-.2.5-.4.3-.5.2-1.1-.3-1.4-.6-.4-1.1-.8-1.6-1.2 0-3.6.5-6.8 2.2-9.9.5.8 1.1 1.6 1.8 2.3-1.2 2.3-1.9 4.8-1.6 7.4 0 .2.3.2.3 0 .1-2.6.4-4.9 1.5-7.2.7.8 1.4 1.5 2.1 2.3-.2.8-.4 1.5-.5 2.3 0 .2.2.3.3.1.3-.6.4-1.3.6-2 3.1 3 6.7 5.4 9.8 6.5 4.4 1.5 8.7 3.7 11.2 5.2-.8.4-1.6 1-2.5 2-1.5-.1-3.2-.1-4.9-.2-.3-.3-.7-.6-1-.9-.2-.1-.5.2-.3.4zm-19.4-23.2c-2.6 2.2-4.4 5.3-4.6 8.7-.5-1-.9-1.8-1.2-2.6.5-3.3 3.5-7 5.5-9.1v.8c0 .8.1 1.5.3 2.2zm0 14.7c-.7-.6-1.2-1.2-1.8-1.8.4-3.6 1.2-6.7 3.1-9.8.3.6.6 1.1 1 1.7-1.8 2.9-2.8 6.4-2.3 9.9zm-2.2-2.3c-.8-1-1.5-2-2-2.9.4-3.5 1.7-6.6 4.4-9 .2.7.5 1.4.9 2.1-1.9 2.9-3.2 6.3-3.3 9.8zm-1.5 1.4c0 1.2.2 2.5.7 3.6l-2.7-2.4c-.3-1.6-.5-3.1-.4-4.7.7 1.1 1.4 2.3 2.4 3.5zm.5.5c.6.7 1.4 1.4 2.2 2.1.1 1.2.5 2.3 1.1 3.3-.8-.6-1.6-1.2-2.4-1.9-.5-1.1-.8-2.3-.9-3.5zm2.6 2.5c.4.4.9.7 1.4 1.1.1.1.2.1.4.1.3 1.2.8 2.3 1.5 3.3-.7-.3-1.3-.7-2-1.1-.5-1.1-1-2.2-1.3-3.4zm27.1 9.3c.6 0 1.2 0 1.8.1-.4 1.1-.8 2.3-1.1 3.4-.2.9-.2 1.7-.3 2.5-.1 1.8-.1 2.9-2.2 4-.7.4-1.2.4-1.3.3-.4-.4-.6-2.9 1.7-7.8.5-1.1.9-1.9 1.4-2.5zm-12.2-17.9c-1.2.8-2.1 2.2-2.7 3.6-1.4-1.1-2.8-2.3-4-3.6.9-.9 1.9-1.8 2.6-2.8.1-.2-.1-.3-.3-.2-.9.8-1.8 1.8-2.6 2.7-.8-.8-1.5-1.6-2.1-2.4 1.1-.9 2.3-1.7 3.4-2.5.2-.1.1-.4-.1-.3-1.3.5-2.5 1.4-3.6 2.5-.5-.6-.9-1.3-1.3-1.9 1.1-.7 2.2-1.4 3.2-2.2.1-.1 0-.3-.2-.2-1.1.6-2.1 1.4-3.2 2.1-.5-.8-.9-1.6-1.2-2.3 1.5-.8 3-1.4 4.6-2 0 0 .1 0 .1-.1 1.3 3.7 4.4 6.9 4.5 7.1.2.2.3.2.6.3.6.7 1.4 1.4 2.3 2.2zM82 155.1c.3.3.6.7.9.9-.1.3-.1.6-.1.9-.3-.2-.7-.4-1-.7-.4-.3-.7-.5-1.1-.8.2-.4.4-.8.6-1.1.3.3.5.5.7.8zm-.3-1.1c.2-.2.4-.5.6-.7.3.3.6.7.9 1-.1.3-.1.7-.2 1l-.6-.6c-.2-.3-.5-.5-.7-.7zm0 2.8c.3.3.7.6 1.1.8-.1.6-.1 1.1-.2 1.6-.3-.2-.6-.4-.9-.7-.5-.4-.9-.7-1.4-1v-.4l.3-1.2c.3.3.7.6 1.1.9zm0 4c-.4-.4-.8-.7-1.2-1.1l-.3-1.5c.4.3.7.6 1.1.9.4.3.7.6 1.1.9 0 .5-.1.9-.1 1.3-.2-.1-.4-.3-.6-.5zm.6 1.5v1.2c-.5-.8-1-1.6-1.3-2.5l.3.3c.3.3.6.7 1 1zm1.2-10c-.1.1-.1.2-.1.3-.1.3-.1.6-.2 1-.2-.2-.4-.4-.6-.7.4-.2.7-.5.9-.6zm0-2.4c-.3.1-.6.3-.9.5 0 0 0-.1-.1-.1l-.6-.3c.6 0 1.1-.1 1.6-.1zm-2.6.3c.5.2.9.4 1.4.5-.3.2-.7.5-1.1.9-.5-.5-1.2-.8-1.9-1.1.4-.1 1-.2 1.6-.3zm-3.1 1c.2-.2.4-.3.7-.4.3.1.7.2 1 .4.5.2.9.5 1.4.7-.3.3-.6.6-.8.9-.9-.4-1.9-.7-2.8-1 .3-.4.5-.6.5-.6zm-.8.9c.9.4 1.9.7 2.8 1-.3.4-.6.8-.8 1.3-1-.4-2.1-.6-3.2-.8.4-.6.8-1.1 1.2-1.5zm-1.4 1.9c1.1.2 2.1.6 3.2.9-.2.4-.3.7-.4 1.1-1.2-.2-2.4-.4-3.6-.5.3-.6.5-1.1.8-1.5zm-.9 1.8c1.2.2 2.5.4 3.7.6 0 .1-.1.3-.1.5-.1.4-.1.8-.1 1.1-1.5-.1-3 .2-4.4.6.2-1 .5-1.9.9-2.8zm-1 3.2c1.5-.4 3-.6 4.5-.8.1.9.2 1.8.5 2.6h-.1c-1.7.2-3.2 1-4.7 1.9-.3-.8-.4-1.6-.4-2.3.1-.4.2-.9.2-1.4zm-3.8-.2c.1-.1.2-.2.2-.4v-.1c.6-.6 1.1-1.3 1.7-1.9.1-.1-.1-.3-.2-.2l-1.2 1.2c.8-1.9 1.9-3 3-3.8-.8 1.5-1.5 3.3-1.7 5.3-2.1 2-3.8 4.4-5.1 7-.3.6-.6 1.2-.8 1.8-.2-.4-.2-.8-.3-.9-.1-1.8 2.6-5.9 4.4-8zm-4.4 13.5c-.3 1.6-.3 3.2.1 4.7-.8-.8-1.6-1.6-2.2-2.3 0-1.8.3-3.4.9-5 .4.8.7 1.7 1.2 2.6zm-1.4-3c-.8 1.6-1.2 3.3-1 5-.8-.8-1.3-1.5-1.8-1.9l2.8-3.1zm-20.9 14c.3.3.6.8 1.1 1.4-.5-.3-1.1-.6-1.6-1 .1-.1.3-.3.5-.4zm-4.2 4.4c.5-1.2 2-2.6 3.3-3.7.9.6 1.7 1.1 2.7 1.6.5.8 1.1 1.8 1.7 3-1.8-1.1-3.8-1.8-5.8-2.7-.3-.1-.5.3-.2.4 2 .9 4 2.1 6.1 2.8h.2c.4.9.9 1.9 1.3 3-3.1-1.3-6.1-2.6-9.1-4.1H39c-.1-.1-.1-.2 0-.3zm-2.2 10.9c3.3 2.2 6.9 3.9 10.8 4.6.2 0 .3-.3.1-.3-3.8-1.2-7.4-2.6-10.8-4.8 0-1.2.2-2.3.3-3.4 3.8 2.1 7.8 3.9 12.1 4.8.2.1.3-.3.1-.4-4.1-1.5-8.2-3-12.1-4.9.4-2.6 1.1-4.7 1.5-5.9 0 0 0 .1.1.1 3 1.8 6.1 3.4 9.5 4.4.3 1 .7 2.1.9 3.3-3.7-1.5-7.5-2.8-11-4.9-.2-.1-.4.2-.2.4 3.4 2.2 7.2 4.2 11.3 5 .4 1.9.6 3.9.7 6.1v3.9c-5.3-1.5-11.8-4.3-13.1-5-.2-1.2-.2-2.1-.2-3zm.4 20.3c0-.1 0-1.3-.1-3.1 1.7 1.2 3.6 2.4 5.6 3.1h-5.5zm12.8 0h-5.9c-2.4-1-4.7-2-6.9-3.5 0-2-.1-4.5-.1-6.8 3.4 2.9 8.5 5 12.9 6.2v4.1zm0-4.6c-4.3-2-9.1-3-12.9-6v-2.8c3.3 2.6 7.2 4.3 11.2 5.5.1 0 .1-.1.1-.1-3.8-1.8-7.8-3.2-11.2-5.6 0-1.9 0-3.2-.1-3.3 1 .6 6.2 3.1 13 5.1-.1 2.1-.1 4.9-.1 7.2zm99.2 4.6H52v-16.3c-.2-11.5-5.4-18.5-7.3-20.6 1-1.1 3.1-3.3 4.8-4.3 1.9-1.2 8.1-3.5 10.1-4.2 1.9 2.1 9.1 10.1 14.6 12.4 4 1.6 14.4 2.3 21.9 2.7-.3.5-.6 1-.9 1.6-1.1 2.4-3.5 8.1-1.3 10.1.3.3.8.6 1.6.6.6 0 1.2-.2 2.1-.6 3.1-1.7 3.2-3.8 3.3-5.7 0-.7.1-1.4.2-2.1.1-.4.2-.9.4-1.4.2 2.8.5 6.5 1 11.4.1.5.5.9 1 .9h.1c.6-.1 1-.5.9-1.1-.3-3.5-.6-7.1-.9-10.3 1.2 4.1 2.8 8.8 4.3 10.5.3.4 1 .5 1.4.1.4-.4.5-1 .1-1.4-1.6-1.9-3.5-8.4-4.7-12.7.2-.1.4-.1.8-.2.3.5.7 1.5 1.2 2.5 1.2 2.8 2.6 6.2 5.2 7.2.4.2.8.2 1.2.2.9 0 1.6-.4 2.1-1.1 1.1-1.7.5-5.4-2.8-8.8l-1.7-1.7c.4-.1.8-.3 1.3-.4v.1c-.1.1.1.2.2.1l.3-.3c4.5-1.5 9.8-3.3 13.2-4.6l.7-.3c6.2-2.5 12.1-4.8 13.5-8.8 1.6.5 4.5 1.5 5.8 2.1 1.2.5 5.4 3.9 8.1 6.4-1.2 2.1-4.1 8.5-4 21.6-.2.2-.5 13.1-.6 16.4zm2.3 0v-3.2c1.8 1.4 3.9 2.7 6.1 3.1.1 0 .3-.2.1-.3-2.1-1-4.2-1.8-6.2-3.1v-4.6c3.4 2.8 7.6 4.9 11.5 6.8v1.4l-11.5-.1zm-102.3-1.2c.2 0 .2-.2.1-.2-4.2-1.7-8.1-3.2-11.9-5.7-.1-.1-.2.1-.1.2 3.3 2.6 7.6 5 11.9 5.7zm85.3-42.8c.6-1.4.7-3 .6-4.5 0-.2-.3-.2-.3 0 .1 1.5-.1 3-.4 4.5-.1 0 .1.1.1 0z" fill="#000000" stroke-width="none" opacity="1"></path></g><g id="svga-group-head" transform="matrix(1,0,0,1,0,0)"><g id="svga-group-ears-left-move" transform="matrix(1,0,0,1,0,0)"><g id="svga-group-ears-left"><path id="SvgjsPath19505" d="M64.4 81.9s-4.4-4.7-5.8-6.2c-1.4-1.4-3.1-4.7-5-4.1-1.9.5-1.2 2.7-1.3 5.8-.1 3.1.3 9.1 2.2 12.4s2.9 4.5 3.5 8 2.8 4.2 4.1 3.2 4.3-7 4.4-10.2c0-3.2-1.2-7.5-2.1-8.9z" fill="#ffffff" stroke-width="none" opacity="1"></path><path id="SvgjsPath19506" d="M59.7 102.2c-.8-.3-2.3-1.3-2.8-4.2-.5-2.9-1.2-4-2.7-6.5l-.6-1.1c-2.1-3.6-2.5-10.1-2.4-13v-2c0-2-.1-4.1 2.1-4.7 2.1-.6 3.7 1.5 5 3.2.4.5.7.9 1 1.2 1.4 1.4 5.8 6.2 5.8 6.2l.1.1c.9 1.4 2.3 6 2.2 9.4-.1 3.4-3.2 9.8-4.8 11-.5.4-1.2.6-1.8.6-.4 0-.7-.1-1.1-.2zm-1.8-25.7c-.4-.4-.7-.9-1.1-1.4-.8-1.1-2.1-2.7-2.9-2.5-.6.2-.7.6-.6 2.8v2.1c-.1 3.1.3 8.9 2.1 11.9l.6 1.1c1.5 2.6 2.4 4 3 7.2.3 1.4.8 2.4 1.5 2.7.3.1.7.1 1-.1 1-.8 3.9-6.5 4-9.4.1-3-1.1-7.1-1.8-8.2-.7-.7-4.6-4.9-5.8-6.2z" fill="#000000" stroke-width="none" opacity="1"></path><path id="SvgjsPath19507" d="M52.7 76.3c.5-1.9 2.1-1 3 .4 1.9 2.6 3.2 6.6 3.6 10 0 .1-.1.2-.1.1-.1.1-.2.1-.2-.1-1.2-.5-1.6-.2-1.2.8 0 .3.1.6.3.9.2.5.6 1 .9 1.5.5.8 1.2 1.5 1.7 2.3.2.3 0 .6-.2.4-1.4-1-3.9-4.3-3.2-6.6.3-.8 1-1.1 1.5-.7-1.1-3.6-4-12-5.8-8.8-.1.1-.3 0-.3-.2z" fill="#000000" stroke-width="none" opacity="1"></path><path id="SvgjsPath19508" d="M55.6 76.8c-1 2-1.4 4.4-.9 7.1.3 1.5 2.9 9.5 4.9 8.4.2-.1.4.3.2.5-2 1.8-4.2-4.5-4.9-6.5-1.1-3.4-1.4-7.5.5-9.7.1-.1.2.1.2.2z" fill="#000000" stroke-width="none" opacity="1"></path></g></g><g id="svga-group-ears-right-move" transform="matrix(1,0,0,1,0,0)"><g id="svga-group-ears-right"><path id="SvgjsPath19509" d="M137.1 81.9s4.4-4.7 5.8-6.2c1.4-1.4 3.1-4.7 5-4.1 1.9.5 1.2 2.7 1.3 5.8s-.3 9.1-2.2 12.4c-1.9 3.3-2.9 4.5-3.5 8-.6 3.5-2.8 4.2-4.1 3.2-1.3-1-4.3-7-4.4-10.2 0-3.2 1.2-7.5 2.1-8.9z" fill="#ffffff" stroke-width="none" opacity="1"></path><path id="SvgjsPath19510" d="M140.7 102.4c-.6 0-1.3-.2-1.8-.6-1.5-1.2-4.7-7.5-4.8-11-.1-3.4 1.2-8 2.2-9.4l.1-.1s4.4-4.7 5.8-6.2c.3-.3.6-.8 1-1.2 1.3-1.7 2.9-3.8 5-3.2 2.2.6 2.1 2.7 2.1 4.7v2c.1 2.9-.2 9.4-2.4 13l-.6 1.1c-1.5 2.5-2.2 3.7-2.7 6.5-.5 2.9-2 3.9-2.8 4.2-.4.1-.7.2-1.1.2zm-2.8-19.9c-.7 1.2-1.9 5.2-1.8 8.2.1 2.9 2.9 8.6 4 9.4.3.2.6.3 1 .1.7-.3 1.3-1.3 1.5-2.7.6-3.2 1.4-4.7 3-7.2l.6-1.1c1.8-3 2.2-8.7 2.1-11.9v-2.1c.1-2.2 0-2.6-.6-2.8-.8-.2-2 1.4-2.9 2.5-.4.5-.8 1-1.1 1.4-1.3 1.5-5.2 5.7-5.8 6.2z" fill="#000000" stroke-width="none" opacity="1"></path><path id="SvgjsPath19511" d="M148.8 76.3c-.5-1.9-2.1-1-3 .4-1.9 2.6-3.2 6.6-3.6 10 0 .1.1.2.1.1.1.1.2.1.2-.1 1.2-.5 1.6-.2 1.2.8 0 .3-.1.6-.3.9-.2.5-.6 1-.9 1.5-.5.8-1.2 1.5-1.7 2.3-.2.3 0 .6.2.4 1.4-1 3.9-4.3 3.2-6.6-.3-.8-1-1.1-1.5-.7 1.1-3.6 4-12 5.8-8.8.1.1.3 0 .3-.2z" fill="#000000" stroke-width="none" opacity="1"></path><path id="SvgjsPath19512" d="M145.9 76.8c1 2 1.4 4.4.9 7.1-.3 1.5-2.9 9.5-4.9 8.4-.2-.1-.4.3-.2.5 2 1.8 4.2-4.5 4.9-6.5 1.1-3.4 1.4-7.5-.5-9.7-.1-.1-.2.1-.2.2z" fill="#000000" stroke-width="none" opacity="1"></path></g></g><g id="svga-group-faceshape-wrap"><g id="svga-group-faceshape-single"><path id="SvgjsPath19543" d="M138.2 58.2c-2-10.8-13.3-27.4-37.2-27.4S69.1 43.5 65.5 53c-3 8.1-3 21.3-3 21.3s.4 28.4 10 46.1c9.3 17 28.9 31.8 46.2 11.8 21.5-24.8 20.6-57.8 20.6-57.8s.3-8.5-1.1-16.2z" fill="#ffffff" stroke-width="none" opacity="1"></path><path id="SvgjsPath19544" d="M100.7 143.1c-.8 0-1.5 0-2.3-.1-11.8-1.3-21.7-12.2-27-22-9.6-17.7-10.2-45.5-10.2-46.7 0-.6 0-13.6 3.1-21.8 5.8-15.5 17.8-23 36.7-23 10.9 0 20.5 3.4 27.7 10 5.5 5 9.6 11.9 10.8 18.5 1.4 7.6 1.2 15.7 1.2 16.4s.1 8.8-2.3 19.9c-2.3 10.5-7.4 25.8-18.7 38.8-5.8 6.6-12.2 10-19 10zm.3-111c-17.7 0-28.9 7-34.3 21.3-2.9 7.8-2.9 20.8-2.9 20.9 0 .3.5 28.3 9.9 45.5 5 9.2 14.2 19.5 25 20.6 6.8.7 13.3-2.3 19.1-9.1 20.9-24.1 20.3-56.6 20.3-57 0-.1.2-8.4-1.2-15.9-1.1-6-4.8-12.4-10-17-6.6-6.1-15.6-9.3-25.9-9.3z" fill="#000000" stroke-width="none" opacity="1"></path></g></g><g id="svga-group-mouth-single-move" transform="matrix(1,0,0,1,0,0)"><g id="svga-group-mouth-single"><path id="SvgjsPath19493" d="M114.77 119.83c-1.13.44-2.28.54-3.44.5-1.86-.99-3.84-2.01-5.96-2.23-2.25-.23-4.37 1.18-6.55.6-1.62-.43-2.83-1.07-4.53-.62-2.55.67-4.74 2.91-7.53 1.8-.08-.03-.14-.02-.19.01-.21-.08-.41-.16-.62-.26-.33-.16-.61.33-.29.49.82.41 1.64.6 2.47.68.01.01 0 .02.02.03 6.71 6.02 16.81 5.73 23.65.07 1.04.01 2.08-.11 3.11-.52.35-.13.2-.68-.14-.55zm-16.76-.81c1.63.54 2.65.39 4.28-.03 2.77-.72 5.16.06 7.55 1.23-2.67-.3-5.34-.96-7.92.34-1.04.52-1.2.66-2.56.65-1.39-.01-1.47-.19-2.53-.68-.69-.31-1.37-.49-2.12-.57-1.26-.13-2.5.04-3.73.18 2.54-1.04 4.18-2.06 7.03-1.12zm-8.95 1.81c1.16 0 2.34-.18 3.57-.28 1.98-.16 3.32.32 5.07 1.13.7.32 1.27.57 2.06.48 1.3-.16 2.36-1.22 3.58-1.61 1.62-.53 3.37-.25 5.01-.01.87.13 1.73.26 2.58.32-6.42 4.96-15.56 5.2-21.87-.03z" fill="#000000" stroke-width="none" opacity="1"></path></g></g><g id="svga-group-eyes-left-move" transform="matrix(1,0,0,1,0,0)"><g id="svga-group-eyes-left"><g id="svga-group-eyesback-left"></g><g id="svga-group-eyesiriswrapper-left"><g id="svga-group-eyesiriscontrol-left" transform="matrix(1,0,0,1,0,0)"><g id="svga-group-eyesiris-left"><path id="SvgjsPath19576" d="M77.1 84.1c-1.4 1.8-1.2 4.1.4 5.5 1.7 1.5 4.5 1.9 6.5.1 1-1 1.7-2.1 1.4-3.4-.1-.4-.6-2.8-1.9-3.5-2.3-1.3-4.7-.8-6.4 1.3z" fill="#ffffff" stroke-width="none" opacity="1"></path><path id="SvgjsPath19577" d="M80.9 91.2c-1.3 0-2.7-.5-3.6-1.4-1.7-1.5-1.8-4.1-.4-5.9 1.7-2.2 4.3-2.7 6.7-1.4 1.2.7 1.8 2.6 2.1 3.7.3 1.2-.2 2.4-1.5 3.7-1 .9-2.2 1.3-3.3 1.3zm-3.6-6.9c-1.3 1.6-1.1 3.8.3 5.1 1.6 1.4 4.2 1.8 6.1.1 1.1-1.1 1.6-2.1 1.3-3.1-.4-1.7-1-2.9-1.8-3.3-2.1-1.3-4.3-.8-5.9 1.2zm3.6 5.7c-1 0-2-.4-2.7-1.1-1.3-1.2-1.4-3.1-.3-4.5 1.3-1.7 3.2-2.1 5-1 .9.5 1.4 2 1.6 2.8.2.9-.2 1.9-1.1 2.8-.7.7-1.6 1-2.5 1zm-2.6-5.1c-.9 1.2-.8 2.7.2 3.7 1.1 1 3.1 1.3 4.4.1.8-.8 1.1-1.5 1-2.2-.3-1.2-.8-2.1-1.3-2.4-1.5-1-3.1-.7-4.3.8zm4.5 1.2c0-.2-.1-.4-.2-.6-.4-.7-1.2-1-1.9-.9.1.2.2.4.2.6 0 .1 0 .3-.1.4 0 .1-.1.2-.2.3-.2.2-.4.3-.7.3-.3 0-.5-.1-.7-.3-.1-.1-.1-.1-.1-.2-.1.2-.2.4-.2.7 0 .2.1.5.2.7 0 .1.1.3.2.4.5.8 1.5 1 2.3.6h.1c-.2-.3 0-.8.4-.8.2 0 .3.1.4.2.1-.1.1-.1.1-.2.4-.3.4-.8.2-1.2zm.8.8c0-.6-.2-1.8-.8-2.3-1.2-1-2.7-1-3.9.1-1 .9-1.2 2.3-.4 3.4.5.7 1.5 1.2 2.4 1.2.5 0 1-.1 1.4-.4.9-.7 1.4-1.3 1.3-2zm-1 1.2c-.1.2-.2.3-.4.3-1.2.8-2.6.2-3.3-.7-.6-.7-.5-1.7 0-2.4v-.1c0-.1 0-.3.1-.4 0-.1.1-.2.2-.3.2-.2.4-.3.7-.3.2 0 .3 0 .4.1.8-.2 1.6 0 2.2.5.4.3.6 1 .6 2 .1.5-.1.9-.5 1.3z" fill="#000000" stroke-width="none" opacity="1"></path></g></g></g><g id="svga-group-eyesfront-left"><path id="SvgjsPath19630" d="M81 74.4c-6.9 0-12.5 5.6-12.5 12.5S74.1 99.4 81 99.4s12.5-5.6 12.5-12.5S87.9 74.4 81 74.4zm6.5 16c-.9.6-3.7 2-7.2 2-3.5-.1-9.8-2.3-10.4-3.1s1.8-2.9 2.8-3.6 3.7-2.9 6.9-3c3.2-.1 5.5.7 7.5 1.9s3.3 3.3 3.3 3.3-2.1 1.9-2.9 2.5z" fill="#ffffff" stroke-width="none" opacity="1"></path><path id="SvgjsPath19631" d="M66.7 88.5c.6.2 1.2.3 1.7.3.3 0 .6 0 .9-.1-.1.4.1.6.2.7.2.2.5.4.9.6-.6.2-1.3.4-1.8.7-.2.1-.3.4-.2.6.1.1.2.2.4.2.1 0 .1 0 .2-.1.8-.5 2.4-.9 2.4-.9.1 0 .1 0 .2-.1.3.1.6.3.9.4-.4.2-1 .5-1.3.8-.2.2-.2.4 0 .6.1.1.2.1.3.1.1 0 .2 0 .3-.1.6-.5 1.7-.9 1.7-1 .1 0 .1-.1.1-.1.2.1.5.2.7.2-.2.1-.4.3-.4.5-.1.2 0 .5.2.6h.2c.2 0 .3-.1.4-.2.1-.2.5-.4.8-.5 1.8.5 3.8.9 5.6.9h.3c5.1-.1 8.6-3.9 8.8-4 .2-.2.1-.4 0-.6-.2-.2-.4-.2-.6 0 0 0-3.5 3.7-8.2 3.8-4.9.2-10.4-2.3-11.3-3 .2-.9 4.3-4.9 7.3-5.5 3-.7 9.7-.4 12.9 5.1.1.2.4.3.6.2.2-.1.3-.4.2-.6-3.4-6-10.5-6.3-13.8-5.6-1.2.3-2.5 1-3.8 1.9-.2 0-.5-.1-.7-.1 2.8-2 6.2-2.9 9.7-2.6 4.7.5 8.1 3.8 8.1 3.8.1.1.2.1.3 0 .1-.1.1-.2 0-.3 0 0-3.5-3.5-8.4-3.9-3.8-.4-7.4.7-10.4 2.9-1-.2-1.9-.4-2-.5-.2-.2-.4-.1-.6 0-.2.2-.1.4 0 .6.3.2 1 .4 1.7.6-.4.4-.8.7-1.2 1.2-.6 0-1.4 0-2-.3-.2-.1-.5 0-.6.2s0 .5.2.6c.5.2 1.1.3 1.7.4 0 .1 0 .1.1.2h.1c.1 0 .1 0 .2-.1 0-.1.1-.1.1-.2h.6c-.3.3-.6.6-.8.9h-.1s-1.3.4-2.7-.1c-.2-.1-.5 0-.5.3.1.3.2.5.4.6zm5.8-3.4c-.3.2-.6.5-.9.7l-.8.2c.3-.3.7-.7 1.1-1 .1 0 .4 0 .6.1z" fill="#000000" stroke-width="none" opacity="1"></path></g></g></g><g id="svga-group-eyes-right-move" transform="matrix(1,0,0,1,0,0)"><g id="svga-group-eyes-right"><g id="svga-group-eyesback-right"></g><g id="svga-group-eyesiriswrapper-right"><g id="svga-group-eyesiriscontrol-right" transform="matrix(1,0,0,1,0,0)"><g id="svga-group-eyesiris-right"><path id="SvgjsPath19578" d="M115.5 84.1c-1.4 1.8-1.2 4.1.4 5.5 1.7 1.5 4.5 1.9 6.5.1 1-1 1.7-2.1 1.4-3.4-.1-.4-.6-2.8-1.9-3.5-2.3-1.3-4.7-.8-6.4 1.3z" fill="#ffffff" stroke-width="none" opacity="1"></path><path id="SvgjsPath19579" d="M119.3 91.2c-1.3 0-2.7-.5-3.6-1.4-1.7-1.5-1.8-4.1-.4-5.9 1.7-2.2 4.3-2.7 6.7-1.4 1.2.7 1.8 2.6 2.1 3.7.3 1.2-.2 2.4-1.5 3.7-1 .9-2.2 1.3-3.3 1.3zm-3.5-6.9c-1.3 1.6-1.1 3.8.3 5.1 1.6 1.4 4.2 1.8 6.1.1 1.1-1.1 1.6-2.1 1.3-3.1-.4-1.7-1-2.9-1.8-3.3-2.2-1.3-4.4-.8-5.9 1.2zm3.5 5.7c-1 0-2-.4-2.7-1.1-1.3-1.2-1.4-3.1-.3-4.5 1.3-1.7 3.2-2.1 5-1 .9.5 1.4 2 1.6 2.8.2.9-.2 1.9-1.1 2.8-.7.7-1.6 1-2.5 1zm-2.6-5.1c-.9 1.2-.8 2.7.2 3.7 1.1 1 3.1 1.3 4.4.1.8-.8 1.1-1.5 1-2.2-.3-1.2-.8-2.1-1.3-2.4-1.5-1-3.1-.7-4.3.8zm4.5 1.2c0-.2-.1-.4-.2-.6-.4-.7-1.2-1-1.9-.9.1.2.2.4.2.6 0 .1 0 .3-.1.4 0 .1-.1.2-.2.3-.2.2-.4.3-.7.3-.3 0-.5-.1-.7-.3-.1-.1-.1-.1-.1-.2-.1.2-.2.4-.2.7 0 .2.1.5.2.7 0 .1.1.3.2.4.5.8 1.5 1 2.3.6h.1c-.2-.3 0-.8.4-.8.2 0 .3.1.4.2.1-.1.1-.1.1-.2.4-.3.4-.8.2-1.2zm.8.8c0-.6-.2-1.8-.8-2.3-1.2-1-2.7-1-3.9.1-1 .9-1.2 2.3-.4 3.4.5.7 1.5 1.2 2.4 1.2.5 0 1-.1 1.4-.4 1-.7 1.4-1.3 1.3-2zm-1 1.2c-.1.2-.2.3-.4.3-1.2.8-2.6.2-3.3-.7-.6-.7-.5-1.7 0-2.4v-.1c0-.1 0-.3.1-.4 0-.1.1-.2.2-.3.2-.2.4-.3.7-.3.2 0 .3 0 .4.1.8-.2 1.6 0 2.2.5.4.3.6 1 .6 2 .1.5-.1.9-.5 1.3z" fill="#000000" stroke-width="none" opacity="1"></path></g></g></g><g id="svga-group-eyesfront-right"><path id="SvgjsPath19632" d="M119 74.4c-6.9 0-12.5 5.6-12.5 12.5s5.6 12.5 12.5 12.5 12.5-5.6 12.5-12.5-5.6-12.5-12.5-12.5zm.2 17.9c-3.5.1-6.3-1.4-7.2-2-.9-.6-3-2.5-3-2.5s1.3-2.1 3.3-3.3c2-1.2 4.3-2 7.5-1.9s5.9 2.3 6.9 3 3.4 2.7 2.8 3.6c-.5.8-6.8 3-10.3 3.1z" fill="#ffffff" stroke-width="none" opacity="1"></path><path id="SvgjsPath19635" d="M133.1 87.9c-.1-.2-.3-.3-.5-.3-1.3.5-2.6.1-2.7.1h-.1c-.2-.3-.5-.6-.8-.9h.6c0 .1.1.1.1.2s.1.1.2.1h.1c.1 0 .1-.1.1-.2.6 0 1.1-.1 1.7-.4.2-.1.3-.3.2-.6-.1-.2-.4-.3-.6-.2-.6.3-1.3.3-2 .3l-1.2-1.2c.8-.2 1.5-.4 1.7-.6s.2-.4 0-.6-.4-.2-.6 0c-.2.2-1 .4-2 .5-3-2.2-6.6-3.3-10.4-2.9-4.9.5-8.3 3.9-8.4 3.9-.1.1-.1.2 0 .3.1.1.2.1.3 0 0 0 3.4-3.3 8.1-3.8 3.6-.4 6.9.6 9.7 2.6-.2 0-.5.1-.7.1-1.3-.9-2.6-1.6-3.8-1.9-3.3-.7-10.3-.5-13.8 5.6-.1.2 0 .5.2.6s.5 0 .6-.2c3.2-5.6 9.8-5.8 12.9-5.1 3 .6 7.1 4.6 7.3 5.5-.9.7-6.4 3.2-11.1 3.1s-8.1-3.7-8.2-3.8c-.2-.2-.4-.2-.6 0s-.2.4 0 .6c.1.2 3.7 3.9 8.8 4h.3c1.9 0 3.8-.4 5.6-.9.3.1.7.4.8.5.1.1.2.2.4.2h.2c.2-.1.3-.4.2-.6-.1-.2-.3-.4-.4-.5.2-.1.5-.2.7-.2l.1.1s1.2.5 1.7 1c.1.1.2.1.3.1s.2 0 .3-.1c.2-.2.1-.4 0-.6-.4-.3-.9-.6-1.3-.8.3-.1.6-.3.9-.4 0 0 .1.1.2.1 0 0 1.5.4 2.4.9.1 0 .1.1.2.1.2 0 .3-.1.4-.2.1-.2 0-.5-.2-.6-.5-.3-1.3-.6-1.8-.7.4-.2.7-.4.9-.6.1-.1.2-.3.2-.7.2 0 .5.1.9.1.5 0 1.1-.1 1.7-.3.1-.2.2-.4.2-.7zm-5.4-3c.4.3.7.6 1.1 1-.5-.1-.8-.2-.8-.2-.3-.2-.6-.5-.9-.7.1 0 .4 0 .6-.1z" fill="#000000" stroke-width="none" opacity="1"></path></g></g></g><g id="svga-group-facehighlight-single"></g><g id="svga-group-eyebrows-left-move" transform="matrix(1,0,0,1,0,0)"><g id="svga-group-eyebrows-left-rotate" transform="matrix(1,1.7453292519943295e-9,-1.7453292519943295e-9,1,1.3322943459570524e-7,-1.387973469491044e-7)"><g id="svga-group-eyebrows-left"><path id="SvgjsPath19674" d="M80.51 72.71c3.41.15 9.86 2.64 10.3 4.79.25 1.2-.84 2.73-2.05 2.43s-5.61-3.41-9.86-3.26c-4.25.15-9.4 2.73-10.16 2.58-.76-.15-1.31-1.94 2.64-4.29 3.94-2.35 9.13-2.25 9.13-2.25z" fill="#ffffff" stroke-width="none" opacity="1"></path><path id="SvgjsPath19675" d="M67.72 78.72c.09.53.45.93.92 1.02.39.08 1.02-.14 2.53-.67 2.03-.72 5.1-1.8 7.75-1.9 2.97-.11 6.12 1.5 8 2.47.78.4 1.34.68 1.72.78.14.04.29.05.43.05.5 0 1-.21 1.41-.61.67-.64 1-1.63.83-2.47-.53-2.6-7.46-5.04-10.78-5.19h-.01c-.22 0-5.38-.08-9.4 2.32-3.38 2.02-3.51 3.61-3.4 4.2zM71 77.11l-.87-.67c.13-.11.29-.23.45-.34.11.27.26.64.42 1.01zm.63-1.71c.13-.08.27-.15.4-.22l1.51 2.03c-.54.16-1.05.34-1.54.5-.35-.81-.7-1.64-.85-2.01.16-.1.31-.2.48-.3zm2.61 1.6-1.59-2.14c1.02-.48 2.09-.82 3.1-1.06l.09 2.79c-.55.13-1.08.26-1.6.41zm3.3-.71c-.34.05-.69.1-1.03.17l-.06-1.97 1.09 1.8zm-.85-2.69c.43-.08.84-.14 1.22-.19-.02.5-.06 1.28-.1 2.04l-1.12-1.85zm4.98-.25-.9 2-.45-2.13h.16c.38.02.78.07 1.19.13zm7.01 2.57c.29.18.55.37.77.55-.49.61-1 1.23-1.42 1.72l.65-2.27zm-4.41-1.95c.45.14.89.29 1.33.46l-1.37 1.89.04-2.35zm2.21.81c.49.21.95.43 1.38.66l-1.67 1.88.29-2.54zm-1.02 3.02c-.35-.16-.72-.32-1.11-.48l1.38-1.92-.27 2.4zm-1.91-.78c-.79-.28-1.63-.52-2.48-.67l1.29-2.87c.41.08.82.18 1.24.3l-.05 3.24zm4.57 2.1c.38-.42.95-1.1 1.82-2.18.2.23.33.45.37.67.1.49-.13 1.14-.54 1.54-.16.16-.5.4-.9.3-.15-.05-.42-.17-.75-.33zm-1.81-.91 1.5-1.69-.61 2.14c-.28-.15-.57-.3-.89-.45zm-7.43-2.05-.43.03c.04-.7.11-2.13.14-2.87.41-.04.76-.06 1.06-.08l.63 2.98c-.47-.04-.94-.07-1.4-.06zm-10.17 2.39c-.06-.36.18-.94.9-1.66l1.47 1.13c-.09.03-.18.06-.26.09-.83.29-1.77.63-2.01.63h-.01c0 .01-.06-.05-.09-.19z" fill="#000000" stroke-width="none" opacity="1"></path></g></g></g><g id="svga-group-eyebrows-right-move" transform="matrix(1,0,0,1,0,0)"><g id="svga-group-eyebrows-right-rotate" transform="matrix(1,1.7453292519943295e-9,-1.7453292519943295e-9,1,1.332468855252955e-7,-2.10268538580749e-7)"><g id="svga-group-eyebrows-right"><path id="SvgjsPath19676" d="M119.49 72.71c-3.41.15-9.86 2.64-10.3 4.79-.25 1.2.84 2.73 2.05 2.43s5.61-3.41 9.86-3.26c4.25.15 9.4 2.73 10.16 2.58s1.31-1.94-2.64-4.29c-3.94-2.35-9.13-2.25-9.13-2.25z" fill="#ffffff" stroke-width="none" opacity="1"></path><path id="SvgjsPath19677" d="M128.88 74.53c-4.02-2.4-9.18-2.32-9.4-2.32h-.01c-3.31.15-10.24 2.59-10.78 5.19-.17.84.16 1.83.83 2.47.41.4.91.61 1.41.61.14 0 .29-.02.43-.05.38-.1.94-.38 1.72-.78 1.88-.96 5.03-2.57 8-2.47 2.65.09 5.72 1.18 7.75 1.9 1.51.53 2.14.75 2.53.67.47-.09.83-.49.92-1.02.11-.6-.02-2.19-3.4-4.2zm.54 1.57c.16.11.31.23.45.34l-.87.67c.16-.37.31-.74.42-1.01zm-.57-.39c-.15.37-.5 1.19-.85 2.01-.49-.17-1.01-.34-1.55-.51l1.51-2.03c.14.07.27.14.4.22.18.1.33.2.49.31zm-4.68.89.09-2.79c1.01.24 2.08.58 3.1 1.06l-1.6 2.13c-.52-.15-1.05-.28-1.59-.4zm-.61-2.12-.06 1.97c-.34-.07-.69-.12-1.03-.17l1.09-1.8zm-1.37.96c-.04-.76-.08-1.53-.1-2.04.38.05.79.11 1.22.19l-1.12 1.85zm-2.68-2.22h.16l-.45 2.13-.9-2c.42-.06.82-.11 1.19-.13zm-7.54 4.96c-.41-.49-.93-1.11-1.42-1.72.22-.18.48-.37.77-.55l.65 2.27zm3.79-1.86-1.37-1.89c.44-.17.88-.32 1.33-.46l.04 2.35zm-1.95 1-1.67-1.88c.43-.23.89-.45 1.38-.66l.29 2.54zm.46-1.91 1.38 1.92c-.39.16-.76.31-1.11.48l-.27-2.4zm2.13-1.63c.42-.12.84-.22 1.24-.3l1.29 2.87c-.85.15-1.69.39-2.48.67l-.05-3.24zm-5.28 5.66c-.4.1-.73-.15-.9-.3-.41-.4-.64-1.04-.54-1.54.04-.21.17-.44.37-.67.87 1.08 1.44 1.77 1.82 2.18-.32.17-.59.29-.75.33zm1.68-.79-.61-2.14 1.5 1.69c-.32.16-.61.31-.89.45zm6.93-2.42.63-2.98c.29.01.65.04 1.06.08.03.75.11 2.17.14 2.87-.14-.01-.29-.03-.43-.03-.47-.02-.94.01-1.4.06zm11.46 2.52s-.01 0 0 0c-.24 0-1.19-.33-2.02-.63-.08-.03-.18-.06-.26-.09l1.47-1.13c.72.71.97 1.3.9 1.66-.02.13-.08.19-.09.19z" fill="#000000" stroke-width="none" opacity="1"></path></g></g></g><g id="svga-group-nose-single-move" transform="matrix(1,0,0,1,0,0)"><g id="svga-group-nose-single"><path id="SvgjsPath19664" d="M95.9 107.5c2 1 4.3 2 6.4 1 2.2-1.1 2.2-3.4 2-5.6-.8-6.5-1.9-13-3.3-19.4-.2-.8-1.4-.5-1.2.3 1 4.7 1.9 9.4 2.6 14.2.3 2.3 1.1 5 .8 7.3-.5 3.6-4.5 2.2-6.6 1.1-.8-.3-1.4.8-.7 1.1z" fill="#000000" stroke-width="none" opacity="1"></path></g></g><g id="svga-group-hair-front"><path id="SvgjsPath19717" d="M140.3 67.9c.5-1.9.7-3.8.7-5.7-.1-1.3-1.3-1.9-2.2-1.5.5-2 .6-4.2.4-6.2-.1-1.2-2-2.2-2.7-.7v.1c.4-2.4.4-4.8-.4-7.2-.5-1.5-2.3-1.3-2.8 0-.1.4-.3.8-.4 1.1.3-3.1 0-6.1-1.6-8.2-.6-.8-2.2-1.2-2.8 0-.1.3-.3.7-.4 1.1-.3-2.2-1-4.2-2.2-6-.8-1.1-3.2-.9-2.9.8.4 2.8.6 5.7.2 8.5-.1.8-.3 1.6-.6 2.4 1.2-4.9 1.3-10.3-1.6-14.6-1-1.5-3-1-3.5.3-.4-.9-.8-1.8-1.4-2.6-1.2-1.5-3.3-1-3.5 1 0 .4-.1.8-.1 1.2-.3-1-.8-1.9-1.3-2.7-.6-.9-2.2-.9-2.4.3-.2 1-.3 1.9-.4 2.9-.2-1.6-.7-3.2-2.1-4.1-.5-.3-1.4-.3-1.8.2-.3.4-.5.8-.7 1.1-1.3-2.2-5.1-2-6 .5-.2-.6-.4-1.1-.8-1.7-.4-.5-1.3-.6-1.8-.2-1.4 1-1.9 2.6-2.1 4.3-.1-1-.2-2.1-.4-3.1-.2-1.2-1.9-1.2-2.4-.3-.5.9-1 1.8-1.3 2.7 0-.4 0-.8-.1-1.2-.2-1.9-2.3-2.5-3.5-1-.6.8-1 1.6-1.4 2.6-.5-1.4-2.5-1.9-3.5-.3-2.9 4.3-2.8 9.7-1.6 14.7-.2-.8-.5-1.6-.6-2.5-.5-2.8-.2-5.7.2-8.5.2-1.7-2.1-1.9-2.9-.8-1.3 1.8-2 3.8-2.2 6-.1-.4-.2-.7-.4-1.1-.5-1.2-2.1-.8-2.8 0-1.6 2.1-1.9 5.1-1.6 8.2-.1-.4-.3-.8-.4-1.1-.5-1.3-2.3-1.5-2.8 0-.8 2.4-.8 4.8-.4 7.2v-.1c-.7-1.4-2.5-.5-2.7.7-.2 2.1-.1 4.2.4 6.2-1-.4-2.2.1-2.2 1.5-.1 1.9.2 3.8.7 5.7-1-.1-2 .6-2.1 1.8-.1 2.2.5 4.1 1.3 6.1.9 2.2 1.6 4.8 3.5 6.3 2.1 1.6 4.3-1 4-3-.2-1.1-.9-2.3-1.6-3.5 1.6-.1 2.9-2 2.2-3.8-.3-.8-.8-1.5-1.2-2.2.6.4 1.2.5 2 .3.1 0 .2 0 .4-.1.6-.1 1.1-.7 1.3-1.3.6-1.7-.6-3.5-1.7-5.1.7.6 1.5 1 2.5 1.1 1.2.1 2.2-1.1 2.2-2.2 0-1.4-.7-2.7-1.5-3.9 2 1.8 5.7-.6 4.2-3.2.2-.1.4-.2.6-.4 1.6 1.1 4.1-.3 3.6-2.5-.1-.4-.2-.7-.3-1.1 1.3 2.8 6.1 1.5 4.9-1.5 0-.1-.1-.2-.1-.3 1.4 2.3 5 .4 4.7-2.2 1.7 1.8 5.4.5 4.9-2.2.1.1.1.2.2.3.9 1.3 3.6 1.5 3.9-.5 0-.2 0-.3.1-.5.1.2.1.4.2.6.6 1.8 3 2 3.8.4.6 1.5 2.6 1.4 3.6.4.1 2.2 3.4 3.2 4.9 1.6-.3 2.6 3.2 4.5 4.7 2.2 0 .1-.1.2-.1.3-1.2 3 3.6 4.4 4.9 1.5-.1.4-.2.7-.3 1.1-.6 2.6 2.8 4.1 4.3 1.8.9-1.4 1.6-3 2.2-4.7-.4 2-1.1 3.9-2.2 5.7-1.7 2.7 2.1 5.2 4.1 3.3-.8 1.3-1.4 2.5-1.5 3.9 0 1.1 1 2.3 2.2 2.2 1-.1 1.8-.5 2.5-1.1-1.1 1.7-2.3 3.4-1.7 5.1.2.6.6 1.2 1.3 1.3.1 0 .2 0 .4.1.8.1 1.5 0 2-.3-.4.7-.9 1.4-1.2 2.2-.8 1.7.6 3.7 2.2 3.8-.7 1.2-1.4 2.3-1.6 3.5-.3 2 1.9 4.6 4 3 1.9-1.4 2.7-4.1 3.6-6.3.8-2 1.4-3.9 1.3-6.1-.4-1.2-1.5-1.9-2.5-1.8z" fill="#000000" stroke-width="none" opacity="1"></path><path id="SvgjsPath19718" d="M65.7 77.8c.5 1 .5 2.1 0 3.1-.2.3-.6 0-.4-.2.5-.8.5-1.8 0-2.6-.2-.3.2-.5.4-.3zm-4.3-3.3c-.1-.3-.6-.2-.5.1.5 1.7 1.5 3.1 3 4.1.3.2.5-.2.2-.4-1.3-.9-2.3-2.2-2.7-3.8zm.2-2.6c.8 1 1.1 2.2 1.1 3.4 0 .3.5.3.5 0 .1-1.3-.3-2.6-1.1-3.7-.2-.2-.7 0-.5.3zm-.3.5c-.2-.8-.3-1.5-.5-2.3-.1-.3-.5-.2-.5.1.2.8.3 1.5.5 2.3.1.3.6.2.5-.1zm4.3-3c.9 1 1.2 2.4 1 3.7-.1.3.4.4.5.1.2-1.5-.1-3-1.1-4.2-.2-.2-.6.2-.4.4zm-.3 2c.3.1.5-.3.2-.4-1-.5-1.7-1.3-2.2-2.2-.2-.3-.6 0-.4.2.5 1 1.4 1.9 2.4 2.4zm-2.2-3.3c.1.3.6 0 .4-.2-.5-1.1-1-2.2-1.6-3.2-.1-.3-.6 0-.4.2.6 1 1.1 2.1 1.6 3.2zm3.7-3.8c.2.8.5 1.7.7 2.5.1.3.6.2.5-.1-.2-.8-.5-1.7-.7-2.5-.1-.4-.5-.2-.5.1zm-1.1.5c.3.1.4-.4.1-.5-.8-.2-1.5-.7-2-1.4-.2-.2-.6.1-.3.4.6.7 1.3 1.2 2.2 1.5zm3-6.7c1 1.2 1.5 2.7 1.5 4.3 0 .3.5.3.5 0 0-1.7-.6-3.3-1.7-4.6-.2-.3-.5.1-.3.3zm-1.8.1c-.1-.3-.6 0-.4.2.4 1 1.2 1.8 2.2 2.2.3.1.5-.3.2-.4-.9-.4-1.6-1.1-2-2zm-1.2-.4c0 .3.5.3.5 0 .1-1-.3-2-1-2.7-.2-.2-.6.1-.3.4.6.6.9 1.4.8 2.3zm7.2-5c1 1 1.4 2.3 1.4 3.8 0 .3.5.3.5 0 .1-1.5-.5-3-1.5-4.1-.2-.3-.6.1-.4.3zm.1 2.1c-.9-.2-1.7-.6-2.4-1.2-.2-.2-.6.1-.3.4.7.7 1.6 1.1 2.6 1.3.3 0 .4-.5.1-.5zM71.7 53c.2.3.6 0 .4-.2-.6-.9-1.1-1.8-1.7-2.6-.2-.3-.6 0-.4.2.6.9 1.2 1.8 1.7 2.6zm-2.4-.5c.3.1.4-.4.1-.5-.9-.2-1.7-.7-2.2-1.5-.2-.3-.6 0-.4.2.6 1 1.5 1.6 2.5 1.8zm-1.2-2.3c.1.3.6 0 .4-.2-.4-.8-.8-1.7-1.3-2.5-.1-.3-.6 0-.4.2.5.8.9 1.7 1.3 2.5zm9.1-1.4c.6 1.3.8 2.7.5 4.1-.1.3.4.5.5.1.3-1.5.1-3.1-.6-4.5-.1-.2-.6 0-.4.3zm-.9 1.2c-.6 0-1-.4-1.2-.9-.1-.3-.6-.2-.5.1.2.8.9 1.3 1.7 1.3.4 0 .4-.5 0-.5zm-1.8-2.8c-.1.3.4.5.5.1.4-1.2.2-2.5-.5-3.6-.2-.3-.6 0-.4.2.5 1 .7 2.1.4 3.3zm-1.7-.6c-.6-.8-1-1.8-1.2-2.8-.1-.3-.5-.2-.5.1.2 1.1.6 2.1 1.3 2.9.1.3.6 0 .4-.2zm.4-3.4c-.1-.7-.2-1.4-.4-2.1 0-.3-.5-.2-.5.1.1.7.2 1.4.4 2.1.1.4.5.3.5-.1zm3.4-2v3.4c0 .3.5.3.5 0v-3.4c0-.3-.5-.3-.5 0zm-.3-1.4c.2-.6.4-1.3.5-2 .1-.3-.4-.4-.5-.1-.2.6-.4 1.3-.5 2 0 .3.5.4.5.1zm7.3 6.9c.1 1.1 0 2.1-.4 3.1-.1.3.4.4.5.1.4-1.1.5-2.2.4-3.3-.1-.2-.6-.2-.5.1zM80.7 43c.3 1.2.6 2.5.9 3.8.1.3.5.2.5-.1-.3-1.2-.6-2.5-.9-3.8-.1-.3-.6-.2-.5.1zm2.5-4.4c-.1-.3-.6-.2-.5.1.2 1.1.2 2.1-.2 3.1-.1.3.4.4.5.1.4-1 .5-2.2.2-3.3zM82 34.9c-.5.6-.8 1.2-.8 2 0 .3.5.3.5 0 0-.6.2-1.2.6-1.6.3-.3 0-.6-.3-.4zm6.2 9.6c-.4 1-.7 1.9-1.1 2.9-.1.3.4.4.5.1.4-1 .7-1.9 1.1-2.9.1-.3-.4-.4-.5-.1zm-.5-1.3-.9-4.5c-.1-.3-.6-.2-.5.1l.9 4.5c0 .4.5.3.5-.1zm.5-4.7c.1-.7.1-1.4.2-2.1 0-.3-.5-.3-.5 0-.1.7-.1 1.4-.2 2.1-.1.3.4.3.5 0zm-.9-4c.2-.7.4-1.4.5-2.1.1-.3-.4-.5-.5-.1-.2.7-.4 1.4-.5 2.1-.1.2.4.4.5.1zm4 7.2c0-.3-.5-.3-.5 0 .2 1.5.8 2.8 1.8 4 .2.2.6-.1.4-.4-1-1-1.6-2.2-1.7-3.6zm1.2-1.7c.2 1 .1 2-.4 2.8-.1.3.3.5.4.3.5-1 .6-2.1.4-3.2.1-.4-.4-.2-.4.1zm-.9-.4c-.5-.8-.8-1.7-.9-2.7 0-.3-.5-.3-.5 0 0 1.1.4 2.1 1 3 .1.2.5 0 .4-.3zm.5-2.4c.5-.9.8-1.9.8-3 0-.3-.5-.3-.5 0 0 1-.2 1.9-.7 2.7-.2.3.2.6.4.3zm-.2-4.1c.1-.7.1-1.3.2-2 0-.3-.5-.3-.5 0-.1.7-.1 1.3-.2 2 0 .4.5.4.5 0zm5.7 6.3c.2 1.6-.2 3.2-1.2 4.4-.2.2.2.6.3.4 1.2-1.4 1.6-3.1 1.4-4.9-.1-.3-.6-.2-.5.1zm-.9 1.4-.9-3c-.1-.3-.6-.2-.5.1l.9 3c.1.3.6.2.5-.1zm.6-7.1c.5 1.2.5 2.5 0 3.8-.1.3.4.4.5.1.5-1.3.5-2.7 0-4.1-.1-.2-.6-.1-.5.2zm-.2 1.8c-.6-.9-1-1.9-1.2-3-.1-.3-.5-.2-.5.1.2 1.1.6 2.2 1.3 3.1.1.3.6.1.4-.2zm-.1-4v-2c0-.3-.5-.3-.5 0v2c0 .3.5.3.5 0zm3.7 11.5c-.2-.2-.6 0-.4.2.4.5.7 1 1.1 1.4.2.3.6 0 .4-.2-.4-.4-.8-.9-1.1-1.4zm1.1-4.3c.3 1.1.1 2.2-.4 3.2-.1.3.3.5.4.3.6-1.1.7-2.4.4-3.6 0-.3-.4-.2-.4.1zm-1.6-.9c.2.6.4 1.2.5 1.8.1.3.6.2.5-.1-.2-.6-.4-1.2-.5-1.8-.1-.3-.6-.2-.5.1zm1.8-3.3c-.1.7-.2 1.4-.3 2.2 0 .3.4.4.5.1l.3-2.1c.1-.4-.4-.5-.5-.2zm-1 .8c-.6-.7-.9-1.6-1-2.5 0-.3-.5-.3-.5 0 .1 1.1.5 2 1.1 2.9.2.2.6-.2.4-.4zm.8-3.1c.1-.9.1-1.8.2-2.7 0-.3-.5-.3-.5 0-.1.9-.1 1.8-.2 2.7 0 .4.5.4.5 0zm-1.1-2c.1-.3.2-.6.4-.9s-.4-.4-.5-.1c-.1.3-.2.6-.4.9-.1.2.3.4.5.1zm5.2 12c-.1.7-.4 1.2-1 1.7-.3.2.1.5.4.3.6-.5 1-1.1 1.1-1.9.1-.3-.4-.4-.5-.1zm-.6-1.9c-.3-.6-.4-1.3-.3-2 0-.3-.5-.3-.5 0-.1.8.1 1.5.4 2.3.1.3.5 0 .4-.3zm1-5.1c.1.7 0 1.5-.3 2.1-.1.3.3.5.4.2.4-.8.5-1.7.3-2.5 0-.3-.5-.1-.4.2zm-.8-.1c.1-.8.1-1.6.2-2.3 0-.3-.5-.3-.5 0-.1.8-.1 1.5-.2 2.3 0 .3.5.3.5 0zm5.9 5.9c-.1 1.4-.8 2.7-2 3.5-.3.2 0 .6.2.4 1.3-.9 2.1-2.4 2.2-4 .2-.2-.3-.2-.4.1zm.1-4.8c-.1 2-.9 3.8-2.3 5.2-.2.2.1.6.4.4 1.5-1.5 2.4-3.4 2.5-5.5-.1-.5-.6-.5-.6-.1zm-1.4 1.2c-.1-1.5-.1-3-.1-4.5 0-.3-.5-.3-.5 0 0 1.5.1 3 .1 4.5 0 .3.5.3.5 0zm1.3-3.1c-.3-.5-.4-1.2-.3-1.8 0-.3-.4-.5-.5-.1-.1.8 0 1.5.4 2.2.1.2.5-.1.4-.3zm4.6 9.4c-.5 1.2-1.2 2.2-2.1 3.2-.2.2.1.6.4.3.9-1 1.7-2 2.2-3.3 0-.2-.4-.5-.5-.2zm-1.2-1.1c-.1-1.1-.2-2.3-.4-3.4 0-.3-.5-.3-.5 0 .1 1.1.2 2.3.4 3.4 0 .3.5.3.5 0zm1.5-7.1c.4 1.5.2 2.9-.5 4.3-.1.3.3.5.4.2.8-1.5.9-3.1.5-4.7 0-.2-.5-.1-.4.2zm-.7 1.1c.5-1.4.7-2.8.5-4.3-.1-.3-.5-.2-.5.1.2 1.4 0 2.7-.5 4-.1.4.3.5.5.2zm5.3 9.5c-.3 1.6-1.2 2.9-2.5 3.8-.3.2 0 .6.2.4 1.4-1 2.4-2.4 2.8-4.1.1-.3-.4-.4-.5-.1zm-1.7.2c1.2-1.2 2.2-2.6 2.7-4.2.1-.3-.4-.4-.5-.1-.5 1.5-1.4 2.9-2.6 4-.2.2.2.6.4.3zm.4-5.2 1.5-2.7c.2-.3-.3-.5-.4-.2l-1.5 2.7c-.2.3.3.5.4.2zm.3-4.3c-.6-1.2-.7-2.5-.3-3.8.1-.3-.4-.4-.5-.1-.4 1.4-.3 2.8.3 4.1.2.3.6.1.5-.2zm5.5 12.6c-.8 1.4-2 2.5-3.6 3-.3.1-.2.6.1.5 1.7-.6 3-1.7 3.9-3.2.2-.3-.2-.5-.4-.3zm.7-3.9c-.7 1-1.6 1.8-2.6 2.4-.3.2 0 .6.2.4 1.1-.7 2-1.5 2.8-2.6.3-.2-.2-.5-.4-.2zm-.8-1c-.4-.9-.5-1.8-.4-2.7.1-.3-.4-.5-.5-.1-.2 1 0 2 .4 3 .2.2.7.1.5-.2zm1.1-1c.6-1 .9-2 .9-3.2 0-.3-.5-.3-.5 0 0 1.1-.3 2-.8 2.9-.2.3.2.5.4.3zM126 39c-.1-.9-.1-1.8-.2-2.7 0-.3-.5-.3-.5 0 .1.9.1 1.8.2 2.7.1.3.6.3.5 0zm1.2 13.7c-.2 1.3-.2 2.6 0 3.9 0 .3.5.2.5-.1-.2-1.2-.2-2.4 0-3.6 0-.4-.5-.5-.5-.2zm3.7-1.8c-.3 1.1-1 2-2 2.5-.3.2 0 .6.2.4 1.1-.6 1.9-1.6 2.2-2.8.2-.2-.3-.4-.4-.1zm-1.3-.6c-.1-1.3-.2-2.6-.4-3.9 0-.3-.5-.3-.5 0 .1 1.3.2 2.6.4 3.9.1.3.6.3.5 0zm1-3.6c-.1.3.4.4.5.1.2-.9.5-1.9.7-2.8.1-.3-.4-.4-.5-.1-.2.9-.4 1.8-.7 2.8zm-.1-3.1.9-2.7c.1-.3-.4-.4-.5-.1l-.9 2.7c-.1.2.4.4.5.1zm.1 15.2c-.2 1.2-.2 2.5 0 3.7.1.3.5.2.5-.1-.2-1.1-.2-2.3 0-3.4 0-.4-.5-.5-.5-.2zm1.6.7c.7-.8 1.4-1.5 2.1-2.3.2-.2-.1-.6-.3-.3-.7.8-1.4 1.5-2.2 2.3-.1.2.2.6.4.3zm1.5-3.6c-.2-1.1.1-2.2.8-3.2.2-.2-.2-.6-.3-.3-.8 1.1-1.2 2.3-1 3.6.1.4.6.2.5-.1zm2.4-1.5c0-1.1.1-2.3.2-3.4 0-.3-.5-.3-.5 0-.1 1.1-.1 2.3-.2 3.4 0 .3.5.3.5 0zm-3.5 9.7c-.6.9-.7 1.9-.6 2.9 0 .3.5.2.5-.1-.1-.9.1-1.7.5-2.5.2-.3-.3-.6-.4-.3zm1.4 1.7c-.3.1-.2.6.1.5 1.3-.5 2.3-1.4 3-2.6.2-.3-.3-.5-.4-.2-.6 1-1.6 1.8-2.7 2.3zm1.7-2.5c-.1-.9.1-1.7.6-2.4.2-.2-.1-.6-.3-.4-.7.9-.9 1.9-.8 2.9.1.3.6.2.5-.1zm3.2-1.5c.4-.8.5-1.6.4-2.5 0-.3-.5-.2-.5.1.1.7 0 1.5-.3 2.1-.1.4.3.6.4.3zm-3 7.7c-1.2.8-2 2.1-2.1 3.6 0 .3.5.3.5 0 .1-1.3.7-2.5 1.8-3.2.3-.1 0-.6-.2-.4zm2.6.4c.2-.3-.2-.5-.4-.2-.7.9-1.5 1.6-2.5 2.2-.3.1 0 .6.2.4 1.1-.7 2-1.4 2.7-2.4zm-.3-1c.3-1 .5-2 .8-3 .1-.3-.4-.4-.5-.1-.3 1-.5 2-.8 3 0 .3.5.4.5.1zm-.6 5.9c-1 1.4-1.6 3-1.8 4.7 0 .3.4.4.5.1.2-1.7.8-3.2 1.8-4.6.1-.2-.3-.4-.5-.2zm2.3-.6c-.5 1.5-1.3 2.8-2.3 3.9-.2.2.1.6.3.3 1.1-1.2 1.9-2.6 2.5-4.1 0-.3-.4-.5-.5-.1zm.2-1.7c.2-.5.4-1.1.5-1.6.1-.3-.4-.4-.5-.1-.2.5-.4 1.1-.5 1.6 0 .3.4.4.5.1z" fill="#ffffff" stroke-width="none" opacity="1"></path></g><g id="svga-group-glasses-single-move" transform="matrix(1,0,0,1,0,0)"><g id="svga-group-glasses-single"></g></g></g></g></g><rect id="svga-credit-rect" width="200" height="15" x="0" y="185" fill="#ecf0f1" opacity="0.5" style="display: none;"></rect><text id="svga-credit-text" font-family="Avenir Next, Roboto, Helvetica, Arial, sans-serif" font-size="10px" text-anchor="start" font-weight="400" size="10px" anchor="start" weight="400" fill="#333333" x="34.1171875" y="182.5078125" style="display: none;"><tspan id="SvgjsTspan19472" dy="13" x="34.1171875">Created on AvatarMaker.com</tspan></text></g><defs id="SvgjsDefs19424"></defs></svg>