<svg xmlns="http://www.w3.org/2000/svg" version="1.1" width="600px" height="600px" viewBox="0 0 200 200" style="overflow:hidden!important;"><defs id="SvgjsDefs15965"></defs><g id="svga-group-wrapper"><g id="svga-group-backs-single"><path id="SvgjsPath16621" d="M0 0h200v200H0V0z" fill="#9de0ad" stroke-width="none" opacity="1"></path></g><g id="svga-group-humanwrap-move" transform="matrix(1,0,0,1,0,0)"><g id="svga-group-humanwrap" transform="matrix(1,0,0,1,0,0)"><g id="svga-group-hair-back-move" transform="matrix(1,0,0,1,0,0)"><g id="svga-group-hair-back" transform="matrix(1,0,0,1,0,0)"></g></g><g id="svga-group-humanbody-back"><path id="SvgjsPath16356" d="M77.6 118.3c0 19.3 3.4 44.1-10 51.9-13.4 7.9-31.9 11.3-37.8 22s-4.4 25.3-4.4 25.3h149.3s.7-18.9-5.1-26.4c-8.1-10.4-27.8-15.5-37.7-20.9s-13.4-25.1-13.4-52.4l-40.9.5z" fill="#ffffff" stroke-width="none" opacity="1"></path></g><g id="svga-group-chinshadow-single"></g><g id="svga-group-humanbody-front"><path id="SvgjsPath16357" d="M175.8 218.7H24.4l-.1-1c-.1-.6-1.5-15.1 4.5-26 4.1-7.4 13.5-11.3 23.5-15.5 5-2.1 10.2-4.3 14.8-6.9 10.6-6.2 10.1-23.9 9.6-41-.1-3.5-.2-6.8-.2-10v-1.1l43.2-.4v1.1c0 29.9 4.2 46.7 12.8 51.4 2.9 1.6 6.7 3.2 10.8 4.9 10 4.1 21.3 8.8 27.2 16.3 6.1 7.7 5.4 26.4 5.4 27.1l-.1 1.1zm-149.3-2.2h147.1c0-4.1-.2-18.5-4.9-24.6-5.5-7-16.6-11.6-26.3-15.6-4.1-1.7-8-3.3-11-5-5.1-2.8-8.7-8.9-10.9-18.7-2-8.4-2.9-19.4-3-33.5l-38.6.4c0 2.8.1 5.7.2 8.8.5 17.8 1 36.1-10.7 43-4.7 2.7-9.9 4.9-15 7.1-9.6 4-18.7 7.8-22.4 14.5-5 8.6-4.7 20.1-4.5 23.6z" fill="#000000" stroke-width="none" opacity="1"></path><path id="SvgjsPath16358" d="M93.9 153.8c-.5 1.8-.4 3.4.5 5.2.8 1.6 2.1 2.7 3.9 2.9.4 0 .7-.5.5-.8-1.6-2.2-3.5-4.2-3.7-7.1 0-.7-1-.9-1.2-.2z" fill="#000000" stroke-width="none" opacity="1"></path><path id="SvgjsPath16359" d="M112.5 187.5c8.8.5 18.1-.7 26.6-2.9.7-.2.6-1.4-.2-1.3-8.8 1.1-17.7 2-26.5 3.3-.5.1-.3.9.1.9z" fill="#000000" stroke-width="none" opacity="1"></path><path id="SvgjsPath16360" d="M63.1 182.5c3.8.9 7.6 1.9 11.5 2.8 3.6.8 7.4 2 11.1 2.1.7 0 .8-.9.2-1.2-3.5-1.4-7.5-1.7-11.2-2.5-3.8-.7-7.5-1.3-11.3-2-.5 0-.7.7-.3.8z" fill="#000000" stroke-width="none" opacity="1"></path></g><g id="svga-group-clothes-single"><path id="SvgjsPath16492" d="M51.4 218s1-21.2-3-40.2l14.1-6.3s3.3 21.9 15.1 30.3 43.4 7.6 50.9-1.3c7.4-8.9 11.1-27.9 11.1-27.9l15.4 6.3s-2.1 12-2.8 22.9-.2 16.2-.2 16.2H51.4z" fill="#ffffff" stroke-width="none" opacity="1"></path><path id="SvgjsPath16493" d="m155.4 177.9-15.4-6.3c-.3-.1-.6-.1-.9.1-.3.1-.4.4-.5.7 0 .2-3.7 18.8-10.9 27.4-7.2 8.6-38.2 9.3-49.5 1.1-11.3-8.1-14.6-29.4-14.7-29.7 0-.3-.2-.6-.5-.7-.3-.1-.6-.2-.9 0L48 176.8c-.4.2-.7.7-.6 1.1 3.9 18.6 3 39.8 3 40 0 .3.1.5.3.7.2.2.5.3.7.3h6.2c.1.1.2.1.3 0H152c.3 0 .6-.1.7-.3s.3-.5.3-.8c0-.1-.5-5.4.2-16.1.6-10.7 2.8-22.6 2.8-22.8.1-.3-.2-.8-.6-1zm-102.6-1c-1 1.3-2 2.7-2.7 4.1-.2-.9-.3-1.8-.5-2.7l3.2-1.4zm98.4 24.8c-.5 8.2-.4 13.2-.2 15.3H67c.9-1 1.9-2 2.8-3.1.1-.2-.1-.4-.2-.2-1.1 1.1-2.1 2.2-3.2 3.3h-6.5c1-1.1 2-2.3 3-3.5.1-.1-.1-.3-.2-.2-1.2 1.1-2.3 2.4-3.3 3.7h-5.5c2.2-2.6 4.5-5.2 6.5-7.9.1-.2-.2-.4-.3-.2-2.4 2.6-4.7 5.4-6.9 8.1h-.6c.1-2.1.2-7.3-.1-13.9 3-3.9 6.1-7.7 8.9-11.7.1-.1-.1-.3-.2-.2-3 3.6-5.9 7.5-8.7 11.3-.1-1.6-.2-3.3-.3-5.1 3.6-4.7 7.1-9.6 10-14.8.1-.1-.1-.2-.2-.1-3.2 4.8-6.4 9.6-9.8 14.3-.1-1.3-.2-2.7-.3-4 2.6-4.3 5.4-8.4 8.5-12.4.1-.2-.1-.4-.3-.2-3.2 3.6-5.9 7.7-8.2 11.9l-.6-5.1c.1 0 .2.1.2 0 .2-.2.4-.5.6-.7.1-.1 0-.3-.2-.2 1.3-.9 2.5-3.7 3.5-5.2 1.4-2 2.8-3.9 4.2-5.8.2-.2-.2-.4-.3-.2-2.9 3.8-5.7 7.6-8.2 11.7-.2-1.4-.4-2.9-.7-4.4 1.2-2 2.3-3.9 3.7-5.8l7.8-3.5c.9 4.9 4.8 22.2 15.2 29.7 12.2 8.8 44.4 7.9 52.2-1.5 6.5-7.8 10.1-22.8 11.1-27.1l13.6 5.6c-.6 2.8-2.3 12.9-2.8 22.1zM58 202.8c-1.9 2-3.6 4.2-5.4 6.4-.2.2.1.5.3.3 1.8-2.1 3.7-4.2 5.3-6.5.1-.2-.1-.3-.2-.2z" fill="#000000" stroke-width="none" opacity="1"></path></g><g id="svga-group-head" transform="matrix(1,0,0,1,0,0)"><g id="svga-group-ears-left-move" transform="matrix(1,0,0,1,0,0)"><g id="svga-group-ears-left" transform="matrix(1,0,0,1,0,0)"><path id="SvgjsPath16502" d="M59.9 81.9s-4.4-4.7-5.8-6.2c-1.4-1.4-3.1-4.7-5-4.1-1.9.5-1.2 2.7-1.3 5.8-.1 3.1.3 9.1 2.2 12.4 1.9 3.3 2.9 4.5 3.5 8 .6 3.5 2.8 4.2 4.1 3.2 1.3-1 4.3-7 4.4-10.2 0-3.2-1.2-7.5-2.1-8.9z" fill="#ffffff" stroke-width="none" opacity="1"></path><path id="SvgjsPath16503" d="M55.2 102.2c-.8-.3-2.3-1.3-2.8-4.2-.5-2.9-1.2-4-2.7-6.5l-.6-1.1c-2.1-3.6-2.5-10.1-2.4-13v-2c0-2-.1-4.1 2.1-4.7 2.1-.6 3.7 1.5 5 3.2.4.5.7.9 1 1.2 1.4 1.4 5.8 6.2 5.8 6.2l.1.1c.9 1.4 2.3 6 2.2 9.4-.1 3.4-3.2 9.8-4.8 11-.5.4-1.2.6-1.8.6-.4 0-.7-.1-1.1-.2zm-1.8-25.7c-.4-.4-.7-.9-1.1-1.4-.8-1.1-2.1-2.7-2.9-2.5-.6.2-.7.6-.6 2.8v2.1c-.1 3.1.3 8.9 2.1 11.9l.6 1.1c1.5 2.6 2.4 4 3 7.2.3 1.4.8 2.4 1.5 2.7.3.1.7.1 1-.1 1-.8 3.9-6.5 4-9.4.1-3-1.1-7.1-1.8-8.2-.7-.7-4.6-4.9-5.8-6.2z" fill="#000000" stroke-width="none" opacity="1"></path><path id="SvgjsPath16504" d="M48.2 76.3c.5-1.9 2.1-1 3 .4 1.9 2.6 3.2 6.6 3.6 10 0 .1-.1.2-.1.1-.1.1-.2.1-.2-.1-1.2-.5-1.6-.2-1.2.8 0 .3.1.6.3.9.2.5.6 1 .9 1.5.5.8 1.2 1.5 1.7 2.3.2.3 0 .6-.2.4-1.4-1-3.9-4.3-3.2-6.6.3-.8 1-1.1 1.5-.7-1.1-3.6-4-12-5.8-8.8-.1.1-.3 0-.3-.2z" fill="#000000" stroke-width="none" opacity="1"></path><path id="SvgjsPath16505" d="M51.1 76.8c-1 2-1.4 4.4-.9 7.1.3 1.5 2.9 9.5 4.9 8.4.2-.1.4.3.2.5-2 1.8-4.2-4.5-4.9-6.5-1.1-3.4-1.4-7.5.5-9.7.1-.1.2.1.2.2z" fill="#000000" stroke-width="none" opacity="1"></path></g></g><g id="svga-group-ears-right-move" transform="matrix(1,0,0,1,0,0)"><g id="svga-group-ears-right" transform="matrix(1,0,0,1,0,0)"><path id="SvgjsPath16506" d="M140.1 81.9s4.4-4.7 5.8-6.2c1.4-1.4 3.1-4.7 5-4.1 1.9.5 1.2 2.7 1.3 5.8s-.3 9.1-2.2 12.4c-1.9 3.3-2.9 4.5-3.5 8-.6 3.5-2.8 4.2-4.1 3.2-1.3-1-4.3-7-4.4-10.2 0-3.2 1.2-7.5 2.1-8.9z" fill="#ffffff" stroke-width="none" opacity="1"></path><path id="SvgjsPath16507" d="M143.7 102.4c-.6 0-1.3-.2-1.8-.6-1.5-1.2-4.7-7.5-4.8-11-.1-3.4 1.2-8 2.2-9.4l.1-.1s4.4-4.7 5.8-6.2c.3-.3.6-.8 1-1.2 1.3-1.7 2.9-3.8 5-3.2 2.2.6 2.1 2.7 2.1 4.7v2c.1 2.9-.2 9.4-2.4 13l-.6 1.1c-1.5 2.5-2.2 3.7-2.7 6.5-.5 2.9-2 3.9-2.8 4.2-.4.1-.7.2-1.1.2zm-2.8-19.9c-.7 1.2-1.9 5.2-1.8 8.2.1 2.9 2.9 8.6 4 9.4.3.2.6.3 1 .1.7-.3 1.3-1.3 1.5-2.7.6-3.2 1.4-4.7 3-7.2l.6-1.1c1.8-3 2.2-8.7 2.1-11.9v-2.1c.1-2.2 0-2.6-.6-2.8-.8-.2-2 1.4-2.9 2.5-.4.5-.8 1-1.1 1.4-1.3 1.5-5.2 5.7-5.8 6.2z" fill="#000000" stroke-width="none" opacity="1"></path><path id="SvgjsPath16508" d="M151.8 76.3c-.5-1.9-2.1-1-3 .4-1.9 2.6-3.2 6.6-3.6 10 0 .1.1.2.1.1.1.1.2.1.2-.1 1.2-.5 1.6-.2 1.2.8 0 .3-.1.6-.3.9-.2.5-.6 1-.9 1.5-.5.8-1.2 1.5-1.7 2.3-.2.3 0 .6.2.4 1.4-1 3.9-4.3 3.2-6.6-.3-.8-1-1.1-1.5-.7 1.1-3.6 4-12 5.8-8.8.1.1.3 0 .3-.2z" fill="#000000" stroke-width="none" opacity="1"></path><path id="SvgjsPath16509" d="M148.9 76.8c1 2 1.4 4.4.9 7.1-.3 1.5-2.9 9.5-4.9 8.4-.2-.1-.4.3-.2.5 2 1.8 4.2-4.5 4.9-6.5 1.1-3.4 1.4-7.5-.5-9.7-.1-.1-.2.1-.2.2z" fill="#000000" stroke-width="none" opacity="1"></path></g></g><g id="svga-group-faceshape-wrap" transform="matrix(1,0,0,1,0,0)"><g id="svga-group-faceshape-single"><path id="SvgjsPath16582" d="M142.4 53.6c-2.3-11.4-15.1-28.8-42.4-28.8-27.3 0-36.4 13.4-40.5 23.3-2.5 6.2-3.2 15.2-3.4 19.7 0 0 .5 31 2.3 35.4 1.8 4.4 21.2 33.1 24.3 36.2s29 3.5 32.5 1.8c3.5-1.8 24.2-31.3 25.6-35.3 1.3-4 3-38.1 3-38.1 0-3.2-.3-8.9-1.4-14.2z" fill="#ffffff" stroke-width="none" opacity="1"></path><path id="SvgjsPath16583" d="M103.7 143.4c-1.7 0-3.4 0-5-.1-5.4-.2-14.7-.9-16.8-3-3.1-3.1-22.6-31.8-24.5-36.6-1.8-4.5-2.3-32.7-2.3-35.9.2-4.8.9-13.8 3.4-20.1 6.6-16.2 20.1-24 41.5-24 12.3 0 23.2 3.6 31.3 10.4 6.3 5.2 10.9 12.5 12.2 19.3 1.1 5.5 1.3 11.4 1.4 14.4-.2 3.5-1.7 34.4-3.1 38.4-1.3 3.8-21.9 33.9-26.1 36-1.6.9-6.7 1.2-12 1.2zM57.3 67.9c.1 8.6.8 31.5 2.2 35 1.8 4.6 21.2 33 24 35.8 2.5 2.5 27.9 3.2 31.2 1.6 3.1-1.6 23.8-31 25-34.7 1-3.1 2.5-28.3 2.9-37.8 0-3-.3-8.7-1.4-14-1.3-6.4-5.6-13.1-11.5-18-7.7-6.5-18-9.9-29.9-9.9-20.3 0-33.2 7.4-39.4 22.6-2.2 6-2.9 14.7-3.1 19.4z" fill="#000000" stroke-width="none" opacity="1"></path></g></g><g id="svga-group-mouth-single-move" transform="matrix(1,0,0,1,0,0)"><g id="svga-group-mouth-single" transform="matrix(1,0,0,1,0,0)"><path id="SvgjsPath16641" d="M115.55 116.07c.18-.22-.08-.5-.28-.38-.11-.02-.24.02-.28.16-.02.06-.04.11-.06.16-2.25 2.41-5.13 2.38-8.06 1.18-1.75-.72-2.75-.81-4.41.16-1.52.89-2.64.71-4.26.25-.82-.23-1.58-.39-2.42-.19-2.78.69-4.07 4.88-7.37 3.7-.23-.08-.35.19-.25.36-.03.1-.01.21.09.28.79.59 1.66.91 2.55 1.06-.05.1-.04.24.08.32a16.452 16.452 0 0 0 22.95-4.33c.01-.01 0-.02 0-.02.68-.64 1.21-1.47 1.53-2.53.07-.05.14-.11.19-.18zm-21.66 3.06c2.17-1.87 3.47-.92 5.85-.56.75.11 1.36.04 2.05-.26.57-.25 1.05-.69 1.63-.93 1.66-.67 2.46-.03 3.82.53.94.39 1.85.69 2.87.71 1.65.03 3.19-.55 4.43-1.56-.3.6-.68 1.1-1.12 1.5-2.76 2.54-7.99 1.69-11.5 1.81-4.06.13-8.82 3.46-12.67 1.43 1.89.16 3.19-1.42 4.64-2.67zm-2.45 3.79c1.08.08 2.2-.08 3.3-.36 1.28-.33 2.5-.84 3.78-1.18 1.85-.5 3.71-.54 5.61-.48 2.69.09 6.01.12 8.42-1.17-5.17 6.28-14.19 7.69-21.11 3.19z" fill="#000000" stroke-width="none" opacity="1"></path></g></g><g id="svga-group-eyes-left-move" transform="matrix(1,0,0,1,0,0)"><g id="svga-group-eyes-left" transform="matrix(1,0,0,1,0,0)"><g id="svga-group-eyesback-left"></g><g id="svga-group-eyesiriswrapper-left"><g id="svga-group-eyesiriscontrol-left" transform="matrix(1,0,0,1,0,0)"><g id="svga-group-eyesiris-left" transform="matrix(1,0,0,1,0,0)"><path id="SvgjsPath16595" d="M83.5 85.1c-1.1-2.1-3.5-2.9-5.7-2.2-2.4.8-4.2 3.3-3.3 5.9.5 1.4 1.6 2.6 3.1 2.9.5.1 1 .1 1.6.1.6.1 1.2 0 1.8-.2 2.6-.9 3.8-4 2.5-6.5z" fill="#ffffff" stroke-width="none" opacity="1"></path><path id="SvgjsPath16596" d="M82.3 85.8c0-.1-.1-.1-.1-.2-.7-1.4-2.3-2-3.8-1.7.5 1.1.9 2.3 1 3.5 0 .2-.3.4-.5.3-.9-.7-1.8-1.6-2.3-2.6-.3.4-.5.8-.7 1.2-.1.3-.1.6-.1.9-.2.9 0 2 .8 2.7.3.3.8.5 1.2.6 1.2.6 2.7.5 3.7-.6.1-.1.1-.2.2-.2.5-.5.8-1.1 1-1.7.2-.9 0-1.6-.4-2.2zm-2.8 6.3h-.4c-.5 0-1.1 0-1.6-.1-1.4-.3-2.7-1.5-3.2-3-.9-2.7 1-5.2 3.4-6.1 2.3-.8 4.8.1 5.9 2.2.6 1.2.7 2.7.2 4-.5 1.3-1.6 2.3-2.9 2.8-.4.1-.9.2-1.4.2zm-.4-.4c.6.1 1.2 0 1.8-.2 1.2-.4 2.2-1.4 2.7-2.6.5-1.2.4-2.6-.2-3.7-1-1.9-3.4-2.8-5.5-2.1-2.3.8-4.1 3.2-3.2 5.7.5 1.4 1.7 2.6 3 2.8.4.1.9.2 1.4.1z" fill="#000000" stroke-width="none" opacity="1"></path></g></g></g><g id="svga-group-eyesfront-left"><path id="SvgjsPath16546" d="M79 72.1c-8.2 0-14.8 6.6-14.8 14.8s6.6 14.8 14.8 14.8 14.8-6.6 14.8-14.8c0-8.1-6.6-14.8-14.8-14.8zm4.1 20.6c-2.4 1.1-5.9 1.4-8.4 1.1-2.6-.4-7.1-3.6-7.1-3.6s1.2-1.7 2.2-2.7 2.7-2.5 6.4-4.3c3.7-1.8 8.6.7 9.9 1.9 1.3 1.2 2 4.4 2 4.4s-2.6 2.1-5 3.2z" fill="#ffffff" stroke-width="none" opacity="1"></path><path id="SvgjsPath16547" d="M85.6 83.8c-1.7-1.1-5-2.1-8.5-1.5.1 0 .2-.1.2-.1.2-.6.1-1.3 0-1.9 3.9-.5 7 2.3 7.7 3.1l.8-.8c-.6-.6-6.4-6.1-12.5-1.8-6 4.2-6.7 6.7-6.7 7-.1.3.1.6.4.6h.1c.2 0 .4-.1.5-.3 0 .3-.1.7-.1 1-1.9 2.1-2.6 3.1-2.6 3.1-.2.2-.1.6.1.8.1.1.2.1.3.1.2 0 .3-.1.5-.2 0 0 1.4-2 5.9-6.5C76 81.7 82.5 83 85 84.7c1.5 1 2.3 3.1 2.7 4.6-.1 0-.2-.1-.3 0-.2 0-.3.1-.6.4-6.4 6.1-13.2 3.8-17.8.7-.3-.2-.6-.1-.8.2-.2.3-.1.6.2.8 2.7 1.8 6.1 3.3 9.7 3.3 3.1 0 6.3-1.1 9.5-4.2l.2-.2.1-.1c.1.6.2.9.2 1 0 .3.3.5.6.5s.5-.3.5-.6c-.1-.3-.7-5.3-3.6-7.3zm-15.7 2.7-.6.6V86c0-.2-.2-.2-.3 0 0 .4-.1.8-.1 1.2v.3c-.2.2-.4.5-.6.7v-.5c0-.4.1-.8.1-1.2.3-.5.9-1.1 1.6-1.8-.1.6-.2 1.2-.1 1.8zm1-1.1-.2.2c0-.5-.1-1-.1-1.4.2-.2.4-.3.6-.5 0 .5.1.9.2 1.3-.3.2-.4.3-.5.4zm1.5-2.7c0 .5-.1 1 0 1.4-.2.2-.4.3-.7.5 0-.4-.1-.9-.2-1.3.3-.2.6-.5.9-.6 0-.1 0 0 0 0zm2.9 0V82c0-.1-.2-.1-.2 0v.8c-.3.1-.7.3-1 .4v-.8c0-.2-.3-.2-.3 0v1c-.3.2-.6.3-.9.5v-1.1c0-.2-.2-.2-.3-.2.4-.3.9-.7 1.4-1 1-.7 2-1.1 2.9-1.3-.1.6-.1 1.3 0 1.9 0 .1.1.1.2.1-.6 0-1.2.2-1.8.4z" fill="#000000" stroke-width="none" opacity="1"></path></g></g></g><g id="svga-group-eyes-right-move" transform="matrix(1,0,0,1,0,0)"><g id="svga-group-eyes-right" transform="matrix(1,0,0,1,0,0)"><g id="svga-group-eyesback-right"></g><g id="svga-group-eyesiriswrapper-right"><g id="svga-group-eyesiriscontrol-right" transform="matrix(1,0,0,1,0,0)"><g id="svga-group-eyesiris-right" transform="matrix(1,0,0,1,0,0)"><path id="SvgjsPath16597" d="M125.6 85.1c-1.1-2.1-3.5-2.9-5.7-2.2-2.4.8-4.2 3.3-3.3 5.9.5 1.4 1.6 2.6 3.1 2.9.5.1 1 .1 1.6.1.6.1 1.2 0 1.8-.2 2.5-.9 3.7-4 2.5-6.5z" fill="#ffffff" stroke-width="none" opacity="1"></path><path id="SvgjsPath16598" d="M124.4 85.8c0-.1-.1-.1-.1-.2-.7-1.4-2.3-2-3.8-1.7.5 1.1.9 2.3 1 3.5 0 .2-.3.4-.5.3-.9-.7-1.8-1.6-2.3-2.6-.3.4-.5.8-.7 1.2-.1.3-.1.6-.1.9-.2.9 0 2 .8 2.7.3.3.8.5 1.2.6 1.2.6 2.7.5 3.7-.6.1-.1.1-.2.2-.2.5-.5.8-1.1 1-1.7.1-.9 0-1.6-.4-2.2zm-2.8 6.3h-.4c-.5 0-1.1 0-1.6-.1-1.4-.3-2.7-1.5-3.2-3-.9-2.7 1-5.2 3.4-6.1 2.3-.8 4.8.1 5.9 2.2.6 1.2.7 2.7.2 4-.5 1.3-1.6 2.3-2.9 2.8-.4.1-.9.2-1.4.2zm-.4-.4c.6.1 1.2 0 1.8-.2 1.2-.4 2.2-1.4 2.7-2.6.5-1.2.4-2.6-.2-3.7-1-1.9-3.4-2.8-5.5-2.1-2.3.8-4.1 3.2-3.2 5.7.5 1.4 1.7 2.6 3 2.8.3.1.8.2 1.4.1z" fill="#000000" stroke-width="none" opacity="1"></path></g></g></g><g id="svga-group-eyesfront-right"><path id="SvgjsPath16548" d="M121 72.1c-8.2 0-14.8 6.6-14.8 14.8s6.6 14.8 14.8 14.8 14.8-6.6 14.8-14.8c0-8.1-6.6-14.8-14.8-14.8zm4.2 21.6c-2.6.4-6.1 0-8.4-1.1-2.4-1.1-4.9-3.4-4.9-3.4s.7-3.2 2-4.4c1.3-1.2 6.2-3.6 9.9-1.9 3.7 1.8 5.5 3.3 6.4 4.3s2.2 2.7 2.2 2.7-4.6 3.5-7.2 3.8z" fill="#ffffff" stroke-width="none" opacity="1"></path><path id="SvgjsPath16551" d="M135 92.1c-.1-.1-1.5-2.1-6-6.7-4.8-4.9-12-3.5-14.7-1.7-2.9 2-3.5 7-3.5 7.2 0 .3.2.6.5.6s.6-.2.6-.5c0 0 0-.4.2-1l.1.1c.1 0 .1.1.2.2 3.2 3.1 6.4 4.2 9.5 4.2 3.6 0 7-1.6 9.7-3.3.3-.2.3-.5.2-.8-.2-.3-.5-.3-.8-.2-4.6 3.1-11.5 5.4-17.8-.7-.3-.3-.4-.4-.6-.4h-.3c.4-1.5 1.2-3.6 2.7-4.6 2.5-1.7 8.9-3 13.3 1.5s5.9 6.5 5.9 6.5c.1.2.3.2.5.2.1 0 .2 0 .3-.1.1.1.2-.2 0-.5zm-9.1-10.6c5.7 3.9 6.3 6.3 6.3 6.3.1.3.3.4.5.4h.1c.3-.1.5-.3.4-.6-.1-.3-.7-2.8-6.7-7-6.2-4.3-11.9 1.2-12.5 1.8l.8.8c.9-.9 5.8-5.3 11.1-1.7z" fill="#000000" stroke-width="none" opacity="1"></path></g></g></g><g id="svga-group-facehighlight-single"></g><g id="svga-group-eyebrows-left-move" transform="matrix(1,0,0,1,0,0)"><g id="svga-group-eyebrows-left-rotate" transform="matrix(1,0,0,1,0,0)"><g id="svga-group-eyebrows-left" transform="matrix(1,0,0,1,0,0)"><path id="SvgjsPath16468" d="M70.67 64.23c3.47-1.02 20.5 4.56 20.86 5.78.36 1.22.7 5.93-.55 6.46-1.25.54-18.75-7.56-20.49-6.88-1.73.68-5.21 6.18-6.11 6.11-.89-.07 4.68-10.99 6.29-11.47z" fill="#ffffff" stroke-width="none" opacity="1"></path><path id="SvgjsPath16469" d="M64.33 76.2c.66.05 1.32-.67 3.04-2.75 1.14-1.38 2.55-3.1 3.32-3.4.9-.21 6.99 2.19 11.01 3.79 6.61 2.62 8.66 3.35 9.42 3.12.03-.01.05-.01.08-.02 1.83-.78 1.11-6.27.87-7.09-.25-.84-3.93-2.22-6.72-3.16a.428.428 0 0 0-.28-.09c-1.18-.38-2.16-.69-2.61-.83-2.81-.84-9.61-2.73-11.92-2.05-1.88.55-6.89 10.55-6.77 11.88.02.42.32.59.56.6zm3.63-7.48 1.89.63c-.41.27-.85.67-1.32 1.15-.53.12-1.07.15-1.61.12.33-.63.68-1.27 1.04-1.9zm3.19.34-2.83-.95c1-1.7 1.95-3.08 2.44-3.35 1.43 1.7 2.77 3.48 4.01 5.31-1.67-.58-2.86-.92-3.62-1.01zm4.75 1.42c-1.33-2.03-2.78-4-4.34-5.87.64-.03 1.48.04 2.46.19l4.06 6.5c-.78-.3-1.51-.57-2.18-.82zm9.08-2.82c1.01 2.41 1.92 4.89 2.71 7.38-1.24-.46-2.7-1.02-4.12-1.58-.99-1.49-1.97-2.91-2.92-4.28-.78-1.13-1.57-2.29-2.38-3.49 2.22.56 4.61 1.27 6.71 1.97zm3.58 7.68c-.77-2.48-1.67-4.96-2.67-7.38 1.11.38 2.11.75 2.93 1.1.67 2.17.98 4.41.96 6.69-.34-.1-.76-.24-1.22-.41zm2.25.64c-.07 0-.18-.01-.29-.04.04-2.21-.24-4.39-.84-6.51.7.32 1.19.59 1.36.78.4 1.49.42 5.35-.23 5.77zm-11.6-4.24-4.23-6.77c.7.13 1.46.29 2.25.47.97 1.44 1.9 2.81 2.81 4.12.76 1.1 1.55 2.24 2.34 3.42-.08-.03-.17-.07-.24-.1-1.06-.41-2.03-.79-2.93-1.14zM65.1 74.51c.31-.8.84-1.96 1.47-3.21.41.05.82.04 1.24 0-.43.49-.86 1.01-1.29 1.53-.44.54-.98 1.19-1.42 1.68z" fill="#000000" stroke-width="none" opacity="1"></path></g></g></g><g id="svga-group-eyebrows-right-move" transform="matrix(1,0,0,1,0,0)"><g id="svga-group-eyebrows-right-rotate" transform="matrix(1,0,0,1,0,0)"><g id="svga-group-eyebrows-right" transform="matrix(1,0,0,1,0,0)"><path id="SvgjsPath16470" d="M129.1 64.02c-3.5-.92-20.35 5.2-20.67 6.43-.32 1.23-.51 5.94.76 6.44s18.5-8.15 20.26-7.52c1.76.63 5.4 6.01 6.3 5.91.88-.09-5.02-10.84-6.65-11.26z" fill="#ffffff" stroke-width="none" opacity="1"></path><path id="SvgjsPath16471" d="M136.37 75.18c.07-1.34-5.25-11.17-7.14-11.67-2.33-.61-9.06 1.49-11.85 2.42-.45.15-1.43.48-2.58.91a.37.37 0 0 0-.27.09c-2.77 1.02-6.39 2.51-6.62 3.37-.21.82-.78 6.33 1.09 7.06.03.01.05.01.08.02.76.2 2.78-.6 9.32-3.42 3.97-1.72 9.98-4.31 10.89-4.13.79.28 2.25 1.95 3.43 3.29 1.78 2.02 2.46 2.73 3.12 2.66.22-.01.51-.19.53-.6zm-3.32-4.89c-.54.05-1.07.04-1.61-.07-.48-.47-.93-.85-1.35-1.11l1.87-.69c.37.62.74 1.25 1.09 1.87zm-7.85-.31c1.18-1.87 2.47-3.69 3.84-5.44.5.26 1.49 1.6 2.55 3.27l-2.8 1.03c-.78.13-1.95.51-3.59 1.14zm-3.29 1.34 3.86-6.62c.98-.18 1.82-.28 2.45-.27-1.5 1.92-2.89 3.94-4.15 6-.66.27-1.38.56-2.16.89zm-.35-5.6c-.77 1.22-1.53 2.41-2.27 3.56-.9 1.4-1.84 2.85-2.78 4.37-1.4.61-2.84 1.21-4.07 1.71.71-2.51 1.55-5.01 2.48-7.46 2.06-.78 4.43-1.55 6.64-2.18zm-11.2 10.41c-.09-2.28.15-4.53.75-6.72.81-.37 1.8-.77 2.89-1.19-.92 2.45-1.74 4.94-2.43 7.46-.46.18-.87.34-1.21.45zm-1.42-5.49c.16-.19.64-.48 1.33-.82-.53 2.14-.74 4.32-.63 6.53-.12.03-.23.04-.29.05-.67-.41-.78-4.27-.41-5.76zm8.97 2.39c-.08.03-.15.07-.23.1.76-1.2 1.51-2.37 2.23-3.49.87-1.35 1.77-2.75 2.68-4.21.78-.21 1.53-.4 2.23-.54l-4.01 6.9c-.9.38-1.85.79-2.9 1.24zm15.6-.54c-.45-.51-.89-1.01-1.34-1.49.42.03.82.02 1.24-.04.67 1.22 1.24 2.36 1.57 3.16-.45-.48-1-1.11-1.47-1.63z" fill="#000000" stroke-width="none" opacity="1"></path></g></g></g><g id="svga-group-beardwrap" transform="matrix(1,0,0,1,0,0)"><g id="svga-group-beard-single-move" transform="matrix(1,0,0,1,0,0)"><g id="svga-group-beard-single" transform="matrix(1,0,0,1,0,0)"></g></g></g><g id="svga-group-mustache-single-move" transform="matrix(1,0,0,1,0,0)"><g id="svga-group-mustache-single" transform="matrix(1,0,0,1,0,0)"><path id="SvgjsPath16655" d="M96.3 112.9c-4-.6-8.2-.6-12.3-.7-2.3-.1-5.7-.7-7.2 1.1-1.4 1.7.2 4.6.4 6.3.4 3.5-.4 7.3.7 10.8.2.5 1.1.5 1.3 0 .8-2.2.4-4.5.1-6.8-.2-1.3-.4-2.7-.6-4-.1-.8-.9-3.2-.6-3.9.8-2 6.2-.7 8.3-.6 3.1.2 6.3.7 9.4.6 2 0 2.6-2.5.5-2.8zm26.1.5c-1.2-1.7-3.8-1.5-5.9-1.5-4.7.1-9.5.5-14.1 1.2-1.8.2-1.4 2.7.4 2.5 3.4-.2 6.8-.6 10.3-.8 1.4-.1 3.7-.4 5.2-.3 2.1.3 2.3.6 2.6 2.3.7 4.8-3.4 9.8-.8 14.6.1.2.5.2.6 0 1.2-3.1 1-6.7 1.5-10 .1-2.1 1.7-5.9.2-8z" fill="#000000" stroke-width="none" opacity="1"></path></g></g><g id="svga-group-nose-single-move" transform="matrix(1,0,0,1,0,0)"><g id="svga-group-nose-single" transform="matrix(1,0,0,1,0,0)"><path id="SvgjsPath16626" d="M98.92 93.95c1.67-.17 5.27 2.68 7.28 4.93 2.01 2.26 3.68 6.36 1.76 7.94-1.92 1.59-2.34.5-4.85 2.51s-3.43 2.43-5.19.67c-1.76-1.76-3.6-2.43-5.69-2.59-2.09-.17-2.17-3.18-1.51-4.77.67-1.58 3.35-8.19 8.2-8.69z" fill="#ffffff" stroke-width="none" opacity="1"></path><path id="SvgjsPath16627" d="M95.87 86.37c-2.3 5.24-4.2 10.53-5.58 16.08-.46 1.86-.89 4.11 1.08 5.31.8.49 1.67.41 2.57.46 1.73.1 2.47 1.27 3.64 2.32 1.29 1.15 2.92 1.71 4.42.64.88-.63 1.4-1.66 2.32-2.24 1.04-.66 2.37-.46 3.4-1.18 3.48-2.43.4-7.31-1.36-9.73-.43-.59-1.43-.02-.99.58.94 1.29 1.82 2.69 2.41 4.18.34.86.5 1.77.21 2.69-.45 1.45-1.62 1.62-2.88 1.94-1.49.38-2.16 1.33-3.22 2.35-2.2 2.12-3.74-.64-5.42-1.87-.51-.37-1.01-.62-1.63-.74-.9-.17-2.06.13-2.87-.38-1.47-.94-.87-2.69-.55-4.01.27-1.09.51-2.19.82-3.27 1.2-4.3 2.85-8.46 4.65-12.54.26-.68-.73-1.26-1.02-.59z" fill="#000000" stroke-width="none" opacity="1"></path></g></g><g id="svga-group-hair-front" transform="matrix(1,0,0,1,0,0)"><path id="SvgjsPath16664" d="M108.4 21.6c-2.1-.4-4.3-.5-6.4-.6 1.5-.3 3.1-1.5 3.2-5.7.1-4.6-2.8-7.2-5.4-7.2s-6 .9-7.4 1.2c-1.4.3-5.4.2-7.3 2.1s-2.1 5-.9 7.9c.9 2.1 2.3 2.9 3.5 3.1-3.9.8-6.8 1.9-8.1 2.6-3.2 1.7-6.3 6-6.3 6s5.9 3.1 10.5 7.4S96.6 44 101.1 43s11.6-5.9 14-9.1 7.7-3.8 7.7-3.8-2.1-6.4-14.4-8.5z" fill="#ffffff" stroke-width="none" opacity="1"></path><path id="SvgjsPath16665" d="M123.8 29.8c-.1-.3-2.4-7-15.2-9.2-1.2-.2-2.4-.4-3.6-.5.8-1.1 1.2-2.7 1.2-4.8.1-2.6-.8-4.8-2.3-6.4a5.54 5.54 0 0 0-4.1-1.8c-2.4 0-5.3.7-7 1.1l-.6.1c-.3.1-.8.1-1.3.2-1.9.2-4.8.5-6.5 2.2-2.2 2.1-2.6 5.6-1.1 9 .4 1 1 1.8 1.6 2.4-2.7.7-4.8 1.5-5.8 2-3.4 1.8-6.5 6.1-6.7 6.3l-.7.9 1 .5c.1 0 5.8 3.1 10.3 7.3 3.7 3.5 9.8 5.2 14.6 5.2 1.3 0 2.4-.1 3.5-.3 4.8-1 12.2-6.2 14.6-9.5 2.1-2.8 7-3.4 7-3.4l1.2-.1-.1-1.2zm-9.5 3.5c-1.2 1.6-3.8 3.8-6.6 5.5 3.7-4 5.9-9.1 6.4-14.7 1.2.5 2.3 1 3.1 1.5-.3 2.4-1 4.6-2.2 6.7-.2.4-.4.7-.7 1zm-1.3-9.6c-.5 7.2-4.1 13.5-9.9 17.6-.2.1-.3.1-.5.2 2.8-6.2 3.2-12.9 1.1-19.5 1.5.1 3.1.3 4.6.5 1.7.4 3.3.8 4.7 1.2zM94.8 42.1c-6.9-3.3-11.8-9.3-13.5-16.8 1-.4 2.4-.9 4-1.3 1.3 7.7 5.7 14.2 12.2 18.3-.8 0-1.7-.1-2.7-.2zm-3.7-24c-.2-.8-.3-1.8-.3-2.7 0-2.2.5-4.4 2.6-5.4.7-.2 1.8-.4 2.9-.6 1.9.5 2.7 4.3 2.6 5.7-.1 2-1.4 3.8-3 4.9l-.1.1c-1.1.1-2.1.2-3.1.3-.8-.5-1.4-1.4-1.6-2.3zm11.2 3.9c2.2 6.6 1.8 13.3-1.1 19.5 1.7-6.6.9-13.4-2.3-19.4h.3c1 0 1.9.1 2.6 0h.2c.1-.1.2-.1.3-.1zm-7 .4.2-.1c.1 0 .2-.1.4-.1.5 0 1.1-.1 1.6-.1 3.3 5.9 4.1 12.5 2.5 19-4.9-5-8-11.1-9.2-18 1.9-.3 4.4-.7 4.5-.7zm-6.8 1.1c.4 0 .7 0 1-.1h.1c1.2 7 4.3 13.2 9.1 18.3-6.5-3.9-10.9-10.3-12.2-17.9.4-.1.8-.2 1.3-.3.2-.1.4 0 .7 0zm15.7-8.3c-.1 3.8-1.4 4.5-2.3 4.7h-.7c2.2-2.3 2.9-5.5 2.1-8.5.6 1.1.9 2.4.9 3.8zm-3.3-5.9c2.6 3.5 1.9 8.1-1.5 10.7-.5 0-1.1 0-1.6.1 1.7-1.7 2.6-4 2.2-6.4-.2-1.4-1-3.3-2.1-4.4.7-.2 1.3-.3 1.9-.3.4 0 .8.1 1.1.3zm-9.8 1.2c-2.1 2.8-2.2 7.8-.2 10.3-.4.1-.7.1-1 .2-1-.7-1.7-2.4-1.9-3.2-.3-.9-.3-1.9-.2-2.9.2-1.6.9-3 2-4.3.5-.1.9-.1 1.3-.1zm-5.9 8.4c-1.1-2.7-.9-5.3.6-6.8.5-.5 1.3-.9 2.2-1.1-1.4 2.2-1.9 4.9-1.1 7.5.3.9.8 2 1.5 2.8-.2 0-.4.1-.7.1-.8-.2-1.8-.8-2.5-2.5zM74.9 30.6c1-1.3 3.2-3.7 5.3-4.8 1.5 6.3 5.2 11.7 10.5 15.3-2.2-.8-4.4-1.9-6.1-3.5-3.6-3.3-7.8-5.9-9.7-7zm42.3.3c.6-1.4 1-2.9 1.2-4.4 1.5 1.1 2.4 2.1 2.9 2.9-1.1.2-2.6.7-4.1 1.5z" fill="#000000" stroke-width="none" opacity="1"></path></g><g id="svga-group-glasses-single-move" transform="matrix(1,0,0,1,0,0)"><g id="svga-group-glasses-single" transform="matrix(1,0,0,1,0,0)"></g></g></g></g></g><rect id="svga-credit-rect" width="200" height="15" x="0" y="185" fill="#ecf0f1" opacity="0.5" style="display: none;"></rect><text id="svga-credit-text" font-family="Avenir Next, Roboto, Helvetica, Arial, sans-serif" font-size="10px" text-anchor="start" font-weight="400" size="10px" anchor="start" weight="400" fill="#333333" x="34.1171875" y="182.5078125" style="display: none;"><tspan id="SvgjsTspan16018" dy="13" x="34.1171875">Created on AvatarMaker.com</tspan></text></g></svg>