<svg xmlns="http://www.w3.org/2000/svg" version="1.1" width="600px" height="600px" viewBox="0 0 200 200" style="overflow:hidden!important;"><defs id="SvgjsDefs24904"><linearGradient id="SvgjsLinearGradient25584" x1="80.5815" y1="78.6567" x2="80.5815" y2="101.9246" gradientUnits="userSpaceOnUse" class="svga-on-canvas-glasses-gradient-single-0-null"><stop id="SvgjsStop25585" stop-opacity="1" stop-color="#000000" offset="0" ></stop><stop id="SvgjsStop25586" stop-opacity="0" stop-color="#000000" offset="1" ></stop></linearGradient><linearGradient id="SvgjsLinearGradient25588" x1="34.0012" y1="78.6567" x2="34.0012" y2="101.9246" gradientTransform="matrix(-1 0 0 1 152.872 0)" gradientUnits="userSpaceOnUse" class="svga-on-canvas-glasses-gradient-single-1-null"><stop id="SvgjsStop25589" stop-opacity="1" stop-color="#000000" offset="0" ></stop><stop id="SvgjsStop25590" stop-opacity="0" stop-color="#000000" offset="1" ></stop></linearGradient></defs><g id="svga-group-wrapper"><g id="svga-group-backs-single"><path id="SvgjsPath25361" d="M0 0h200v200H0V0z" fill="#774f38" stroke-width="none" opacity="1" stroke="none"></path><path id="SvgjsPath25362" d="M0 70.8 39.2 200l39.2-86.3L0 9.9v60.9zM200 0h-47.6l23 37.5L200 0zm-28.9 104.9 16.5-40.7-70.5-26.8 54 67.5zM51.3 200h101.1v-33.1l-73.9 19.5L51.3 200zm27.2-86.3 73.9 53.2L78.5 0v113.7z" fill="#683e26" stroke-width="none" opacity="1" stroke="none"></path><path id="SvgjsPath25363" d="m134.4 0 2 130.8L176.2 0h-41.8zm18 166.9 47.6-14.5v-21.5L171.1 105l-18.7 61.9zm22.9-129.4 12.3 26.8 12.4 6.9V0l-24.7 37.5zm-58.2 0L96.7 26.6 117.1 0 81 18.3 46.7 0h-28l56.2 21.4L0 59.3v93.1L94.8 29l22.3 8.5zM0 200h94.2l42.2-69.2L0 189.1V200z" fill="#582f18" stroke-width="none" opacity="1" stroke="none"></path><path id="SvgjsPath25364" d="M104.4 70.8 91.1 13.5 166.2 0 90 8.6 88 0H68.2l3.5 10.6L0 18.7v11.1l73.7-13.2 19.5 59-65.3 28L0 70.8v5.4l24 29.2-24 10.2 24.5-9.6 57.4 69.8L51.3 200h27.2l11.1-14.9 12.3 14.9h7.9l-16.7-19.6 24.1-32.4 17.2 52.1-29.2-125.6 94.8-37v-7.6l-95.6 40.9zm12.7 77.1-30.9 24.4-57.7-67.9 65.7-25.7 22.9 69.2zm70.5 52.1H200l-47.6-95.1 35.2 95.1z" fill="#ffffff" stroke-width="none" opacity="1"></path></g><g id="svga-group-humanwrap-move" transform="matrix(1,0,0,1,0,0)"><g id="svga-group-humanwrap" transform="matrix(1,0,0,1,0,0)"><g id="svga-group-hair-back-move" transform="matrix(1,0,0,1,0,0)"><g id="svga-group-hair-back" transform="matrix(1,0,0,1,0,0)"><path id="SvgjsPath25675" d="M134.5 46.85a1.01 1.01 0 0 0-.48-.83c-22.11-13.32-62.93-3.71-64.65-3.3a.99.99 0 0 0-.76.88l-7.69 84.32c-.01.07 0 .15 0 .22l6.1 45.87c.07.51.53.91 1.03.87a1 1 0 0 0 .96-.95l1.15-23.48 4.03 23.6c.09.52.55.88 1.08.83.52-.05.92-.49.91-1.01l-.21-12.96 1.67 13.89c.06.52.52.93 1.05.88.53-.03.94-.46.95-.99l.16-16.54 3.16 18.29c.09.5.53.87 1.02.83.5-.02.91-.41.96-.91l1.94-20.71 3.24 19.45c.08.49.51.87 1 .84.49-.01.91-.37.98-.86l2.55-18.23 3.16 18.79a1 1 0 0 0 .99.83h.01a1 1 0 0 0 .98-.85l2.81-18.63 3.18 17.87c.08.48.5.82.98.83.48 0 .9-.34.98-.82l3.84-20.67 4.54 22.28c.1.47.51.8.98.8h.09c.51-.04.9-.46.91-.96l.45-14.42 2.07 13.74a1 1 0 0 0 .99.85h.01c.5 0 .92-.37.98-.87l2.49-18.41 2.69 18.42c.07.49.49.86.99.86h.01c.5 0 .92-.37.99-.87l2.86-21.27 3.65 20.26c.09.51.56.86 1.09.82.52-.05.91-.5.9-1.02L134.5 46.85z" fill="#000000" stroke-width="none" opacity="1"></path></g></g><g id="svga-group-humanbody-back"><path id="SvgjsPath25204" d="M86.5 107c0 18.8 2.7 50.3-8.1 58s-31.8 13.9-36.7 24.4-3.6 29.4-3.6 29.4h124.1s.6-23.1-4.2-30.4c-6.6-10.1-28.5-17.7-36.5-22.9-8.1-5.2-10.9-32.2-10.9-58.8l-24.1.3z" fill="#ffffff" stroke-width="none" opacity="1"></path></g><g id="svga-group-chinshadow-single"></g><g id="svga-group-humanbody-front"><path id="SvgjsPath25205" d="M163.4 220.1H37.2l-.3-.9c-.1-.5-1.3-19.7 3.6-30.3 3.4-7.3 13.6-12.4 23.5-17.4 5.1-2.5 9.9-5 13.6-7.5 8.6-6 8.1-29.8 7.7-47.1-.1-3.5-.1-6.8-.1-9.8v-1.3l26.7-.4v1.3c0 32 3.8 53.5 10.3 57.7 2.4 1.6 6 3.3 10.2 5.4 9.7 4.7 21.9 10.6 26.7 18 5 7.6 4.4 30.9 4.4 31.2l-.1 1.1zm-124.1-2.6h121.6c-.1-2.4-.6-23.2-4-28.4-4.4-6.7-16.2-12.5-25.6-17-4.3-2.1-8-3.9-10.5-5.5-9.8-6.3-11.4-38.8-11.5-58.6l-21.5.4c0 2.6.1 5.5.1 8.5.4 18.9.9 42.4-8.8 49.3-3.8 2.7-8.7 5.1-13.9 7.7-9.5 4.8-19.4 9.7-22.3 16.1-3.3 6.9-3.7 25.9-3.6 27.5z" fill="#000000" stroke-width="none" opacity="1"></path><path id="SvgjsPath25206" d="M76.8 173.7c4.8 2.3 10.4 3.9 15.7 2.9.4-.1.4-.7 0-.8-5.1-.9-10.2-1.4-15.2-3.2-.6-.2-1.1.8-.5 1.1zm31.5 2.4c2.4.3 4.9-.4 7.1-1.2 2.1-.8 4.3-1.7 5.8-3.4.5-.5-.1-1.2-.7-.9-2.1.9-3.9 2.3-6.1 3-2 .7-4.1 1-6.2 1.5-.6.1-.4.9.1 1z" fill="#000000" stroke-width="none" opacity="1"></path></g><g id="svga-group-clothes-single"><path id="SvgjsPath25573" d="M35.41 220.36s-1.42-21.88 2.61-29.95 8.07-12.34 37.02-25.39c0 0 6.64 8.54 23.49 8.78s24.92-8.78 24.92-8.78 16.61 7.59 20.65 10.2 12.1 6.88 16.14 12.34 3.28 32.8 3.28 32.8H35.41z" fill="#ffffff" stroke-width="none" opacity="1"></path><path id="SvgjsPath25574" d="M161.04 186.97c-3.42-4.63-9.47-8.33-13.89-11.03-.93-.57-1.79-1.09-2.51-1.56-4.05-2.62-20.09-9.96-20.77-10.27-.4-.18-.87-.08-1.16.24-.08.09-7.99 8.67-24.16 8.45-16.11-.23-22.66-8.32-22.72-8.4-.28-.36-.78-.49-1.2-.3-28.99 13.07-33.31 17.47-37.5 25.86-4.14 8.28-2.76 30.31-2.7 30.6.1.46.51.8.98.8h128.11c.53 0 .97-.41 1-.94.03-.52.73-27.77-3.48-33.45zm-1.6 1.19c.04.06.08.13.13.19-1.01-.51-2.1-.88-3.19-1.19.86-.59 1.46-.74 1.48-.74l-.03-.15c.58.6 1.13 1.24 1.61 1.89zm-13.33-10.51c3.13 1.91 7.1 4.34 10.25 7.19-9.73 7.23-8.39 19.6-8.69 34.52H52.95c-.07-8.38.38-22.45-5.39-33.83.15-.03.14-.28-.01-.3l-.2-.03c-.85-1.32-1.63-2.14-2.26-2.65 4.25-3.76 11.36-7.85 25.22-14.27 1.74 2.41 8.22 9.42 25.7 11.15 1.49.15 2.93.22 4.31.22 16.2 0 25.4-9.37 27.34-11.57 5.21 2.44 13.3 6.31 15.9 7.99.73.47 1.6 1 2.55 1.58zM38.72 191.27c3.12 1.49 6.63 2.74 10.09 2.79.03 0 .05-.02.07-.03.29 1.01.57 2.11.83 3.32-4.28-.75-8.11-1.54-12.12-3.34.31-.89.69-1.8 1.13-2.74zm4.15-6.52c.7.3 1.43.54 2.18.69.73.95 1.59 2.39 2.46 4.54-2.35-.62-4.67-1.22-6.94-2.12.66-1.07 1.41-2.09 2.3-3.11zm1.54-.08c-.39-.09-.78-.19-1.17-.32.12-.13.25-.27.38-.4.21.16.47.39.79.72zm34.58-15.06c-.41.39-.75.88-1.1 1.32-.21.27-.42.54-.62.82-.58-.36-1.11-.72-1.59-1.07.61-.7 1.29-1.34 1.99-1.95.41.28.84.57 1.32.88zm1.56.92c-.5.74-.94 1.52-1.38 2.29-.58-.3-1.11-.6-1.61-.91.25-.29.5-.57.75-.87.34-.4.71-.8.99-1.25.39.25.81.5 1.25.74zm2.65 1.27c-.55.7-1.04 1.45-1.54 2.19-.75-.31-1.44-.64-2.09-.97.49-.74.98-1.5 1.41-2.28.69.37 1.42.72 2.22 1.06zm1.91.75c-.46.73-.84 1.53-1.21 2.3-.64-.22-1.24-.45-1.82-.69.54-.71 1.11-1.42 1.6-2.16.45.18.93.37 1.43.55zm8.08 4.51c.28-.84.58-1.69.76-2.55.46.05.94.1 1.42.13-.3.85-.53 1.73-.73 2.61-.5-.05-.98-.12-1.45-.19zm-.37-.05c-1.69-.26-3.26-.57-4.71-.92.33-.78.67-1.59.93-2.4 1.4.33 2.92.59 4.55.78-.31.82-.54 1.69-.77 2.54zm-5.14-1.03c-.55-.14-1.09-.29-1.61-.44.4-.76.8-1.54 1.1-2.34.43.12.88.24 1.34.36-.32.79-.58 1.62-.83 2.42zm-2.03-.56c-.47-.14-.93-.29-1.37-.44.43-.75.87-1.52 1.2-2.31.41.14.82.28 1.26.41-.42.74-.77 1.54-1.09 2.34zm31.24-4.56c.41.71.82 1.43 1.26 2.12-.78.44-1.62.88-2.51 1.29-.35-.76-.73-1.52-1.1-2.27-.02-.03-.04-.04-.06-.06a30.4 30.4 0 0 0 2.41-1.08zm2.46-1.37c.28.33.56.67.84 1 .23.26.45.53.68.79-.71.49-1.49.99-2.33 1.48-.41-.71-.85-1.39-1.3-2.08.77-.4 1.47-.8 2.11-1.19zm1.89-1.26c.23.35.47.69.74 1.01.19.23.41.5.65.75-.4.32-.84.65-1.31.98-.25-.28-.53-.55-.78-.83l-.84-.87c.57-.36 1.08-.7 1.54-1.04zm1.65-1.3c.2.22.4.44.61.65.29.3.57.63.88.93-.37.34-.8.7-1.27 1.09-.2-.19-.41-.38-.58-.58-.31-.35-.6-.71-.88-1.09.49-.37.9-.71 1.24-1zm-8.61 5.23c.32.76.63 1.53.97 2.29-3.94 1.78-8.9 3.15-14.82 3.18.14-.95.19-1.93.04-2.86 5.62-.16 10.21-1.29 13.8-2.73 0 .03 0 .08.01.12zm9.4-5.94c.47.22 1.19.55 2.07.96-.26.27-.58.59-.98.96-.29-.32-.61-.62-.91-.93-.2-.2-.41-.4-.61-.61.17-.13.31-.27.43-.38zm-23.59 8.55c-.05.96-.05 1.91-.12 2.86-.73 0-1.48-.03-2.24-.08.12-.58.18-1.18.09-1.77-.02-.15-.27-.15-.29 0-.08.59-.14 1.16-.24 1.73-.36-.03-.72-.05-1.09-.08-.39-.04-.76-.08-1.14-.13.25-.87.48-1.74.63-2.63.91.06 1.85.11 2.82.12.55.02 1.06-.01 1.58-.02zm-22.73-6.28c-.76.54-1.41 1.21-2 1.94-.73-.55-1.34-1.08-1.83-1.56.74-.55 1.51-1.11 2.14-1.77.45.41 1.01.88 1.69 1.39zm-2.58-2.26c.17.18.4.41.66.65-.78.49-1.49 1.11-2.19 1.72-.45-.46-.81-.86-1.07-1.19.85-.38 1.71-.77 2.6-1.18zm-34.45 22.02c2.36 1.04 4.83 1.94 7.39 2.28.36.94.72 2 1.07 3.2-3.4-.85-6.65-1.49-9.9-2.83.01-.01.01-.03.02-.04.46-.92.93-1.78 1.42-2.61zm-4.15 13.45c2.58 1.32 5.43 2.39 8.29 2.63.19.02.22-.27.04-.32-2.87-.83-5.61-1.55-8.32-2.77.04-.89.13-1.91.32-3.02 4.1 2.29 9.02 4.24 13.74 4.2.14 0 .17-.21.03-.25-4.81-1.23-9.2-2.15-13.69-4.39.19-1.04.47-2.16.85-3.33 3.71 2 8.12 3.44 12.36 3.35 1.96 8.94 1.26 18.47 1.12 21.57H36.28c-.44-7.64-.12-16.52-.1-17.67zm113.41 17.66c.09-.98-.45-15.81.53-19.01 2.84 1.28 5.93 2.15 9.01 2.42.21.02.24-.31.05-.36-3.05-.79-6-1.63-8.96-2.64.15-.89.32-1.72.5-2.5 2.27.81 4.55 1.5 6.93 1.99.21.04.3-.26.09-.32-2.32-.65-4.63-1.34-6.9-2.13.22-.88.47-1.69.72-2.43 2.57.87 5.17 1.73 7.81 2.33.22.05.29-.25.09-.33-2.51-.99-5.13-1.74-7.73-2.47.27-.71.55-1.36.83-1.95 2.33.81 4.7 1.65 7.09 2.17.26.06.35-.29.11-.39-2.23-.92-4.62-1.58-6.97-2.23.39-.74.79-1.38 1.18-1.92 2.01.72 4.05 1.57 6.12 2.04.22.05.39-.28.16-.39-1.9-.87-3.98-1.43-5.98-2.06.55-.69 1.08-1.22 1.56-1.62 1.47.47 2.85 1.1 4.27 1.68 3.5 6.54 2.53 27.42 2.46 30.12" fill="#000000" stroke-width="none" opacity="1"></path></g><g id="svga-group-head" transform="matrix(1,0,0,1,0,0)"><g id="svga-group-ears-left-move" transform="matrix(1,0,0,1,0,0)"><g id="svga-group-ears-left" transform="matrix(1,0,0,1,0,0)"><path id="SvgjsPath25396" d="M62.9 81.4s-3-4.7-6.1-5.6-6.6 2.1-6.1 7.8c.6 5.7 8.7 18.9 15.9 19.7 6.2.7-1.1-18.5-3.7-21.9z" fill="#ffffff" stroke-width="none" opacity="1"></path><path id="SvgjsPath25397" d="M66.5 104.2c-7.7-.8-16.1-14.5-16.7-20.4-.3-3.4.8-6.4 3-7.9 1.3-.9 2.9-1.2 4.4-.8 3.3.9 6.2 5.3 6.6 5.9 2.1 2.7 8.5 18 5.5 22-.5.7-1.4 1.1-2.3 1.1-.3.1-.4.1-.5.1zM53.9 77.1c-1.7 1.1-2.5 3.6-2.3 6.4.5 5.4 8.5 18.3 15 18.9.4 0 .7 0 .9-.3 2.1-2.9-3.2-17.2-5.5-20.3v-.1c-.8-1.2-3.3-4.6-5.5-5.2-.2-.1-.5-.1-.7-.1-.7.2-1.3.4-1.9.7z" fill="#000000" stroke-width="none" opacity="1"></path><path id="SvgjsPath25398" d="M55.5 79.3c2.6 1.4 5 5.6 6.2 9.6v.1c0 .3-.2.4-.3.1-.4-1.2-1-1.2-1.7 0-.2.7-.1 1.5.1 2.3.2.7.5 1.4.8 1.9.6 1.2 1.4 2 2.1 3 .2.3 0 .7-.2.5-1.6-1-3.9-4.6-3.4-7.6.2-1.4 1.1-2.2 1.8-1.7-.9-2.1-1.9-3.9-3.2-5.4-.7-.8-2.3-2.7-3.1-2.3-1.5.6-.7 4.6-.5 6.4 0 .3-.2.4-.3.1-1-2.9-1.1-8.5 1.7-7z" fill="#000000" stroke-width="none" opacity="1"></path><path id="SvgjsPath25399" d="M61.9 97.8c-2.8-.9-4.8-4.6-6-8.8-.7-2.5-2.1-8.3.6-8.2.2 0 .3.5.1.6-2.5 1.1.2 8.9 1 10.7 1.1 2.6 2.5 4.3 4.3 5.2.2.2.2.6 0 .5z" fill="#000000" stroke-width="none" opacity="1"></path></g></g><g id="svga-group-ears-right-move" transform="matrix(1,0,0,1,0,0)"><g id="svga-group-ears-right" transform="matrix(1,0,0,1,0,0)"><path id="SvgjsPath25400" d="M137.1 81.4s3-4.7 6.1-5.6 6.6 2.1 6.1 7.8c-.6 5.7-8.7 18.9-15.9 19.7-6.2.7 1.1-18.5 3.7-21.9z" fill="#ffffff" stroke-width="none" opacity="1"></path><path id="SvgjsPath25401" d="M133.1 104.2c-1 0-1.8-.4-2.3-1.1-2.9-4 3.4-19.3 5.5-22 .4-.6 3.3-5.1 6.6-5.9 1.5-.4 3-.1 4.4.8 2.2 1.5 3.3 4.4 3 7.9-.6 5.9-9 19.6-16.7 20.4-.2-.1-.3-.1-.5-.1zm11.1-27.6c-.2 0-.5 0-.7.1-2.2.6-4.7 3.9-5.5 5.2v.1c-2.4 3-7.7 17.4-5.5 20.3.2.3.4.4.9.3 6.5-.7 14.5-13.6 15-18.9.3-2.9-.6-5.3-2.3-6.4-.6-.5-1.2-.7-1.9-.7z" fill="#000000" stroke-width="none" opacity="1"></path><path id="SvgjsPath25402" d="M144.5 79.3c-2.6 1.4-5 5.6-6.2 9.6v.1c0 .3.2.4.3.1.4-1.2 1-1.2 1.7 0 .2.7.1 1.5-.1 2.3-.2.7-.5 1.4-.8 1.9-.6 1.2-1.4 2-2.1 3-.2.3 0 .7.2.5 1.6-1 3.9-4.6 3.4-7.6-.2-1.4-1.1-2.2-1.8-1.7.9-2.1 1.9-3.9 3.2-5.4.7-.8 2.3-2.7 3.1-2.3 1.5.6.7 4.6.5 6.4 0 .3.2.4.3.1 1-2.9 1.1-8.5-1.7-7z" fill="#000000" stroke-width="none" opacity="1"></path><path id="SvgjsPath25403" d="M138.1 97.8c2.8-.9 4.8-4.6 6-8.8.7-2.5 2.1-8.3-.6-8.2-.2 0-.3.5-.1.6 2.5 1.1-.2 8.9-1 10.7-1.1 2.6-2.5 4.3-4.3 5.2-.2.2-.2.6 0 .5z" fill="#000000" stroke-width="none" opacity="1"></path></g></g><g id="svga-group-faceshape-wrap" transform="matrix(1,0,0,1,0,0)"><g id="svga-group-faceshape-single"><path id="SvgjsPath25434" d="M139.4 74.3s.2-8.5-1.2-16.1c-2-10.8-13.3-27.4-37.2-27.4S69.1 43.5 65.5 53c-3 8.1-3 21.3-3 21.3s-.6 17.7 4 32c4.6 14.2 17.1 30.6 26.3 33.8 0 0 1.6 4.2 4 3.2s4-1.6 5.4-.8 3.6 2.2 4.8-.2c1.2-2.4 5.6-3.2 10.8-6.8 5.2-3.6 23.3-14 21.6-61.2z" fill="#ffffff" stroke-width="none" opacity="1"></path><path id="SvgjsPath25435" d="M105.2 145c-1.3 0-2.5-.7-3.4-1.2l-.2-.1c-.8-.5-2-.1-4.3.9-.8.3-1.7.3-2.5 0-1.5-.7-2.5-2.5-3-3.4-4.5-1.8-9.8-6.4-14.9-13s-9.4-14.4-11.6-21.4c-4.6-14.1-4.1-31.4-4.1-32.4 0-.8 0-13.6 3.1-21.8 5.8-15.5 17.8-23 36.7-23 10.9 0 20.5 3.4 27.7 10 5.5 5 9.6 11.9 10.8 18.5 1.4 7.5 1.2 15.6 1.2 16.3.7 19.6-2 35.3-7.8 46.5-4.9 9.3-10.6 13.2-13.7 15.3-.2.1-.4.3-.6.4-2.3 1.6-4.5 2.7-6.2 3.5-2 1-3.6 1.8-4.1 2.8s-1.2 1.6-2.1 1.9c-.4.1-.7.2-1 .2zm-4.4-4.1c.7 0 1.4.2 2.1.5l.2.1c.7.4 1.7 1 2.3.8.2-.1.4-.3.5-.6.9-1.8 2.8-2.7 5.3-3.9 1.8-.9 3.7-1.8 5.9-3.3.2-.1.4-.3.6-.4 5.4-3.7 22-15 20.4-59.7 0-.1.2-8.4-1.2-15.9-1.1-6-4.8-12.4-10-17-6.7-6.1-15.7-9.3-26-9.3-17.7 0-28.9 7-34.3 21.3-2.9 7.8-2.9 20.8-2.9 20.9 0 .2-.5 17.7 4 31.5 4.6 14.2 16.8 29.9 25.5 33l.6.2.2.6c.3.9 1.1 2.2 1.8 2.5.2.1.3.1.5 0 1.6-.7 3.1-1.3 4.5-1.3z" fill="#000000" stroke-width="none" opacity="1"></path></g></g><g id="svga-group-mouth-single-move" transform="matrix(1,0,0,1,0,0)"><g id="svga-group-mouth-single" transform="matrix(1,0,0,1,0,0)"><path id="SvgjsPath25381" d="M114.35 121.31c-.22.11-.44.19-.66.28-3.57-1.77-7.08-3.68-10.51-5.71-.04-.14-.18-.26-.34-.17-1.1.6-2.21 1.19-3.31 1.79-.02-.01-.02-.03-.04-.04l-2.43-.99c.06-.18-.13-.41-.35-.29a43.686 43.686 0 0 0-7.65 5.34c-.83-.16-1.65-.38-2.46-.67-.59-.21-.85.73-.26.94 1.15.41 2.32.7 3.5.86 2.82 2.94 6.19 6.18 10.56 6.03 4.15-.15 7.24-3.51 10.51-5.65 1.31 0 2.62-.23 3.94-.88.56-.27.06-1.12-.5-.84zM96.6 116.8c.92.38 1.84.75 2.76 1.13.06.03.11.01.16-.01.07.04.14.06.23.01 1.04-.56 2.07-1.12 3.11-1.68 3.32 1.97 6.72 3.82 10.18 5.54-4.09 1.13-8.32-1.32-12.49-1.26-1.98.03-3.86.66-5.79 1.02-1.71.32-3.4.33-5.07.07 2.13-1.83 4.44-3.44 6.91-4.82zm-6 5.94c.96.09 1.93.09 2.9-.01 2.62-.27 5.1-1.32 7.77-1.19 3 .14 5.9 1.28 8.8 1.47-2.76 1.93-5.4 4.57-8.82 5.09-4.36.66-7.81-2.44-10.65-5.36z" fill="#000000" stroke-width="none" opacity="1"></path></g></g><g id="svga-group-eyes-left-move" transform="matrix(1,0,0,1,0,0)"><g id="svga-group-eyes-left" transform="matrix(1,0,0,1,0,0)"><g id="svga-group-eyesback-left"></g><g id="svga-group-eyesiriswrapper-left"><g id="svga-group-eyesiriscontrol-left" transform="matrix(1,0,0,1,0,0)"><g id="svga-group-eyesiris-left" transform="matrix(1,0,0,1,0,0)"><path id="SvgjsPath25448" d="M85.2 89c1-1.8.1-4.4-1.6-5.6-1.8-1.2-4.3-.8-5.8 1.2-.8 1.1-1.1 2.5-.6 3.7.2.4.7 1.7 1.8 2.3 2.3 1.2 5 .6 6.2-1.6z" fill="#ffffff" stroke-width="none" opacity="1"></path><path id="SvgjsPath25449" d="M82.5 88.2c.2 0 .4.1.5.3.2-.3.4-.7.4-1.1 0-.4-.2-.8-.4-1.1-.2-.6-.6-1-1.2-1.2-.3-.1-.7-.1-1.1 0 .2.6-.1 1.4-.7 1.8-.3.2-.7.3-1 .2-.1.7.2 1.3.7 1.8.6.6 1.5.6 2.2.3-.2-.5 0-1 .6-1zm2.9-2.5c-.2-.6-.4-1.1-.7-1.6-.2-.2-.3-.5-.6-.7s-.4-.4-.7-.6c-.5-.3-1.1-.6-1.7-.6s-1.3-.1-1.9.1c-.6.2-1.2.5-1.7.9s-.9.9-1.2 1.5-.5 1.2-.6 1.8 0 1.3.3 1.9c.2.5.6 1.1 1 1.5.2.2.4.4.7.6.1.1.3.2.4.2.2.3.3.3.3.3.1 0 .1.1.2.1 1.1.4 2.4.4 3.4 0 .5-.2 1-.5 1.5-.8.4-.4.8-.8 1-1.3-.1.2-.3.5-.5.7l-.6.6c-.4.3-.9.6-1.5.7-.5.1-1.1.1-1.6 0s-1-.3-1.5-.5c-.1 0-.1-.1-.2-.1s-.1-.1-.2-.1c-.1-.1-.2-.1-.3-.2-.2-.2-.3-.4-.5-.6-.1-.2-.2-.4-.4-.7s-.2-.5-.3-.7c-.2-.6-.2-1.2 0-1.8-.2-.2-.2-.5-.2-.8 0-1 1-1.8 2-1.6.2-.1.4-.2.7-.3.9-.4 1.9-.4 2.9 0 .9.4 1.7 1.2 2.1 2.2.2.5.3 1.1.3 1.6s-.1 1.1-.4 1.6c.3-.5.4-1.1.4-1.6.3-.6.3-1.2.1-1.7z" fill="#000000" stroke-width="none" opacity="1"></path></g></g></g><g id="svga-group-eyesfront-left"><path id="SvgjsPath25494" d="M81 74.4c-6.9 0-12.5 5.6-12.5 12.5S74.1 99.4 81 99.4s12.5-5.6 12.5-12.5S87.9 74.4 81 74.4zm3.5 16.9c-2.2 1-5.4 1.3-7.7 1-2.3-.4-6-2.9-6-2.9s1.5-1 2.4-1.9 2.8-2.8 6.2-4.4c3.4-1.6 6.7.2 7.9 1.3s1.8 4 1.8 4-2.4 1.9-4.6 2.9z" fill="#ffffff" stroke-width="none" opacity="1"></path><path id="SvgjsPath25495" d="M89.8 85.6c-.1-.2-.5-.1-.5.1 0 .6.1 1.2.1 1.7-.4-1.5-1.2-3.3-2.7-4.3-2.6-1.8-8.2-2.2-12.5 2.3-3.6 3.9-5.6 4.3-6.4 4.1-.7-.1-1-.6-1-.6-.1-.2-.4-.4-.7-.2-.2.1-.4.4-.2.7 0 0 .5 1 1.7 1.2h.5c.8 0 1.6-.3 2.6-.9 0 .1.1.2.2.2.4.2.8.5 1.2.7-.8.3-1.6.9-1.9 2.1-.1.3.1.5.4.6h.1c.2 0 .4-.1.5-.4.5-1.7 2.1-1.6 2.1-1.6h.2c.2.1.5.2.7.3-.6.5-1.6 1.6-1.2 3 .1.2.3.4.5.4h.1c.3-.1.4-.4.3-.6-.4-1.2 1.3-2.3 1.3-2.3l.1-.1c1.4.5 2.9.8 4.5.8 2.8 0 5.8-1 8.7-3.8l.2-.2.1-.1c.1.5.1.9.1.9 0 .3.3.5.6.5.2 0 .4-.2.4-.5.6-.9.5-2.9-.1-4zm-1.5 2.6c-.2 0-.3.1-.5.4-5.8 5.6-12 3.5-16.2.7 1-.7 2.2-1.8 3.4-3.1 3.8-4.1 8.8-3.8 11.2-2.2 1.4.9 2.1 2.8 2.4 4.2-.1-.1-.2-.1-.3 0zm-1.9-5.7c-.1-.1-5.4-5-10.4-.6-4.5 4.1-6.5 5.7-6.6 5.7 0 0-.1.1-.2.1s-.1 0-.2-.1-.1-.3 0-.4c0 0 2-1.7 6.5-5.7 5.3-4.7 11 .5 11.1.6s.1.3 0 .4-.1.1-.2 0z" fill="#000000" stroke-width="none" opacity="1"></path></g></g></g><g id="svga-group-eyes-right-move" transform="matrix(1,0,0,1,0,0)"><g id="svga-group-eyes-right" transform="matrix(1,0,0,1,0,0)"><g id="svga-group-eyesback-right"></g><g id="svga-group-eyesiriswrapper-right"><g id="svga-group-eyesiriscontrol-right" transform="matrix(1,0,0,1,0,0)"><g id="svga-group-eyesiris-right" transform="matrix(1,0,0,1,0,0)"><path id="SvgjsPath25450" d="M123.6 89c1-1.8.1-4.4-1.6-5.6-1.8-1.2-4.3-.8-5.8 1.2-.8 1.1-1.1 2.5-.6 3.7.2.4.7 1.7 1.8 2.3 2.3 1.2 5 .6 6.2-1.6z" fill="#ffffff" stroke-width="none" opacity="1"></path><path id="SvgjsPath25451" d="M121 88.2c.2 0 .4.1.5.3.2-.3.4-.7.4-1.1 0-.4-.2-.8-.4-1.1-.2-.6-.6-1-1.2-1.2-.3-.1-.7-.1-1.1 0 .2.6-.1 1.4-.7 1.8-.3.2-.7.3-1 .2-.1.7.2 1.3.7 1.8.6.6 1.5.6 2.2.3-.2-.5 0-1 .6-1zm2.9-2.5c-.2-.6-.4-1.1-.7-1.6-.2-.2-.3-.5-.6-.7s-.4-.4-.7-.6c-.5-.3-1.1-.6-1.7-.6s-1.3-.1-1.9.1c-.6.2-1.2.5-1.7.9s-.9.9-1.2 1.5-.5 1.2-.6 1.8 0 1.3.3 1.9c.2.5.6 1.1 1 1.5.2.2.4.4.7.6.1.1.3.2.4.2.1 0 .2.1.2.1.1 0 .1.1.2.1 1.1.4 2.4.4 3.4 0 .5-.2 1-.5 1.5-.8.4-.4.8-.8 1-1.3-.1.2-.3.5-.5.7l-.6.6c-.4.3-.9.6-1.5.7-.5.1-1.1.1-1.6 0s-1-.3-1.5-.5c-.1 0-.1-.1-.2-.1s-.1-.1-.2-.1c-.1-.1-.2-.1-.3-.2-.2-.2-.3-.4-.5-.6-.1-.2-.2-.4-.4-.7s-.2-.5-.3-.7c-.2-.6-.2-1.2 0-1.8-.2-.2-.2-.5-.2-.8 0-1 1-1.8 2-1.6.2-.1.4-.2.7-.3.9-.4 1.9-.4 2.9 0 .9.4 1.7 1.2 2.1 2.2.2.5.3 1.1.3 1.6s-.1 1.1-.4 1.6c.3-.5.4-1.1.4-1.6.4-.4.3-1 .2-1.5z" fill="#000000" stroke-width="none" opacity="1"></path></g></g></g><g id="svga-group-eyesfront-right"><path id="SvgjsPath25496" d="M119 74.4c-6.9 0-12.5 5.6-12.5 12.5s5.6 12.5 12.5 12.5 12.5-5.6 12.5-12.5-5.6-12.5-12.5-12.5zm4 17.9c-2.3.4-5.5 0-7.7-1s-4.5-3.1-4.5-3.1.6-2.9 1.8-4 4.5-2.9 7.9-1.3 5.3 3.5 6.2 4.4 2.4 1.9 2.4 1.9-3.8 2.7-6.1 3.1z" fill="#ffffff" stroke-width="none" opacity="1"></path><path id="SvgjsPath25499" d="M133.6 88.8c-.2-.1-.5 0-.7.2 0 0-.3.5-1 .6-.8.1-2.8-.3-6.4-4.1-4.3-4.6-9.9-4.1-12.5-2.3-2.7 1.8-3.2 6.4-3.2 6.6 0 .3.2.5.5.6.3 0 .5-.2.6-.5 0 0 0-.4.1-.9l.1.1.2.2c2.9 2.8 5.9 3.8 8.7 3.8 1.5 0 3-.3 4.5-.8l.1.1s1.6 1.1 1.3 2.3c-.1.3.1.5.3.6h.1c.2 0 .4-.1.5-.4.4-1.4-.6-2.5-1.2-3 .2-.1.5-.2.7-.3.1 0 .1.1.2 0 .1 0 1.7 0 2.1 1.6.1.2.3.4.5.4h.1c.3-.1.4-.3.4-.6-.3-1.2-1.2-1.9-1.9-2.1.4-.2.8-.5 1.2-.7l.2-.2c1 .6 1.8.9 2.6.9h.5c1.2-.2 1.7-1.2 1.7-1.2.1-.5 0-.8-.3-.9zm-21.5-.2c-.3-.3-.4-.4-.5-.4h-.3c.4-1.4 1.1-3.2 2.4-4.2 2.3-1.6 7.3-1.9 11.2 2.2 1.2 1.3 2.4 2.4 3.4 3.1-4.3 2.7-10.5 4.8-16.2-.7zm1.3-6.1c.1-.1 5.4-5 10.4-.6 4.5 4.1 6.5 5.7 6.6 5.7 0 0 .1.1.2.1s.1 0 .2-.1.1-.3 0-.4c0 0-2-1.7-6.5-5.7-5.3-4.7-11 .5-11.1.6s-.1.3 0 .4c-.1.1.1.1.2 0z" fill="#000000" stroke-width="none" opacity="1"></path></g></g></g><g id="svga-group-facehighlight-single"></g><g id="svga-group-eyebrows-left-move" transform="matrix(1,0,0,1,0,0)"><g id="svga-group-eyebrows-left-rotate" transform="matrix(1,0,0,1,0,0)"><g id="svga-group-eyebrows-left" transform="matrix(1,0,0,1,0,0)"><path id="SvgjsPath25551" d="M74.33 71.59c1.52-.07 17.06 3.38 17.49 4.03.43.65-.65 3.02-1.15 3.17-.5.14-15.19-4.53-15.83-4.39-.65.14-6.91 2.59-7.34 2.38-.44-.22 5.32-5.12 6.83-5.19z" fill="#ffffff" stroke-width="none" opacity="1"></path><path id="SvgjsPath25552" d="M67.28 77.2c.35.18.9.08 5.66-1.64.84-.31 1.71-.62 1.97-.69.63.05 4.8 1.29 8.16 2.29 5.89 1.75 7.16 2.1 7.6 2.1.06 0 .11-.01.15-.02.67-.19 1.21-1.59 1.31-1.87.24-.64.45-1.52.11-2.03-.69-1.04-16.86-4.29-17.91-4.24-1.63.08-7.13 4.66-7.31 5.5-.07.26.04.49.26.6zm7.07-5.13c.13-.01.37.01.68.06l2.07 2.3c-1.61-.45-2.16-.55-2.37-.5-.03.01-.08.02-.12.04l-2.21-.88c.86-.59 1.6-1 1.95-1.02zm3.91 2.69-2.22-2.47c.77.13 1.74.32 2.82.54l1.57 2.56c-.84-.25-1.56-.46-2.17-.63zm3.08.9-1.63-2.65c.72.15 1.47.31 2.23.48l.63 2.53c-.43-.13-.84-.25-1.23-.36zm6.77 1.99c-.33-.1-.68-.2-1.05-.3l.67-2.5c.48.12.93.24 1.34.35l-.96 2.45zm1.59-2.28c.3.08.57.16.81.23l-.96 2.45c-.24-.07-.52-.14-.81-.22l.96-2.46zm-3.25 1.8c-.48-.14-.98-.29-1.48-.44l.38-2.46c.61.14 1.2.29 1.76.43l-.66 2.47zm4.1 1.13c-.09-.01-.22-.04-.37-.08l.95-2.41c.14.05.25.09.32.13.11.44-.52 1.99-.9 2.36zm-7.22-2.05c-.01 0-.03-.01-.04-.01l-.65-2.59c.7.16 1.4.32 2.08.48l-.37 2.43c-.34-.11-.69-.22-1.02-.31zm-10.72-1.59c-.12.04-.25.09-.39.14-.53.02-1.48.07-2.24.11.57-.47 1.19-.95 1.79-1.38l1.9.75c-.3.1-.63.23-1.06.38zm-3.91 1.36c.14-.13.31-.28.48-.43.27-.01.6-.03.96-.05-.52.18-1.02.35-1.44.48z" fill="#000000" stroke-width="none" opacity="1"></path></g></g></g><g id="svga-group-eyebrows-right-move" transform="matrix(1,0,0,1,0,0)"><g id="svga-group-eyebrows-right-rotate" transform="matrix(1,0,0,1,0,0)"><g id="svga-group-eyebrows-right" transform="matrix(1,0,0,1,0,0)"><path id="SvgjsPath25553" d="M125.67 71.59c-1.52-.07-17.06 3.38-17.49 4.03-.43.65.65 3.02 1.15 3.17.5.14 15.19-4.53 15.83-4.39.65.14 6.91 2.59 7.34 2.38s-5.32-5.12-6.83-5.19z" fill="#ffffff" stroke-width="none" opacity="1"></path><path id="SvgjsPath25554" d="M133 76.61c-.18-.84-5.68-5.42-7.31-5.5-1.06-.05-17.22 3.2-17.91 4.24-.34.51-.13 1.39.11 2.03.1.28.65 1.68 1.31 1.87.04.01.08.02.15.02.43 0 1.71-.35 7.6-2.1 3.36-1 7.53-2.24 8.16-2.29.25.07 1.12.38 1.97.69 4.76 1.72 5.3 1.81 5.66 1.64.2-.12.31-.35.26-.6zm-5.4-3.52-2.21.88c-.04-.01-.09-.03-.12-.04-.21-.05-.76.06-2.37.5l2.07-2.3c.31-.04.55-.06.68-.06.35.02 1.09.43 1.95 1.02zm-8.02 2.3 1.57-2.56c1.08-.22 2.05-.41 2.82-.54l-2.22 2.47c-.62.17-1.34.38-2.17.63zm-2.16.63.63-2.53c.76-.17 1.51-.33 2.23-.48l-1.63 2.65c-.38.11-.79.23-1.23.36zm-6.5-.82c.41-.11.86-.23 1.34-.35l.67 2.5c-.37.11-.72.21-1.05.3l-.96-2.45zm.35 2.63c-.3.08-.57.16-.81.22l-.96-2.45c.24-.07.51-.15.81-.23l.96 2.46zm1.61-3.13c.56-.14 1.15-.28 1.76-.43l.38 2.46c-.5.15-.99.29-1.48.44l-.66-2.47zm-4.32 1.23c.07-.04.18-.08.32-.13l.95 2.41c-.16.04-.29.07-.37.08-.39-.36-1.02-1.91-.9-2.36zm7.09.62-.37-2.43c.68-.16 1.38-.32 2.08-.48l-.65 2.59c-.01 0-.03.01-.04.01-.33.1-.68.21-1.02.31zm10.68-2.27 1.9-.75c.6.43 1.22.92 1.79 1.38-.76-.04-1.71-.09-2.24-.11-.14-.05-.27-.1-.39-.14-.43-.15-.76-.28-1.06-.38zm3.54 1.26c.36.02.68.03.96.05.17.15.33.3.48.43-.43-.13-.93-.3-1.44-.48z" fill="#000000" stroke-width="none" opacity="1"></path></g></g></g><g id="svga-group-nose-single-move" transform="matrix(1,0,0,1,0,0)"><g id="svga-group-nose-single" transform="matrix(1,0,0,1,0,0)"><path id="SvgjsPath25535" d="M106.1 105.1c-1-7.1-2.1-14.4-5.1-20.7-.7-1.4-1.9-3-3.4-1.7-.9.9-1.4 2.4-1.8 3.7-.9 3-1.4 6.2-1.9 9.3-.6 3.5-1 7.1-.9 10.7 0 1.4 0 3.1.6 4.4.4.8 1.2 1.5 2 1 .3-.2.4-.5.6-.7.9-1.1 1.5.1 2.1.8.6.7 1.3 1.1 2.1.5.8-.7 1-2.5 2.2-1.7.8.5 1.3 1.5 2.3 1.2 2.5-.8 1.5-5 1.2-6.8zm-.8 5.4c-.7.7-1.2.1-1.8-.4-.5-.4-.9-.8-1.5-.8-.6.1-1 .6-1.3 1.2-.3.5-.4.9-1 .9-.8 0-1-.9-1.6-1.4-.4-.5-1-.8-1.6-.5-.3.1-.4.4-.6.6-.3.4-.5 1.1-1.3.5-.3-.2-.5-1.1-.5-1.5-.9-5.8.3-12.2 1.4-17.9.4-2.2 1-4.7 1.8-6.5.2-.5.5-1 .9-1.4 1-1 1.8.5 2.3 1.4 2.2 4.7 3.3 9.9 4.2 15.1.4 2.7.9 5.4 1.2 8.1-.1.9 0 2-.6 2.6z" fill="#000000" stroke-width="none" opacity="1"></path></g></g><g id="svga-group-hair-front" transform="matrix(1,0,0,1,0,0)"><path id="SvgjsPath25673" d="M72.8 175.65c-.4 0-.78-.24-.93-.63-2.34-5.94-5.52-13.97-7.5-18.84-.06 5.57-.14 14.06-.15 14.58 0 .48-.35.89-.83.97-.06.01-.12.01-.17.01-.41 0-.79-.25-.94-.65-7.72-20.72-8.07-93.15-4.54-110.79 3.37-16.85 11.65-26.73 26.84-32.02 4-1.39 8.87-2.1 14.49-2.1 10.15 0 21.61 2.46 26.65 5.72 6.88 4.45 12.29 10.78 14.47 16.92 2.08 5.85 4.17 13.05 3.97 22.05-.09 4.14.12 15.37.32 26.23.22 11.63.44 23.65.3 27.15-.84 20.11-3.33 46.51-3.36 46.78-.05.5-.45.88-.95.9h-.05c-.48 0-.89-.34-.98-.81-.87-4.58-1.67-13.4-2.22-20.44-1.63 11.55-3.8 23.03-3.83 23.18-.09.48-.51.81-.98.81-.04 0-.08 0-.12-.01a1 1 0 0 1-.88-1.05c.34-6.13.46-11.51.48-15.6-2.32 8.13-5.6 16.53-5.78 17a.995.995 0 0 1-1.2.59c-.49-.14-.8-.63-.72-1.13.03-.19 3.33-19.98 5.07-60.86.97-22.87.44-37.13-.21-45.27-.92 5.77-2.25 9.98-2.33 10.23-.13.42-.52.69-.95.69h-.09a1 1 0 0 1-.9-.87c-.49-3.95-2.7-11.05-4.2-15.56-.89 6.03-2.37 11.86-2.44 12.17-.11.44-.51.75-.97.75h-.06a.993.993 0 0 1-.93-.86c-.53-3.96-1.79-9.63-2.81-13.89-.78 6.48-2.18 13.2-2.26 13.57-.1.47-.51.79-.98.79h-.05c-.49-.03-.89-.41-.94-.9l-1.78-17.52c-1.45 9.31-3.93 20.15-4.07 20.77-.11.46-.51.78-.97.78-.04 0-.08 0-.11-.01a.996.996 0 0 1-.89-.99c0-7.77-.81-16.3-1.6-22.8l-.68 15.63c-.02.51-.43.93-.94.96h-.05c-.49 0-.91-.36-.99-.85l-1.49-9.7-1.14 18.66c-.03.49-.4.88-.89.93-.04 0-.07.01-.11.01-.44 0-.84-.29-.96-.72-1.29-4.46-2.64-19.1-3.38-28.26-1.43 9.7-3.01 24.64-3.03 24.84-.05.5-.47.89-.98.9h-.01c-.5 0-.93-.37-.99-.87l-1.42-10.71-.88 4.45c-.09.47-.51.81-.98.81h-.04c-.49-.02-.9-.4-.95-.89-.41-3.68-.58-8.63-.66-12.8-1.72 7.02-3.39 13.95-3.5 14.65-.04.51-.47.93-1 .93-.94 0-.96-.22-1.16-2.94-.09-1.21-.34-4.77-.34-4.77-1.29 6.42-2.73 18.2-1.26 35.47 2.36 27.77 10.99 62.49 11.08 62.84a.994.994 0 0 1-.97 1.24c-.42 0-.81-.26-.95-.68l-4.39-13.04 1.64 19.29c.04.52-.32.98-.83 1.07-.06.01-.11.01-.17.01-.45 0-.85-.3-.97-.75l-5.42-20.92c1.15 10.96 2.86 24.84 2.88 25.04.06.5-.26.97-.75 1.09-.08.03-.16.04-.24.04z" fill="#ffffff" stroke-width="none" opacity="1"></path><path id="SvgjsPath25674" d="M99.08 27.18c10.62 0 21.6 2.65 26.11 5.56 6.65 4.3 11.92 10.36 14.07 16.42 2.15 6.06 4.1 13.1 3.91 21.7-.2 8.6.9 46.64.62 53.35-.85 20.32-3.35 46.73-3.35 46.73-1.56-8.21-2.93-30.69-2.93-30.69-1.37 13.88-5.08 33.43-5.08 33.43.78-13.88.39-23.85.39-23.85-1.56 9.38-7.62 24.82-7.62 24.82s3.32-19.55 5.08-60.99c1.76-41.44-1.35-54.56-1.35-54.56-.2 9.97-3.15 19.18-3.15 19.18-.78-6.26-5.67-19.94-5.67-19.94-.59 7.23-2.93 16.42-2.93 16.42-.98-7.23-4.3-19.94-4.3-19.94-.2 7.43-2.74 19.55-2.74 19.55L107.4 47.4c-.2 8.8-5.08 30.1-5.08 30.1 0-15.44-3.13-33.62-3.13-33.62l-1.15 26.4-2.9-18.95-1.71 28c-1.88-6.49-3.93-35.69-3.93-35.69-1.54 4.95-4.44 32.44-4.44 32.44l-2.22-16.73-2.05 10.42c-.85-7.68-.68-20.83-.68-20.83s-5.46 22.2-5.46 22.71v.01c-.03 0-.93-12.87-.93-12.87s-5.22 13.54-2.83 41.71c2.39 28.17 11.1 63 11.1 63l-7.04-20.92 2.35 27.56-8.41-32.45c.2 6.84 3.91 36.94 3.91 36.94s-9.16-23.27-9.38-23.27v.01c0 .59-.2 19.35-.2 19.35-7.43-19.94-8.21-91.67-4.5-110.24C62.43 41.91 72.01 33.7 84.91 29.2c4.16-1.43 9.12-2.03 14.17-2.02m0-2c-5.73 0-10.71.72-14.82 2.16-15.57 5.43-24.05 15.53-27.5 32.77-1.86 9.31-2.65 31.44-1.97 55.06.37 12.62 1.74 43.35 6.55 56.28a2.006 2.006 0 0 0 2.22 1.27 2.01 2.01 0 0 0 1.66-1.95c0-.38.05-4.94.1-9.55 1.83 4.57 3.99 10.03 5.62 14.17a2.01 2.01 0 0 0 2.35 1.21c.98-.25 1.62-1.18 1.49-2.18-.01-.12-.61-4.92-1.32-11.08l1.9 7.33c.23.89 1.04 1.5 1.93 1.5a2.013 2.013 0 0 0 2-2.17l-.94-11.01 1.74 5.17c.28.83 1.06 1.36 1.89 1.36a1.997 1.997 0 0 0 1.94-2.48c-.09-.35-8.7-35-11.05-62.68-1-11.77-.64-20.96.09-27.62.34.63.9.95 1.67.95 1.03 0 1.88-.79 1.99-1.79.1-.57.81-3.55 1.75-7.42.1 1.97.24 3.87.43 5.54.11.98.92 1.74 1.9 1.78h.08c.63 0 1.21-.3 1.58-.77l.71 5.35c.13 1 .98 1.74 1.98 1.74h.03a1.99 1.99 0 0 0 1.96-1.79c.37-3.5 1.07-9.75 1.83-15.85.74 7.87 1.69 16.22 2.63 19.44.25.86 1.04 1.44 1.92 1.44.07 0 .15 0 .22-.01a2 2 0 0 0 1.78-1.87l.57-9.32.07.45a2 2 0 0 0 1.98 1.7h.11c1.03-.06 1.84-.88 1.89-1.91l.04-.88c.15 2.69.25 5.39.25 8.01 0 1.02.76 1.87 1.78 1.99.08.01.15.01.23.01.92 0 1.74-.64 1.95-1.55.11-.47 1.52-6.65 2.84-13.66l1.04 10.28c.1.98.9 1.74 1.88 1.8h.11c.94 0 1.76-.66 1.96-1.59.06-.27.8-3.85 1.51-8.28.65 3.01 1.26 6.1 1.59 8.53.13.95.91 1.67 1.87 1.73h.12c.91 0 1.71-.62 1.94-1.51.06-.24.96-3.79 1.78-8.2 1.25 4.01 2.54 8.6 2.9 11.47.12.93.86 1.66 1.8 1.74.06.01.12.01.19.01.86 0 1.64-.56 1.9-1.39.04-.13.39-1.22.84-2.99.37 8.47.48 20.69-.24 37.67-1.73 40.8-5.02 60.54-5.06 60.74a1.998 1.998 0 0 0 1.98 2.33c.8 0 1.55-.49 1.86-1.27.13-.34 1.89-4.84 3.74-10.39-.07 2.62-.19 5.51-.36 8.57-.06 1.05.71 1.97 1.75 2.1.08.01.16.02.25.02.95 0 1.78-.67 1.96-1.63.02-.11 1.26-6.67 2.57-14.85.45 4.71.97 9.24 1.51 12.11a2 2 0 0 0 1.96 1.63h.09c.99-.05 1.8-.82 1.9-1.81.03-.26 2.52-26.69 3.36-46.83.15-3.52-.07-15.02-.3-27.19-.2-10.86-.41-22.08-.32-26.2.21-9.17-1.92-16.47-4.02-22.41-2.29-6.44-7.71-12.79-14.87-17.43-5.23-3.38-16.92-5.9-27.24-5.9z" fill="#000000" stroke-width="none" opacity="1"></path></g><g id="svga-group-glasses-single-move" transform="matrix(1,0,0,1,0,0)"><g id="svga-group-glasses-single" transform="matrix(1,0,0,1,0,0)"><path id="SvgjsPath25583" d="M66.75 82.85c-.64 1.32-.52 5.79.59 9.95s4.1 7.22 7.22 8c3.12.78 7.61 1.82 11.58.46 3.97-1.37 6.96-5.53 7.61-7.94s1.43-6.44.85-8.85c-.59-2.41-7.61-4.88-12.56-5.33-4.95-.45-12.62-1.82-15.29 3.71z" fill="url(#SvgjsLinearGradient25584)" opacity="1"></path><path id="SvgjsPath25587" d="M132.7 82.85c.64 1.32.52 5.79-.59 9.95s-4.1 7.22-7.22 8c-3.12.78-7.61 1.82-11.58.46-3.97-1.37-6.96-5.53-7.61-7.94s-1.43-6.44-.85-8.85c.59-2.41 7.61-4.88 12.56-5.33s12.62-1.82 15.29 3.71z" fill="url(#SvgjsLinearGradient25588)" opacity="1"></path><path id="SvgjsPath25591" d="M94.07 87.73c-1.03.16-.26-3.77-2.8-4.94-2.54-1.17-7.03-2.86-14.57-3.12s-9.56 2.47-9.95 6.96c0 0-2.21.2-2.41-.13-.2-.33-.33-2.08-1.24-2.73s-2.08-1.04-2.21-1.37c-.13-.33-.13-3.45-.07-3.64.07-.2 7.42-1.11 11.9-1.17 4.49-.07 11.32.2 16.13 1.69s6.7 2.34 7.42 4.1-.96 4.15-2.2 4.35z" fill="#ffffff" stroke-width="none" opacity="1"></path><path id="SvgjsPath25592" d="M105.38 87.73c1.03.16.26-3.77 2.8-4.94 2.54-1.17 7.03-2.86 14.57-3.12 7.55-.26 9.56 2.47 9.95 6.96 0 0 2.21.2 2.41-.13.2-.33.33-2.08 1.24-2.73s2.08-1.04 2.21-1.37c.13-.33.13-3.45.07-3.64-.07-.2-7.42-1.11-11.9-1.17-4.49-.07-11.32.2-16.13 1.69s-6.7 2.34-7.42 4.1.96 4.15 2.2 4.35z" fill="#ffffff" stroke-width="none" opacity="1"></path><path id="SvgjsPath25593" d="M139.05 78.61c-.28-.84-11.2-1.46-12.33-1.48-3.84-.06-11.06.09-16.27 1.71-4.87 1.51-6.81 2.4-7.63 4.2L96.61 83c-.83-1.78-2.78-2.66-7.61-4.16-5.21-1.62-12.43-1.77-16.27-1.71-1.13.02-12.05.64-12.33 1.48-.09.27-.1 3.51.07 3.95.13.33.54.54 1.14.86.39.2.84.43 1.23.71.52.37.75 1.33.89 1.91.08.32.13.54.22.69.1.17.3.49 2.13.4.11 1.82.42 3.89.92 5.77 1.09 4.09 4.09 7.4 7.47 8.24 2.31.58 4.84 1.13 7.37 1.13 1.49 0 2.97-.19 4.41-.69 4.04-1.39 7.14-5.64 7.83-8.17.25-.92.84-3.32 1.01-5.66.46-.33.9-.83 1.24-1.43.35-.62.53-1.26.56-1.87l5.69.08c.04.58.22 1.2.56 1.79.34.6.78 1.1 1.24 1.43.17 2.35.76 4.74 1.01 5.66.68 2.53 3.78 6.78 7.83 8.17 1.44.49 2.92.69 4.41.69 2.53 0 5.06-.56 7.37-1.13 3.38-.85 6.38-4.16 7.47-8.24.5-1.88.81-3.95.92-5.77 1.83.09 2.03-.23 2.13-.4.09-.15.14-.36.22-.69.14-.58.37-1.54.89-1.91.39-.28.83-.51 1.23-.71.61-.31 1.01-.52 1.14-.86.16-.44.14-3.68.05-3.95zm-2.7.2c-1.32 1.11-2.68 2.29-3.7 3.68-.08.1.08.2.17.13 1.33-1.2 2.52-2.56 3.85-3.76.29.04.55.08.78.11-1.71 1.45-3.42 2.95-4.96 4.58-.21-.52-.46-.99-.76-1.42 1.18-1.04 2.22-2.3 3.27-3.48.49.06.94.11 1.35.16zm-1.65-.19c-1.08 1.05-2.22 2.09-3.16 3.25-.12-.16-.26-.3-.4-.44.99-.84 1.84-1.89 2.63-2.91.33.03.63.06.93.1zm-1.73-.18c.17.02.34.03.5.05-.83.93-1.73 1.8-2.55 2.73-.12-.11-.23-.21-.36-.3.87-.74 1.61-1.62 2.39-2.45.02-.02.02-.03.02-.03zm-.26-.03c-.79.77-1.62 1.51-2.32 2.37-.11-.08-.22-.15-.33-.22.73-.67 1.36-1.48 2-2.22.22.03.44.05.65.07zm-1.03-.09c-.64.67-1.32 1.35-1.87 2.09-.14-.08-.3-.16-.45-.23.57-.6 1.09-1.26 1.59-1.92l.73.06zm-1.18-.1c-.53.57-1.05 1.17-1.49 1.8-.12-.05-.25-.1-.38-.15.02 0 .04-.01.05-.02.52-.48.94-1.09 1.36-1.67.15.02.3.03.46.04zm-2.38-.14c-.34.37-.68.76-.93 1.18-.06.11.08.21.17.13.42-.37.77-.84 1.12-1.29.39.02.79.04 1.19.07-.42.49-.85 1-1.16 1.57-.02.04-.01.08.01.11-.2-.07-.4-.12-.61-.18.33-.29.62-.64.91-.96.08-.09-.05-.22-.13-.13-.34.33-.7.65-.99 1.03-.3-.07-.61-.13-.93-.19.14-.17.27-.37.4-.53.18-.24.49-.51.47-.82.15-.01.31 0 .48.01zm-1.41-.05c.21 0 .42.01.64.02-.21.13-.35.41-.5.6-.17.22-.39.45-.54.71-.26-.03-.52-.06-.8-.09.32-.4.64-.82.95-1.24h.25zm-1.14 0h.53c-.29.37-.58.76-.86 1.13-.02.03-.02.06-.02.08l-.46-.03c.28-.36.58-.77.81-1.18zm-.9.08c.01-.03.02-.05.03-.08h.37c-.25.37-.48.77-.67 1.14-.01.01 0 .02 0 .04-.22-.01-.44-.01-.66-.01-.11 0-.23 0-.34.01.41-.31.81-.68 1.15-1.06.03.02.1.02.12-.04zm-.46-.07c-.45.35-.89.75-1.24 1.17h-.23c-.25.01-.5.03-.75.04.45-.35.85-.79 1.24-1.19.34-.01.66-.02.98-.02zm-1.44.03c-.43.37-.87.74-1.19 1.19v.01l-.47.03c.37-.37.7-.79 1.03-1.2l.63-.03zm-1.05.04c-.35.39-.69.78-.97 1.21l-.67.06c.44-.35.8-.79 1.12-1.24l.52-.03zm-.87.04c-.36.45-.77.84-1.17 1.26-.36.03-.72.06-1.07.1.41-.41.8-.86 1.19-1.29.35-.02.7-.05 1.05-.07zm-1.35.09c-.41.42-.83.86-1.2 1.32-.26.03-.51.07-.76.11.39-.4.72-.86 1.01-1.34.32-.04.64-.06.95-.09zm-1.26.11c-.36.48-.75.92-1.13 1.38l-.62.09c.42-.43.79-.93 1.16-1.41l.59-.06zm-.98.1c-.41.46-.81.93-1.13 1.44-.27.05-.54.1-.8.15.49-.45.93-.98 1.34-1.52.19-.02.39-.05.59-.07zm-1.1.13c-.43.46-.85.93-1.17 1.46-.01.02-.01.05-.01.07-.28.06-.54.12-.81.19.39-.5.74-1.04 1.08-1.58.29-.05.6-.1.91-.14zm-1.23.18c-.46.52-.9 1.07-1.27 1.65-.14.03-.28.07-.42.1.34-.43.67-.87 1-1.31.08-.11-.1-.2-.18-.1-.38.49-.76.98-1.13 1.49-.29.08-.56.17-.84.25.38-.46.74-.94 1.12-1.4.07-.09-.05-.21-.13-.13-.5.56-1.04 1.11-1.53 1.69-.4.13-.8.27-1.19.41.51-.66.99-1.34 1.47-2.02.98-.25 2.03-.46 3.1-.63zm-4.31.98.1-.03c.21-.07.44-.13.66-.19-.56.69-1.11 1.39-1.62 2.11-.19.07-.37.15-.56.23.52-.68.99-1.4 1.42-2.12zm-.39.12c-.59.78-1.2 1.54-1.79 2.32-.15.07-.31.13-.46.19-.27.12-.49.28-.7.45.64-.86 1.25-1.73 1.84-2.61.36-.11.72-.23 1.11-.35zm-6.64 3.68c.25-.62.69-1.12 1.41-1.59-.52.63-1.03 1.28-1.5 1.95.02-.12.04-.25.09-.36zm-7.72 0c.05.11.06.24.09.36-.47-.67-.97-1.32-1.5-1.95.71.47 1.15.97 1.41 1.59zm-5.55-3.33c.59.87 1.2 1.75 1.84 2.61-.21-.17-.43-.32-.7-.45-.15-.07-.3-.13-.46-.19-.59-.78-1.2-1.54-1.79-2.32.4.12.77.24 1.11.35zm-1.59-.51.1.03c.43.72.9 1.44 1.42 2.12-.19-.08-.37-.15-.56-.23-.51-.73-1.06-1.43-1.62-2.11.23.07.45.13.66.19zm-1.1-.31c.47.68.96 1.36 1.47 2.02-.39-.14-.78-.28-1.19-.41-.5-.57-1.03-1.12-1.53-1.69-.08-.09-.2.04-.13.13.38.45.74.93 1.12 1.4-.28-.08-.56-.17-.84-.25-.36-.5-.75-.99-1.13-1.49-.08-.1-.26 0-.18.1.33.43.66.87 1 1.31-.14-.04-.28-.07-.42-.1-.37-.59-.82-1.13-1.27-1.65 1.06.17 2.11.38 3.1.63zm-3.41-.68c.34.53.68 1.08 1.08 1.58-.27-.06-.54-.13-.81-.19 0-.02 0-.04-.01-.07-.33-.52-.74-1-1.17-1.46.29.05.6.1.91.14zm-1.44-.19c.42.54.85 1.07 1.34 1.52l-.8-.15c-.32-.51-.72-.98-1.13-1.44.2.02.4.05.59.07zm-.97-.11c.37.48.74.98 1.16 1.41l-.62-.09c-.38-.46-.78-.9-1.13-1.38l.59.06zm-.91-.09c.28.48.61.95 1.01 1.34-.25-.04-.5-.07-.76-.11-.37-.46-.78-.89-1.2-1.32.32.04.63.06.95.09zm-1.24-.1c.38.44.77.88 1.19 1.29-.35-.04-.71-.07-1.07-.1-.4-.41-.81-.81-1.17-1.26.34.02.69.05 1.05.07zm-1.41-.08c.32.45.69.89 1.12 1.24l-.67-.06c-.28-.42-.62-.82-.97-1.21l.52.03zm-.93-.05c.33.41.66.83 1.03 1.2l-.47-.03v-.01c-.32-.45-.77-.82-1.19-1.19.2.02.41.03.63.03zm-1.1-.03c.4.4.79.85 1.24 1.19-.25-.01-.49-.03-.75-.04h-.23c-.35-.41-.79-.82-1.24-1.17.32 0 .65.01.98.02zm-1.47-.03c.01.03.02.05.03.08.02.07.09.07.13.03.34.38.74.75 1.15 1.06-.11 0-.23-.01-.34-.01-.23 0-.44.01-.66.01v-.04c-.19-.37-.42-.77-.67-1.14.11.01.23.01.36.01zm-.87 0c.23.42.52.82.81 1.19l-.46.03c0-.03 0-.06-.02-.08-.28-.38-.57-.76-.86-1.13.17-.01.35-.01.53-.01zm-1.14 0h.24c.31.42.63.83.95 1.24-.27.02-.54.05-.8.09-.14-.26-.36-.48-.54-.71-.15-.19-.29-.46-.5-.6.23-.01.44-.01.65-.02zm-1.76.06c.34.45.69.92 1.12 1.29.09.08.23-.02.17-.13-.25-.42-.59-.81-.93-1.18.17-.01.33-.01.5-.02-.02.31.28.58.47.82.13.17.25.36.4.53-.32.05-.63.11-.93.19-.29-.38-.65-.7-.99-1.03-.09-.08-.21.04-.13.13.29.33.58.67.91.96-.21.06-.42.11-.61.18.02-.03.03-.07.01-.11-.31-.56-.73-1.07-1.16-1.57.38-.01.78-.04 1.17-.06zm-1.56.1c.41.58.83 1.19 1.36 1.67.02.01.03.02.05.02-.13.05-.25.1-.38.15-.45-.63-.97-1.23-1.49-1.8.15-.02.3-.03.46-.04zm-.92.07c.5.66 1.02 1.33 1.59 1.92-.16.07-.31.15-.45.23-.55-.75-1.23-1.42-1.87-2.09l.73-.06zm-1.11.09c.64.74 1.27 1.55 2 2.22-.11.07-.22.14-.33.22-.7-.86-1.52-1.6-2.32-2.37.21-.03.43-.05.65-.07zm-.91.09c0 .01 0 .02.01.02.78.83 1.52 1.71 2.39 2.45l-.36.3c-.82-.93-1.72-1.8-2.55-2.73.18-.01.34-.03.51-.04zm-.8.08c.8 1.03 1.64 2.07 2.63 2.91-.14.14-.27.29-.4.44-.95-1.17-2.08-2.2-3.16-3.25.3-.04.61-.07.93-.1zm-2.9.34c1.33 1.21 2.52 2.56 3.85 3.76.08.08.24-.03.17-.13-1.02-1.39-2.38-2.57-3.7-3.68.41-.05.87-.11 1.36-.17 1.05 1.18 2.08 2.44 3.27 3.48-.3.42-.56.89-.76 1.42-1.54-1.63-3.26-3.14-4.96-4.58.22-.03.48-.06.77-.1zm-1.46 3.39a.627.627 0 0 1-.02-.16c.16.13.33.26.49.4-.22-.12-.43-.23-.47-.24zm3.39 3.93c-.03-.09-.06-.23-.09-.35-.07-.28-.15-.61-.26-.94.56.47 1.13.94 1.75 1.32-.62.03-1.17.02-1.4-.03zm1.63.02h-.08c.03-.04.04-.09 0-.13-.63-.63-1.38-1.16-2.11-1.68-.18-.38-.43-.74-.78-.99a7.49 7.49 0 0 0-.52-.33c-.48-.49-1.02-.92-1.57-1.33-.01-.26-.02-.58-.03-.91 1.68 1.59 3.36 3.21 5.2 4.61-.04.24-.08.49-.11.76zm.16-1.05c-1.63-1.67-3.47-3.16-5.26-4.65v-1.13c1.63 1.86 3.38 3.78 5.38 5.26-.04.16-.08.34-.12.52zm-5.25-6.01v-.05c.12-.02.3-.06.5-.09 1.61 1.68 3.29 3.38 5.1 4.86-.05.13-.09.27-.13.41-1.74-1.78-3.69-3.39-5.47-5.13zm32.17 14.1c-.64 2.38-3.57 6.39-7.39 7.7-3.7 1.27-7.82.43-11.39-.46-3.15-.79-5.95-3.9-6.97-7.76-.51-1.93-.8-3.93-.91-5.64h.04l.38-.03.03-.38c.36-4.11 2.1-6.8 9.49-6.55 5.62.19 10.33 1.2 14.4 3.08 1.3.6 1.6 2.08 1.84 3.26.17.85.35 1.73 1.06 1.73.05 0 .1 0 .15-.01.07-.01.14-.03.21-.05-.16 1.7-.52 3.55-.94 5.11zm2.12-7.37c-.45.79-1.06 1.29-1.47 1.39-.09-.17-.19-.64-.26-.99-.02-.1-.04-.21-.07-.32.19.31.39.62.63.89.09.1.23-.03.18-.14-.26-.52-.64-1-.97-1.48-.11-.39-.25-.8-.45-1.19.62.76 1.25 1.51 1.92 2.19.07.07.21-.02.15-.11-1.38-1.99-2.95-3.88-4.47-5.78.64.22 1.21.42 1.71.62.92 1.58 1.95 3.28 3.26 4.55-.05.14-.09.25-.16.37zm.27-.59c-.96-1.41-2.05-2.74-3-4.17.32.13.62.27.88.4.72 1 1.46 2 2.29 2.9-.01.28-.06.57-.17.87zm7.66-.87c.83-.9 1.57-1.9 2.29-2.9.27-.13.56-.27.88-.4-.95 1.43-2.04 2.75-3 4.17-.11-.3-.16-.59-.17-.87zm.44 1.46c-.07-.12-.11-.24-.16-.36 1.31-1.28 2.34-2.98 3.26-4.55.5-.2 1.07-.4 1.71-.62-1.52 1.9-3.08 3.79-4.47 5.78-.06.09.07.19.15.11.67-.69 1.31-1.43 1.92-2.19-.2.39-.34.79-.45 1.19-.33.48-.72.96-.97 1.48-.05.11.09.24.18.14.23-.27.43-.58.63-.89-.02.11-.05.22-.07.32-.07.35-.17.82-.26.99-.41-.11-1.02-.6-1.47-1.4zm27.88 6.85c-1.02 3.85-3.83 6.97-6.97 7.76-3.57.89-7.68 1.74-11.39.46-3.82-1.32-6.75-5.32-7.39-7.7-.42-1.56-.78-3.4-.94-5.11.07.02.14.04.21.05.05.01.11.01.15.01.72 0 .89-.88 1.06-1.73.24-1.19.54-2.66 1.84-3.26 4.07-1.88 8.78-2.89 14.4-3.08 7.38-.25 9.13 2.43 9.49 6.55l.03.38.38.03h.04c-.11 1.71-.4 3.71-.91 5.64zm.82-8.85c1.8-1.49 3.48-3.18 5.1-4.86.2.03.38.06.5.09v.05c-1.78 1.74-3.73 3.35-5.47 5.13-.04-.14-.09-.28-.13-.41zm2.23 1.96c-.03.12-.06.26-.09.35-.23.05-.79.06-1.4.03.62-.38 1.19-.85 1.75-1.32-.12.33-.2.66-.26.94zm3.29-3.58c-.03.02-.24.13-.47.24.16-.14.33-.27.49-.4-.01.06-.01.13-.02.16zm.05-.51c-.55.4-1.09.84-1.57 1.33-.18.1-.36.21-.52.33-.35.25-.59.61-.78.99-.73.53-1.47 1.06-2.11 1.68-.04.04-.03.1 0 .13h-.08c-.03-.27-.07-.52-.11-.77 1.85-1.39 3.53-3.02 5.2-4.61-.01.34-.02.66-.03.92zm.03-1.24c-1.79 1.49-3.63 2.97-5.26 4.65-.04-.18-.07-.36-.12-.53 2-1.47 3.75-3.4 5.38-5.26.01.31.01.72 0 1.14z" fill="#000000" stroke-width="none" opacity="1"></path></g></g></g></g></g><rect id="svga-credit-rect" width="200" height="15" x="0" y="185" fill="#ecf0f1" opacity="0.5" style="display: none;"></rect><text id="svga-credit-text" font-family="Avenir Next, Roboto, Helvetica, Arial, sans-serif" font-size="10px" text-anchor="start" font-weight="400" size="10px" anchor="start" weight="400" fill="#333333" x="34.1171875" y="182.5078125" style="display: none;"><tspan id="SvgjsTspan24952" dy="13" x="34.1171875">Created on AvatarMaker.com</tspan></text></g></svg>