<svg xmlns="http://www.w3.org/2000/svg" version="1.1" width="600px" height="600px" viewBox="0 0 200 200" style="overflow:hidden!important;"><defs id="SvgjsDefs16686"></defs><g id="svga-group-wrapper"><g id="svga-group-backs-single"><path id="SvgjsPath17349" d="M0 0h200v200H0V0z" fill="#cdb380" stroke-width="none" opacity="1"></path><path id="SvgjsPath17350" d="M165.5 23.7c11.7 0 21.1 9.5 21.1 21.1S177.2 66 165.5 66s-21.1-9.5-21.1-21.1 9.4-21.2 21.1-21.2zm-77.3 86.5c11.7 0 21.1 9.5 21.1 21.1s-9.5 21.1-21.1 21.1-21.1-9.5-21.1-21.1 9.4-21.1 21.1-21.1zm-37.8 48.9c9.1 0 16.6 7.4 16.6 16.6s-7.4 16.6-16.6 16.6-16.6-7.4-16.6-16.6 7.5-16.6 16.6-16.6zm-.3-132.8c9.1 0 16.6 7.4 16.6 16.6s-7.4 16.6-16.6 16.6S33.5 52 33.5 42.8s7.4-16.5 16.6-16.5zm60.3-7.2c2.7 0 4.8 2.2 4.8 4.8s-2.2 4.8-4.8 4.8-4.8-2.2-4.8-4.8 2.1-4.8 4.8-4.8zm-91.5 97.1c2.7 0 4.8 2.2 4.8 4.8s-2.2 4.8-4.8 4.8-4.8-2.2-4.8-4.8 2.1-4.8 4.8-4.8zm120-5.7c4.8 0 8.8 3.9 8.8 8.8s-3.9 8.8-8.8 8.8-8.8-3.9-8.8-8.8 4-8.8 8.8-8.8z" fill="#be9f63" stroke-width="none" opacity="1"></path><path id="SvgjsPath17351" d="M101.8 45.4c14.2 0 25.8 11.5 25.8 25.8S116 97 101.8 97 76 85.4 76 71.2s11.5-25.8 25.8-25.8zm21.6 117.7c7.5 0 13.6 6.1 13.6 13.6s-6.1 13.6-13.6 13.6-13.6-6.1-13.6-13.6 6-13.6 13.6-13.6zm-88.6-35.9c7.2 0 13 5.8 13 12.9S42 153 34.8 153s-13-5.8-13-12.9 5.8-12.9 13-12.9zM55 88.8c2.1 0 3.8 1.7 3.8 3.8s-1.7 3.8-3.8 3.8-3.8-1.7-3.8-3.8 1.7-3.8 3.8-3.8zm44.9 78.4c2.1 0 3.8 1.7 3.8 3.8s-1.7 3.8-3.8 3.8-3.8-1.7-3.8-3.8 1.7-3.8 3.8-3.8zm79.9-82.1c2.1 0 3.8 1.7 3.8 3.8s-1.7 3.8-3.8 3.8-3.8-1.7-3.8-3.8 1.7-3.8 3.8-3.8zM66.7 16.5c2.1 0 3.8 1.7 3.8 3.8s-1.7 3.8-3.8 3.8-3.8-1.7-3.8-3.8 1.7-3.8 3.8-3.8zm-46.8-4.3c2.7 0 4.8 2.2 4.8 4.8s-2.2 4.8-4.8 4.8-4.8-2.2-4.8-4.8 2.1-4.8 4.8-4.8zM15.5 180c2.7 0 4.8 2.2 4.8 4.8s-2.2 4.8-4.8 4.8-4.8-2.2-4.8-4.8 2.2-4.8 4.8-4.8zM149.1 77.2c4.7 0 8.4 3.8 8.4 8.4s-3.8 8.4-8.4 8.4-8.4-3.8-8.4-8.4 3.7-8.4 8.4-8.4zM145.8 5c4.7 0 8.4 3.8 8.4 8.4s-3.8 8.4-8.4 8.4-8.4-3.8-8.4-8.4 3.7-8.4 8.4-8.4zM35.3 70.3c4.8 0 8.8 3.9 8.8 8.8s-3.9 8.8-8.8 8.8-8.8-3.9-8.8-8.8 4-8.8 8.8-8.8zm127.8 58.9c14 0 25.3 11.3 25.3 25.3s-11.3 25.3-25.3 25.3-25.3-11.3-25.3-25.3 11.4-25.3 25.3-25.3z" fill="#ae8d4a" stroke-width="none" opacity="1"></path></g><g id="svga-group-humanwrap-move" transform="matrix(1,0,0,1,0,0)"><g id="svga-group-humanwrap" transform="matrix(1,0,0,1,0,0)"><g id="svga-group-hair-back-move" transform="matrix(1,0,0,1,0,0)"><g id="svga-group-hair-back" transform="matrix(1,0,0,1,0,0)"></g></g><g id="svga-group-humanbody-back"><path id="SvgjsPath17077" d="M77.6 118.3c0 19.3 3.4 44.1-10 51.9-13.4 7.9-31.9 11.3-37.8 22s-4.4 25.3-4.4 25.3h149.3s.7-18.9-5.1-26.4c-8.1-10.4-27.8-15.5-37.7-20.9s-13.4-25.1-13.4-52.4l-40.9.5z" fill="#ffffff" stroke-width="none" opacity="1"></path></g><g id="svga-group-chinshadow-single"></g><g id="svga-group-humanbody-front"><path id="SvgjsPath17078" d="M175.8 218.7H24.4l-.1-1c-.1-.6-1.5-15.1 4.5-26 4.1-7.4 13.5-11.3 23.5-15.5 5-2.1 10.2-4.3 14.8-6.9 10.6-6.2 10.1-23.9 9.6-41-.1-3.5-.2-6.8-.2-10v-1.1l43.2-.4v1.1c0 29.9 4.2 46.7 12.8 51.4 2.9 1.6 6.7 3.2 10.8 4.9 10 4.1 21.3 8.8 27.2 16.3 6.1 7.7 5.4 26.4 5.4 27.1l-.1 1.1zm-149.3-2.2h147.1c0-4.1-.2-18.5-4.9-24.6-5.5-7-16.6-11.6-26.3-15.6-4.1-1.7-8-3.3-11-5-5.1-2.8-8.7-8.9-10.9-18.7-2-8.4-2.9-19.4-3-33.5l-38.6.4c0 2.8.1 5.7.2 8.8.5 17.8 1 36.1-10.7 43-4.7 2.7-9.9 4.9-15 7.1-9.6 4-18.7 7.8-22.4 14.5-5 8.6-4.7 20.1-4.5 23.6z" fill="#000000" stroke-width="none" opacity="1"></path><path id="SvgjsPath17079" d="M93.9 153.8c-.5 1.8-.4 3.4.5 5.2.8 1.6 2.1 2.7 3.9 2.9.4 0 .7-.5.5-.8-1.6-2.2-3.5-4.2-3.7-7.1 0-.7-1-.9-1.2-.2z" fill="#000000" stroke-width="none" opacity="1"></path><path id="SvgjsPath17080" d="M112.5 187.5c8.8.5 18.1-.7 26.6-2.9.7-.2.6-1.4-.2-1.3-8.8 1.1-17.7 2-26.5 3.3-.5.1-.3.9.1.9z" fill="#000000" stroke-width="none" opacity="1"></path><path id="SvgjsPath17081" d="M63.1 182.5c3.8.9 7.6 1.9 11.5 2.8 3.6.8 7.4 2 11.1 2.1.7 0 .8-.9.2-1.2-3.5-1.4-7.5-1.7-11.2-2.5-3.8-.7-7.5-1.3-11.3-2-.5 0-.7.7-.3.8z" fill="#000000" stroke-width="none" opacity="1"></path></g><g id="svga-group-clothes-single"><path id="SvgjsPath17211" d="M77.6 140.5s-8.6 2.8-13.1 5.9-5.6 10-5.6 10-2.3-3.3-4.5 1.9-1.8 5.6-4 7.9c-2.3 2.3-1 6.8-.2 7.9 0 0-4 2.8-8.4 4s-10.3 4.2-12.1 6.6-9.6 12.8-5.6 34h153.6s0-21-3-27.5-7.7-7.5-7.7-7.5-9.8-7-11.7-8.2-11-4.2-11-4.2-.5-4.2-1.2-7.2-4.6-8.1-6.6-8.4c-2.1-.4-3-2.8-5.6-7-2.6-4.2-5.8-6.5-7.3-7-1.6-.5-3.3-.2-3.3-.2s1.2 8.9 1.2 13.6-.9 7.7-4.6 12.2c-3.7 4.6-6.1 5.8-11.4 9.3s-6.3 5.4-6.3 5.4-3.2-5.1-8.8-8.6S83 166 79 162.5s-1.1-6.1-1.4-11.2c-.3-5.1 0-10.8 0-10.8z" fill="#ffffff" stroke-width="none" opacity="1"></path><path id="SvgjsPath17212" d="M175.6 190.8c-2.8-6.1-7.1-7.7-8.2-8-1.3-.9-9.8-7-11.6-8.1-1.8-1.1-8.5-3.4-10.6-4.1-.2-1.3-.6-4.3-1.2-6.6-.7-3-4.7-8.7-7.5-9.1-1.1-.2-1.8-1.3-3.3-3.9-.5-.8-1-1.6-1.6-2.6-2.6-4.2-5.9-6.8-7.9-7.4-1.8-.6-3.8-.2-3.8-.2-.5.1-.9.6-.8 1.1 0 .1 1.2 8.9 1.2 13.5 0 4.2-.7 7.1-4.3 11.6-3 3.8-5.1 5.1-9 7.6-.7.4-1.4.9-2.2 1.4-3.1 2.1-4.8 3.6-5.7 4.6-1.3-1.8-4.1-5.1-8.3-7.7-3.3-2.1-5.2-4.4-7.1-6.6-1.2-1.4-2.5-2.9-4.1-4.4-2.2-1.9-1.9-3.4-1.5-5.7.3-1.4.6-2.9.4-4.8-.3-4.9 0-10.7 0-10.7 0-.3-.1-.6-.4-.9-.3-.2-.6-.3-.9-.2-.4.1-8.8 2.9-13.4 6.1-3.5 2.4-5 6.7-5.7 9-.4-.2-.8-.3-1.3-.2-1.4.1-2.5 1.3-3.5 3.6-.7 1.7-1.2 2.9-1.5 3.8-.7 1.9-.9 2.4-2.3 3.8-2.2 2.2-1.7 6.2-.8 8.3-1.3.8-4.3 2.5-7.3 3.4-4.6 1.3-10.7 4.3-12.6 7l-.1.2c-6.4 8.9-8.3 20.6-5.6 34.6.1.5.5.8 1 .8h153.6c.6 0 1-.4 1-1 0-1.2-.1-21.6-3.1-28.2zm-33-23.6c.3 1.9.6 3.7.6 4.1 0 .2-.1.8-.6 1.6.3-1.8.2-3.8 0-5.7zm-20.7-19.4c.5.2 1.2.5 1.9.9-.2.1-.3.1-.5.1l-1.2.3c-.2-.5-.2-.9-.2-1.3zm-.1 12.5h1.5c-.6.4-1.3 1-2 1.6.2-.5.4-1 .5-1.6zm4.2-3.1c-1.2.1-2.6.4-3.8.6.1-.5.1-1 .1-1.5 1.3-.1 2.7-.3 3.9-.5 0 .5-.1 1-.2 1.4zm.1-5c.1.5.1.9.1 1.3-1.3 0-2.7.4-3.9.8 0-.5 0-1-.1-1.5 1.3-.2 2.7-.3 3.9-.6zm-3.8 3.6v-1.1c.7-.2 1.4-.3 2.2-.4.6-.1 1.2-.1 1.8-.2v1.1c-1.3 0-2.7.3-4 .6zm-.1-3.5c0-.4-.1-.8-.1-1.1.6-.1 1.1-.1 1.7-.2.6-.1 1.2-.2 1.7-.3.2.3.3.6.4 1-1.2 0-2.5.3-3.7.6zm1.9-2c-.6.1-1.3.2-1.9.4 0-.3-.1-.7-.1-1 .4-.1.9-.2 1.3-.3.3-.1.7-.1 1-.3l.9.9c-.5.1-.9.2-1.2.3zm-1.9 8c1.1-.1 2.4-.2 3.5-.4-.3.7-.9 1.3-1.6 1.8-.7 0-1.5.1-2.2.1l.3-1.5zM76 159.6c-1.2-1.1-2.3-2.2-2.7-3.1-.1-.1-.1-.2-.1-.4.9.7 1.8 1.5 2.8 2.1-.1.5-.1 1 0 1.4zm-.5-10.9c.3.4.7.7 1.1 1 0 .4 0 .9.1 1.3-.3-.2-.5-.4-.8-.6-.4-.3-.7-.6-1.1-.9.1-.2.4-.5.7-.8zm.3-.3c.2-.2.4-.3.6-.4v1c-.1-.2-.3-.4-.6-.6zm-1.4 1.5c.4.4.8.7 1.2 1 .3.3.6.6 1 .8v1c-.8-.7-1.8-1.4-2.7-2 .2-.2.3-.5.5-.8zm-.7 1.4c.9.8 1.8 1.7 2.8 2.3 0 .3-.1.6-.1.9-.4-.3-.9-.6-1.4-.9-.6-.4-1.2-.8-1.7-1.2.1-.4.3-.8.4-1.1zm-.5 1.5c.5.4 1.1.8 1.6 1.2.5.4 1 .8 1.6 1.1 0 .2-.1.4-.1.5 0 .1-.1.3-.1.4-.5-.3-1-.6-1.4-.9l-1.8-1.2c0-.3.1-.7.2-1.1zm2.7 4.8c-.9-.8-1.9-1.5-2.9-2.1v-1c.4.4.9.7 1.4 1.1.5.4 1.1.8 1.7 1.2-.1.2-.1.5-.2.8zm-22.1 4.8c.3-.9.8-2 1.5-3.7.9-2.1 1.6-2.3 1.8-2.4.3 0 .6.2.8.4.1 2.2 1.5 13.1 16.7 21.5.2.1.3.1.5.1.3 0 .7-.2.8-.5.1.2.2.5.3.7.1.1.3.1.3-.1-.2-2-.6-3.7-.3-5.7 0-.2-.3-.4-.4-.1-.2 1.2-.4 2.5-.2 3.8l-.1-.1c-.1-.1-.2-.1-.3-.2-.3-1.7-.5-3.3-.4-5 0-.3-.4-.3-.4 0-.2 1.5-.2 3.1.1 4.6-.4-.3-.9-.5-1.3-.8-.2-.5-.3-1.1-.4-1.6-.2-1.1-.1-2.1.1-3.1 0-.2-.3-.3-.3-.1-.3 1.3-.4 3 0 4.4-.4-.2-.7-.5-1-.7-.1-2.3-.2-4.5.1-6.8 0-.3-.4-.2-.4 0-.3 2.1-.4 4.2-.2 6.4-.6-.4-1.2-.9-1.7-1.4-.1-2.1-.1-4.2.3-6.4 0-.2-.2-.3-.3-.1-.5 2-.7 4-.6 6-.4-.4-.8-.8-1.2-1.1 0-1-.1-2.1 0-3.1.1-1.4.4-2.8.8-4.1.1-.2-.2-.3-.3-.1-.7 2-1.3 4.5-1 6.7-.4-.4-.7-.8-1.1-1.1-.2-1 .2-3.2.2-3.5.2-1.4.5-2.7 1-4 .1-.2-.2-.2-.3-.1-.8 2.3-1.3 4.7-1.4 7.1-.3-.3-.5-.6-.8-1 .1-.1.1-.2.1-.2.1-.1-.1-.3-.2-.2.2-2.9.8-5.8 1.8-8.5.1-.2-.2-.3-.3-.1-1 2.7-1.7 5.5-1.9 8.3-.3-.5-.6-.9-.9-1.4.7-2.8 1.1-5.7 2.1-8.5.1-.3-.3-.4-.4-.1-.9 2.5-1.8 5.3-2 8-.4-.6-.7-1.2-1-1.8.7-3 1.1-5.8 2.5-8.6.1-.2-.2-.4-.3-.2-1.3 2.4-2.4 5.3-2.6 8.1-.3-.8-.6-1.6-.8-2.2 1.2-2.8 1.9-5.8 3.1-8.6.1-.2-.2-.4-.3-.2-1.2 2.5-2.6 5.3-3.1 8-.3-1.4-.4-2.3-.4-2.6 1.2-2.5 2.1-5.1 3.3-7.6.5-.6 1.1-1.2 1.8-1.7 3.3-2.3 8.9-4.4 11.5-5.3 0 1-.1 2.4-.1 3.9-1.9.7-3.5 2.3-4.5 4.5-1.1 2.5-1.3 5.3-.5 7.1 1.1 2.4 5.2 5.4 8.7 7.8.3.2.5.3.6.4l1.5 1.8c2 2.3 4 4.8 7.6 7 5.3 3.3 8.4 8.2 8.4 8.2.2.3.5.5.9.5.3 0 .7-.2.8-.5 0 0 1.1-1.8 6-5.1.8-.5 1.5-1 2.2-1.4 3.2-2.1 5.4-3.5 7.8-6.2.2 0 .4-.1.5-.3.1-.1 5.5-6.1 8.3-7.9 3.5-2.4 3.9-5.5 3.3-9.8-.6-4.3-5-5.9-6.5-6.3-.2-1.3-.3-2.4-.4-3.2.5 0 1.2 0 1.9.2 1.4.5 4.3 2.6 6.8 6.6.6.9 1.1 1.8 1.5 2.6 0 0 0 .1.1.1l-.7-.7c-.1-.1-.3.1-.2.2.7.8 1.3 1.7 2 2.5v.1s.3 1.1.3 2.9c-.5-.8-1.1-1.6-1.4-2.5-.1-.2-.4-.1-.4.1.4 1.2.9 2.4 1.8 3.3 0 .3 0 .7-.1 1.1-.5-.7-1.1-1.3-1.5-1.9-.1-.2-.5 0-.3.2.5.7.9 1.4 1.4 2.1.1.2.2.3.3.5-.1.6-.2 1.2-.3 1.9-.5-.6-1-1.2-1.4-1.8-.1-.2-.4.1-.3.2.5.7 1 1.6 1.6 2.3-.1.5-.3 1.1-.6 1.7-.2-.4-.4-.9-.5-1.3-.1-.2-.5-.1-.4.1.2.6.4 1.4.6 2.1-.2.5-.5 1.1-.9 1.6-.1-.3-.1-.6-.1-.9 0-.3-.4-.3-.4 0 0 .5.1 1.1.1 1.6-.4.5-.8 1.1-1.2 1.6-.1-.6-.2-1.3-.3-1.9 0-.2-.4-.2-.4.1.1.8.1 1.6.2 2.3-.4.4-.8.9-1.2 1.3 0-.8-.1-1.5-.2-2.3 0-.3-.4-.3-.4 0 0 .9-.1 1.9 0 2.9-.3.3-.6.6-.9.8 0-.2 0-.5-.1-.7 0-.8-.1-1.5-.1-2.2 0-.3-.4-.3-.4 0 0 .8 0 1.5.1 2.2v1.2c-.4.4-.9.7-1.3 1.1 0-.2-.1-.4-.1-.7 0-.6 0-1.1.1-1.7 0-.3-.3-.4-.4-.1-.2.9-.4 2-.1 2.9-.3.3-.7.5-1 .8 0-.4-.1-.8-.1-1.2 0-.3-.5-.3-.5 0v1.6c-.4.3-.7.5-1.1.8 0-.4-.1-.9-.1-1.3 0-.3-.5-.3-.5 0 0 .6 0 1.1.1 1.6-.4.3-.8.5-1.1.7v-1.8c0-.3-.4-.3-.4 0 0 .6-.1 1.1-.1 1.7v.5c-.4.2-.7.4-1.1.6v-1.4c0-.3-.4-.2-.4 0-.1.5-.1 1.1-.1 1.6-.2.1-.5.2-.7.3-.1 0-.1 0-.1.1 0-.4.1-.7.1-1.1 0-.2-.4-.2-.4 0-.1.4-.1.8-.2 1.3-.3.1-.7.3-1 .4v-1.3c0-.2-.4-.2-.4 0 0 .5-.1 1-.2 1.5-.5.2-1 .4-1.4.5v-1c0-.3-.4-.3-.4 0 0 .4-.1.8-.1 1.2-.3.1-.6.2-.8.3 0-.4.1-.7.1-1.1 0-.2-.4-.3-.4-.1-.1.4-.1.9-.2 1.3-.2.1-.4.1-.4.1-.5.2-.8.7-.7 1.2.1.4.5.7 1 .7h.3c.1 0 1.5-.5 4.4-1.6v.1c0 .2.3.1.3 0s0-.1.1-.2c.4-.1.7-.3 1.1-.4 3.7-1.5 13.6-8.3 16.3-15 1.5-3.6 1.7-6.9 1.6-9 .4.2.8.4 1.2.4 1.4.2 5 4.6 5.8 7.4-.1 0-.2.1-.2.2.3 3.2.1 6.4.2 9.5-.2.2-.4.5-.6.7v-8.7c0-.2-.4-.2-.4 0-.1 3.1-.2 6.2-.2 9.3l-.5.5c0-2.4-.3-4.8-.4-7.2 0-.2-.4-.3-.4 0 .1 2.6-.1 5.2.2 7.8-.2.1-.4.3-.5.4.1-2 0-4.1-.1-6.1 0-.2-.4-.2-.4 0-.1 2.2-.4 4.5-.3 6.7-.2.2-.5.3-.7.5.2-2 .1-4 0-6 0-.2-.4-.2-.4 0 0 2.1-.2 4.3-.3 6.4-.4.2-.9.5-1.4.7.2-1.9 0-3.9 0-5.8 0-.3-.4-.3-.4 0-.1 2-.3 4.1-.2 6.1-.4.2-.8.4-1.3.6.2-1.3.2-2.7.3-4 0-.3-.4-.3-.4 0-.2 1.4-.5 2.9-.6 4.3-.4.2-.9.4-1.3.5.2-1.4.2-2.9.6-4.3.1-.3-.4-.4-.4-.1-.3 1.4-.8 3.1-.9 4.7-.5.2-.9.3-1.4.5.1-1.2 0-2.6.1-3.8 0-.3-.4-.3-.4 0-.1 1.2-.4 2.7-.3 4-.6.2-1.3.4-1.9.7 0-.4 0-.9.1-1.3.1-.9.3-1.7.6-2.5.1-.2-.3-.3-.4-.1-.5 1.2-1 2.7-1 4.1l-.9.3v-.1c.1-.7.1-1.4 0-2.1 0-.3-.5-.3-.5 0 0 .7 0 1.3-.1 2 0 .1-.1.3-.1.5-.4.1-.8.3-1.2.4.1-.6.1-1.2.1-1.8 0-.3-.4-.3-.5 0-.1.6-.2 1.3-.3 2-.5.1-1 .3-1.5.5v-1c0-.3-.5-.3-.4 0v1.2c-.5.2-1 .3-1.5.5.1-.5.3-1.1.4-1.6.1-.3-.3-.4-.4-.1-.2.6-.4 1.3-.6 1.9-.4.1-.8.2-1.2.4.1-.6.2-1.1.3-1.6.1-.3-.4-.4-.4-.1-.2.6-.4 1.3-.5 1.9-.2.1-.4.1-.6.2.1-.4.2-.9.4-1.3.1-.2-.3-.4-.4-.1-.2.5-.4 1-.6 1.6-.2.1-.3.1-.5.1 0-.2.1-.4.1-.6.1-.2-.3-.3-.3-.1-.1.3-.2.5-.3.8-.5.1-.9.3-1.3.4 0-.1-.2-.2-.3 0 0 .1-.1.1-.1.1-.8.2-1.6.4-2.2.6-1.6.4-2.7.8-3.1.9-.3.1-1.2.2-2.4.2-.2-1.3-.6-2.7-1.5-4.8-.2-.5-.8-.7-1.3-.5s-.7.8-.5 1.3c.8 1.7 1.1 2.9 1.3 3.9H101c-.3-.4-.6-.7-1-1-.2-.2-.5.1-.3.3l.7.7h-1.2c-.2-.2-.4-.5-.6-.7-.4-.6-.7-1.2-.9-1.9-.1-.3-.5-.2-.4.1.2.8.6 1.7 1.1 2.5-.4 0-.9 0-1.3-.1-.1-1.8-.1-3.5-.1-4.4 0-.6-.4-1-1-1s-1 .4-1 1c0 .4 0 2.2.1 4.3h-.2c-.3-.4-.7-.8-.9-1.3-.4-.7-.6-1.5-.7-2.3 0-.2-.4-.3-.4 0 .1 1.1.4 2.6 1.2 3.5-.5 0-.9-.1-1.4-.1-.2-.4-.5-.9-.7-1.3-.3-.7-.5-1.5-.5-2.3 0-.2-.4-.3-.4 0 0 1.1.3 2.6 1 3.6-.3 0-.5 0-.8-.1-.2-.6-.7-1.1-.9-1.7-.3-.7-.4-1.4-.4-2.1 0-.3-.4-.3-.4 0-.1 1.1.2 2.9 1.1 3.8-.4 0-.8-.1-1.3-.1-.3-.6-.8-1.2-1.1-1.8-.3-.8-.5-1.6-.5-2.4 0-.3-.4-.3-.4 0 0 1.3.3 3.1 1.3 4.1-.6-.1-1.2-.1-1.8-.2-.3-.4-.5-.9-.7-1.4-.3-.8-.4-1.6-.5-2.4 0-.3-.5-.3-.4 0 0 1.2.3 2.6.9 3.7-.4-.1-.9-.1-1.3-.2-.2-.4-.5-.9-.7-1.4-.3-.8-.5-1.5-.5-2.3 0-.3-.4-.3-.4 0 .1 1.2.3 2.5 1 3.6-.5-.1-.9-.1-1.3-.2-.4-.6-.8-1.1-1-1.7-.4-.8-.6-1.7-.8-2.6 0-.2-.4-.1-.3.1.1 1.3.5 3 1.3 4.1-.7-.1-1.3-.3-1.8-.4-1-1.4-1.8-2.7-2.2-4.5-.1-.2-.3-.1-.3.1.2 1.4.8 2.9 1.7 4.1-.2-.1-.5-.2-.6-.3-.3-.2-.8-.4-1.3-.6-.7-1.5-1.4-3-1.8-4.7-.1-.3-.5-.2-.4.1.2 1.4.6 2.9 1.3 4.1-.3-.1-.7-.3-1-.4-.8-1.6-1.6-3-1.9-4.9 0-.2-.4-.2-.4.1.2 1.5.6 3.2 1.4 4.5-.3-.1-.6-.2-.9-.4-.4-.8-.8-1.5-1.1-2.2-.4-1.1-.7-2.2-.8-3.3 0-.3-.5-.2-.5.1.2 1.6.6 3.6 1.5 5.1l-1.5-.6c-.3-.7-.7-1.3-1-2-.4-.9-.7-1.9-.9-2.9-.1-.3-.5-.2-.4.1.3 1.4.7 3.2 1.6 4.5-.2-.1-.4-.1-.5-.2-.5-.2-1-.4-1.6-.6-.9-1.5-1.5-3-1.8-4.8 0-.2-.4-.2-.4.1 0 1.5.5 3.1 1.3 4.4-.7-.3-1.4-.6-2.1-.8-.8-1.7-1.5-3.4-1.7-5.3 0-.3-.4-.3-.4 0 .1 1.7.5 3.5 1.3 5-.4-.2-.8-.3-1.2-.5-.5-.8-1-1.5-1.4-2.4-.5-1.2-.8-2.5-.9-3.8 0-.3-.4-.3-.4 0 .1 1.9.6 4.1 1.7 5.8-.6-.3-1.3-.5-1.9-.8-1.2-2.1-2.1-4-2.2-6.6 0-.3-.4-.3-.4 0 0 2.1.5 4.4 1.6 6.1-.5-.2-1.1-.5-1.6-.7-1.3-2.3-2.1-4.5-2-7.2 0-.3-.4-.3-.4 0-.2 2.3.3 4.8 1.6 6.8-.3-.2-.7-.3-1-.5-1.3-2.7-2.2-5.2-2.2-8.2 0-.3-.4-.3-.4 0-.1 2.7.5 5.6 1.9 7.9-.7-.4-1.3-.7-1.9-1-1.6-2.4-2.2-4.8-2-7.9v-.1c.8-1.9 1.1-2.7 1.9-4.7zm-3.3 5.3c-.3 2.1.2 4.4 1.3 6.3-.3-.2-.6-.4-.8-.6-.6-.7-1.5-3.7-.5-5.7zM33.2 183c.3.9.8 2.5 1.4 4.6-.7-.3-1.5-.5-2.1-.9-.7-.4-1.3-1-1.8-1.6.5-.7 1.4-1.4 2.5-2.1zm-2.8 2.5c1.1 1.3 2.7 2.5 4.4 2.6.2.8.5 1.7.7 2.7l-.1-.1c-2.4-.9-4.4-1.8-6.2-3.4l1.2-1.8zm-6.2 27.4c3.5 2.2 7.7 4.1 11.8 4.8H24.9c-.3-1.6-.5-3.2-.7-4.8zm12.9 4.8c0-.1 0-.2-.1-.3-4.5-1.5-8.6-2.9-12.8-5.1-.1-.9-.1-1.9-.2-2.8 4.6 2.7 10 5.1 15.2 6.1.2 0 .3-.2.1-.3-5.1-2.2-10.2-4.2-15.3-6.5v-2.9c3.5 2.5 7.6 4.5 11.9 5.4.3.1.4-.4.1-.5-4.2-1.6-8.2-3.2-12-5.5 0-1.2.1-2.3.3-3.4 2.9 1.7 5.9 3.1 9.1 4 .3.1.4-.4.1-.5-3.1-1.3-6.2-2.6-9.2-4.1.1-.9.3-1.8.4-2.6 3 2.4 6.6 4.4 10.4 5 .2 0 .3-.2.1-.3-3.7-1.5-7.1-3.1-10.4-5.2l.6-2.4c2.8 1.9 5.8 3.8 9 4.7.2.1.3-.2.1-.3-3-1.7-6-3.1-8.9-4.9.3-.9.5-1.7.9-2.5 2.4 1.8 5.3 3.1 8.3 3.6.3 0 .4-.3.1-.4-2.9-1-5.6-2.2-8.2-3.8.2-.6.5-1.2.8-1.8 2.2 2 4.9 3.6 7.8 3.9.2 0 .2-.2 0-.3-2.8-1.1-5.3-2.2-7.6-4.1.4-.7.7-1.4 1.1-2.1 1.7 1.8 4.1 3.1 6.5 3.3.1 0 .1 0 .2-.1 1.4 5.9 3.1 14.8 4.1 26.7h-2.5zm4.5 0C39.9 196.6 36 184.9 35 182c2.2-1.2 4.9-2.3 7-2.9 3.5-1 6.7-2.9 8.1-3.7 3.3 2.5 11.8 5.9 18.6 8.6 3.8 1.5 7.2 2.8 8.6 3.6 2.4 1.3 10.3 2.2 17.6 2.6.2 1.5.4 2.9.7 3.8.7 1.9.5 3.3-.2 7.5l-.3 1.8c-.3 1.9-.7 3.4-1.1 4.8-.7 2.6-1.3 4.6-.2 6.8.2.4.5.6.9.6.1 0 .3 0 .4-.1.5-.2.7-.8.5-1.3-.8-1.6-.3-3 .3-5.4.4-1.3.8-3 1.2-5l.3-1.8c.7-4.3 1-6.1.1-8.5-.2-.6-.4-1.8-.6-3 2.3.1 4.5.2 6.4.2 0 .5-.1 1.1-.1 1.7-.1.7-.1 1.5-.2 2.4-.2 4.4.8 10 .9 10.9l-.2 9c0 .6.4 1 1 1 .5 0 1-.4 1-1l.2-9.1v-.2c0-.1-1.1-6-.9-10.5 0-.9.1-1.7.2-2.4s.1-1.3.1-1.9c1.5 0 2.5-.1 2.9-.3.4-.1 1.5-.4 3-.9 2.4-.7 5.7-1.6 9.2-2.7.1.1.3.1.4 0l.1-.1c6.8-2.1 14.4-4.6 17.7-6.8 4.4-2.9 5.9-5.5 6.4-7 3 1 8.4 2.9 9.8 3.8 1.6 1 9.1 6.4 11.1 7.8-.6 3.2-3.3 18.3-2.9 33.6l-121.4-.2zm123.3-1.3c.9.5 1.8.9 2.8 1.3H165c0-.4 0-.9-.1-1.3zm4.4 1.3c-1.4-.7-2.9-1.4-4.4-1.9v-3.1c2.8 2 6 3.5 9.3 4 .3 0 .4-.4.1-.4-3.4-1.1-6.5-2.3-9.4-4.2 0-1.1.1-2.1.1-3.2 2.6 1.2 5.3 2.4 8 3.2.2.1.4-.3.2-.4-2.6-1.3-5.4-2.4-8.1-3.4.1-1.1.1-2.1.2-3.1 2.3 1.5 4.8 2.8 7.4 3.6.2.1.4-.3.2-.4-2.6-1.2-5.1-2.3-7.6-3.8.1-.9.1-1.8.2-2.7 1.8 1.7 4.7 2.7 7.1 2.8.2 0 .3-.3.1-.4-1.4-.4-2.8-.8-4.2-1.4-1-.5-1.9-1.1-2.9-1.7.1-.9.2-1.7.2-2.6 2.1 1.2 4.2 2.5 6.4 3.3.2.1.3-.2.1-.3-2-1.4-4.3-2.4-6.5-3.4.1-1.1.2-2.1.4-3 1.6 1.1 3.2 2.2 4.9 3.1.2.1.3-.1.1-.2-1.6-1.2-3.3-2.3-5-3.2.3-2.3.6-4.3.8-6 1 .9 2 1.8 3.1 2.5.2.1.4-.1.2-.3-.9-1-2.1-1.9-3.2-2.7.2-1.4.4-2.5.6-3.2 1.4.7 4.1 2.4 6 6.6 2.5 5.4 2.8 21.9 2.9 26.1l-7.3-.2zm-2.3-25.9c-.3-.1-.4.2-.2.4 1.2.9 2.5 1.9 3.8 2.4.2.1.5-.2.3-.4-1.2-1-2.6-1.8-3.9-2.4zm-87.4-12.2c-.1-.8-.4-1.6-.6-2.5-.2-1-.2-1.9-.1-2.9 0-.3-.4-.3-.4 0-.2 1.7-.1 4 .8 5.5.1.2.3.1.3-.1zm1.9.9c.1-1.6-.3-3.4-.5-5 0-.3-.4-.3-.4 0 .1 1.7.1 3.5.5 5.1.1.2.4.1.4-.1zm1.2.1c.1-1.3-.3-2.7-.5-4.1 0-.2-.3-.1-.3.1.1 1.3.1 2.8.5 4.1 0 .2.3.1.3-.1zm2 1c-.2-1.5-.8-2.8-1-4.3 0-.3-.4-.3-.4 0 .1 1.4.3 3.2 1.1 4.4.1.2.3.1.3-.1zm2.1.2c.1.1.2-.1.1-.2-.3-.3-.6-.6-.8-1-.2-.4-.4-.8-.4-1.2 0-.3-.5-.2-.4.1 0 .9.5 2 1.5 2.3zm2.4.7c.1.1.3 0 .3-.2-.4-.9-1.1-1.8-1.7-2.6-.2-.2-.6 0-.4.2.6.9 1.1 1.8 1.8 2.6zm19 .3c.2-.5.2-1.2.2-1.8 0-.2-.4-.2-.4 0-.1.6-.3 1.2-.1 1.8.1.1.3.1.3 0zm1.3-.4c.2-.4.2-.8.3-1.2.1-.5.2-.9.3-1.4.1-.3-.3-.4-.4-.1l-.3 1.5c-.1.4-.2.8-.1 1.2-.1.1.1.2.2 0z" fill="#000000" stroke-width="none" opacity="1"></path></g><g id="svga-group-head" transform="matrix(1,0,0,1,0,0)"><g id="svga-group-ears-left-move" transform="matrix(1,0,0,1,0,0)"><g id="svga-group-ears-left" transform="matrix(1,0,0,1,0,0)"><path id="SvgjsPath17225" d="M60.7 84.7s-1.8-5-3.3-7.9-3.6-6.3-6.6-7.2-4 3.9-2.9 8.3 4.2 13.9 5 17.6 1.8 8.1 3.6 7.5 7.1-7.7 4.2-18.3z" fill="#ffffff" stroke-width="none" opacity="1"></path><path id="SvgjsPath17226" d="M55.1 103.6c-1.5-.8-2.3-3.8-3.2-8-.4-2.2-1.7-6.4-2.9-10.5-.8-2.7-1.6-5.3-2.1-7.1-.9-3.5-.5-7.1 1-8.6.8-.8 1.8-1 2.9-.7 3.3.9 5.5 4.4 7.2 7.6 1.6 2.9 3.3 7.8 3.4 8v.1c3.1 11.1-2.6 18.5-4.8 19.3-.2.1-.4.1-.6.1-.3.1-.6 0-.9-.2zm1.5-26.4c-1.6-2.9-3.4-6-6.1-6.7-.5-.1-.9 0-1.3.3-1.1 1.1-1.3 4-.6 6.9.5 1.8 1.2 4.3 2 7 1.2 4.1 2.5 8.4 3 10.6.8 4.1 1.6 6.4 2.3 6.8h.1c1.1-.4 6.6-6.8 3.8-17.2-.1-.4-1.8-5.1-3.2-7.7z" fill="#000000" stroke-width="none" opacity="1"></path><path id="SvgjsPath17227" d="M48.8 72.7c1.9-.8 3.6 1.4 4.8 3.3 1.6 2.5 2.6 5.5 2.9 8.6v.2c0 .2 0 .5.1.7 0 .2-.2.2-.2 0-.1-.4-.2-.9-.3-1.4 0 0-.1-.1-.1-.2-1.2-.6-1.8-.3-1.8.8 0 .7.2 1.5.3 2.2.3 1.2.9 2.3 1.3 3.5.1.2-.2.4-.3.2-.9-1.6-2.6-5.3-1.5-7.2.5-.9 1.3-.8 1.9-.2-.5-2-1.2-4.3-2.2-6.2-2.1 4.5-1 9.2.1 14.2 0 .2-.2.3-.3.1-1.4-4.6-2.7-10.7 0-14.5-1.2-2.2-2.8-3.9-4.7-3.8-.1.1-.2-.3 0-.3z" fill="#000000" stroke-width="none" opacity="1"></path></g></g><g id="svga-group-ears-right-move" transform="matrix(1,0,0,1,0,0)"><g id="svga-group-ears-right" transform="matrix(1,0,0,1,0,0)"><path id="SvgjsPath17228" d="M139.3 84.7s1.8-5 3.3-7.9 3.6-6.3 6.6-7.2 4 3.9 2.9 8.3-4.2 13.9-5 17.6c-.7 3.7-1.8 8.1-3.6 7.5s-7.1-7.7-4.2-18.3z" fill="#ffffff" stroke-width="none" opacity="1"></path><path id="SvgjsPath17229" d="M144 103.9c-.2 0-.4 0-.6-.1-2.2-.8-7.9-8.2-4.8-19.3v-.1c.1-.2 1.8-5.1 3.4-8 1.7-3.2 3.9-6.7 7.2-7.6 1.1-.3 2.2 0 2.9.7 1.5 1.5 1.9 5 1 8.6-.5 1.8-1.2 4.4-2.1 7.1-1.2 4.1-2.5 8.3-2.9 10.5-.8 4.2-1.7 7.2-3.2 8-.3.1-.6.2-.9.2zm-3.9-19c-2.9 10.4 2.6 16.8 3.8 17.2h.1c.7-.4 1.5-2.7 2.3-6.8.5-2.3 1.7-6.5 3-10.6.8-2.7 1.6-5.3 2-7 .8-2.9.5-5.9-.6-6.9-.3-.3-.8-.4-1.3-.3-2.7.7-4.6 3.9-6.1 6.7-1.3 2.6-3 7.3-3.2 7.7z" fill="#000000" stroke-width="none" opacity="1"></path><path id="SvgjsPath17230" d="M151.2 72.7c-1.9-.8-3.6 1.4-4.8 3.3-1.6 2.5-2.6 5.5-2.9 8.6v.2c0 .2 0 .5-.1.7 0 .2.2.2.2 0 .1-.4.2-.9.3-1.4.1-.1.1-.2.2-.3 1.2-.6 1.8-.3 1.8.8 0 .7-.2 1.5-.3 2.2-.3 1.2-.9 2.3-1.3 3.5-.1.2.2.4.3.2.9-1.6 2.6-5.3 1.5-7.2-.5-.9-1.3-.8-1.9-.2.5-2 1.2-4.3 2.2-6.2 2.1 4.5 1 9.2-.1 14.2 0 .2.2.3.3.1 1.4-4.6 2.7-10.7 0-14.5 1.2-2.2 2.8-3.9 4.7-3.8 0 .2.1-.2-.1-.2z" fill="#000000" stroke-width="none" opacity="1"></path></g></g><g id="svga-group-faceshape-wrap" transform="matrix(1,0,0,1,0,0)"><g id="svga-group-faceshape-single"><path id="SvgjsPath17299" d="M142.4 53.6c-2.3-11.4-15.1-28.8-42.4-28.8S63.6 38.2 59.6 48.1c-2.5 6.2-3.2 15.2-3.4 19.7 0 0 1.8 34.5 3.2 41 1.4 6.6 26.7 30.4 29.5 32.8 2.8 2.3 9.8-1.4 9.8-1.4s4.7 5.6 10.8.9c6.1-4.7 29-26.7 30.4-30.4s4-42.9 4-42.9c-.1-3.2-.4-8.9-1.5-14.2z" fill="#ffffff" stroke-width="none" opacity="1"></path><path id="SvgjsPath17300" d="M104.5 144.2c-2.6 0-4.7-1.3-6.1-2.5-2.1 1-7.5 3.2-10.3.9-1.8-1.5-28.3-26.1-29.9-33.4-1.4-6.6-3.1-39.8-3.2-41.2v-.2c.2-4.8.9-13.8 3.4-20.1 6.6-16.2 20.1-24 41.5-24 12.3 0 23.2 3.6 31.3 10.4 6.3 5.2 10.9 12.5 12.2 19.3 1.1 5.5 1.3 11.4 1.4 14.4-.3 4-2.6 39.4-4 43.2-1.6 4.2-25.3 26.7-30.8 30.9-1.9 1.7-3.8 2.3-5.5 2.3zm-5.6-5.4.6.7c.4.5 4.2 4.6 9.2.8 6.4-4.9 28.8-26.6 30-29.9 1-2.6 2.9-26.9 3.9-42.5 0-3-.3-8.7-1.4-14-1.3-6.4-5.6-13.1-11.5-18-7.7-6.5-18-9.9-29.9-9.9-20.3 0-33.2 7.4-39.4 22.6-2.4 5.9-3.1 14.6-3.3 19.3.1 1.5 1.8 34.5 3.1 40.8 1.3 6 25.5 29.1 29.1 32.1 1.6 1.3 6.1-.2 8.6-1.5l1-.5z" fill="#000000" stroke-width="none" opacity="1"></path></g></g><g id="svga-group-mouth-single-move" transform="matrix(1,0,0,1,0,0)"><g id="svga-group-mouth-single" transform="matrix(1,0,0,1,0,0)"><path id="SvgjsPath17388" d="M112.4 120.4c-.5-.3-1.7-.4-2.1-.6-6.8-4.2-15-4-21.6.5-.3.1-2 .1-2.3.2-.6.2 1.4.8 2 .6 2.1-.7 4.1-1.1 6.4-1.1 1.9 0 3.6 1.2 5.5 1.1 1.6-.1 3.1-1.1 4.7-1.3 2.2-.2 3.5-.5 5.4.7.4.4 2.5.3 2-.1zm-6.4-1.5c-.1-.2-.2-.4-.2-.6.2.1.3.1.5.2v.1c.1.1.1.2.1.4-.2-.1-.3-.2-.4-.1zm-5.7-1.6h.7v.1c.2.8.4 1.6.7 2.4-.2 0-.3.1-.4.1-.3-.9-.6-1.8-1-2.6zm1.2 0c.2 0 .3 0 .5.1v.1c.2.7.4 1.3.6 2-.1 0-.3.1-.4.1-.3-.7-.5-1.5-.7-2.3zm1 .2c.2 0 .4.1.5.1.2.6.4 1.1.6 1.7-.2.1-.4.1-.6.2-.1-.8-.3-1.4-.5-2zm1.1.2c.2 0 .3.1.5.1v.1c.1.4.2.8.4 1.2-.1 0-.3.1-.4.1-.1-.6-.3-1.1-.5-1.5zm1.1.2c.2.1.4.1.6.2v.2c.1.2.2.4.2.7-.2 0-.3 0-.5.1-.1-.5-.2-.8-.3-1.2zm2.1.7c.3.1.7.3 1 .4-.3-.1-.6-.1-.9-.1-.1-.1-.1-.2-.1-.3zm-10.8.6c-.2-.5-.4-.9-.7-1.4.1 0 .3-.1.4-.1l.6 1.5H96zm-.9-.1c-.2-.3-.3-.7-.5-1.1.1 0 .2-.1.3-.1l.6 1.2h-.4zm-.8 0c-.2-.3-.3-.5-.5-.8.1 0 .2-.1.3-.1.1.3.3.6.4.9h-.2zm-.9 0-.3-.6c.1 0 .2-.1.3-.1.1.2.2.4.4.7h-.4zm-.9.2c-.1-.1-.2-.3-.2-.4.1-.1.3-.1.4-.2.1.2.2.3.2.5-.2 0-.3 0-.4.1zm-1.1.2c0-.1-.1-.1-.1-.2.2-.1.3-.2.5-.2.1.1.1.2.2.3-.2 0-.4 0-.6.1zm4.9-1.9c.2 0 .3-.1.5-.1.2.7.5 1.4.7 2-.2-.1-.4-.1-.5-.1-.3-.6-.5-1.2-.7-1.8zm.9-.1c.1 0 .3 0 .4-.1.3.8.7 1.6 1 2.4-.2 0-.4-.1-.6-.1-.2-.7-.5-1.5-.8-2.2zm.9-.2h.6v.1l.9 2.7c-.2 0-.3 0-.5-.1-.3-.9-.6-1.8-1-2.7zm-7.2 2.2s0 .1 0 0c-.1.1-.2.2-.3.2.1-.1.2-.1.3-.2zm9.3.5c-.3-.9-.7-1.8-.9-2.7h.6v.1c.4.8.7 1.7 1 2.6h-.7zm8.2 2.6c-5.6 2-11.6 2-17.2-.2-.3-.1-.4.4-.1.5 5.6 2.2 11.8 2.2 17.4.2.3-.1.2-.6-.1-.5z" fill="#000000" stroke-width="none" opacity="1"></path></g></g><g id="svga-group-eyes-left-move" transform="matrix(1,0,0,1,0,0)"><g id="svga-group-eyes-left" transform="matrix(1,0,0,1,0,0)"><g id="svga-group-eyesback-left"></g><g id="svga-group-eyesiriswrapper-left"><g id="svga-group-eyesiriscontrol-left" transform="matrix(1,0,0,1,0,0)"><g id="svga-group-eyesiris-left" transform="matrix(1,0,0,1,0,0)"><path id="SvgjsPath17313" d="M74.4 87.5c.3 1.2 1 2.2 1.9 2.9.2.2.5.3.7.5s.5.3.8.3c.5.2 1.1.3 1.7.2.6 0 1.1-.2 1.7-.4.5-.2 1-.6 1.4-1.1.4-.4.7-1 .8-1.5.2-.6.2-1.2.1-1.7-.2-1.2-.8-2.2-1.7-2.9-.4-.4-.9-.6-1.5-.8-.6-.1-1.1-.2-1.7-.2s-1.1.2-1.7.4c-.5.2-.9.6-1.3 1-.2.2-.4.4-.6.7-.2.2-.3.5-.4.8-.1.3-.2.6-.2.9.1.3 0 .6 0 .9-.1-.7-.1-1.3 0-1.9l.3-.9c.2-.3.3-.5.5-.8.2-.2.4-.5.6-.7.2-.2.5-.4.8-.5.6-.3 1.2-.4 1.8-.5.6-.1 1.3 0 1.9.2.6.2 1.2.5 1.7.9s.9.9 1.2 1.5c.3.6.4 1.2.5 1.8v.9c0 .3-.1.6-.2.9-.2.6-.5 1.1-.9 1.6s-.9.9-1.4 1.2-1.1.8-1.7.8c-.6.1-1.3 0-1.9-.2-.6-.2-1.2-.6-1.6-1s-.8-.9-1.1-1.5c-.4-.5-.5-1.1-.5-1.8zm5.5.6c.2-.2.3-.5.3-.8 0-.7-.5-1.2-1.2-1.2h-.1c.1.2.1.4.1.5 0 .4-.4.6-.8.4 0 0-.2-.1-.2-.2-.1.1-.1.3-.1.4 0 .7.5 1.2 1.2 1.2.2 0 .3 0 .4-.1.1-.1.2-.2.4-.2zm-1.1-2.4c0 .1 0 .1.1.2h.2c.8 0 1.5.7 1.5 1.5 0 .3-.1.6-.2.8.1.1.2.1.2.2.2-.3.3-.7.3-1 0-1-.8-1.8-1.8-1.8h-.3v.1zm.6 3h-.3c-.8 0-1.5-.7-1.5-1.5 0-.2.1-.5.2-.7-.1-.1-.1-.2-.2-.3-.2.3-.3.6-.3 1 0 1 .8 1.8 1.8 1.8.2 0 .3 0 .4-.1-.1 0-.1-.1-.1-.2z" fill="#000000" stroke-width="none" opacity="1"></path></g></g></g><g id="svga-group-eyesfront-left"><path id="SvgjsPath17265" d="M79 72.1c-8.2 0-14.8 6.6-14.8 14.8s6.6 14.8 14.8 14.8 14.8-6.6 14.8-14.8c0-8.1-6.6-14.8-14.8-14.8zM86.6 91c-1 .7-4.1 2.3-8.1 2.2s-11-2.6-11.7-3.5c-.7-1 2-3.2 3.2-4 1.1-.8 4.2-3.3 7.8-3.4 3.6-.1 6.2.8 8.4 2.2 2.2 1.3 3.7 3.7 3.7 3.7s-2.4 2.2-3.3 2.8z" fill="#ffffff" stroke-width="none" opacity="1"></path><path id="SvgjsPath17266" d="M79.4 93.7h.3c5.7-.1 9.7-4.3 9.8-4.5.2-.2.2-.5 0-.7s-.5-.2-.7 0c0 0-3.9 4.1-9.2 4.2-5.3.1-11.5-2.6-12.5-3.4.2-1 4.8-5.5 8.2-6.2 3.4-.7 10.8-.5 14.4 5.8.1.2.4.3.7.2.2-.1.3-.4.2-.7-3.9-6.7-11.8-7-15.4-6.2-3.4.7-8.4 5.1-8.9 6.8-.1.5 0 .8.2.9 1 1 7.4 3.8 12.9 3.8z" fill="#000000" stroke-width="none" opacity="1"></path></g></g></g><g id="svga-group-eyes-right-move" transform="matrix(1,0,0,1,0,0)"><g id="svga-group-eyes-right" transform="matrix(1,0,0,1,0,0)"><g id="svga-group-eyesback-right"></g><g id="svga-group-eyesiriswrapper-right"><g id="svga-group-eyesiriscontrol-right" transform="matrix(1,0,0,1,0,0)"><g id="svga-group-eyesiris-right" transform="matrix(1,0,0,1,0,0)"><path id="SvgjsPath17314" d="M116.3 87.5c.3 1.2 1 2.2 1.9 2.9.2.2.5.3.7.5s.5.3.8.3c.5.2 1.1.3 1.7.2.6 0 1.1-.2 1.7-.4.5-.2 1-.6 1.4-1.1.4-.4.7-1 .8-1.5.2-.6.2-1.2.1-1.7-.2-1.2-.8-2.2-1.7-2.9-.4-.4-.9-.6-1.5-.8-.6-.1-1.1-.2-1.7-.2s-1.1.2-1.7.4c-.5.2-.9.6-1.3 1-.2.2-.4.4-.6.7-.2.2-.3.5-.4.8-.1.3-.2.6-.2.9.1.3.1.6 0 .9-.1-.7-.1-1.3 0-1.9l.3-.9c.2-.3.3-.5.5-.8.2-.2.4-.5.6-.7.2-.2.5-.4.8-.5.6-.3 1.2-.4 1.8-.5.6-.1 1.3 0 1.9.2.6.2 1.2.5 1.7.9s.9.9 1.2 1.5c.3.6.4 1.2.5 1.8v.9c0 .3-.1.6-.2.9-.2.6-.5 1.1-.9 1.6s-.9.9-1.4 1.2-1.1.8-1.7.8c-.6.1-1.3 0-1.9-.2-.6-.2-1.2-.6-1.6-1s-.8-.9-1.1-1.5c-.3-.5-.5-1.1-.5-1.8zm5.5.6c.2-.2.3-.5.3-.8 0-.7-.5-1.2-1.2-1.2h-.1c.1.2.1.4.1.5 0 .4-.4.6-.8.4-.1-.1-.2-.2-.3-.2-.1.1-.1.3-.1.4 0 .7.5 1.2 1.2 1.2.2 0 .3 0 .4-.1.2-.1.4-.2.5-.2zm-1.1-2.4c0 .1 0 .1.1.2h.2c.8 0 1.5.7 1.5 1.5 0 .3-.1.6-.2.8.1.1.2.1.2.2.2-.3.3-.7.3-1 0-1-.8-1.8-1.8-1.8h-.3v.1zm.6 3h-.3c-.8 0-1.5-.7-1.5-1.5 0-.2.1-.5.2-.7-.1-.1-.1-.2-.2-.3-.2.3-.3.6-.3 1 0 1 .8 1.8 1.8 1.8.2 0 .3 0 .4-.1 0 0-.1-.1-.1-.2z" fill="#000000" stroke-width="none" opacity="1"></path></g></g></g><g id="svga-group-eyesfront-right"><path id="SvgjsPath17267" d="M121 72.1c-8.2 0-14.8 6.6-14.8 14.8s6.6 14.8 14.8 14.8 14.8-6.6 14.8-14.8c0-8.1-6.6-14.8-14.8-14.8zm-.1 21.1c-3.9.1-7.1-1.5-8.1-2.2s-3.4-2.8-3.4-2.8 1.5-2.4 3.7-3.7c2.2-1.3 4.9-2.2 8.4-2.2 3.6.1 6.6 2.6 7.8 3.4 1.1.8 3.9 3.1 3.2 4-.7 1-7.7 3.4-11.6 3.5z" fill="#ffffff" stroke-width="none" opacity="1"></path><path id="SvgjsPath17270" d="M120 93.7h-.3c-5.7-.1-9.7-4.3-9.8-4.5-.2-.2-.2-.5 0-.7s.5-.2.7 0c0 0 3.9 4.1 9.2 4.2 5.3.1 11.5-2.6 12.5-3.4-.2-1-4.8-5.5-8.2-6.2-3.4-.7-10.8-.5-14.4 5.8-.1.2-.4.3-.7.2-.2-.1-.3-.4-.2-.7 3.9-6.7 11.8-7 15.4-6.2 3.4.7 8.4 5.1 8.9 6.8.1.5 0 .8-.2.9-1 1-7.4 3.8-12.9 3.8z" fill="#000000" stroke-width="none" opacity="1"></path></g></g></g><g id="svga-group-facehighlight-single"></g><g id="svga-group-eyebrows-left-move" transform="matrix(1,0,0,1,0,0)"><g id="svga-group-eyebrows-left-rotate" transform="matrix(1,0,0,1,0,0)"><g id="svga-group-eyebrows-left" transform="matrix(1,0,0,1,0,0)"><path id="SvgjsPath17189" d="M90.49 68.58c2.18 1.95.79 6.2-1.27 7.47-2.07 1.27-24.64.48-25.6-.48-.95-.95 20.67-12.55 26.87-6.99z" fill="#ffffff" stroke-width="none" opacity="1"></path><path id="SvgjsPath17190" d="M63.26 75.94c.85.85 9.96 1.15 12.73 1.22 1.18.03 2.9.07 4.72.07 3.69 0 7.81-.14 8.78-.74 1.35-.83 2.42-2.75 2.59-4.65.14-1.5-.31-2.79-1.25-3.64-3.27-2.93-10.08-1.38-15.21.43-5.81 2.05-11.11 5.04-12.21 6.2-.57.6-.26 1-.15 1.11zm9.05.07-5.45-2.29c.73-.42 1.59-.87 2.53-1.33l4.46 3.68-1.54-.06zm-.99-4.54 2.37 3.57-3.62-2.99c.4-.19.82-.38 1.25-.58zm5.67-2.22 1.4 5.48-3.14-4.88c.57-.21 1.15-.41 1.74-.6zm5.38-1.37c.48-.08.94-.14 1.38-.19l.31 8.46c-.79.03-1.68.04-2.66.05l-2.16-7.63c1.06-.28 2.11-.52 3.13-.69zm4.45-.21-1.63 8.44c-.15.01-.3.01-.45.02l-.31-8.49c.88-.06 1.68-.05 2.39.03zm.68.1c.58.11 1.09.27 1.55.49l-1.91 7.71c-.36.04-.77.07-1.24.1l1.6-8.3zm2.65 1.19c.07.07.13.15.19.22l-1.74 3.74 1.07-4.32c.17.12.33.23.48.36zm-1.2 6.66c-.14.09-.47.17-.97.25l2.79-5.99c.24.53.35 1.16.29 1.87-.14 1.58-1.03 3.2-2.11 3.87zm-9.48.58-1.83-7.16c.31-.1.63-.19.94-.28l2.11 7.45c-.39-.01-.8-.01-1.22-.01zm-4.26-.08-3.26-4.93c.85-.37 1.74-.74 2.65-1.09l3.91 6.09c-.7-.01-1.43-.02-2.2-.04l-1.1-.03zm-10.83-.8c.34-.29.94-.69 1.74-1.17l4.17 1.75c-2.91-.17-5.01-.39-5.91-.58z" fill="#000000" stroke-width="none" opacity="1"></path></g></g></g><g id="svga-group-eyebrows-right-move" transform="matrix(1,0,0,1,0,0)"><g id="svga-group-eyebrows-right-rotate" transform="matrix(1,0,0,1,0,0)"><g id="svga-group-eyebrows-right" transform="matrix(1,0,0,1,0,0)"><path id="SvgjsPath17191" d="M109.51 68.58c-2.18 1.95-.79 6.2 1.27 7.47 2.07 1.27 24.64.48 25.6-.48.95-.95-20.67-12.55-26.87-6.99z" fill="#ffffff" stroke-width="none" opacity="1"></path><path id="SvgjsPath17192" d="M136.58 74.83c-1.1-1.16-6.39-4.15-12.21-6.2-5.14-1.81-11.95-3.36-15.21-.43-.94.84-1.38 2.14-1.25 3.64.17 1.91 1.24 3.82 2.59 4.65.97.6 5.09.74 8.78.74 1.82 0 3.53-.03 4.72-.07 2.77-.07 11.88-.38 12.73-1.22.12-.11.43-.51-.15-1.11zm-10.43 1.24 4.46-3.68c.94.47 1.8.92 2.53 1.33l-5.45 2.29-1.54.06zm3.79-4.02-3.62 2.99 2.37-3.57c.42.2.84.39 1.25.58zm-5.19-2.2-3.14 4.88 1.4-5.48c.59.19 1.17.39 1.74.6zm-3.99-1.28-2.16 7.63c-.98-.01-1.87-.02-2.66-.05l.31-8.46c.44.05.9.11 1.38.19 1.02.17 2.07.41 3.13.69zm-5.2-.93-.31 8.49c-.15-.01-.31-.01-.45-.02l-1.63-8.44c.72-.08 1.52-.09 2.39-.03zm-1.46 8.43c-.47-.03-.88-.06-1.24-.1l-1.91-7.71c.46-.22.97-.38 1.55-.49l1.6 8.3zm-3.77-7.46 1.07 4.32-1.74-3.74c.06-.07.12-.16.19-.22.15-.14.31-.25.48-.36zm-1.39 3.14c-.06-.71.05-1.34.29-1.87l2.79 5.99c-.5-.08-.83-.16-.97-.25-1.08-.67-1.97-2.29-2.11-3.87zm10.37 4.45 2.11-7.45c.32.09.63.18.94.28l-1.83 7.16c-.42.01-.83.01-1.22.01zm4.38-.05c-.77.02-1.5.03-2.2.04l3.91-6.09c.91.35 1.8.72 2.65 1.09l-3.26 4.93-1.1.03zm6.02-.25 4.17-1.75c.79.47 1.39.88 1.74 1.17-.9.19-3 .41-5.91.58z" fill="#000000" stroke-width="none" opacity="1"></path></g></g></g><g id="svga-group-beardwrap" transform="matrix(1,0,0,1,0,0)"><g id="svga-group-beard-single-move" transform="matrix(1,0,0,1,0,0)"><g id="svga-group-beard-single" transform="matrix(1,0,0,1,0,0)"></g></g></g><g id="svga-group-mustache-single-move" transform="matrix(1,0,0,1,0,0)"><g id="svga-group-mustache-single" transform="matrix(1,0,0,1,0,0)"></g></g><g id="svga-group-nose-single-move" transform="matrix(1,0,0,1,0,0)"><g id="svga-group-nose-single" transform="matrix(1,0,0,1,0,0)"><path id="SvgjsPath17364" d="M108.85 100.61c-.46-3.63-2.9-5.31-4.72-7.83-1.72-2.38-3.75-5.05-6.38-3.11-2.21 1.63-4.16 4.3-5.52 7-1.28 2.54-2.2 6.12.22 8.06.59.47 1.13-.7.54-1.17-2.36-1.9-.06-6.01 1.15-7.91 1.18-1.85 3.19-4.95 5.19-5.34 1.55-.3 2.86 1.81 3.79 3.08.99 1.36 2.01 2.51 3.11 3.71 1.58 1.72 2.82 7.2-.61 6.5-.68-.14-.97 1.17-.29 1.31 2.37.49 3.91-1.25 3.52-4.3z" fill="#000000" stroke-width="none" opacity="1"></path><path id="SvgjsPath17365" d="M96.55 97.54c-1.69-.35-3.36 1.74-3.89 3.58-.13.46.38.78.63.46.52-.66 1.07-1.36 1.68-1.89.57-.5 1.22-.84 1.72-1.45.17-.2.1-.65-.14-.7z" fill="#000000" stroke-width="none" opacity="1"></path><path id="SvgjsPath17366" d="M106.23 102.14c.34-2.28-2.06-5.4-3.9-4.58-.17.08-.27.37-.11.54.6.66 1.36 1.08 1.95 1.75.64.72.91 1.67 1.42 2.49.17.29.59.13.64-.2z" fill="#000000" stroke-width="none" opacity="1"></path></g></g><g id="svga-group-hair-front" transform="matrix(1,0,0,1,0,0)"><path id="SvgjsPath17409" d="M131.7 46.3s3.4 2.9 5.6 6.1c2.2 3.2 2.2 27.8 2.2 31s3.7.5 4.1-.5c.5-1 .5-7.1 1-9 .5-2 2.2-3.9 2.2-3.9s.2-19.8-1.2-23.7c-1.5-3.9-4.4-4.9-4.4-4.9s2.4-4.1 1.5-9.5c-1-5.4-7.3-19.3-29.5-24.6s-46.8 3.9-49.5 20.5c0 0-11 9.3-10.5 22.4 0 0-1.2 11.7 0 21 0 0 2.9 1 3.4 3.4s0 11 .7 11.7 1.5 1.2 2.2 1.2 1-5.4 1-5.4.5 1.5 3.4 2.2-1.8 6.7-1.8 6.7 8.3-2.9 6.3-8.1c-2-5.1-6.9-8.4-3.9-13.4 3.9-6.6 11-.7 14.9-10.2S75 44.7 76.2 42.2c1.2-2.4 6.6-.5 6.6-.5s10 1.5 14.4-1.2c0 0 6.6 2.7 12.2 1.5 0 0 10.2 3.9 15.6 2 .1-.1 3 3.1 6.7 2.3z" fill="#ffffff" stroke-width="none" opacity="1"></path><path id="SvgjsPath17410" d="M146.5 46c-1.1-2.9-2.9-4.3-4-5 .7-1.6 1.9-5.1 1.1-9.2-1.3-7-9.1-20.3-30.3-25.4C99.5 3 83.9 5.2 73.6 12.1c-6.1 4-9.8 9.3-10.9 15.2-1.8 1.6-11 10.5-10.6 22.9-.1 1.1-1.2 12.1 0 21.1 0 .4.3.7.7.8 0 0 2.4.8 2.8 2.7.2 1 .2 3.3.2 5.5.1 4.9.1 6.2.8 6.8 1 1 2 1.5 2.9 1.5.7 0 1.4 0 1.8-4.1.6.3 1.3.7 2.3.9.2 0 .2.1.2.1.3.7-1.1 3.2-2.4 4.9-.3.3-.3.8 0 1.2.2.3.5.4.8.4.1 0 .2 0 .3-.1.2-.1 5.2-1.9 6.8-5.3.6-1.3.6-2.7.1-4-.7-1.7-1.6-3.2-2.5-4.6-1.9-2.9-3.2-5-1.5-8 1.5-2.6 3.5-2.9 5.9-3.4 3.1-.6 6.7-1.3 9-7 2.7-6.7-.1-11.3-2-14.4-.6-.9-1.4-2.2-1.2-2.6.6-1.2 3.9-.5 5.4 0h.2c.4.1 9.8 1.4 14.6-1.1 1.6.6 7.1 2.4 12 1.4 1.7.6 10.2 3.5 15.4 2 1 .9 3.5 2.7 6.5 2.4.9.8 3.4 3.2 5.1 5.6 1.2 1.8 2 13.7 2 30.4 0 1.9 1.1 2.3 1.6 2.4 1.8.4 4-1.6 4.5-2.5.3-.6.4-1.9.6-4.8.1-1.7.2-3.6.4-4.5.4-1.7 2-3.5 2-3.5.2-.2.2-.4.2-.6.2-.6.4-19.8-1.1-23.8zm-.7 19.4c-1.2 2.6-3.1 4.6-5.5 6.1 0-.7 0-1.5-.1-2.2 2.3-1.2 4.2-3 5.5-5.1.1.4.1.8.1 1.2zm-6.2-6.6c2.3-.7 4.3-1.9 6-3.6.1 2.1.1 4.3.2 6.4-1.2 2.6-3.1 4.7-5.6 6.2-.1-3.2-.3-6.3-.6-9zm5.9-5.3c-1.6 2-3.6 3.3-6 4.1-.2-1.6-.4-3-.7-4.1 2.5-.6 4.7-2 6.4-3.9.1 1.1.2 2.4.3 3.9zM62 30.8c-.2 2.3-.1 5.6 1.2 9.5 1.5 4.3 4.2 6.8 6.3 8.8 1.5 1.4 2.8 2.6 3.5 4.2.5 1.2.5 2.2 0 3.1-.8 1.5-2.9 2.8-5.9 3.6-2.3.6-5 2.6-7 5.4.7-1.5 1.6-3.1 2.7-4.6 1.2-1.7 2.7-3.4 2.4-5.7-.2-1.6-1.3-2.8-2.4-3.8-3.9-3.9-6.8-7-5.6-13.2v-.2c1.4-3 3.3-5.4 4.8-7.1zm-6.4 10.5c0 1.4.3 2.7.8 4.1 1.2 3.2 3.6 4.2 5.5 6.8 3.9 5.3-1.6 8.8-3.3 13.1 0-.7-.1-1.4-.3-2.1-.8-3.2-4.4-5-4.4-8.4v-.7c.1-2.2.3-3.7.3-3.7v-.1c-.2-3.3.4-6.3 1.4-9zM54 70.5c-.5-4.1-.5-8.6-.4-12.3.7 1.1 1.7 2.1 2.5 3.4 1.7 2.9.8 6.3 1.3 9.5-.1.3-.1.6-.2.9-.1.4-.1.8-.1 1.3-.8-1.6-2.2-2.4-3.1-2.8zm5.4 11.6c-.1 1.5-.3 3.4-.5 4.3-.2-.1-.5-.3-.9-.7-.2-.7-.2-3.6-.3-5.5v-2.1c.4 1.2 1.1 2.3 1.9 3.4-.1.2-.1.4-.2.6zm23.7-41.4c-.8-.3-4.7-1.5-6.8 0-1-3.3-.9-6.6.3-9.8.4-1 .8-1.9 1.4-2.8 8.4-6.1 20.3.9 18.4 11.7-4 2.1-12.3 1-13.3.9zm14.6-1.2c1.5-10.6-9.1-17.7-17.8-13.9 2.3-2.6 5.4-4.9 9.1-6.5 2.7-1.2 6.1-1.8 9.7-1.8 10.4 1.8 16.3 13.8 10.1 23.7-5.1.9-10.9-1.4-11.1-1.5zm12.4 1.6c5.3-9 1.3-19.5-6.9-23.5 7.8.9 15.7 4.3 19.3 10 5.3 8.1 2.6 14.1 1.9 15.5-4.5 1.3-12.7-1.4-14.3-2zm16.2 2.6c1.1-2.2 3.4-8.7-2.1-17.2-6.7-10.4-25.5-13.7-36.1-9.2-5.9 2.5-10.4 6.7-12.8 11.5-.2.4-.4.9-.6 1.3-1.7 4.4-1.5 9 .6 13.5.3.8.8 1.6 1.4 2.6 1.8 2.9 4.2 6.9 1.9 12.6-1.9 4.7-4.5 5.2-7.6 5.8-2.5.5-5.3 1-7.3 4.3-2.4 4-.4 7.1 1.5 10.1.8 1.3 1.7 2.7 2.3 4.2.3.9.3 1.7-.1 2.5-.5 1-1.5 1.9-2.5 2.6.6-1.2 1-2.6.7-3.6-.1-.4-.4-.7-.7-.9v-.1c-5.8-3.9-6.4-8.4-5.9-11.5.8-5.1 5.1-9.5 8.3-10.4 2.6-.7 5.9-2 7.2-4.7.7-1.4.7-3 0-4.7-.8-2-2.3-3.4-4-4.9-2.1-1.9-4.5-4.1-5.8-8-2.3-6.6-.5-11.5-.5-11.5 0-.1.1-.1.1-.2.9-5.5 4.4-10.4 10.1-14.2 9.9-6.6 24.9-8.7 38.2-5.5 20.2 4.9 27.6 17.3 28.8 23.8.9 4.7-1.2 8.5-1.3 8.8-2.6 3.9-8.7 4.4-8.7 4.4h-.1c-2.1.7-4-.7-5-1.4zm7.6 3.3c2.2-.5 5.5-1.6 7.6-4.3.8.5 2.3 1.6 3.2 4 .1.3.2.7.3 1.2-1.6 2.3-3.9 3.8-6.6 4.5-.1-.2-.2-.3-.2-.5-1.4-2-3.1-3.7-4.3-4.9zm9.7 26.6c-.3 1-.4 2.9-.5 4.8-.1 1.5-.2 3.6-.4 4-.3.5-1.8 1.5-2.2 1.5 0 0-.1-.1-.1-.5 0-3.1 0-6.7-.1-10.5 2.2-1.2 4.1-2.8 5.4-4.9v1.6c-.4.7-1.6 2.3-2.1 4z" fill="#000000" stroke-width="none" opacity="1"></path></g><g id="svga-group-glasses-single-move" transform="matrix(1,0,0,1,0,0)"><g id="svga-group-glasses-single" transform="matrix(1,0,0,1,0,0)"></g></g></g></g></g><rect id="svga-credit-rect" width="200" height="15" x="0" y="185" fill="#ecf0f1" opacity="0.5" style="display: none;"></rect><text id="svga-credit-text" font-family="Avenir Next, Roboto, Helvetica, Arial, sans-serif" font-size="10px" text-anchor="start" font-weight="400" size="10px" anchor="start" weight="400" fill="#333333" x="34.1171875" y="182.5078125" style="display: none;"><tspan id="SvgjsTspan16739" dy="13" x="34.1171875">Created on AvatarMaker.com</tspan></text></g></svg>