<svg xmlns="http://www.w3.org/2000/svg" version="1.1" width="600px" height="600px" viewBox="0 0 200 200" style="overflow:hidden!important;"><defs id="SvgjsDefs13644"><linearGradient id="SvgjsLinearGradient14344" x1="78.5331" y1="75.5903" x2="78.5331" y2="105.6411" gradientUnits="userSpaceOnUse" class="svga-on-canvas-glasses-gradient-single-0-null"><stop id="SvgjsStop14345" stop-opacity="1" stop-color="#000000" offset="0.004166667" ></stop><stop id="SvgjsStop14346" stop-opacity="0.9015" stop-color="#050505" offset="0.1023" ></stop><stop id="SvgjsStop14347" stop-opacity="0.7775" stop-color="#151515" offset="0.2257" ></stop><stop id="SvgjsStop14348" stop-opacity="0.64" stop-color="#2f2f2f" offset="0.3627" ></stop><stop id="SvgjsStop14349" stop-opacity="0.4926" stop-color="#535353" offset="0.5094" ></stop><stop id="SvgjsStop14350" stop-opacity="0.3374" stop-color="#818181" offset="0.664" ></stop><stop id="SvgjsStop14351" stop-opacity="0.1755" stop-color="#b9b9b9" offset="0.8253" ></stop><stop id="SvgjsStop14352" stop-opacity="0.011" stop-color="#fafafa" offset="0.989" ></stop><stop id="SvgjsStop14353" stop-opacity="0" stop-color="#ffffff" offset="1" ></stop></linearGradient><linearGradient id="SvgjsLinearGradient14355" x1="-20.8316" y1="75.5903" x2="-20.8316" y2="105.6411" gradientTransform="matrix(-1 0 0 1 100 0)" gradientUnits="userSpaceOnUse" class="svga-on-canvas-glasses-gradient-single-1-null"><stop id="SvgjsStop14356" stop-opacity="1" stop-color="#000000" offset="0.004166667" ></stop><stop id="SvgjsStop14357" stop-opacity="0.9015" stop-color="#050505" offset="0.1023" ></stop><stop id="SvgjsStop14358" stop-opacity="0.7775" stop-color="#151515" offset="0.2257" ></stop><stop id="SvgjsStop14359" stop-opacity="0.64" stop-color="#2f2f2f" offset="0.3627" ></stop><stop id="SvgjsStop14360" stop-opacity="0.4926" stop-color="#535353" offset="0.5094" ></stop><stop id="SvgjsStop14361" stop-opacity="0.3374" stop-color="#818181" offset="0.664" ></stop><stop id="SvgjsStop14362" stop-opacity="0.1755" stop-color="#b9b9b9" offset="0.8253" ></stop><stop id="SvgjsStop14363" stop-opacity="0.011" stop-color="#fafafa" offset="0.989" ></stop><stop id="SvgjsStop14364" stop-opacity="0" stop-color="#ffffff" offset="1" ></stop></linearGradient></defs><g id="svga-group-wrapper"><g id="svga-group-backs-single"><path id="SvgjsPath14292" d="M0 0h200v200H0V0z" fill="#594f4f" stroke-width="none" opacity="1"></path><path id="SvgjsPath14293" d="M88.8 158.9s-21.3-3-23.6-17.1c-1.5-9.3 10.5-9.3 14.8-5.5 0 0 3.3-8.7 9.9-7.2 8.4 1.9 9.2 12.7-1.1 29.8zM38.7 51s14.9-16.3 6.8-30.1c-5.3-9.2-14.9-1.5-15.7 4.6 0 0-8.8-5.6-13 0-5.4 7 1.6 17 21.9 25.5zM168 165s-2.6-14.4 1.6-22.7 14.8-4 13.3 4.9c0 0 8.2-2 10.6 4.5 2.3 6.4-10 12.7-25.5 13.3zm6.6-139.5s5.2-1.9 5.9-4.8c.8-3-3-3.5-4.5-1.6 0 0-1.1-2.8-3.1-2.2-1.9.5-2.2 2.6 1.7 8.6z" fill="#3a2828" stroke-width="none" opacity="1"></path><path id="SvgjsPath14294" d="M125 33.1s-13-1.2-19.2-6.8.1-13.7 7.4-10.3c0 0 .2-7.6 6.3-8 6.2-.5 8.7 11.5 5.5 25.1zm15.9 84.9s3.6-4.2 2.8-7.1c-.8-3-4.4-1.6-4.7.8 0 0-2.4-1.9-3.8-.4s-.6 3.4 5.7 6.7zm12.2 66.9s7.1-.7 9-4.2-2.7-5.4-5.2-3.4c0 0-.5-3.9-3.2-3.8s-3.6 2.7-.6 11.4zm-122.9 5.7s23.3-3.5 29-15.3-9.8-17.2-17.5-10.6c0 0-2.3-12.8-11-11.9s-11.7 9.5-.5 37.8zm3.5-106.7s3.3-12.8-1.5-18.3-11 1.3-9.3 6.7c0 0-7.1-1.6-8.5 3-1.4 4.8 2.3 8.2 19.3 8.6z" fill="#4a3a3a" stroke-width="none" opacity="1"></path><path id="SvgjsPath14295" d="M149.4 76.1s-24.7-19.3-16.5-40.8c5.4-14.2 20.6-5.7 23.2 2.7 0 0 11-10 18.2-3.2 9.1 8.6 1.6 24.4-24.9 41.3zm7 29.6s-4.5-12.3-2-20.2 12.4-5.8 12.4 2.3c0 0 6.9-3 10 2.3 3 5.4-6.9 12.7-20.4 15.6zM53.9 143.9s-13-1.2-19.2-6.8.1-13.7 7.4-10.3c0 0 .2-7.6 6.3-8s8.7 11.6 5.5 25.1zm89.6 23.3s-4.6-9.3-3.3-15.7c1.2-6.5 9.3-5.6 10 .8 0 0 5.2-3 8 1s-4.3 10.5-14.7 13.9zM65.3 46s5.8-6.7 4.5-11.4-7-2.5-7.5 1.2c0 0-3.8-3.1-6-.7-2.2 2.4-1 5.6 9 10.9zm-40.7 81.2s4.7-5.4 3.7-9.3-5.7-2-6.1 1c0 0-3.1-2.5-4.9-.6s-.8 4.6 7.3 8.9zm53 60.3s5.2-1.9 5.9-4.8-3-3.5-4.5-1.6c0 0-1.1-2.8-3.1-2.2-1.8.6-2.1 2.7 1.7 8.6zm47.7-12.7s4.7-5.4 3.7-9.3c-1-3.9-5.7-2-6.1 1 0 0-3.1-2.5-4.9-.6-1.9 2-.9 4.6 7.3 8.9zm-22.6-132s4.7-5.4 3.7-9.3-5.7-2-6.1 1c0 0-3.1-2.5-4.9-.6-1.9 2-.9 4.6 7.3 8.9zM77.3 94.4s8.8-4.2 9.6-9.5-5.9-5.6-8.2-2.1c0 0-2.5-4.8-5.8-3.3-3.2 1.4-3.4 5.1 4.4 14.9z" fill="#514444" stroke-width="none" opacity="1"></path></g><g id="svga-group-humanwrap-move" transform="matrix(1,0,0,1,0,0)"><g id="svga-group-humanwrap" transform="matrix(1,0,0,1,0,0)"><g id="svga-group-hair-back-move" transform="matrix(1,0,0,1,0,0)"><g id="svga-group-hair-back" transform="matrix(1,0,0,1,0,0)"><path id="SvgjsPath14447" d="M147.6 72.3c-.5-4.4-8.3-18.9-24.1-27.4-13.1-7-35.5-11.8-68.2 5.3-3 1.6-5 16.5-5 16.7-.3 2.9 2.6 44.5 3.1 49.6.6 6.1 6.1 15.9 13.4 17.5 11 2.4 22.5 3.6 33.4 3.6s21.2-1.2 29.7-3.6c7.4-2.1 15.8-8.3 16.6-15.7.4-4.2 1.9-38.5 1.1-46z" fill="#000000" stroke-width="none" opacity="1"></path></g></g><g id="svga-group-humanbody-back"><path id="SvgjsPath14035" d="M77.6 118.3c0 19.3 3.4 44.1-10 51.9-13.4 7.9-31.9 11.3-37.8 22s-4.4 25.3-4.4 25.3h149.3s.7-18.9-5.1-26.4c-8.1-10.4-27.8-15.5-37.7-20.9s-13.4-25.1-13.4-52.4l-40.9.5z" fill="#ffffff" stroke-width="none" opacity="1"></path></g><g id="svga-group-chinshadow-single"></g><g id="svga-group-humanbody-front"><path id="SvgjsPath14036" d="M175.8 218.7H24.4l-.1-1c-.1-.6-1.5-15.1 4.5-26 4.1-7.4 13.5-11.3 23.5-15.5 5-2.1 10.2-4.3 14.8-6.9 10.6-6.2 10.1-23.9 9.6-41-.1-3.5-.2-6.8-.2-10v-1.1l43.2-.4v1.1c0 29.9 4.2 46.7 12.8 51.4 2.9 1.6 6.7 3.2 10.8 4.9 10 4.1 21.3 8.8 27.2 16.3 6.1 7.7 5.4 26.4 5.4 27.1l-.1 1.1zm-149.3-2.2h147.1c0-4.1-.2-18.5-4.9-24.6-5.5-7-16.6-11.6-26.3-15.6-4.1-1.7-8-3.3-11-5-5.1-2.8-8.7-8.9-10.9-18.7-2-8.4-2.9-19.4-3-33.5l-38.6.4c0 2.8.1 5.7.2 8.8.5 17.8 1 36.1-10.7 43-4.7 2.7-9.9 4.9-15 7.1-9.6 4-18.7 7.8-22.4 14.5-5 8.6-4.7 20.1-4.5 23.6z" fill="#000000" stroke-width="none" opacity="1"></path><path id="SvgjsPath14037" d="M93.9 153.8c-.5 1.8-.4 3.4.5 5.2.8 1.6 2.1 2.7 3.9 2.9.4 0 .7-.5.5-.8-1.6-2.2-3.5-4.2-3.7-7.1 0-.7-1-.9-1.2-.2z" fill="#000000" stroke-width="none" opacity="1"></path><path id="SvgjsPath14038" d="M112.5 187.5c8.8.5 18.1-.7 26.6-2.9.7-.2.6-1.4-.2-1.3-8.8 1.1-17.7 2-26.5 3.3-.5.1-.3.9.1.9z" fill="#000000" stroke-width="none" opacity="1"></path><path id="SvgjsPath14039" d="M63.1 182.5c3.8.9 7.6 1.9 11.5 2.8 3.6.8 7.4 2 11.1 2.1.7 0 .8-.9.2-1.2-3.5-1.4-7.5-1.7-11.2-2.5-3.8-.7-7.5-1.3-11.3-2-.5 0-.7.7-.3.8z" fill="#000000" stroke-width="none" opacity="1"></path></g><g id="svga-group-clothes-single"><path id="SvgjsPath14161" d="M63.33 170.93s-12.22 5.29-16.7 6.92c-4.48 1.63-12.63 5.91-17.11 11.2-4.48 5.29-5.09 12.63-5.7 17.92-.61 5.29.58 11.73.58 11.73h152.36s.2-14.17-2.65-22.32-5.7-9.78-14.87-15.48c-9.16-5.7-18.53-7.94-26.07-11.61 0 0-3.05 12.83-30.55 14.26-27.48 1.43-34-6.92-39.29-12.62z" fill="#ffffff" stroke-width="none" opacity="1"></path><path id="SvgjsPath14162" d="M175.06 196.05c-2.9-8.3-5.87-10.15-14.69-15.63l-.6-.37c-5.81-3.62-11.81-5.9-17.1-7.91-3.23-1.23-6.28-2.39-9.06-3.75a1.02 1.02 0 0 0-.87 0c-.27.13-.47.38-.54.67-.03.12-3.19 12.12-29.63 13.49-11.02.58-18.6-.45-24.07-2.24-.04-.14-.21-.21-.31-.1-.46-.16-.91-.31-1.34-.48.01-.02.01-.04.02-.06.08-.25-.3-.35-.39-.11 0 .01 0 .01-.01.02-6.05-2.41-9.18-5.81-11.8-8.66l-.63-.68c-.29-.31-.74-.4-1.13-.24-.12.05-12.24 5.3-16.64 6.9-3.9 1.42-12.58 5.64-17.53 11.49-4.44 5.25-5.25 12.38-5.83 17.59l-.1.86c-.62 5.38.54 11.76.59 12.02.09.47.5.82.98.82h152.36a1 1 0 0 0 1-.99c.03-.56.19-14.42-2.68-22.64zm-4.34-4.67c-.51-.5-1.02-1-1.52-1.51.1-.08.19-.16.26-.22.46.55.87 1.12 1.26 1.73zm-1.89-1.17c.98 1.01 1.94 2.08 2.94 3.08.48 1 .94 2.12 1.4 3.42l.03.11c-1.74-1.87-3.76-3.55-5.68-5.25.51-.59.95-1.04 1.31-1.36zm-66.15-5.66c23.41-1.21 29.59-10.57 31.06-13.88.7.33 1.42.64 2.15.95-1.03 1.47-3.85 5.21-8.22 8.8-3.79 3.11-12.73 6.36-23.97 7.02.1-.66.16-1.34.25-2 .03-.19-.28-.19-.3 0-.08.66-.2 1.34-.27 2.01-.68.04-1.37.06-2.07.08.11-.96.07-1.97.08-2.92l1.29-.06zm-4.2 2.99c-.61-.01-1.22-.03-1.83-.05.07-.92.03-1.87.04-2.79.62 0 1.25 0 1.9-.02-.05.93-.14 1.92-.11 2.86zm.5-2.86c.67-.01 1.35-.03 2.04-.06-.08.95-.2 1.95-.18 2.92-.6.01-1.2.02-1.82.01.06-.95-.01-1.94-.04-2.87zm-2.73.03c-.03.91-.09 1.85-.06 2.76a65.89 65.89 0 0 1-3.39-.24c.04-.87.02-1.74.01-2.6 1.1.04 2.25.07 3.44.08zm-18.35-2.47c.39.13.8.25 1.21.37-.18.58-.36 1.18-.48 1.77-.35-.11-.7-.23-1.04-.34.11-.45.11-.94.2-1.4.04-.15.08-.27.11-.4zm1.71.51c.27.07.55.15.83.22-.1.6-.25 1.24-.31 1.86-.32-.09-.63-.18-.94-.28.18-.58.31-1.19.42-1.8zm1.26.33c1.02.25 2.11.48 3.26.67-.15.66-.3 1.35-.36 2.02a66.49 66.49 0 0 1-3.1-.79c.12-.62.14-1.29.2-1.9zm3.79.76c.58.09 1.17.18 1.78.26-.23.71-.39 1.46-.38 2.16-.43-.08-.87-.17-1.3-.26l-.39-.09c.15-.67.23-1.39.29-2.07zm2.14 1.07c.05-.25.12-.5.19-.75.45.06.92.11 1.39.15-.11.77-.22 1.55-.21 2.32-.51-.08-1.03-.17-1.55-.27.07-.48.08-.98.18-1.45zm2.02-.55c.48.05.97.09 1.47.12-.21.76-.38 1.63-.34 2.42-.46-.06-.92-.13-1.38-.2.16-.75.21-1.55.25-2.34zm1.67 1.71c.05-.53.15-1.04.28-1.55l1.56.09c-.03.85-.07 1.71-.06 2.57-.6-.06-1.2-.13-1.81-.21.01-.3 0-.6.03-.9zm-13.05-3.99c-.03.09-.07.18-.09.28-.11.45-.26 1-.24 1.5-.48-.17-.95-.34-1.41-.51.21-.55.4-1.11.57-1.68.38.14.77.28 1.17.41zm-2.2 1.08c-.4-.16-.8-.32-1.18-.48.22-.56.4-1.11.61-1.67.36.16.74.32 1.13.47-.21.56-.4 1.12-.56 1.68zm-6.64-5.73c-.52.46-.95 1.02-1.3 1.62-.5-.34-.96-.67-1.4-1 .55-.48 1.12-.97 1.64-1.48.34.28.69.57 1.06.86zm.33.25c.4.3.82.6 1.26.89-.36.33-.68.72-1 1.09l-.33.39c-.45-.27-.88-.54-1.29-.82.4-.57.86-1.07 1.36-1.55zm.65 2.22c.32-.36.66-.72.93-1.12.3.19.61.39.93.58-.46.42-.86.94-1.18 1.49a30.4 30.4 0 0 1-1.01-.57c.1-.13.22-.25.33-.38zm2.29-.29c.72.41 1.49.8 2.31 1.18-.27.54-.49 1.11-.59 1.69-1.06-.47-2.05-.95-2.96-1.43.38-.52.8-.97 1.24-1.44zm-4.71-3.37c-.55.49-1.08 1.03-1.6 1.55-.67-.52-1.26-1.03-1.78-1.51.27-.35.56-.67.89-.96.27-.23.56-.42.85-.61.51.5 1.05 1.01 1.64 1.53zm-1.98-1.88c-.66.4-1.24 1.03-1.68 1.65-.67-.64-1.21-1.23-1.63-1.74.33-.23.65-.47.97-.71.31-.23.63-.45.94-.68.44.49.91.98 1.4 1.48zm-2.11-2.24.14.16c.07.08.14.15.21.23-.36.26-.71.54-1.06.8l-.81.6c-.26-.33-.48-.63-.64-.87.92-.38 1.67-.7 2.16-.92zm-34.94 21.39c3.3 2.32 6.88 4.55 10.66 6 .42.86.84 1.79 1.24 2.78-3.8-2.44-8.08-4.62-12.15-6.46-.21-.09-.38.18-.18.31 3.94 2.51 8.31 5 12.62 6.88.35.91.69 1.86 1.01 2.87-4.79-2.96-10-5.52-15.06-8.01.58-2.22 1.42-4.4 2.68-6.38 2.36 1.56 4.76 3.26 7.31 4.42.17.08.4-.15.22-.29-2.21-1.75-4.8-3.12-7.27-4.52.24-.35.49-.69.75-1.02 1.39.84 2.81 1.74 4.29 2.36 1.28 1.53 2.75 3.62 4.15 6.34-3.39-1.84-6.81-3.56-10.08-5.64-.21-.17-.41.2-.19.36zm2.17-3.83c.17-.2.36-.4.54-.6.43.32 1.27 1.01 2.32 2.12-.93-.55-1.9-1.04-2.86-1.52zm-5.05 28.02c-.09-.6-.22-1.5-.33-2.57.27.18.53.37.83.48.19.07.33-.2.2-.34-.29-.29-.68-.47-1.03-.69a.21.21 0 0 1-.06-.04c-.06-.64-.11-1.33-.15-2.05 2.35 1.98 4.97 3.93 7.81 5 .17.06.25-.19.12-.28-2.66-1.83-5.42-3.37-7.96-5.37-.05-1.15-.05-2.35.03-3.51 5.06 3.02 10.09 6.25 15.34 8.91.21.11.39-.19.19-.32-4.95-3.29-10.31-6.1-15.47-9.05-.01-.01-.02 0-.03 0 .02-.27.05-.53.08-.79l.1-.86c.28-2.47.59-5.22 1.27-7.94 4.87 2.8 9.89 5.66 15.01 7.97.1.05.2 0 .25-.07.53 1.69 1 3.52 1.41 5.51-5.55-3.1-11.15-6.03-16.6-9.31-.25-.15-.47.23-.23.39 5.33 3.59 11.04 7.02 16.97 9.57.23 1.19.43 2.43.61 3.73-5.98-3.51-12.01-6.6-17.65-10.69-.21-.15-.4.19-.2.35 5.39 4.15 11.38 8.26 17.81 10.59.03.01.05 0 .07 0 .06.46.12.92.17 1.39H25.25zm20.56 0c-2.15-19.99-10.98-28.11-13.53-30.06 4.49-4.18 10.97-7.49 14.7-8.85 2.71-.99 8.13-3.26 12.08-4.94 1.5 2.4 7.65 10.32 25.28 14.1a73.48 73.48 0 0 0 15.4 1.63c13.64 0 24.62-3.84 29.22-7.62 5-4.11 8-8.31 8.84-9.57 1.36.54 2.75 1.07 4.18 1.62 5.46 2.08 11.11 4.23 16.75 7.74l.6.37c4.04 2.51 6.74 4.2 8.76 6.08-.7.55-1.94 1.69-3.35 3.62-.1.03-.18.12-.17.23-3.01 4.21-6.75 12.03-7.84 25.65H45.81zm119.12 0c-1.79-1.72-3.73-3.28-5.65-4.85.14-.98.3-1.93.47-2.84 2.53 2.85 5.37 5.59 8.57 7.69h-3.39zm-3.55 0c-.74-.73-1.62-1.34-2.47-1.94.09-.83.19-1.64.3-2.42 1.71 1.5 3.43 3 5.24 4.36h-3.07zm-2.52-1.47c.61.52 1.24 1.03 1.9 1.47h-2.04c.04-.5.09-.99.14-1.47zm10.35 1.47c-3.34-2.56-6.52-5.13-9.35-8.27.19-.97.4-1.9.62-2.78 3.51 4.03 7.52 7.91 12.05 10.78.21.13.47-.19.27-.35-4.28-3.46-8.43-6.85-12.19-10.89-.01-.01-.01 0-.02-.01a49 49 0 0 1 .96-3.3c4 3.23 7.92 6.59 12.08 9.62.16.12.37-.15.22-.28-3.91-3.39-8.09-6.46-12.16-9.65-.01-.01-.02 0-.03-.01.5-1.48 1.02-2.81 1.56-4 3.48 3.92 7.31 7.78 11.67 10.7.18.12.39-.15.23-.29-3.99-3.56-8.02-6.94-11.7-10.83.39-.85.79-1.62 1.19-2.33 3.09 3.13 6.11 6.5 9.53 9.22.18.14.4-.07.25-.25-2.82-3.39-6.3-6.35-9.53-9.39.39-.66.76-1.26 1.13-1.79 2.55 2.64 5.08 5.41 7.93 7.66.17.13.37-.07.24-.24-2.31-2.84-5.16-5.34-7.87-7.85.32-.45.63-.85.93-1.21 2.02 1.95 4.01 4.01 6.25 5.68 2.06 6.71 2.29 16.89 2.3 20.08h-6.56z" fill="#000000" stroke-width="none" opacity="1"></path></g><g id="svga-group-head" transform="matrix(1,0,0,1,0,0)"><g id="svga-group-ears-left-move" transform="matrix(1,0,0,1,0,0)"><g id="svga-group-ears-left" transform="matrix(1,0,0,1,0,0)"><path id="SvgjsPath14171" d="M60.8 86.8s-2.1-5.1-4.3-8.3c-2.2-3.2-5.5-7.6-7.6-8.7s-3.6-.4-3 2.6 3 12.6 3.6 15.6c.7 3 2.2 9.4 4.2 13.6 1.9 4.2 3.1 6.1 5.2.5 2.1-5.7 3.4-11.8 1.9-15.3z" fill="#ffffff" stroke-width="none" opacity="1"></path><path id="SvgjsPath14172" d="M52.9 102c-2-4.4-3.6-11.1-4.2-13.8-.2-1-.7-2.9-1.2-5-.9-3.9-2.1-8.7-2.4-10.7-.4-2.2.2-3.3.9-3.7.5-.4 1.6-.8 3.5.2 2.3 1.2 6.6 3.9 8.9 7.3 2.2 3.3 3.3 10 3.4 10.2 1.7 4.1 1.3 10.3-.6 15.3-1 2.8-3.3 4.7-4.5 4.8h-.1c-1.5-.1-2.5-1.9-3.7-4.6zm2.9-23.1c-3-4.5-5.7-7.6-7.2-8.4-.9-.5-1.4-.5-1.6-.3-.2.2-.4.8-.2 2 .4 1.9 1.5 6.7 2.4 10.6.5 2.1.9 4 1.2 5 .6 2.6 2.2 9.2 4.1 13.4.4.9 1.5 3.3 2 3.5.1 0 .6-.3 1.6-2.9 2.4-6.6 3.1-11.8 2-14.7-.1-.1-2.2-5.1-4.3-8.2z" fill="#000000" stroke-width="none" opacity="1"></path><path id="SvgjsPath14173" d="M47.6 73.1c3.5 4 6.5 10.6 7 16.9 0 .4-.4.5-.5.1-.1-.6-.2-1.1-.4-1.7-.3-.8-.9-.9-1.6-.2.1.5.1 1 .3 1.4.2.6.4 1.3.6 1.9.6 1.5 1.3 2.6 2 3.9.1.3 0 .7-.3.5-1.7-1.4-3.4-5.4-3.4-8.2 0-.8.3-1.6.9-1.7.4 0 .7.1.9.4-1.3-4.9-3-8.9-5.8-13 0-.2.1-.5.3-.3z" fill="#000000" stroke-width="none" opacity="1"></path></g></g><g id="svga-group-ears-right-move" transform="matrix(1,0,0,1,0,0)"><g id="svga-group-ears-right" transform="matrix(1,0,0,1,0,0)"><path id="SvgjsPath14174" d="M139.2 86.8s2.1-5.1 4.3-8.3c2.2-3.2 5.5-7.6 7.6-8.7 2.1-1.1 3.6-.4 3 2.6-.6 3-2.9 12.7-3.6 15.7-.7 3-2.2 9.4-4.2 13.6-1.9 4.2-3.1 6.1-5.2.5-2.1-5.8-3.4-11.9-1.9-15.4z" fill="#ffffff" stroke-width="none" opacity="1"></path><path id="SvgjsPath14175" d="M143.5 106.5s-.1 0 0 0c-1.3 0-3.5-1.9-4.6-4.8-1.8-5-2.3-11.2-.6-15.3.1-.2 1.2-6.9 3.4-10.2 2.3-3.4 6.6-6.1 8.9-7.3 1.9-1 3-.5 3.5-.2.6.5 1.3 1.5.9 3.7-.4 1.9-1.5 6.8-2.4 10.7-.5 2.1-.9 4-1.2 5-.6 2.7-2.2 9.4-4.2 13.8-1.3 2.8-2.3 4.6-3.7 4.6zM140 87.1c-1.2 2.8-.5 8 2 14.7 1 2.6 1.5 2.9 1.6 2.9.5-.2 1.6-2.6 2-3.5 1.9-4.2 3.5-10.8 4.1-13.4.2-1 .7-2.9 1.2-5 .9-3.9 2.1-8.7 2.4-10.6.2-1.2 0-1.8-.2-2-.2-.1-.7-.1-1.5.3-1.5.8-4.2 4-7.2 8.4-2.3 3.1-4.4 8.1-4.4 8.2z" fill="#000000" stroke-width="none" opacity="1"></path><path id="SvgjsPath14176" d="M152.4 73.1c-3.5 4-6.5 10.6-7 16.9 0 .4.4.5.5.1.1-.6.2-1.1.4-1.7.3-.8.9-.9 1.6-.2-.1.5-.1 1-.3 1.4-.2.6-.4 1.3-.6 1.9-.6 1.5-1.3 2.6-2 3.9-.1.3 0 .7.3.5 1.7-1.4 3.4-5.4 3.4-8.2 0-.8-.3-1.6-.9-1.7-.4 0-.7.1-.9.4 1.3-4.9 3-8.9 5.8-13 0-.2-.1-.5-.3-.3z" fill="#000000" stroke-width="none" opacity="1"></path></g></g><g id="svga-group-faceshape-wrap" transform="matrix(1,0,0,1,0,0)"><g id="svga-group-faceshape-single"><path id="SvgjsPath14245" d="M142.4 53.6c-2.3-11.4-15.1-28.8-42.4-28.8-27.3 0-36.4 13.4-40.5 23.3-2.5 6.2-3.2 15.2-3.4 19.7 0 0 .5 31 2.3 35.4 1.8 4.4 21.2 33.1 24.3 36.2s29 3.5 32.5 1.8c3.5-1.8 24.2-31.3 25.6-35.3 1.3-4 3-38.1 3-38.1 0-3.2-.3-8.9-1.4-14.2z" fill="#ffffff" stroke-width="none" opacity="1"></path><path id="SvgjsPath14246" d="M103.7 143.4c-1.7 0-3.4 0-5-.1-5.4-.2-14.7-.9-16.8-3-3.1-3.1-22.6-31.8-24.5-36.6-1.8-4.5-2.3-32.7-2.3-35.9.2-4.8.9-13.8 3.4-20.1 6.6-16.2 20.1-24 41.5-24 12.3 0 23.2 3.6 31.3 10.4 6.3 5.2 10.9 12.5 12.2 19.3 1.1 5.5 1.3 11.4 1.4 14.4-.2 3.5-1.7 34.4-3.1 38.4-1.3 3.8-21.9 33.9-26.1 36-1.6.9-6.7 1.2-12 1.2zM57.3 67.9c.1 8.6.8 31.5 2.2 35 1.8 4.6 21.2 33 24 35.8 2.5 2.5 27.9 3.2 31.2 1.6 3.1-1.6 23.8-31 25-34.7 1-3.1 2.5-28.3 2.9-37.8 0-3-.3-8.7-1.4-14-1.3-6.4-5.6-13.1-11.5-18-7.7-6.5-18-9.9-29.9-9.9-20.3 0-33.2 7.4-39.4 22.6-2.2 6-2.9 14.7-3.1 19.4z" fill="#000000" stroke-width="none" opacity="1"></path></g></g><g id="svga-group-mouth-single-move" transform="matrix(1,0,0,1,0,0)"><g id="svga-group-mouth-single" transform="matrix(1,0,0,1,0,0)"><path id="SvgjsPath14332" d="M112.42 122.55c-.04-.01-.07-.03-.12-.02-2.46.58-3.17-3.32-4.09-4.73-.67-1.01-1.54-1.9-2.7-2.33-.79-.29-1.63-.35-2.45-.11-.54.16-.96.51-1.46.74-1.41.66-2.15.56-3.41-.1-5.77-3.01-7.22 5.68-11.64 7.19-.22.07-.66-.03-.94-.14-.38-.1-.35.36-.05.55.25.15.75.34.98.39 1.55.34 3.11.26 4.56-.19 1.08 4.03 6.58 3.09 9.69 2.99 2.66-.09 8.54.43 8.52-3.59 1.13.33 2.2.55 3.22-.2.21-.16.08-.47-.11-.45zm-12.31 3.79c-2.81.1-7.62.89-8.56-2.71a8.95 8.95 0 0 0 3.7-2.55v-.01c2.99 1.36 6.65 2.37 9.34.26 1.38.67 2.8 1.25 4.27 1.71.14 3.91-6.22 3.21-8.75 3.3zm9.14-3.54c-.06-.02-.11-.02-.21-.05-1.51-.43-3.06-1.24-4.07-1.74.16-.15.33-.31.48-.49.19-.23-.13-.55-.33-.33-2.77 3.21-7.03 1.76-10.25.2-.27-.13-.5.27-.23.4.05.03.11.05.16.08-2.02 2.27-4.97 3.26-7.9 2.7 2.1-.74 3.27-2.71 4.55-4.51 1.09-1.55 2.59-3.36 4.72-3.28 1.41.06 2.28 1.32 3.64 1.4 1.3.08 2.2-1.01 3.37-1.37 2.37-.72 4.24 1.37 5.2 3.24.72 1.41 1.29 3.54 2.86 3.94-.6.08-1.28 0-1.99-.19z" fill="#000000" stroke-width="none" opacity="1"></path></g></g><g id="svga-group-eyes-left-move" transform="matrix(1,0,0,1,0,0)"><g id="svga-group-eyes-left" transform="matrix(1,0,0,1,0,0)"><g id="svga-group-eyesback-left"></g><g id="svga-group-eyesiriswrapper-left"><g id="svga-group-eyesiriscontrol-left" transform="matrix(1,0,0,1,0,0)"><g id="svga-group-eyesiris-left" transform="matrix(1,0,0,1,0,0)"><path id="SvgjsPath14258" d="M75.2 84.7c-1.5 1.9-1.3 4.5.4 6 1.8 1.7 4.9 2.1 7.1.1 1.1-1.1 1.8-2.7 1.5-4.1-.1-.5-.3-1-.6-1.4-.2-.6-.5-1.1-1-1.5-2.1-1.8-5.6-1.4-7.4.9z" fill="#ffffff" stroke-width="none" opacity="1"></path><path id="SvgjsPath14259" d="M84.4 86.7c-.1-.5-.3-1-.6-1.5-.2-.6-.6-1.1-1.1-1.6-1-.9-2.3-1.4-3.8-1.2-1.6.1-3.1.9-4 2.1-1.6 2-1.4 4.8.4 6.4 1 .9 2.5 1.5 3.9 1.5 1.2 0 2.5-.4 3.5-1.4 1.4-1.2 2.1-2.9 1.7-4.3zm-.6-.1c-.7.1-1.4.2-2 .2 0-.1-.1-.2-.1-.2.4-.1.8-.3 1.2-.5.2-.1.4-.1.6-.3.1.3.2.5.3.8zm-.9-1.8.3.6v.1c-.6.3-1.2.5-1.8.8-.1-.1-.1-.2-.2-.3.7-.3 1.2-.8 1.7-1.2zm-.6-.7c.2.2.3.3.4.5-.6.4-1.2.8-1.6 1.3l-.1-.1c-.1-.1-.2-.1-.3-.2.2-.3.5-.7.7-1.1.1-.2.3-.4.5-.7.2.1.3.2.4.3zm-2.1.1c0-.4.1-.7.1-1.1.5.1.9.3 1.3.5-.2.2-.3.5-.5.7-.2.4-.5.7-.6 1.1-.1-.1-.3-.1-.4-.2.1-.3.1-.7.1-1zM79 83h.4c.2 0 .5 0 .7.1-.1.3-.1.6-.1 1 0 .3-.1.7-.1 1.1-.2 0-.4-.1-.6-.1 0-.3-.1-.7-.2-1 0-.4-.1-.7-.1-1.1zm-4.5 3.9c.7.2 1.5.4 2.2.3 0 .2-.1.5 0 .7-.7-.1-1.5 0-2.2 0v-1zm.1 1.3c.7-.1 1.5-.1 2.2-.1 0 .1.1.2.1.3-.4.1-.7.3-1.1.4-.3.1-.6.2-.9.4-.2-.3-.3-.6-.3-1zm.7 1.7c-.1-.1-.2-.3-.3-.4.3-.1.6-.3.9-.4.3-.1.7-.3 1-.4-.5.4-1.1.8-1.6 1.2zm.5.6-.3-.3c.6-.4 1.1-.8 1.6-1.2.1.1.1.2.2.2-.2.2-.4.5-.6.7-.2.3-.4.5-.6.8-.1-.1-.2-.2-.3-.2zm.5.4c.2-.3.4-.6.7-.8.2-.2.4-.4.6-.7.1.1.2.2.3.2-.2.2-.4.6-.5.8-.2.2-.4.5-.6.7-.2 0-.3-.1-.5-.2zm.8.4c.2-.2.3-.4.5-.6.2-.3.5-.6.6-1 .1 0 .2.1.3.1-.2.6-.3 1.2-.5 1.8-.4-.1-.7-.2-.9-.3zm1.1.4c.3-.5.5-1.2.5-1.8.2 0 .4.1.6.1-.1.6 0 1.2 0 1.8-.4 0-.8 0-1.1-.1zm1.4.1c0-.6 0-1.2-.1-1.8.2 0 .4 0 .6-.1.2.6.3 1.2.5 1.7-.4.1-.7.2-1 .2zm3.2-1.7c-.5-.2-.9-.6-1.3-.9 0 .1-.1.2-.1.3.3.3.7.7 1.1.9l-.2.2c-.2.2-.4.3-.6.4-.1-.2-.3-.5-.4-.7-.1-.2-.2-.3-.3-.5-.1 0-.2.1-.3.1.1.2.2.4.3.5.1.2.3.5.5.8-.3.2-.5.3-.8.4-.2-.6-.4-1.1-.6-1.7.1 0 .1 0 .2-.1-.2-.1-.3-.2-.3-.4-.8.3-1.7 0-2.3-.5-.4-.4-.6-.9-.6-1.4-.2-.2-.4-.4-.5-.6-.4-.1-.8-.1-1.1-.1-.3-.1-.6-.1-.9-.2.1-.4.2-.8.4-1.1.3.2.7.4 1 .5.2.1.4.2.5.3 0-.1 0-.3.1-.4-.2-.1-.3-.2-.5-.2-.3-.2-.6-.3-1-.4.1-.1.2-.2.3-.4.2-.2.4-.4.6-.7.1.2.4.4.6.6.1.2.3.3.4.4.1-.1.2-.1.3-.2l-.1-.1-.6-.6c-.1-.1-.2-.3-.3-.4.3-.2.6-.4.8-.5.1.3.3.6.4.8.1.2.3.5.5.7.2 0 .3.1.4.1l-.6-.9c-.1-.2-.2-.5-.4-.8.4-.2.8-.3 1.2-.3 0 .3.1.7.2 1.1.1.3.1.7.2 1-.2 0-.3.1-.5.1.2.1.3.2.4.4h.4c.5 0 1 .2 1.3.5.2.2.3.4.4.6.1.2.2.4.2.6.1.3 0 .7-.2 1 .2.1.3.2.3.4 0 0 0-.1.1-.1.2.2.6.4.9.5.2.1.5.3.8.4 0 .2-.1.4-.3.6zm.6-.8c-.2 0-.9-.4-1-.5-.2-.1-.3-.2-.5-.2 0 0-.1 0-.2-.1.1-.2.2-.4.2-.6.6.2 1.3.3 2 .3-.2.3-.3.7-.5 1.1zm.5-1.5c-.7-.1-1.3-.2-2-.3v-.4c.7 0 1.4-.1 2-.2v.9zm-3.1.4h.2c.4-1-.2-2.1-1.3-2.4-.2-.1-.4-.1-.6-.1.4.8 0 2-1.2 2h-.3c.1.6.4 1.2 1 1.5.4.2.9.2 1.4.1-.2-.5.1-1.1.8-1.1z" fill="#000000" stroke-width="none" opacity="1"></path></g></g></g><g id="svga-group-eyesfront-left"><path id="SvgjsPath14209" d="M79 72.1c-8.2 0-14.8 6.6-14.8 14.8s6.6 14.8 14.8 14.8 14.8-6.6 14.8-14.8c0-8.1-6.6-14.8-14.8-14.8zm8.5 19.6c-2.4 0-20 0-20.7-1-.7-.9.8-3.4 2.9-4.7 2.1-1.3 4.9-3 8.8-3.2s10.3 1.1 12.6 7.6c.3.8-1.2 1.3-3.6 1.3z" fill="#ffffff" stroke-width="none" opacity="1"></path><path id="SvgjsPath14210" d="M91.8 90.1c-2.6-5.7-6.5-7.9-13.8-7.9-5.6.1-11.4 4.6-11.8 7.4-.1.9.3 1.5 1.1 1.8 1.8.5 8 .7 14.2.7 3 0 6 0 8.4-.1h.4c.3 0 .5-.2.5-.5s-.2-.5-.5-.5h-.4c-12.1.2-20.4 0-22.2-.6-.4-.1-.5-.3-.4-.6.3-2.1 5.5-6.4 10.8-6.5 6.9-.1 10.3 1.9 12.8 7.2.1.3.4.4.7.3.2-.1.3-.4.2-.7zm-21.3-6.4c1.5-1.1 6.1-4.3 11.4-3 5.1 1.3 8.1 5 8.1 5.1.1.1.3.2.4.2s.2 0 .3-.1c.2-.2.3-.5.1-.7-.1-.2-3.2-4.1-8.7-5.4-5.7-1.4-10.7 2-12.3 3.1-.2.2-.3.5-.1.7.2.2.5.3.8.1z" fill="#000000" stroke-width="none" opacity="1"></path></g></g></g><g id="svga-group-eyes-right-move" transform="matrix(1,0,0,1,0,0)"><g id="svga-group-eyes-right" transform="matrix(1,0,0,1,0,0)"><g id="svga-group-eyesback-right"></g><g id="svga-group-eyesiriswrapper-right"><g id="svga-group-eyesiriscontrol-right" transform="matrix(1,0,0,1,0,0)"><g id="svga-group-eyesiris-right" transform="matrix(1,0,0,1,0,0)"><path id="SvgjsPath14260" d="M117.2 84.7c-1.5 1.9-1.3 4.5.4 6 1.8 1.7 4.9 2.1 7.1.1 1.1-1.1 1.8-2.7 1.5-4.1-.1-.5-.3-1-.6-1.4-.2-.6-.5-1.1-1-1.5-2.1-1.8-5.5-1.4-7.4.9z" fill="#ffffff" stroke-width="none" opacity="1"></path><path id="SvgjsPath14261" d="M126.5 86.7c-.1-.5-.3-1-.6-1.5-.2-.6-.6-1.1-1.1-1.6-1-.9-2.3-1.4-3.8-1.2-1.6.1-3.1.9-4 2.1-1.6 2-1.4 4.8.4 6.4 1 .9 2.5 1.5 3.9 1.5 1.2 0 2.5-.4 3.5-1.4 1.4-1.2 2-2.9 1.7-4.3zm-.7-.1c-.7.1-1.4.2-2 .2 0-.1-.1-.2-.1-.2.4-.1.8-.3 1.2-.5.2-.1.4-.1.6-.3.1.3.2.5.3.8zm-.8-1.8.3.6v.1c-.6.3-1.2.5-1.8.8-.1-.1-.1-.2-.2-.3.6-.3 1.1-.8 1.7-1.2zm-.6-.7c.2.2.3.3.4.5-.6.4-1.2.8-1.6 1.3l-.1-.1c-.1-.1-.2-.1-.3-.2.2-.3.5-.7.7-1.1.1-.2.3-.4.5-.7.1.1.2.2.4.3zm-2.1.1c0-.4.1-.7.1-1.1.5.1.9.3 1.3.5-.2.2-.3.5-.5.7-.2.4-.5.7-.6 1.1-.1-.1-.3-.1-.4-.2 0-.3 0-.7.1-1zM121 83h.4c.2 0 .5 0 .7.1-.1.3-.1.7-.1 1.1 0 .3-.1.7-.1 1.1-.2 0-.4-.1-.6-.1 0-.3-.1-.7-.2-1 0-.5 0-.8-.1-1.2zm-4.4 3.9c.7.2 1.5.4 2.2.3 0 .2-.1.5 0 .7-.7-.1-1.5 0-2.2 0-.1-.3-.1-.6 0-1zm0 1.3c.7-.1 1.5-.1 2.2-.1 0 .1.1.2.1.3-.4.1-.7.3-1.1.4-.3.1-.6.2-.9.4-.1-.3-.2-.6-.3-1zm.7 1.7c-.1-.1-.2-.3-.3-.4.3-.1.6-.3.9-.4.3-.1.7-.3 1-.4-.5.4-1.1.8-1.6 1.2zm.5.6-.3-.3c.6-.4 1.1-.8 1.6-1.2.1.1.1.2.2.2-.2.2-.4.5-.6.7-.2.3-.4.5-.6.8-.1-.1-.2-.2-.3-.2zm.5.4c.2-.3.4-.6.7-.8.2-.2.4-.4.6-.7.1.1.2.2.3.2-.2.2-.4.6-.5.8-.2.2-.4.5-.6.7-.1 0-.3-.1-.5-.2zm.8.4c.2-.2.3-.4.5-.6.2-.3.5-.6.6-1 .1 0 .2.1.3.1-.2.6-.3 1.2-.5 1.8l-.9-.3zm1.1.4c.3-.5.5-1.2.5-1.8.2 0 .4.1.6.1-.1.6 0 1.2 0 1.8-.4 0-.7 0-1.1-.1zm1.4.1c0-.6 0-1.2-.1-1.8.2 0 .4 0 .6-.1.2.6.3 1.2.5 1.7-.4.1-.7.2-1 .2zm3.3-1.7c-.5-.2-.9-.6-1.3-.9 0 .1-.1.2-.1.3.3.3.7.7 1.1.9l-.2.2c-.2.2-.4.3-.6.4-.1-.2-.3-.5-.4-.7-.1-.2-.2-.3-.3-.5-.1 0-.2.1-.3.1.1.2.2.4.3.5.1.2.3.5.5.8-.3.2-.5.3-.8.4-.2-.6-.4-1.1-.6-1.7.1 0 .1 0 .2-.1-.2-.1-.3-.2-.3-.4-.8.3-1.7 0-2.3-.5-.4-.4-.6-.9-.6-1.4-.2-.2-.4-.4-.5-.6-.4-.1-.8-.1-1.1-.1-.3-.1-.6-.1-.9-.2.1-.4.2-.8.4-1.1.3.2.7.4 1 .5.2.1.4.2.5.3 0-.1 0-.3.1-.4-.2-.1-.3-.2-.5-.2-.3-.2-.6-.3-1-.4.1-.1.2-.2.3-.4.2-.2.4-.4.6-.7.1.2.4.4.6.6.1.2.3.3.4.4.1-.1.2-.1.3-.2l-.1-.1-.6-.6c-.1-.1-.2-.3-.3-.4.3-.2.6-.4.8-.5.1.3.3.6.4.8.1.2.3.5.5.7.2 0 .3.1.4.1l-.6-.9c-.1-.2-.2-.5-.4-.8.4-.2.8-.3 1.2-.3 0 .3.1.7.2 1.1.1.3.1.7.2 1-.2 0-.3.1-.5.1.2.1.3.2.4.4h.4c.5 0 1 .2 1.3.5.2.2.3.4.4.6.1.2.2.4.2.6.1.3 0 .7-.2 1 .2.1.3.2.3.4 0 0 0-.1.1-.1.2.2.6.4.9.5.2.1.5.3.8.4 0 .2-.2.4-.3.6zm.5-.8c-.2 0-.9-.4-1-.5-.2-.1-.3-.2-.5-.2 0 0-.1 0-.2-.1.1-.2.2-.4.2-.6.6.2 1.3.3 2 .3-.1.3-.3.7-.5 1.1zm.5-1.5c-.7-.1-1.3-.2-2-.3v-.4c.7 0 1.4-.1 2-.2v.9zm-3.1.4h.2c.4-1-.2-2.1-1.3-2.4-.2-.1-.4-.1-.6-.1.4.8 0 2-1.2 2h-.3c.1.6.4 1.2 1 1.5.4.2.9.2 1.4.1-.1-.5.1-1.1.8-1.1z" fill="#000000" stroke-width="none" opacity="1"></path></g></g></g><g id="svga-group-eyesfront-right"><path id="SvgjsPath14211" d="M121 72.1c-8.2 0-14.8 6.6-14.8 14.8s6.6 14.8 14.8 14.8 14.8-6.6 14.8-14.8c0-8.1-6.6-14.8-14.8-14.8zm-8.5 19.6c-2.4 0-3.9-.5-3.6-1.3 2.3-6.5 8.7-7.8 12.6-7.6 3.9.2 6.7 1.9 8.8 3.2 2.1 1.3 3.6 3.7 2.9 4.7-.7.9-18.3 1-20.7 1z" fill="#ffffff" stroke-width="none" opacity="1"></path><path id="SvgjsPath14214" d="M122 82.3c-7.3-.1-11.1 2.1-13.8 7.9-.1.3 0 .6.3.7s.6 0 .7-.3c2.5-5.4 5.9-7.3 12.8-7.2 5.3.1 10.5 4.4 10.8 6.5.1.4-.1.5-.4.6-1.8.5-10.1.7-22.2.6h-.4c-.3 0-.5.2-.5.5s.2.5.5.5h.4c2.4 0 5.4.1 8.4.1 6.1 0 12.4-.1 14.2-.7.8-.3 1.3-.9 1.1-1.8-.5-2.8-6.3-7.3-11.9-7.4zM109.6 86c.2 0 .3-.1.4-.2 0 0 3-3.8 8.1-5.1 5.3-1.3 9.9 1.9 11.4 3 .2.2.6.1.7-.1.2-.2.1-.6-.1-.7-1.6-1.1-6.5-4.6-12.3-3.1-5.5 1.4-8.6 5.3-8.7 5.4-.2.2-.1.5.1.7.1.1.3.1.4.1z" fill="#000000" stroke-width="none" opacity="1"></path></g></g></g><g id="svga-group-facehighlight-single"></g><g id="svga-group-eyebrows-left-move" transform="matrix(1,0,0,1,0,0)"><g id="svga-group-eyebrows-left-rotate" transform="matrix(1,0,0,1,0,0)"><g id="svga-group-eyebrows-left" transform="matrix(1,0,0,1,0,0)"><path id="SvgjsPath14147" d="M63.38 74.47c.22-.18 5.53-4.4 8.18-4.68 2.64-.28 18.4 3.81 19.44 5.45.47.75.57 1.33.28 1.75-.23.33-.68.5-1.35.5-.44 0-.98-.07-1.61-.21-1.05-.23-3.78-1.19-6.94-2.29-4.07-1.43-8.69-3.04-9.81-3.12-1.58-.1-6.16 2.28-7.79 3.21-.16.09-.37.04-.48-.11a.408.408 0 0 1 .08-.5z" fill="#000000" stroke-width="none" opacity="1"></path></g></g></g><g id="svga-group-eyebrows-right-move" transform="matrix(1,0,0,1,0,0)"><g id="svga-group-eyebrows-right-rotate" transform="matrix(1,0,0,1,0,0)"><g id="svga-group-eyebrows-right" transform="matrix(1,0,0,1,0,0)"><path id="SvgjsPath14148" d="M136.62 74.47c-.22-.18-5.53-4.4-8.18-4.68-2.64-.28-18.4 3.81-19.44 5.45-.47.75-.57 1.33-.28 1.75.23.33.68.5 1.35.5.44 0 .98-.07 1.61-.21 1.05-.23 3.78-1.19 6.94-2.29 4.07-1.43 8.69-3.04 9.81-3.12 1.58-.1 6.16 2.28 7.79 3.21.16.09.37.04.48-.11.09-.17.06-.38-.08-.5z" fill="#000000" stroke-width="none" opacity="1"></path></g></g></g><g id="svga-group-beardwrap" transform="matrix(1,0,0,1,0,0)"><g id="svga-group-beard-single-move" transform="matrix(1,0,0,1,0,0)"><g id="svga-group-beard-single" transform="matrix(1,0,0,1,0,0)"></g></g></g><g id="svga-group-mustache-single-move" transform="matrix(1,0,0,1,0,0)"><g id="svga-group-mustache-single" transform="matrix(1,0,0,1,0,0)"></g></g><g id="svga-group-nose-single-move" transform="matrix(1,0,0,1,0,0)"><g id="svga-group-nose-single" transform="matrix(1,0,0,1,0,0)"><path id="SvgjsPath14312" d="M95.47 97.69s-3.62-.07-5.76 1.99c-2.13 2.06-2.42 5.9 4.62 5.68 0 0 1.56 3.91 4.9 4.9 3.34.99 4.9-1.92 5.4-2.98.5-1.07.92-2.7.92-2.7s3.41.07 4.26-.57c.85-.64 1.85-2.7.99-4.26s-3.41-2.2-5.76-2.06c-2.33.14-6.38.42-9.57 0z" fill="#ffffff" stroke-width="none" opacity="1"></path><path id="SvgjsPath14313" d="M107.51 97.47c-.68.03-.69 1.09 0 1.06 1.68-.07 3.15 1.1 3.1 2.87-.04 1.22-.82 2.08-1.84 2.44.35-.19.4-.83-.1-1-.83-.28-1.69-.07-2.35.48-.46.38.05.99.54.86-.19.29-.05.83.42.88 2.23.25 4.33-1.35 4.39-3.67.06-2.32-1.9-4.02-4.16-3.92zm-.23 6.53h-.11c.36-.25.8-.28 1.22-.14.08.03.15.03.21.03-.42.12-.87.16-1.32.11z" fill="#000000" stroke-width="none" opacity="1"></path><path id="SvgjsPath14314" d="M104.98 102.29c.62 2.89-1.92 8.47-5.56 7.33-3.75-1.19-5.89-5.91-4.71-9.51.57-1.73 1.52-3.32 2.02-5.08.48-1.68.38-3.36-.05-5.04-.87-3.39-3.9-9.25.67-11.36.62-.29.08-1.2-.54-.92-3.18 1.47-3.33 5.29-2.52 8.24.58 2.12 1.6 4.17 1.7 6.39.1 2.16-.92 4.07-1.74 6-.63 1.49-1.2 3.08-.99 4.72.02.17.05.34.08.51-.65-.47-1.45-.65-2.23-.39-.65.22-.37 1.24.28 1.03.44-.15.93-.11 1.31.19.06.05.12.08.18.11h-.04c-1.68.1-4.15.01-4.05-2.29.08-1.84 1.98-2.81 3.49-3.31.65-.22.37-1.24-.28-1.03-2.13.71-4.42 2.17-4.27 4.72.15 2.71 2.97 3.1 5.12 2.97.59-.03.67-.83.24-1.02.13 0 .26-.04.36-.15.03-.03.05-.05.07-.09.33 1.16.91 2.28 1.59 3.24 1.7 2.4 4.84 4.3 7.62 2.5 2.39-1.54 3.85-5.31 3.26-8.06-.13-.65-1.16-.36-1.01.3z" fill="#000000" stroke-width="none" opacity="1"></path></g></g><g id="svga-group-hair-front" transform="matrix(1,0,0,1,0,0)"><path id="SvgjsPath14445" d="M137.2 32.2c-3.7-3.9-7.5-3.9-9.2-3.7-3.7-8.8-25-10-38.8-8-15.7 2.3-28.3 10-33 20.2C51.4 50.8 48 65 50.9 71.5c1.9 4.2 3 15.6 3.7 22.4.4 4.1.5 5.1.7 5.6.3.8 1 1.2 2 1.3h.1c1.3 0 3-.8 3.7-2.2.3-.6.3-1.9.3-5.7-.1-7.1-.2-20.5 3.3-24.9 5-6.2 25.2-11.5 38.2-11.5 10.6 0 18.4-5.5 21.6-8.1.4 2.5 1.3 7 3.4 10.4 1.2 1.9 2.9 3.4 4.6 4.8 2.7 2.4 5.3 4.6 5.7 8.4.3 3.1.3 7.6.3 11.7 0 5.9 0 9 .6 10.1.7 1.2 2.1 1.9 3.6 1.7 1.6-.2 2.8-1.3 3.2-2.9.8-2.9 2.3-19.3 2.8-32.7.4-13.5-6.4-22.3-11.5-27.7z" fill="#000000" stroke-width="none" opacity="1"></path><path id="SvgjsPath14446" d="M123.7 38.9c-12 10-27.9 9.4-42.5 11.3-10.1 1.3-21.5 4.5-24.4 15.6-.2.8 1 1.1 1.2.3C62.2 50.5 83.2 51.4 96 50c10.3-1.1 20.5-3.4 28.7-10.2.5-.5-.3-1.4-1-.9zm.5-8.4c-20.2 11.6-51.7.4-66.1 22.7-.4.7.6 1.3 1.1.6 14-21.8 45.6-10.7 65.6-22.2.7-.4.1-1.5-.6-1.1zm-4.2-4c-19.5 2.4-42.7-2.2-58.2 12.9-.6.6.3 1.4.9.9C77.9 25.4 100.8 30 120 27.7c.8-.1.8-1.3 0-1.2zm8.5 15.4c.4 4.8 1.6 9.4 4.1 13.6 2.8 4.8 9.3 8.4 10.4 13.9.2.8 1.4.5 1.2-.3-.8-4.2-4.2-6.3-6.9-9.3-4.5-5-7-11.2-7.5-17.8-.1-.9-1.4-.9-1.3-.1zm3.4-6.1c.6 4 1.9 7.8 4 11.2 2.5 4 6.6 7.1 7.4 12 .1.8 1.3.5 1.2-.3-.6-3.6-2.8-6.1-5-8.9-3.4-4.3-5.6-8.9-6.4-14.3-.1-.8-1.3-.5-1.2.3z" fill="#ffffff" stroke-width="none" opacity="1"></path></g><g id="svga-group-glasses-single-move" transform="matrix(1,0,0,1,0,0)"><g id="svga-group-glasses-single" transform="matrix(1,0,0,1,0,0)"><path id="SvgjsPath14343" d="M96.12 84.87c0-5.12-4.15-9.28-9.28-9.28-3.33 0-6.24 1.76-7.88 4.39 0 0-.16.2-.4.21-.28.02-.46-.21-.47-.21-1.64-2.63-4.55-4.39-7.88-4.39-5.12 0-9.28 4.15-9.28 9.28 0 .42.04.82.09 1.22h-.01s.83 6.81 5.58 11.77c5.23 5.45 10.99 7.76 11.92 7.78h.02c.93-.02 6.69-2.32 11.92-7.78 4.75-4.95 5.58-11.77 5.58-11.77h-.01c.06-.4.1-.81.1-1.22z" fill="url(#SvgjsLinearGradient14344)" opacity="1"></path><path id="SvgjsPath14354" d="M103.25 84.87c0-5.12 4.15-9.28 9.28-9.28 3.33 0 6.24 1.76 7.88 4.39 0 0 .16.2.4.21.28.02.46-.21.47-.21 1.64-2.63 4.55-4.39 7.88-4.39 5.12 0 9.28 4.15 9.28 9.28 0 .42-.04.82-.09 1.22h.01s-.83 6.81-5.58 11.77c-5.23 5.45-10.99 7.76-11.92 7.78h-.02c-.93-.02-6.69-2.32-11.92-7.78-4.75-4.95-5.58-11.77-5.58-11.77h.01c-.07-.4-.1-.81-.1-1.22z" fill="url(#SvgjsLinearGradient14355)" opacity="1"></path><path id="SvgjsPath14365" d="M138.84 83.32a9.62 9.62 0 0 0-1.32-3.55c-1.19-1.94-2.99-3.42-5.06-4.15a9.845 9.845 0 0 0-6.56-.06c-2.06.71-3.85 2.12-5.06 3.98a9.751 9.751 0 0 0-4.75-3.88c-1.98-.77-4.2-.86-6.26-.25-2.06.6-3.88 1.86-5.13 3.55-.84 1.09-1.44 2.41-1.74 3.83-1.02-.31-2.08-.47-3.2-.47-1.14 0-2.27.17-3.35.52-.3-1.44-.89-2.77-1.74-3.87-1.25-1.7-3.07-2.96-5.13-3.56-2.06-.6-4.28-.51-6.25.25a9.785 9.785 0 0 0-4.76 3.88c-1.21-1.86-3-3.27-5.06-3.98a9.783 9.783 0 0 0-6.56.05c-2.08.73-3.88 2.2-5.06 4.14a9.558 9.558 0 0 0-1.32 3.56l-1.33-.08.29 2.5.95.03v.03l-.03.02.06.37c.81 4.95 2.98 9.4 6.12 12.53a34.6 34.6 0 0 0 5.42 4.46c1.05.69 2.04 1.28 3.04 1.79l.33.16c.94.46 1.92.94 3.07 1.13l.08.01.08-.01c1.15-.2 2.13-.67 3.07-1.13l.33-.16c.99-.51 1.99-1.09 3.04-1.78a33.57 33.57 0 0 0 5.39-4.48c3.13-3.14 5.3-7.59 6.1-12.54l.04-.38-.03-.01.06-.87c1.04-.39 2.1-.58 3.19-.56.97.01 1.96.18 2.91.51v.06l.06.88-.04.02.06.38c.79 4.93 2.96 9.38 6.09 12.52 1.64 1.67 3.45 3.18 5.4 4.49 1.05.69 2.05 1.28 3.05 1.78l.33.16c.94.46 1.92.93 3.07 1.13l.08.01.08-.01c1.15-.2 2.12-.67 3.07-1.13l.34-.17c.99-.51 1.98-1.09 3.04-1.78a34.6 34.6 0 0 0 5.42-4.46c3.13-3.13 5.31-7.58 6.12-12.58l.05-.38.93-.03.29-2.5-1.31.08zm-18.01 21.69c-.94-.18-1.91-.66-2.92-1.16-.94-.48-1.9-1.04-2.91-1.71-1.94-1.29-3.71-2.72-5.26-4.28-2.97-2.9-5.06-7.06-5.88-11.73l-.07-.86.34.16.87-1.82-.45-.22c-.19-.09-.39-.18-.59-.26.27-1.32.82-2.53 1.6-3.53 1.12-1.5 2.75-2.6 4.58-3.11 1.82-.51 3.78-.42 5.51.28 1.71.67 3.22 1.93 4.24 3.53l.06.08c.24.27.56.41.88.41.16 0 .35-.04.53-.13.07-.04.13-.08.19-.13l.37-.26-.04-.14a8.74 8.74 0 0 1 4.4-3.49 8.62 8.62 0 0 1 5.8.01c1.86.64 3.5 1.97 4.51 3.66 1.03 1.67 1.45 3.69 1.17 5.73l-.03.19c-.82 4.6-2.89 8.71-5.84 11.61a33.123 33.123 0 0 1-5.23 4.29c-1.01.67-1.97 1.22-3 1.75-.92.47-1.89.95-2.83 1.13zM73.09 76.66c1.8.63 3.35 1.87 4.41 3.49l-.04.14.36.25a1.17 1.17 0 0 0 .71.26c.38-.02.65-.15.95-.49 1.02-1.61 2.52-2.86 4.24-3.53a8.66 8.66 0 0 1 5.51-.28c1.83.51 3.45 1.61 4.58 3.12.79 1.01 1.34 2.24 1.61 3.58-.16.07-.3.13-.44.2l-.45.22.87 1.82.16-.08-.06.76c-.82 4.67-2.91 8.84-5.89 11.75-1.54 1.55-3.31 2.98-5.25 4.27-1.02.67-1.97 1.23-2.99 1.75-.94.46-1.91.94-2.85 1.12-.94-.18-1.91-.66-2.93-1.16-.95-.49-1.91-1.04-2.91-1.71a33.179 33.179 0 0 1-5.23-4.3c-2.94-2.89-5.01-7-5.83-11.6l-.03-.23c-.27-2 .15-4.02 1.18-5.69a8.671 8.671 0 0 1 4.51-3.66 8.71 8.71 0 0 1 5.81 0z" fill="#000000" stroke-width="none" opacity="1"></path></g></g></g></g></g><rect id="svga-credit-rect" width="200" height="15" x="0" y="185" fill="#ecf0f1" opacity="0.5" style="display: none;"></rect><text id="svga-credit-text" font-family="Avenir Next, Roboto, Helvetica, Arial, sans-serif" font-size="10px" text-anchor="start" font-weight="400" size="10px" anchor="start" weight="400" fill="#333333" x="34.1171875" y="182.5078125" style="display: none;"><tspan id="SvgjsTspan13697" dy="13" x="34.1171875">Created on AvatarMaker.com</tspan></text></g></svg>