<svg xmlns="http://www.w3.org/2000/svg" version="1.1" width="600px" height="600px" viewBox="0 0 200 200" style="overflow:hidden!important;"><defs id="SvgjsDefs22742"></defs><g id="svga-group-wrapper"><g id="svga-group-backs-single"><path id="SvgjsPath23199" d="M0 151.2s23.5-5.1 41.7 13.1S59.6 192.1 87 200H0v-48.8z" fill="#ff0000" stroke-width="none" opacity="1"></path><path id="SvgjsPath23200" d="M133.6 180.5c-23.4-5.2-55.2-7.3-78.3-46.1S0 100 0 100v51.2s23.5-5.1 41.7 13.1S59.6 192.1 87 200h80.9s-10.9-14.4-34.3-19.5z" fill="#ff6700" stroke-width="none" opacity="1"></path><path id="SvgjsPath23201" d="M170.8 156c-37.1 6.4-73.1-10.7-84.6-38.1-17-40.6-35.4-62.5-53.5-65-17.9-2.5-32.8 0-32.8 0V100s32.3-4.5 55.3 34.4 54.9 41 78.3 46.1 34.3 19.5 34.3 19.5H200v-50.1s-13.7 3.4-29.2 6.1z" fill="#ffb600" stroke-width="none" opacity="1"></path><path id="SvgjsPath23202" d="M149.1 124.2c-28.7-13.4-33-30-37.2-43.8-4.2-13.7-16.3-50-45.7-65.3S0 8 0 8v45s14.9-2.5 32.8 0c18.1 2.5 36.4 24.5 53.5 65 11.5 27.4 47.5 44.5 84.6 38.1 15.5-2.7 29.2-6.1 29.2-6.1v-14.3c-.1-.1-22.3 1.9-51-11.5z" fill="#378c00" stroke-width="none" opacity="1"></path><path id="SvgjsPath23203" d="M170.3 103c-17.6-9.8-25.8-29.7-34.3-63.3C127.5 6 100 0 100 0H0v8s36.8-8.2 66.1 7.2 41.5 51.6 45.7 65.3 8.5 30.4 37.2 43.8c28.7 13.4 50.9 11.4 50.9 11.4v-21.2c.1-.1-12-1.7-29.6-11.5z" fill="#00b1ba" stroke-width="none" opacity="1"></path><path id="SvgjsPath23204" d="M166.1 37.8C152.1 27.3 149.9 0 149.9 0H100s27.5 6 36 39.6 16.6 53.5 34.3 63.3 29.7 11.4 29.7 11.4V61.1s-19.8-12.9-33.9-23.3z" fill="#0530e2" stroke-width="none" opacity="1"></path><path id="SvgjsPath23205" d="M149.9 0s2.1 27.3 16.2 37.8S200 61.1 200 61.1V0h-50.1z" fill="#8900ea" stroke-width="none" opacity="1"></path><path id="SvgjsPath23206" d="M74.2 196.2c-2.6-1.1-5-2.4-7.4-3.9l-1.7-1.2c-.6-.4-1.1-.9-1.7-1.3-.5-.4-1.1-.9-1.7-1.3-.5-.5-1-.9-1.6-1.4-.5-.5-1.1-.9-1.6-1.4l-1.5-1.5c-1-1-2-2.1-3-3.1-3.9-4.4-7.2-9.2-10.5-14.1-1.7-2.4-3.2-5-5.1-7.4-.5-.6-.9-1.2-1.4-1.8-.5-.6-1-1.2-1.6-1.8l-.8-.8-.9-.8c-.6-.5-1.3-1-1.9-1.4-2.7-1.7-5.7-2.9-8.7-3.6s-6.1-1-9.2-1c-3.1 0-6.1.3-9 .9-1.7.3-3.3.7-5 1.2v1.6c4.7-.2 9.3-.2 13.8.2 2.8.3 5.6.7 8.3 1.4 2.7.7 5.2 1.7 7.7 2.9 1.2.6 2.4 1.3 3.5 2.1.6.4 1.1.8 1.6 1.3.5.4 1 1 1.6 1.5 2.1 2 4 4.2 5.8 6.5 3.5 4.7 6.4 9.8 9.7 14.8 1.7 2.5 3.4 5 5.4 7.3.5.6 1 1.1 1.5 1.7s1.1 1.1 1.7 1.6c.6.5 1.1 1.1 1.7 1.5l1.8 1.4c1.9 1.5 3.9 2.7 6 3.9h14.6c-.9-.3-1.7-.6-2.6-.9-2.6-1.1-5.2-2-7.8-3.1zm82.6-11.6c-.5-.3-1.1-.6-1.6-.9l-1.6-.8c-1.1-.5-2.2-1.1-3.3-1.6l-3.4-1.4c-1.1-.5-2.3-.9-3.4-1.3-4.6-1.7-9.3-3-14-4-2.4-.6-4.8-.9-7.1-1.3-2.4-.3-4.8-.7-7.2-.9-2.4-.3-4.8-.5-7.2-.7-1.2-.1-2.3-.2-3.4-.3-1.1-.2-2.2-.3-3.3-.6-8.8-1.9-17.1-6.4-24.4-12.2-7.3-5.8-13.6-13.1-19-20.9-2.7-3.9-5.1-8-7.4-12.1-1.2-2.1-2.3-4.2-3.4-6.2l-1.7-3.1c-.6-1.1-1.2-2.2-1.9-3.2-2.8-4.1-6.3-7.9-10.4-10.7-2-1.5-4.2-2.7-6.4-3.8-2.2-1.1-4.6-1.9-6.9-2.7-2.4-.8-4.8-1.2-7.2-1.6-2.4-.4-4.8-.6-7.3-.7-1.8 0-3.5 0-5.3.1v2c6.4.5 12.6 1.7 18.5 3.8 2.1.8 4.2 1.7 6.2 2.8 2 1.1 4 2.2 5.8 3.6.9.6 1.8 1.4 2.6 2.1.8.8 1.7 1.5 2.5 2.3l1.2 1.2 1.1 1.3c.8.8 1.4 1.7 2.2 2.6.7.9 1.3 1.8 2 2.8.7 1 1.3 2 2 3 1.4 2 2.7 3.9 4.1 5.9 2.8 3.9 5.6 7.8 8.5 11.6 5.7 7.7 11.5 15.2 18.5 22 3.5 3.4 7.3 6.5 11.5 9s8.8 4.5 13.7 5.7c1.2.3 2.4.5 3.7.8 1.2.2 2.5.4 3.7.5 2.3.3 4.7.6 7 .9 2.3.3 4.6.7 7 1.1 2.3.4 4.6.8 6.9 1.3 9.2 1.8 18.1 4.4 26.5 8.3 4.2 1.9 8.2 4.3 12.1 6.9l2.9 2c.9.7 1.8 1.5 2.8 2.2l.9.7h1.9c-5.5-6.2-11.9-11.5-19-15.5zm-6.8-28.8c-5.6-.1-11.3-.7-16.8-1.7-5.5-1.1-10.8-2.7-15.9-5.1-10-4.9-18.3-12.8-24.3-22.6-1.5-2.4-3-4.9-4.3-7.4-1.4-2.5-2.7-5.1-4-7.7-2.5-5.2-4.9-10.5-7.3-15.8-1.2-2.6-2.4-5.3-3.7-7.9-1.2-2.6-2.5-5.2-3.9-7.8-2.8-5.2-6-10.2-9.9-14.7-4-4.5-8.7-8.4-14.1-11.2-5.3-2.9-11.1-4.8-17-5.8-.7-.1-1.5-.3-2.2-.4l-2.2-.2-2.2-.2h-4.4l-2.2.1c-1.5 0-3 .2-4.4.4-.7.1-1.5.2-2.2.3l-2.2.4c-1.4.3-2.9.6-4.3 1.1-.8.2-1.7.5-2.5.8v1.5c9.4-1.9 19-1.9 28.2.2 1.4.3 2.7.6 4 1.1l2 .6 1 .3 1 .4c1.3.5 2.6 1 3.9 1.6l3.7 1.9c.6.3 1.2.7 1.8 1 .6.4 1.2.7 1.8 1.1l1.6.9 1.7 1.2c2.2 1.7 4.3 3.6 6.2 5.6 7.9 8 14 17.9 19.1 28.3 2.5 5.2 4.9 10.5 7.2 15.8 2.4 5.3 4.7 10.6 7.5 15.8 2.7 5.2 6 10.3 10.2 14.6 4.1 4.4 9 8 14.4 10.8 10.7 5.6 22.9 7.9 34.7 8 11.9 0 23.6-1.8 34.9-5 5.1-1.5 10.2-3.2 15.1-5.2v-2.8c-5.3 1.6-10.7 3.1-16.1 4.2-11.2 2.3-22.6 3.6-33.9 3.5zm41.1-20.2-2.1-.1-2.1-.1c-.7 0-1.4-.1-2.1-.2-2.9-.2-5.6-.7-8.5-1.1-2.8-.6-5.6-1.1-8.3-2-2.8-.7-5.4-1.7-8.1-2.6-1.3-.5-2.6-1.1-3.9-1.7-1.3-.6-2.6-1-3.9-1.7-2.5-1.3-5.1-2.5-7.5-3.9-1.2-.7-2.4-1.5-3.6-2.2-1.1-.8-2.4-1.6-3.5-2.4-2.3-1.7-4.4-3.5-6.5-5.5-4.1-4-7.6-8.5-10.6-13.5-2.9-5-5.2-10.3-7.2-15.7-2-5.4-3.5-11-5.2-16.6-.8-2.8-1.7-5.6-2.6-8.4-.9-2.8-1.9-5.6-3-8.3-1.1-2.7-2.4-5.5-3.8-8.1-1.4-2.6-2.9-5.2-4.5-7.7-1.7-2.5-3.4-4.9-5.3-7.2s-4-4.5-6.2-6.6c-4.4-4.1-9.6-7.5-15.1-10.1C61.8 7.3 56 5.5 50 4.6c-5.9-.9-11.9-1.1-17.8-.8-3 .1-5.9.4-8.8.8-1.5.2-2.9.4-4.4.7l-4.3.8c-2.9.7-5.7 1.3-8.6 2.1-2 .6-4.1 1.2-6.1 1.9v.8C10.7 9 21.5 7.6 32.3 7.8c5.7 0 11.4.5 16.9 1.6 5.5 1.1 10.9 2.8 15.9 5.2 2.5 1.2 4.9 2.5 7.2 4.1 2.3 1.6 4.5 3.2 6.6 5.1 4.2 3.7 7.9 8 11.2 12.6 3.2 4.7 6.2 9.6 8.6 14.7 2.4 5.2 4.6 10.5 6.6 16 2 5.4 4.1 10.9 6.2 16.3 1.1 2.7 2.2 5.4 3.4 8.1.6 1.3 1.3 2.6 1.9 4 .7 1.3 1.3 2.6 2.1 3.9 1.4 2.6 2.9 5.1 4.6 7.5 1.6 2.5 3.5 4.8 5.4 7.1 3.9 4.5 8.4 8.6 13.4 11.8 2.5 1.7 5.1 3 7.8 4.4 1.3.7 2.7 1.2 4.1 1.9 1.4.6 2.7 1.2 4.1 1.7 5.6 2 11.4 3.5 17.3 4.3 3 .3 5.9.6 8.9.7.7 0 1.5.1 2.2.1l2.2-.1 2.2-.1 2.2-.2c2.2-.2 4.5-.5 6.7-.9v-2c-2.3.2-4.5.2-6.8.2l-2.1-.2zM118.9 6.8c1.3 1.3 2.5 2.7 3.6 4.1 2.2 2.9 4.4 5.9 6.3 9 1.9 3.1 3.6 6.4 5 9.8l1 2.6c.3.9.5 1.8.8 2.7.3.9.4 1.8.6 2.7.2.9.4 1.8.6 2.8 1.3 7.5 2.5 15 4.1 22.5.9 3.7 1.7 7.5 3 11.2.3.9.6 1.8 1 2.8l1.1 2.7.6 1.3.7 1.3c.4.9.9 1.8 1.3 2.6 1.9 3.5 4.2 6.8 6.9 9.7 2.7 3 5.8 5.6 9.3 7.7 3.5 2.1 7.4 3.5 11.2 4.4 3.9.9 7.7 1.4 11.6 1.6l2.9.1h2.9c1.9 0 3.8-.1 5.8-.2.3 0 .6-.1.9-.1v-2.4c-4.1-.3-8.1-.8-12.1-1.4-.9-.1-1.8-.3-2.7-.5l-1.4-.2-1.4-.3c-1.8-.3-3.6-.8-5.3-1.3-3.5-1.1-6.7-2.4-9.7-4.3-6.1-3.7-11-9-14.9-15.2-.5-.8-.9-1.6-1.4-2.4l-.7-1.2-.6-1.2-1.2-2.5-1.1-2.5c-.4-.8-.8-1.7-1.1-2.6l-1.1-2.6c-.7-1.7-1.3-3.5-1.9-5.3-2.4-7.1-4.1-14.5-5.1-22-.5-3.8-1-7.6-2-11.4-.9-3.8-2.2-7.5-4-11-1.8-3.5-3.9-6.8-6.5-9.8-1.3-1.5-2.6-2.9-4-4.3-1.4-1.3-2.8-2.6-4.3-3.8h-5.9c1.1.9 2.2 1.9 3.3 2.9 1.4 1.3 2.7 2.6 3.9 4zm32.4-1.4c.2 2.4.4 4.9 1 7.3.2 1.2.6 2.4.8 3.6.4 1.2.7 2.4 1.1 3.5.7 2.3 1.7 4.6 2.8 6.8 1.2 2.2 2.5 4.3 4 6.2.7 1 1.5 1.9 2.3 2.9.4.5.8.9 1.2 1.4s.8.9 1.2 1.4c.9.8 1.7 1.7 2.5 2.6l1.2 1.3 1.2 1.3c.8.9 1.6 1.7 2.4 2.7.8.9 1.7 1.7 2.5 2.6.8.9 1.7 1.7 2.6 2.5.9.8 1.8 1.7 2.8 2.3l3 2.1c1.1.6 2.1 1.2 3.2 1.8 1.1.5 2.2 1 3.4 1.5 1.1.4 2.3.8 3.5 1.2 1.2.3 2.4.7 3.6.9.8.2 1.6.3 2.4.4v-3.1c-1.6-.6-3.1-1.2-4.6-1.9l-3.1-1.5-3.1-1.5c-1-.6-2-1.1-3-1.7-1-.6-2-1.2-3-1.7s-2-1.2-3-1.7-2-1.1-3-1.8c-1-.6-1.9-1.3-2.9-2-.9-.7-1.8-1.5-2.7-2.3-.4-.4-.9-.8-1.3-1.2l-1.2-1.3c-.8-.9-1.6-1.8-2.3-2.7-1.4-1.8-2.6-3.8-3.6-5.9-2-4.2-3.4-8.5-4.6-12.9-1.1-4.4-1.6-9-2.1-13.5-.2-1.7-.3-3.3-.4-5h-5c0 1.8 0 3.6.2 5.4z" fill="#ffffff" stroke-width="none" opacity="1"></path></g><g id="svga-group-humanwrap-move" transform="matrix(1,0,0,1,0,0)"><g id="svga-group-humanwrap" transform="matrix(1,0,0,1,0,0)"><g id="svga-group-hair-back-move" transform="matrix(1,0,0,1,0,0)"><g id="svga-group-hair-back" transform="matrix(1,0,0,1,0,0)"><path id="SvgjsPath23437" d="M136 67.2c0-.5-.4-.9-.9-1-6.9-.7-67.1-6.3-71.3 5.9-2.3 6.8-1.8 28-1.2 40.1.7 14.1 2 31.6 2.9 33.1.1.2.4.5.7.6.8.2 21.9 4.1 28.4 4.1h.6c5.4-.3 21.7-.8 21.9-.8.5 0 .9-.4 1-.9l.3-3.2.8 2.8c.1.4.5.7 1 .7 4.1 0 11-.8 11.3-.8.4 0 .7-.3.8-.7 4.7-14.7 3.7-77.3 3.7-79.9z" fill="#000000" stroke-width="none" opacity="1"></path></g></g><g id="svga-group-humanbody-back"><path id="SvgjsPath23042" d="M86.5 107c0 18.8 2.7 50.3-8.1 58s-31.8 13.9-36.7 24.4-3.6 29.4-3.6 29.4h124.1s.6-23.1-4.2-30.4c-6.6-10.1-28.5-17.7-36.5-22.9-8.1-5.2-10.9-32.2-10.9-58.8l-24.1.3z" fill="#ffffff" stroke-width="none" opacity="1"></path></g><g id="svga-group-chinshadow-single"></g><g id="svga-group-humanbody-front"><path id="SvgjsPath23043" d="M163.4 220.1H37.2l-.3-.9c-.1-.5-1.3-19.7 3.6-30.3 3.4-7.3 13.6-12.4 23.5-17.4 5.1-2.5 9.9-5 13.6-7.5 8.6-6 8.1-29.8 7.7-47.1-.1-3.5-.1-6.8-.1-9.8v-1.3l26.7-.4v1.3c0 32 3.8 53.5 10.3 57.7 2.4 1.6 6 3.3 10.2 5.4 9.7 4.7 21.9 10.6 26.7 18 5 7.6 4.4 30.9 4.4 31.2l-.1 1.1zm-124.1-2.6h121.6c-.1-2.4-.6-23.2-4-28.4-4.4-6.7-16.2-12.5-25.6-17-4.3-2.1-8-3.9-10.5-5.5-9.8-6.3-11.4-38.8-11.5-58.6l-21.5.4c0 2.6.1 5.5.1 8.5.4 18.9.9 42.4-8.8 49.3-3.8 2.7-8.7 5.1-13.9 7.7-9.5 4.8-19.4 9.7-22.3 16.1-3.3 6.9-3.7 25.9-3.6 27.5z" fill="#000000" stroke-width="none" opacity="1"></path><path id="SvgjsPath23044" d="M76.8 173.7c4.8 2.3 10.4 3.9 15.7 2.9.4-.1.4-.7 0-.8-5.1-.9-10.2-1.4-15.2-3.2-.6-.2-1.1.8-.5 1.1zm31.5 2.4c2.4.3 4.9-.4 7.1-1.2 2.1-.8 4.3-1.7 5.8-3.4.5-.5-.1-1.2-.7-.9-2.1.9-3.9 2.3-6.1 3-2 .7-4.1 1-6.2 1.5-.6.1-.4.9.1 1z" fill="#000000" stroke-width="none" opacity="1"></path></g><g id="svga-group-clothes-single"><path id="SvgjsPath23410" d="M158.7 180s-9.6-4.4-14.9-6.5c-5.2-2.1-12.2-5.7-12.2-5.7l1.4-1.4s-12.7-7-14.2-7.6c0 0 1.9 6.3 1.6 7.8-.2.7-1.3 9.4-2.6 18.2-7.2 5.7-17.5 12.6-17.5 12.6-5.2-2.5-11.9-6.7-17.1-10-1.3-9.7-2.8-20.1-2.9-20.8-.3-1.4 1.6-7.8 1.6-7.8-1.6.6-14.2 7.6-14.2 7.6l1.4 1.4s-7 3.6-12.2 5.7c-5.3 2-14.9 6.5-14.9 6.5s-5.1 7.2-5.8 20.6c-.1 1.2-.1 17.5-.1 18.8H164.5c0-1.3 0-17.6-.1-18.8-.7-13.4-5.7-20.6-5.7-20.6z" fill="#ffffff" stroke-width="none" opacity="1"></path><path id="SvgjsPath23411" d="M165.4 200.8c-.7-13.7-5.7-21.1-5.9-21.4-.1-.1-.2-.3-.4-.3-.1 0-9.7-4.5-14.9-6.5-3.8-1.5-8.7-3.9-10.9-5l.4-.4c.2-.2.3-.5.3-.9 0-.3-.2-.6-.5-.7-1.3-.7-12.8-7-14.3-7.6-.3-.1-.8-.1-1.1.2-.3.3-.4.7-.3 1 .9 2.9 1.7 6.6 1.6 7.2-.2.7-1.3 9.1-2.5 17.9-6.2 4.9-14.5 10.6-16.6 12-4.9-2.5-11.2-6.3-16.1-9.5-1.3-9.6-2.7-19.6-2.9-20.4-.2-.7.7-4.3 1.6-7.2.1-.4 0-.8-.3-1s-.7-.3-1.1-.2c-1.6.6-13.1 6.9-14.3 7.6-.3.1-.5.4-.5.7 0 .3.1.6.3.9l.4.4c-2.2 1.1-7 3.5-10.9 5-5.2 2-14.8 6.5-14.9 6.5-.2.1-.3.2-.4.3-.2.3-5.5 8-6 22.3v18.7h130.2v-19.6zm-34-34.2-.5.5c-.1.1-.2.2-.2.3l-2.3 2.1-.3-.3c1-.9 1.9-1.9 2.8-3 .1.2.3.3.5.4zm-1-.6c-.9.9-1.8 1.9-2.8 2.8l-1.3-1.2.9-.9 1.5-1.5c.6.2 1.2.6 1.7.8zm-2-1c-.5.5-1 .9-1.5 1.4l-.9.9-.9-.9c.3-.3.6-.7.9-1 .3-.4.7-.8 1-1.2.5.3 1 .5 1.4.8zm-1.6-.9c-.4.4-.8.8-1.1 1.2-.3.3-.6.6-.8.9l-.8-.8c-.1-.1-.1-.1-.2-.1.2-.3.4-.6.7-.9l.9-.9c.3.1.8.3 1.3.6zm-1.7-.9c-.6.6-1.2 1.2-1.7 1.9-.3 0-.6.1-.8.3-.4.4-.4 1 0 1.4l1.3 1.3-3.3 3.3c.4-2.6.6-4.4.7-4.6.1-.3.1-.8 0-1.4h.1c.6-.5 1.1-1.2 1.7-1.8.3-.3.6-.7.9-1 .3.2.7.4 1.1.6zm-1.5-.8c-.3.3-.5.6-.8.9-.5.6-1.1 1.1-1.5 1.7-.1-.7-.2-1.4-.4-2.2l.2-.2c.3-.3.7-.7 1-1.1l1.5.9zm-1.9-1.1-.9.9c-.1-.6-.3-1.1-.4-1.6.4.3.8.5 1.3.7zm-1.1 10.6c1.2-1.2 2.4-2.5 3.5-3.7l1.6 1.6c-2 2-4 4.1-5.7 6.3.2-1.5.4-2.9.6-4.2zm-.7 4.7c.1 0 .1 0 0 0 2.2-2.1 4.1-4.3 6.1-6.6l1.6 1.6c-2.7 2.2-5.6 4.5-8 7.1.2-.7.2-1.4.3-2.1zm-1 7.6c3.8-3.1 7.4-6.8 11-10.2.1-.1-.1-.3-.2-.2-3.5 3.1-7.3 6.2-10.7 9.5.2-1.3.3-2.5.5-3.7 2.8-2.5 5.5-5.3 8.3-7.9l4.3 4.1c-4.6 4-9.4 8.1-13.8 12.4.2-1.2.4-2.6.6-4zm-.7 5c4.9-4.1 9.5-8.6 14.1-12.9l1.4 1.4c-.2.5-.5 1.2-.8 2.1-5.1 4.4-10.4 8.6-15.3 13.3.3-1.4.5-2.7.6-3.9zm-.6 4.8c5.3-4.3 10.2-9.1 15.2-13.7-.6 1.6-1.4 3.5-2.1 5.6-4.7 3.6-9.1 7.8-13.5 11.8 0-1.3.2-2.5.4-3.7zm-.6 4.5c.8-.6 1.5-1.4 2.1-2 1.4-1.2 2.8-2.5 4.1-3.7 2.4-2.1 4.9-4.2 7.2-6.5-.3.9-.6 1.7-1 2.6l-.9 2.7c-3.8 3.9-7.8 7.5-12.1 10.8.2-1.2.4-2.5.6-3.9zm6.3 7.2c-2.9 1.6-5.6 3.7-8.3 5.6.2-1.5.5-2.9.7-4.2 2.2-1.6 9.4-6.7 10.9-8-.1.5-1.6 5.4-3.1 10.2-3.1 1.9-6.1 4.1-9.2 6.1.2-1.1.4-2.3.6-3.6 2.9-1.9 5.9-3.7 8.5-5.9.1-.1 0-.2-.1-.2zm-7.5.6c.3-1.9.6-3.2.7-3.2.1 0 1.7-1.4 2.3-1.9 1.2-1 2.4-2 3.5-3.1 2.1-1.9 4.1-3.8 5.9-5.8-.6 2.1-1.2 4.2-1.6 6.1-1.6 1.5-8.1 5.9-10.8 7.9zm-32-7c-1.2.9-6.1 6-7.9 7.8-.2-.8-.3-1.5-.5-2.2 2.3-2.7 6.2-7.5 7.8-9.8.3 1.4.5 2.8.6 4.2zm-.6-4.9c-2 2.7-5.6 6.9-7.9 9.7-.4-1.8-.7-3-.7-3.2 0-.1.1-.1.1-.1.1-.1.1-.1 0-.1 2.3-2.7 4.5-5.5 6.8-8.2.1-.1-.1-.3-.2-.2l-6.9 8.1c-.2-.9-.5-2-.8-3.1l.5-.5c2.7-2.9 5.4-5.9 8.1-8.9.4 2 .7 4.3 1 6.5zm-1-7.1c-2.9 3-5.9 6-8.7 9.2-.2-1-.5-2-.8-3 3.3-2.9 6.3-6.4 9-9.9.2 1.2.4 2.5.5 3.7zm-8.5-4.9c1.3-1 2.4-2.4 3.5-3.6 1.1-1.2 2.2-2.3 3.3-3.5l.3 2.1h-.1c-3.2 3.4-6.5 6.5-9.9 9.6-.2.2.1.6.3.4 3.5-2.9 6.7-6.1 9.7-9.5.1.9.3 1.9.4 2.9-2.9 2.9-5.9 5.8-8.5 8.9-.2.2.1.5.3.3 2.9-2.7 5.6-5.8 8.3-8.7.1.6.2 1.2.2 1.8-2.9 3.4-6 6.6-9.1 9.9-.4-1.4-.8-2.7-1.3-4-1.8-4.9-3.7-9.7-4.3-11.3L78 166.8c.1-.1.2-.2.2-.4l1-1c-.1.6-.1 1 0 1.3.1.2.2 1.6.5 3.6-2.7 2.7-5.7 5.2-8.4 7.9-.1.1.1.4.2.3 3-2.2 5.7-4.9 8.3-7.6.1.5.1 1 .2 1.5-2.4 2.4-4.9 4.7-7.2 7.2-.2.2.1.5.3.3 2.4-2.2 4.7-4.7 7-7 .1.6.2 1.3.3 2-1.2 1.3-2.5 2.5-3.7 3.8-1.1 1.1-2.4 2.2-3.3 3.5 0 .2.2.3.3.2zm4.1-17.3 1.8-1.5c-.1.5-.2 1-.2 1.4-.3.3-.7.6-1 .9 0-.2-.1-.4-.3-.6-.1-.1-.2-.1-.3-.2zm1.6-4c-2.4 1.8-4.9 3.6-7.2 5.6-.1.1 0 .3.2.2 2.7-1.9 5.4-4 7.9-6.1-.2.7-.4 1.6-.6 2.3-.8.6-1.6 1.2-2.3 1.8-.2 0-.5.1-.7.3l-2 1.9c-.1.1-.2.1-.2.2v.1l-2.1 2-2.3-2.2c-.1-.1-.1-.2-.2-.3l-.5-.5c2.6-1.3 7-3.7 10-5.3zm-36.7 19.7c.3-.1 1-.4 1.8-.8.2.2.4.6.6 1-.3-.2-.6-.4-.8-.6-.2-.2-.4.2-.2.4.5.4 1 .8 1.6 1.2.3.7.7 1.5 1.1 2.5-1.5-1-3-1.9-4.5-2.9.1-.4.3-.7.4-.8zM42 182c1.7 1.1 3.3 2.3 5 3.2.3.9.7 1.8 1 2.9-2-1.8-4.5-3.1-6.8-4.6.3-.6.6-1.1.8-1.5zm-3.6 10c3.6 2.3 7.3 4.6 11.2 6.3.2.1.3-.2.2-.3-3.7-2.2-7.5-4.2-11.2-6.5.2-.8.4-1.6.6-2.3 3.2 2.1 6.4 4.3 9.9 5.7.2.1.3-.2.1-.3-3.2-2.1-6.6-3.9-9.9-5.9.3-.9.6-1.8.9-2.6 2.6 1.8 5.2 3.6 8 5.1.2.1.4-.2.2-.4-2.6-1.9-5.3-3.5-8.1-5.1.3-.7.5-1.3.8-1.9 2.2 1.6 4.5 3.4 7 4.6h.1c.2.7.4 1.5.6 2.3.8 3.4 1.2 7.6 1.4 10.3-4.1-2.4-8.2-4.6-12.1-7.1 0-.6.2-1.3.3-1.9zm-.4 2.4c3.9 2.7 7.9 5.2 12.2 7.2 0 .1 0 1.1.1 2.6-3.5-2.1-9.3-5.4-12.7-7.3.1-.9.2-1.8.4-2.5zm-.5 2.9c2.9 1.7 9.3 5.8 12.8 7.7v1.5c-1.8-.9-9.2-4.7-9.8-5.1-1-.6-2.1-1.3-3.2-1.8.1-.8.2-1.6.2-2.3zm-.2 2.8c.9.7 2 1.2 2.9 1.8.4.2 8.2 4.3 10.2 5.3 0 1 .1 2.1.1 3.2-4.5-2.8-8.8-5.9-13.3-8.6 0-.5 0-1.1.1-1.7zm-.1 2.2c4.2 3.1 8.9 5.7 13.3 8.5 0 .9.1 1.9.1 2.8-2.3-1.4-4.6-2.8-7-4.1-2.2-1.2-4.5-2.1-6.4-3.8v-3.4zm0 3.7c1.5 1.4 3.4 2.3 5.2 3.3 2.8 1.5 5.5 3.1 8.2 4.7 0 1 .1 1.9.1 2.7-4.2-2.9-9.2-4.5-13.5-7.3V206zm0 12.3v-3.4c2 1.2 4.1 2.4 6.3 3.4h-6.3zm11.7 0v-.1c-3.8-1.9-7.7-3.4-11.3-5.6-.1-.1-.2.1-.1.2 3.4 2.3 7.2 4.6 11.2 5.6h-4.3c-2.4-1.3-4.8-2.4-7.1-3.7v-5c4 3 8.8 5.2 13.4 7.2h.1v1.5l-1.9-.1zm3.3 0c-.1-4.2-.5-24.1-1.5-28.1-1.1-4.6-3-9.2-4.4-11.2 3.3-1.5 7.9-3.5 10.9-4.7 4.2-1.7 9.6-4.4 11.6-5.4l2.1 1.9-5.9 5.7c-.3.3-.4.7-.2 1.1 0 .1 2.3 5.9 4.5 11.9 1.6 4.4 6.2 24.2 7.2 28.7H52.2zM76 207.7c2-1.9 7.1-7 7.9-7.8 0 .2.2 1.8.6 4 0-.1-.1-.2-.2-.1-2.7 2.1-5.1 4.7-7.6 7.1-.2-1.1-.5-2.2-.7-3.2zm.8 3.5c2.6-2.4 5.4-4.7 7.7-7.3v-.1c.2 1.1.3 2.4.5 3.7 0 0-.1-.1-.1 0-2.7 1.7-5.2 4.4-7.4 6.8-.3-1-.5-2-.7-3.1zm.7 3.4c1.2-1.2 2.4-2.4 3.7-3.5 1.2-1.1 2.7-2.2 3.8-3.4.2 1.5.4 3.1.6 4.6-2.7 1.6-5.2 3.8-7.3 6-.2-.8-.5-2.1-.8-3.7zm1.1 3.7c2.4-1.9 4.8-3.8 7.1-5.8.2 1.5.4 2.9.6 4-.8.6-1.5 1.2-2.3 1.8h-5.4zm6 0c.6-.4 1.1-.9 1.7-1.4.1.6.2 1.1.2 1.4h-1.9zm3.6 0c-.6-4.9-3.1-24.7-3.7-29 4.9 3.1 10.8 6.6 15.4 8.9.3.2.7.1 1-.1.5-.3 8.7-5.9 15.6-11.1-.4 2.9-.8 5.8-1.1 8.3l-.1.1c-.1.1 0 .2.1.2-.4 2.9-3 18.8-3.6 22.7H88.2zm32.6 0h-4.9c1.9-.9 3.9-1.8 5.8-2.9-.4 1.2-.7 2.2-.9 2.9zm-5.3 0h-1.8c.1-.6.3-1.6.5-2.7 3.1-1.9 6.3-3.8 9.2-6.1-.6 1.9-1.1 3.7-1.6 5.3-2.1 1.1-4.2 2.4-6.3 3.5zm33.1-18.4c-.1 0-.1.1-.2.1-.2.1-.1.4.1.4-.1.9-.1 16.1-.1 17.9h-26c1.4-4.6 6.4-20 6.8-21.7l.5-.5c.2-.2-.1-.4-.3-.3l-.1.1c.6-2.1 1.2-4.3 1.9-6.3 2.2-6 4.5-11.9 4.5-11.9.1-.4.1-.8-.2-1.1l-5.9-5.7 2.1-1.9c1.9 1 7.3 3.7 11.6 5.4 3 1.2 7.6 3.2 10.9 4.7-1.3 2-3.3 6.6-4.4 11.2-.6 3.2-1 6.9-1.2 9.6zm4.8 18.4c3.4-1.8 6.8-3.6 9.9-5.8.1-.1 0-.2-.1-.1-3.6 1.8-7 4-10.4 6h-2.4v-2.2c4.1-2.5 8.4-4.9 12.2-7.8.1-.1 0-.2-.1-.2-4.2 2.1-8.2 5-12.1 7.6v-3.2c4.5-2.6 9-5.4 12.9-8.7.1-.1 0-.2-.1-.1-4.3 2.7-8.5 5.7-12.9 8.4V209c2.3-1.5 4.7-2.9 6.8-4.7.1-.1 0-.2-.1-.2-2.3 1.2-4.5 2.9-6.6 4.4v-4.2c.6-.3 1.3-.7 2-1.1 1.2-.9 3.2-2 4.4-2.9 1.9-1.4 3.7-2.8 5.5-4.2.2-.1-.1-.4-.2-.3-2.1 1.5-4.2 3.1-6.3 4.6-.9.7-3.7 2.4-5.4 3.5V202c3.5-2.6 6.8-5.4 10-8.2.2-.2-.1-.4-.3-.3-3.1 2.8-6.4 5.4-9.7 7.9 0-.7.1-1.6.2-2.4 3.4-2.7 6.7-5.4 10.1-8.1.2-.1-.1-.4-.2-.2-3.3 2.6-6.5 5.1-9.8 7.6l.3-2.4c.1 0 .1-.1.2-.1.1-.1 0-.3-.1-.3v-.1c3.1-2.6 6.1-5.3 9.1-7.9.1-.1-.1-.3-.2-.2-2.9 2.5-5.9 4.9-8.8 7.4.2-1.2.4-2.5.7-3.7 2.3-2 4.6-4.1 6.8-6.2.1-.1-.1-.3-.2-.2-2.2 1.8-4.3 3.7-6.4 5.6.2-.9.5-1.8.8-2.7.5-.4.9-.9 1.4-1.3 1.2-1.1 2.5-2.1 3.7-3.2.1-.1-.1-.3-.2-.2-1.2 1-2.4 1.9-3.6 2.9-.3.3-.7.5-1 .8.3-.9.6-1.7.9-2.4.7-.6 1.3-1.3 1.8-2.1 0-.1 0-.1-.1-.1-.5.4-.9.9-1.3 1.3.8-1.7 1.4-3 1.8-3.5.8.4 1.5.7 1.8.8.8 1.2 4.4 7.5 5.3 18.1-1.6 1.5-3.3 2.8-5 4.1h.2c.3 0 .9-.4 1.5-.9 1.4-1.1 2.1-1.5 3.3-2.8.1.6.1 1.2.1 1.8v15.4c-1.3.5-2.6 1.2-3.8 1.9l-6.3.2zm7 0c1-.5 2.1-1 3.1-1.5v1.5h-3.1zM79.1 168c-2.7 2.4-5.5 4.6-8 7.1-.1.1.1.4.2.2 2.8-2.2 5.4-4.8 8.1-7.2.1 0-.1-.2-.3-.1z" fill="#000000" stroke-width="none" opacity="1"></path></g><g id="svga-group-head" transform="matrix(1,0,0,1,0,0)"><g id="svga-group-ears-left-move" transform="matrix(1,0,0,1,0,0)"><g id="svga-group-ears-left" transform="matrix(1,0,0,1,0,0)"><path id="SvgjsPath23254" d="M64.7 84.7s-1.8-5-3.3-7.9-3.6-6.3-6.6-7.2-4 3.9-2.9 8.3 4.2 13.9 5 17.6 1.8 8.1 3.6 7.5 7.1-7.7 4.2-18.3z" fill="#ffffff" stroke-width="none" opacity="1"></path><path id="SvgjsPath23255" d="M59.1 103.6c-1.5-.8-2.3-3.8-3.2-8-.4-2.2-1.7-6.4-2.9-10.5-.8-2.7-1.6-5.3-2.1-7.1-.9-3.5-.5-7.1 1-8.6.8-.8 1.8-1 2.9-.7 3.3.9 5.5 4.4 7.2 7.6 1.6 2.9 3.3 7.8 3.4 8v.1c3.1 11.1-2.6 18.5-4.8 19.3-.2.1-.4.1-.6.1-.3.1-.6 0-.9-.2zm1.5-26.4c-1.6-2.9-3.4-6-6.1-6.7-.5-.1-.9 0-1.3.3-1.1 1.1-1.3 4-.6 6.9.5 1.8 1.2 4.3 2 7 1.2 4.1 2.5 8.4 3 10.6.8 4.1 1.6 6.4 2.3 6.8h.1c1.1-.4 6.6-6.8 3.8-17.2-.1-.4-1.8-5.1-3.2-7.7z" fill="#000000" stroke-width="none" opacity="1"></path><path id="SvgjsPath23256" d="M52.8 72.7c1.9-.8 3.6 1.4 4.8 3.3 1.6 2.5 2.6 5.5 2.9 8.6v.2c0 .2 0 .5.1.7 0 .2-.2.2-.2 0-.1-.4-.2-.9-.3-1.4 0 0-.1-.1-.1-.2-1.2-.6-1.8-.3-1.8.8 0 .7.2 1.5.3 2.2.3 1.2.9 2.3 1.3 3.5.1.2-.2.4-.3.2-.9-1.6-2.6-5.3-1.5-7.2.5-.9 1.3-.8 1.9-.2-.5-2-1.2-4.3-2.2-6.2-2.1 4.5-1 9.2.1 14.2 0 .2-.2.3-.3.1-1.4-4.6-2.7-10.7 0-14.5-1.2-2.2-2.8-3.9-4.7-3.8-.1.1-.2-.3 0-.3z" fill="#000000" stroke-width="none" opacity="1"></path></g></g><g id="svga-group-ears-right-move" transform="matrix(1,0,0,1,0,0)"><g id="svga-group-ears-right" transform="matrix(1,0,0,1,0,0)"><path id="SvgjsPath23257" d="M135.3 84.7s1.8-5 3.3-7.9 3.6-6.3 6.6-7.2 4 3.9 2.9 8.3-4.2 13.9-5 17.6c-.7 3.7-1.8 8.1-3.6 7.5s-7.1-7.7-4.2-18.3z" fill="#ffffff" stroke-width="none" opacity="1"></path><path id="SvgjsPath23258" d="M140 103.9c-.2 0-.4 0-.6-.1-2.2-.8-7.9-8.2-4.8-19.3v-.1c.1-.2 1.8-5.1 3.4-8 1.7-3.2 3.9-6.7 7.2-7.6 1.1-.3 2.2 0 2.9.7 1.5 1.5 1.9 5 1 8.6-.5 1.8-1.2 4.4-2.1 7.1-1.2 4.1-2.5 8.3-2.9 10.5-.8 4.2-1.7 7.2-3.2 8-.3.1-.6.2-.9.2zm-3.9-19c-2.9 10.4 2.6 16.8 3.8 17.2h.1c.7-.4 1.5-2.7 2.3-6.8.5-2.3 1.7-6.5 3-10.6.8-2.7 1.6-5.3 2-7 .8-2.9.5-5.9-.6-6.9-.3-.3-.8-.4-1.3-.3-2.7.7-4.6 3.9-6.1 6.7-1.3 2.6-3 7.3-3.2 7.7z" fill="#000000" stroke-width="none" opacity="1"></path><path id="SvgjsPath23259" d="M147.2 72.7c-1.9-.8-3.6 1.4-4.8 3.3-1.6 2.5-2.6 5.5-2.9 8.6v.2c0 .2 0 .5-.1.7 0 .2.2.2.2 0 .1-.4.2-.9.3-1.4.1-.1.1-.2.2-.3 1.2-.6 1.8-.3 1.8.8 0 .7-.2 1.5-.3 2.2-.3 1.2-.9 2.3-1.3 3.5-.1.2.2.4.3.2.9-1.6 2.6-5.3 1.5-7.2-.5-.9-1.3-.8-1.9-.2.5-2 1.2-4.3 2.2-6.2 2.1 4.5 1 9.2-.1 14.2 0 .2.2.3.3.1 1.4-4.6 2.7-10.7 0-14.5 1.2-2.2 2.8-3.9 4.7-3.8 0 .2.1-.2-.1-.2z" fill="#000000" stroke-width="none" opacity="1"></path></g></g><g id="svga-group-faceshape-wrap" transform="matrix(1,0,0,1,0,0)"><g id="svga-group-faceshape-single"><path id="SvgjsPath23288" d="M139.4 74.3s.2-8.5-1.2-16.1c-2-10.8-13.3-27.4-37.2-27.4S69.1 43.5 65.5 53c-3 8.1-3 21.3-3 21.3s-1.4 9.4-1 14.2-6.5 53.4 29 47.7c0 0 6 7.8 18 1.6 0 0 24.3 1.9 29.1-15.8s1.8-47.7 1.8-47.7z" fill="#ffffff" stroke-width="none" opacity="1"></path><path id="SvgjsPath23289" d="M99.8 141.5c-5.3 0-8.6-2.7-9.8-3.9-8.3 1.2-15-.5-19.9-4.9-11.3-10.1-10.4-31.7-10-40.9.1-1.5.1-2.8.1-3.2-.4-4.7.8-13.3 1-14.4 0-1.3.1-13.7 3.1-21.7 5.8-15.5 17.8-23 36.7-23 10.9 0 20.5 3.4 27.7 10 5.5 5 9.6 11.9 10.8 18.5 1.4 7.4 1.2 15.4 1.2 16.3.2 2.1 2.8 30.6-1.9 48.1-2.1 7.7-8 13.1-17.3 15.5-5.9 1.5-11.4 1.4-12.8 1.3-3.3 1.7-6.3 2.3-8.9 2.3zm-8.7-6.7.5.6c.2.3 5.6 6.8 16.3 1.3l.3-.2h.4c.2 0 23.3 1.6 27.8-14.9 4.6-17.3 1.8-46.9 1.8-47.2v-.2c0-.1.2-8.4-1.2-15.9-1.1-6-4.8-12.4-10-17-6.7-6.1-15.7-9.3-26-9.3-17.7 0-28.9 7-34.3 21.3-2.9 7.8-2.9 20.8-2.9 20.9v.2c0 .1-1.4 9.3-1 13.8.1.7 0 1.8-.1 3.6-.4 8.1-1.3 29.5 9.1 38.8 4.5 4 10.7 5.4 18.5 4.2h.8z" fill="#000000" stroke-width="none" opacity="1"></path></g></g><g id="svga-group-mouth-single-move" transform="matrix(1,0,0,1,0,0)"><g id="svga-group-mouth-single" transform="matrix(1,0,0,1,0,0)"><path id="SvgjsPath23239" d="M112.42 122.55c-.04-.01-.07-.03-.12-.02-2.46.58-3.17-3.32-4.09-4.73-.67-1.01-1.54-1.9-2.7-2.33-.79-.29-1.63-.35-2.45-.11-.54.16-.96.51-1.46.74-1.41.66-2.15.56-3.41-.1-5.77-3.01-7.22 5.68-11.64 7.19-.22.07-.66-.03-.94-.14-.38-.1-.35.36-.05.55.25.15.75.34.98.39 1.55.34 3.11.26 4.56-.19 1.08 4.03 6.58 3.09 9.69 2.99 2.66-.09 8.54.43 8.52-3.59 1.13.33 2.2.55 3.22-.2.21-.16.08-.47-.11-.45zm-12.31 3.79c-2.81.1-7.62.89-8.56-2.71a8.95 8.95 0 0 0 3.7-2.55v-.01c2.99 1.36 6.65 2.37 9.34.26 1.38.67 2.8 1.25 4.27 1.71.14 3.91-6.22 3.21-8.75 3.3zm9.14-3.54c-.06-.02-.11-.02-.21-.05-1.51-.43-3.06-1.24-4.07-1.74.16-.15.33-.31.48-.49.19-.23-.13-.55-.33-.33-2.77 3.21-7.03 1.76-10.25.2-.27-.13-.5.27-.23.4.05.03.11.05.16.08-2.02 2.27-4.97 3.26-7.9 2.7 2.1-.74 3.27-2.71 4.55-4.51 1.09-1.55 2.59-3.36 4.72-3.28 1.41.06 2.28 1.32 3.64 1.4 1.3.08 2.2-1.01 3.37-1.37 2.37-.72 4.24 1.37 5.2 3.24.72 1.41 1.29 3.54 2.86 3.94-.6.08-1.28 0-1.99-.19z" fill="#000000" stroke-width="none" opacity="1"></path></g></g><g id="svga-group-eyes-left-move" transform="matrix(1,0,0,1,0,0)"><g id="svga-group-eyes-left" transform="matrix(1,0,0,1,0,0)"><g id="svga-group-eyesback-left"></g><g id="svga-group-eyesiriswrapper-left"><g id="svga-group-eyesiriscontrol-left" transform="matrix(1,0,0,1,0,0)"><g id="svga-group-eyesiris-left" transform="matrix(1,0,0,1,0,0)"><path id="SvgjsPath23302" d="M77.1 84.1c-1.4 1.8-1.2 4.1.4 5.5 1.7 1.5 4.5 1.9 6.5.1 1-1 1.7-2.1 1.4-3.4-.1-.4-.6-2.8-1.9-3.5-2.3-1.3-4.7-.8-6.4 1.3z" fill="#ffffff" stroke-width="none" opacity="1"></path><path id="SvgjsPath23303" d="M80.9 91.2c-1.3 0-2.7-.5-3.6-1.4-1.7-1.5-1.8-4.1-.4-5.9 1.7-2.2 4.3-2.7 6.7-1.4 1.2.7 1.8 2.6 2.1 3.7.3 1.2-.2 2.4-1.5 3.7-1 .9-2.2 1.3-3.3 1.3zm-3.6-6.9c-1.3 1.6-1.1 3.8.3 5.1 1.6 1.4 4.2 1.8 6.1.1 1.1-1.1 1.6-2.1 1.3-3.1-.4-1.7-1-2.9-1.8-3.3-2.1-1.3-4.3-.8-5.9 1.2zm3.6 5.7c-1 0-2-.4-2.7-1.1-1.3-1.2-1.4-3.1-.3-4.5 1.3-1.7 3.2-2.1 5-1 .9.5 1.4 2 1.6 2.8.2.9-.2 1.9-1.1 2.8-.7.7-1.6 1-2.5 1zm-2.6-5.1c-.9 1.2-.8 2.7.2 3.7 1.1 1 3.1 1.3 4.4.1.8-.8 1.1-1.5 1-2.2-.3-1.2-.8-2.1-1.3-2.4-1.5-1-3.1-.7-4.3.8zm4.5 1.2c0-.2-.1-.4-.2-.6-.4-.7-1.2-1-1.9-.9.1.2.2.4.2.6 0 .1 0 .3-.1.4 0 .1-.1.2-.2.3-.2.2-.4.3-.7.3-.3 0-.5-.1-.7-.3-.1-.1-.1-.1-.1-.2-.1.2-.2.4-.2.7 0 .2.1.5.2.7 0 .1.1.3.2.4.5.8 1.5 1 2.3.6h.1c-.2-.3 0-.8.4-.8.2 0 .3.1.4.2.1-.1.1-.1.1-.2.4-.3.4-.8.2-1.2zm.8.8c0-.6-.2-1.8-.8-2.3-1.2-1-2.7-1-3.9.1-1 .9-1.2 2.3-.4 3.4.5.7 1.5 1.2 2.4 1.2.5 0 1-.1 1.4-.4.9-.7 1.4-1.3 1.3-2zm-1 1.2c-.1.2-.2.3-.4.3-1.2.8-2.6.2-3.3-.7-.6-.7-.5-1.7 0-2.4v-.1c0-.1 0-.3.1-.4 0-.1.1-.2.2-.3.2-.2.4-.3.7-.3.2 0 .3 0 .4.1.8-.2 1.6 0 2.2.5.4.3.6 1 .6 2 .1.5-.1.9-.5 1.3z" fill="#000000" stroke-width="none" opacity="1"></path></g></g></g><g id="svga-group-eyesfront-left"><path id="SvgjsPath23350" d="M81 74.4c-6.9 0-12.5 5.6-12.5 12.5S74.1 99.4 81 99.4s12.5-5.6 12.5-12.5S87.9 74.4 81 74.4zm3 15.4c-4.9.6-11.7-1-13.2-1.6s-2.6-2.4 1.2-3.8 7.3-1.5 12.7-.3 7.3 3.4 7.3 3.4c-.2.3-3 1.7-8 2.3z" fill="#ffffff" stroke-width="none" opacity="1"></path><path id="SvgjsPath23351" d="M92.7 87.5c.2-.3.3-.6.3-.8.1-1.2-.8-2.5-2.5-3.7-3.5-2.4-9.6-3.8-14.7-1.2-.2.1-.3.4-.2.6.1.2.4.3.6.2 4.8-2.4 10.6-1.1 13.8 1.1 1.4 1 2.3 2.1 2.2 2.9 0 .1 0 .2-.1.3-1.3-1.1-4.1-2.9-9.7-3.9-1.9-.4-3.8-.4-5.4-.2h-.1l-7.3-.5c-.2 0-.4.2-.5.4 0 .2.2.4.4.5l4.3.3c-.7.2-1.3.4-1.8.7h-.2l-4 .2c-.2 0-.4.2-.4.4s.2.4.4.4l2.5-.1c-.4.3-.6.5-.9.8-.4 0-1.5.1-4.4.3-.2 0-.4.2-.4.5 0 .2.2.4.4.4 1.4-.1 3-.3 3.8-.3-.1.4-.1.9.2 1.2l-2.6.1c-.2 0-.4.2-.4.4s.2.4.4.4l3.5-.1c.1 0 .2 0 .3-.1 2 .9 6.2 1.7 10.7 1.7 3.3 0 6.8-.4 9.8-1.6-.3.4-.7.7-1.2 1.1-1 .7-2.2 1.1-3.2 1.7-.2.1-.1.4.2.4 2-.5 4.7-1.6 5.7-3.6.1.2.4.2.6.1s.2-.4.1-.6c0-.2 0-.3-.2-.4zm-22.8-.2c-.1-.1-.2-.3.1-.8 1-1.6 5.9-3.8 12.3-2.7 5.3 1 8.1 2.7 9.3 3.7-.1.1-.3.2-.5.2-7.9 3.4-20 1.1-21.2-.4z" fill="#000000" stroke-width="none" opacity="1"></path></g></g></g><g id="svga-group-eyes-right-move" transform="matrix(1,0,0,1,0,0)"><g id="svga-group-eyes-right" transform="matrix(1,0,0,1,0,0)"><g id="svga-group-eyesback-right"></g><g id="svga-group-eyesiriswrapper-right"><g id="svga-group-eyesiriscontrol-right" transform="matrix(1,0,0,1,0,0)"><g id="svga-group-eyesiris-right" transform="matrix(1,0,0,1,0,0)"><path id="SvgjsPath23304" d="M115.5 84.1c-1.4 1.8-1.2 4.1.4 5.5 1.7 1.5 4.5 1.9 6.5.1 1-1 1.7-2.1 1.4-3.4-.1-.4-.6-2.8-1.9-3.5-2.3-1.3-4.7-.8-6.4 1.3z" fill="#ffffff" stroke-width="none" opacity="1"></path><path id="SvgjsPath23305" d="M119.3 91.2c-1.3 0-2.7-.5-3.6-1.4-1.7-1.5-1.8-4.1-.4-5.9 1.7-2.2 4.3-2.7 6.7-1.4 1.2.7 1.8 2.6 2.1 3.7.3 1.2-.2 2.4-1.5 3.7-1 .9-2.2 1.3-3.3 1.3zm-3.5-6.9c-1.3 1.6-1.1 3.8.3 5.1 1.6 1.4 4.2 1.8 6.1.1 1.1-1.1 1.6-2.1 1.3-3.1-.4-1.7-1-2.9-1.8-3.3-2.2-1.3-4.4-.8-5.9 1.2zm3.5 5.7c-1 0-2-.4-2.7-1.1-1.3-1.2-1.4-3.1-.3-4.5 1.3-1.7 3.2-2.1 5-1 .9.5 1.4 2 1.6 2.8.2.9-.2 1.9-1.1 2.8-.7.7-1.6 1-2.5 1zm-2.6-5.1c-.9 1.2-.8 2.7.2 3.7 1.1 1 3.1 1.3 4.4.1.8-.8 1.1-1.5 1-2.2-.3-1.2-.8-2.1-1.3-2.4-1.5-1-3.1-.7-4.3.8zm4.5 1.2c0-.2-.1-.4-.2-.6-.4-.7-1.2-1-1.9-.9.1.2.2.4.2.6 0 .1 0 .3-.1.4 0 .1-.1.2-.2.3-.2.2-.4.3-.7.3-.3 0-.5-.1-.7-.3-.1-.1-.1-.1-.1-.2-.1.2-.2.4-.2.7 0 .2.1.5.2.7 0 .1.1.3.2.4.5.8 1.5 1 2.3.6h.1c-.2-.3 0-.8.4-.8.2 0 .3.1.4.2.1-.1.1-.1.1-.2.4-.3.4-.8.2-1.2zm.8.8c0-.6-.2-1.8-.8-2.3-1.2-1-2.7-1-3.9.1-1 .9-1.2 2.3-.4 3.4.5.7 1.5 1.2 2.4 1.2.5 0 1-.1 1.4-.4 1-.7 1.4-1.3 1.3-2zm-1 1.2c-.1.2-.2.3-.4.3-1.2.8-2.6.2-3.3-.7-.6-.7-.5-1.7 0-2.4v-.1c0-.1 0-.3.1-.4 0-.1.1-.2.2-.3.2-.2.4-.3.7-.3.2 0 .3 0 .4.1.8-.2 1.6 0 2.2.5.4.3.6 1 .6 2 .1.5-.1.9-.5 1.3z" fill="#000000" stroke-width="none" opacity="1"></path></g></g></g><g id="svga-group-eyesfront-right"><path id="SvgjsPath23352" d="M119 74.4c-6.9 0-12.5 5.6-12.5 12.5s5.6 12.5 12.5 12.5 12.5-5.6 12.5-12.5-5.6-12.5-12.5-12.5zm9.9 13.9c-1.5.6-8.3 2.2-13.2 1.6-4.9-.6-7.8-2-8-2.3 0 0 1.9-2.2 7.3-3.4s8.9-1.1 12.7.3c3.8 1.4 2.8 3.2 1.2 3.8z" fill="#ffffff" stroke-width="none" opacity="1"></path><path id="SvgjsPath23355" d="M134.7 86c-2.9-.3-4-.3-4.4-.3-.2-.3-.5-.5-.9-.8l2.5.1c.2 0 .4-.2.4-.4s-.2-.4-.4-.4l-4-.2h-.2c-.5-.2-1.1-.5-1.8-.7l4.3-.3c.2 0 .4-.2.4-.5 0-.2-.2-.4-.5-.4l-7.3.5h-.1c-1.7-.2-3.5-.1-5.4.2-1 .2-1.9.4-2.7.6-.2-.3-.3-.6-.5-.8-.2-.3-.3-.6-.4-.9.7-.2 1.5-.4 2.3-.5 0 .6.1 1.2.5 1.6.1.1.3 0 .3-.1 0-.5-.2-1-.4-1.5 2.3-.2 4.8.1 7.1 1.2.2.1.5 0 .6-.2s0-.5-.2-.6c-5.1-2.6-11.2-1.2-14.7 1.2-1.7 1.2-2.7 2.5-2.5 3.7 0 .2.1.5.3.8l-.2.2c-.1.2-.1.5.1.6s.5.1.6-.1l.1-.1c.2.2.5.3.8.4 3 1.3 6.8 1.8 10.3 1.8 4.5 0 8.7-.8 10.7-1.7.1.1.2.1.3.1l3.5.1c.2 0 .4-.2.4-.4s-.2-.4-.4-.4l-2.6-.1c.3-.4.3-.8.2-1.2.8.1 2.4.2 3.8.3.2 0 .4-.2.4-.4.1-.1-.1-.3-.3-.4zm-21.4-4.1c.1.6.3 1.3.8 1.8-.4.1-.8.3-1.2.4-.1-.2-.3-.4-.4-.6-.2-.4-.3-.7-.5-1.1.4-.1.9-.3 1.3-.5zm-1.6.7c.1.6.3 1.3.6 1.8-.4.1-.8.3-1.1.4l-.3-.6c-.2-.3-.3-.7-.4-1 .3-.2.7-.4 1.2-.6zm-1.9 1c.1 0 .1-.1.2-.1.1.5.3 1.1.6 1.6-.3.2-.7.3-1 .5 0-.1-.1-.2-.1-.3-.1-.4-.3-.7-.4-1.1.2-.2.4-.4.7-.6zm-1.1.9c0 .3.1.6.2.9.1.1.1.3.2.5-.2.1-.3.2-.5.3-.1-.1-.2-.2-.2-.3-.1-.2-.2-.5-.3-.7.2-.3.4-.5.6-.7zm-1 2.4c0-.1-.1-.2-.1-.3 0-.3.1-.6.2-.9.1.3.2.6.4.8-.2.1-.4.2-.5.4zm22.1.4c-1.2 1.5-13.2 3.8-21.1.5-.2-.1-.3-.2-.5-.2 1.2-1 3.9-2.7 9.3-3.7 6.4-1.1 11.3 1.1 12.3 2.7.3.4.1.6 0 .7z" fill="#000000" stroke-width="none" opacity="1"></path></g></g></g><g id="svga-group-facehighlight-single"></g><g id="svga-group-eyebrows-left-move" transform="matrix(1,0,0,1,0,0)"><g id="svga-group-eyebrows-left-rotate" transform="matrix(1,0,0,1,0,0)"><g id="svga-group-eyebrows-left" transform="matrix(1,0,0,1,0,0)"><path id="SvgjsPath23396" d="M67.91 80.49c.74-.79 7.31-7.74 9.7-8.5 2.59-.84 13.23 3.48 14.66 5.16.65.76.77 1.59.35 2.25-.3.48-.86.82-1.49.93-.28.05-.56.05-.85.01-.83-.13-2.77-1.44-5.88-3.6-1.62-1.13-3.15-2.19-3.81-2.51-1.38-.67-2.63-.83-3.44-.44-1.32.64-6.59 5.53-8.5 7.36-.2.19-.51.2-.71.01a.466.466 0 0 1-.03-.67z" fill="#000000" stroke-width="none" opacity="1"></path></g></g></g><g id="svga-group-eyebrows-right-move" transform="matrix(1,0,0,1,0,0)"><g id="svga-group-eyebrows-right-rotate" transform="matrix(1,0,0,1,0,0)"><g id="svga-group-eyebrows-right" transform="matrix(1,0,0,1,0,0)"><path id="SvgjsPath23397" d="M132.07 80.55c-.74-.79-7.27-7.78-9.66-8.55-2.59-.85-13.25 3.41-14.68 5.08-.65.76-.78 1.58-.36 2.25.3.49.86.82 1.49.93.28.05.56.06.85.02.83-.12 2.78-1.43 5.9-3.57 1.63-1.12 3.16-2.17 3.82-2.49 1.39-.66 2.64-.82 3.45-.42 1.32.65 6.56 5.56 8.47 7.4.2.19.51.2.71.02.18-.17.19-.47.01-.67z" fill="#000000" stroke-width="none" opacity="1"></path></g></g></g><g id="svga-group-nose-single-move" transform="matrix(1,0,0,1,0,0)"><g id="svga-group-nose-single" transform="matrix(1,0,0,1,0,0)"><path id="SvgjsPath23386" d="M96.5 90.5c-1.9 4.4-3.5 8.8-4.7 13.5-.4 1.6-.7 3.4.9 4.4.7.4 1.4.3 2.2.4 1.4.1 2.1 1.1 3.1 1.9 1.1 1 2.4 1.4 3.7.5.7-.5 1.2-1.4 1.9-1.9.9-.6 2-.4 2.8-1 2.9-2 .3-6.1-1.1-8.2-.4-.5-1.2 0-.8.5.8 1.1 1.5 2.3 2 3.5.3.7.4 1.5.2 2.3-.4 1.2-1.4 1.4-2.4 1.6-1.2.3-1.8 1.1-2.7 2-1.8 1.8-3.1-.5-4.5-1.6-.4-.3-.8-.5-1.4-.6-.8-.1-1.7.1-2.4-.3-1.2-.8-.7-2.3-.5-3.4.2-.9.4-1.8.7-2.7 1-3.6 2.4-7.1 3.9-10.5.1-.5-.7-1-.9-.4z" fill="#000000" stroke-width="none" opacity="1"></path></g></g><g id="svga-group-hair-front" transform="matrix(1,0,0,1,0,0)"><path id="SvgjsPath23435" d="M100.8 46.7S85.5 41.2 82.5 42 71 66.6 70.5 73.2s-1.4 34.2-.6 42.7 6.8 34.7 6.8 34.7-6.3-9.9-7.9-15.1c0 0 .8 9.3 2.2 12.9 0 0-8.5-2.2-10.9-3 0 0-3-12.3-4.4-21.6 0 0 .5 13.7.8 18.3 0 0-3.3-11.5-3.3-30.1s3.3-46.2 7.7-59.4 13.1-23 16.4-25.4 22.2 1.1 22.2 1.1 12.3-3.3 17-3.3 19.7 16.7 22.4 20.5c2.7 3.8 5.5 30.1 5.5 39.4s-1.6 51.2 0 60.5l-4.1-14.5-3 18.3-1.1-17.8-1.9 18.1-6.6 1.1s3.3-23.8 3.8-43.2c.6-19.4-3-46.8-3.8-53.3s-10.7-14.2-12-14.2-14.9 6.8-14.9 6.8z" fill="#ffffff" stroke-width="none" opacity="1"></path><path id="SvgjsPath23436" d="M145 97.5c.1-5.7.2-10.1.2-12.5 0-9-2.7-35.8-5.7-40-1.7-2.4-17.6-20.9-23.2-20.9-4.4 0-15.3 2.8-17 3.3-3.7-.7-19.3-3.4-22.7-.9S64.3 39 59.9 52.4c-4.6 13.8-7.7 42-7.7 59.7 0 18.5 3.2 29.9 3.3 30.4.1.5.6.8 1.1.7.5-.1.9-.5.8-1-.1-1.1-.1-2.6-.2-4.4 1 4.5 1.8 7.9 1.8 7.9.1.3.3.6.7.7 2.5.8 10.7 2.9 11 3 .4.1.8 0 1-.3s.3-.7.2-1c-.5-1.4-1-3.7-1.3-6 2.3 4.5 5.1 8.9 5.3 9.1.2.3.5.5.8.5.1 0 .3 0 .4-.1.4-.2.7-.7.6-1.1-.1-.3-6-26.3-6.8-34.6-.8-8.3 0-35.7.6-42.5.5-6.9 8.8-29.3 11.2-30.4 2-.5 11.9 2.5 17.7 4.6.3.1.5.1.8 0 6.1-3.1 13.1-6.5 14.3-6.7 1.6.5 10.3 7.5 11.1 13.3l.1.8c2.8 22.4 4.1 40 3.7 52.4-.5 19.2-3.8 42.9-3.8 43.1 0 .3.1.6.3.9.2.2.6.3.9.3l6.6-1.1c.4-.1.8-.4.8-.9l.7-6.2.4 5.9c0 .5.4.9.9.9s1-.3 1-.8l2.3-13.9 2.9 10.2c.1.5.7.8 1.2.7.5-.1.9-.6.8-1.1-1.4-7-.8-31.6-.4-47.9zm-2-.1c-.3 11.7-.7 27.8-.4 38.5l-1.5-5.3c-.1-.4-.5-.8-1-.7-.5 0-.9.4-.9.8l-1.6 9.6-.6-8.9c0-.5-.5-.9-1-.9s-.9.4-1 .9l-1.8 17.3-4.5.8c.7-5.3 3.2-25.4 3.7-42 .4-12.5-.9-30.2-3.7-52.7l-.1-.8c-.9-6.8-10.8-15.1-13-15.1-1.4 0-9.7 4.1-14.8 6.8-3.3-1.2-15.5-5.3-18.5-4.5C78.4 42.3 70 67 69.5 73.3c-.7 6.7-1.5 34.2-.7 42.7.6 6 3.7 20.6 5.5 28.8-1.8-3.1-3.8-7-4.7-9.6-.2-.5-.7-.8-1.2-.7s-.8.6-.8 1.1c0 .3.6 7.1 1.7 11.4-2.4-.6-6.6-1.7-8.6-2.4-.6-2.5-3-12.9-4.2-21-.1-.5-.5-.9-1.1-.8-.5.1-.9.5-.9 1v.1c-.3-3.5-.5-7.5-.5-11.9 0-19.6 3.5-46.7 7.6-59 4.3-12.9 12.8-22.5 16.1-25 2.1-1.6 14.2-.1 21.4 1.3h.4c.1 0 12.2-3.2 16.7-3.2.6 0 1.5.4 2.6 1.1-5.2-.5-11.1 2.7-15.8 4.7-.7.3-.1 1.4.6 1.1 5.2-2.2 12.3-6.3 17.8-3.8 5.8 4.8 14 13.7 16.4 17 2.5 3.5 5.3 29.5 5.3 38.8.2 2.3 0 6.8-.1 12.4zM99.9 31.8v10.9c0 .8 1.2.8 1.2 0V31.8c.1-.8-1.2-.8-1.2 0zM98 41.5c-4.9-1.2-10.1-2.6-15.2-3-3.2-.3-5 .6-6.7 3.3-5.3 8-6.1 19.5-7.9 28.7-4.1 20.9-6.3 42.5-.4 63.3.2.8 1.4.4 1.2-.3-5.1-18-4.1-36.7-1-54.9 1.4-8.4 3.1-16.9 5.1-25.2 1.5-6.2 2.9-13.5 11.5-13.3 4.3.1 9 1.7 13.2 2.7.6.1 1-1.1.2-1.3zm26.6-2.3c-2.3-2.1-4.9-3.9-8.1-3.4-4.4.7-9.1 3.1-13.2 4.9-.7.3-.1 1.4.6 1.1 4.4-1.9 12-6.3 17-3.8 3.7 1.8 6.4 5.9 8.1 9.5 4.1 8.4 4.4 18.4 5.2 27.5 1.6 17.9 1.9 35.9 1.1 53.9 0 .8 1.2.8 1.2 0 1-22.3.5-45-2.6-67.2-.8-8.2-3-16.8-9.3-22.5zM64.5 77.9c1.1-9.5 2.6-19.2 5.7-28.3 1.8-5.3 3.9-13.2 10.6-14.2 5.1-.7 11.3 1.2 16.2 2.3.8.2 1.1-1 .3-1.2-7.1-1.5-18.4-5.5-23.5 1.7-5.9 8.3-7.7 20.4-9.2 30.1-3.6 22.7-3.5 45.8.1 68.4.1.8 1.3.5 1.2-.3-3.1-19.3-3.6-39-1.4-58.5zm61.3-42.7c-6.6-4.1-14.7-4.9-21.2-.2-.7.5 0 1.5.6 1.1 8.6-6.2 19.2-2 25.9 5 6.6 6.9 6.8 17.3 7.5 26.2 1.5 17.4 2 34.8 1.6 52.3 0 .8 1.2.8 1.2 0 .3-11.3.2-22.6-.4-33.9-.5-10.6-.9-21.6-2.9-32.1-1.4-8-5.3-14.1-12.3-18.4zm-55.5 6.2c2.2-3.2 4.8-7.9 8.3-9.9 4.5-2.6 11.8.5 16.4 1.9.8.2 1.1-1 .3-1.2-6.9-2.1-14.5-5.4-20.1.6-5.7 6.2-10.4 14-12.6 22.2-2.4 9-3.2 18.8-4.2 28.1-1.2 11.1-1.9 22.3-1.2 33.5 0 .8 1.3.8 1.2 0-1.1-17.6.9-35.5 3.6-52.9 1.4-8.2 3.8-15.5 8.3-22.3z" fill="#000000" stroke-width="none" opacity="1"></path></g><g id="svga-group-glasses-single-move" transform="matrix(1,0,0,1,0,0)"><g id="svga-group-glasses-single" transform="matrix(1,0,0,1,0,0)"></g></g></g></g></g><rect id="svga-credit-rect" width="200" height="15" x="0" y="185" fill="#ecf0f1" opacity="0.5" style="display: none;"></rect><text id="svga-credit-text" font-family="Avenir Next, Roboto, Helvetica, Arial, sans-serif" font-size="10px" text-anchor="start" font-weight="400" size="10px" anchor="start" weight="400" fill="#333333" x="34.1171875" y="182.5078125" style="display: none;"><tspan id="SvgjsTspan22790" dy="13" x="34.1171875">Created on AvatarMaker.com</tspan></text></g></svg>